<?xml version="1.0" standalone="no"?>
<!DOCTYPE svg PUBLIC "-//W3C//DTD SVG 1.1//EN" "http://www.w3.org/Graphics/SVG/1.1/DTD/svg11.dtd" >
<svg>
<metadata>
Created by FontForge 20090622 at Thu Sep 19 12:28:06 2019
 By deploy user
Copyright (c) 2015 by Eduardo Manso. All rights reserved.
</metadata>
<defs>
<font id="Camber-Lg" horiz-adv-x="552" >
  <font-face 
    font-family="Camber-Lg"
    font-weight="400"
    font-stretch="normal"
    units-per-em="1000"
    panose-1="0 0 0 0 0 0 0 0 0 0"
    ascent="793"
    descent="-207"
    x-height="525"
    cap-height="700"
    bbox="-171 -208 1458 941"
    underline-thickness="12"
    underline-position="-78"
    unicode-range="U+000D-U+FF19"
  />
<missing-glyph horiz-adv-x="869" 
d="M678 94q-105 -102 -249 -102t-246 102q-103 101 -103 247q0 144 103 247q102 102 246 102q147 0 249 -102q103 -103 103 -247t-103 -247zM655 116q95 97 95 225q0 130 -95 225q-94 94 -226 94q-130 0 -224 -94q-95 -94 -95 -225t95 -225q95 -93 224 -93q131 0 226 93z
M560 190l-129 130l-130 -129l-21 21l129 129l-129 130l21 22l130 -131l130 131l22 -22l-131 -130l130 -130z" />
    <glyph glyph-name="fi" unicode="fi" horiz-adv-x="566" 
d="M483 640h-63v90h63v-90zM315 477h-148v-477h-60v477h-77v48h77v25q0 80 44 130t142 50h42v-50h-43q-125 0 -125 -128v-27h148v-48zM481 0h-60v525h60v-525z" />
    <glyph glyph-name="fl" unicode="fl" horiz-adv-x="566" 
d="M481 0h-60v730h60v-730zM315 477h-148v-477h-60v477h-77v48h77v25q0 80 44 130t142 50h42v-50h-43q-125 0 -125 -128v-27h148v-48z" />
    <glyph glyph-name=".notdef" horiz-adv-x="869" 
d="M678 94q-105 -102 -249 -102t-246 102q-103 101 -103 247q0 144 103 247q102 102 246 102q147 0 249 -102q103 -103 103 -247t-103 -247zM655 116q95 97 95 225q0 130 -95 225q-94 94 -226 94q-130 0 -224 -94q-95 -94 -95 -225t95 -225q95 -93 224 -93q131 0 226 93z
M560 190l-129 130l-130 -129l-21 21l129 129l-129 130l21 22l130 -131l130 131l22 -22l-131 -130l130 -130z" />
    <glyph glyph-name=".null" horiz-adv-x="0" 
 />
    <glyph glyph-name="nonmarkingreturn" horiz-adv-x="333" 
 />
    <glyph glyph-name="CR" unicode="&#xd;" horiz-adv-x="0" 
 />
    <glyph glyph-name="space" unicode=" " horiz-adv-x="225" 
 />
    <glyph glyph-name="exclam" unicode="!" horiz-adv-x="252" 
d="M158 700v-115l-7 -426h-50q-7 299 -7 426v115h64zM159 0h-66v78h66v-78z" />
    <glyph glyph-name="quotedbl" unicode="&#x22;" horiz-adv-x="338" 
d="M268 700l-10 -182h-42l-9 182h61zM132 700l-10 -182h-42l-10 182h62z" />
    <glyph glyph-name="numbersign" unicode="#" horiz-adv-x="620" 
d="M393 247l32 206h-196l-33 -206h197zM354 0l31 197h-197l-31 -197h-52l31 197h-90v50h98l32 206h-90v51h98l31 196h52l-31 -196h197l31 196h52l-31 -196h89v-51h-97l-32 -206h89v-50h-97l-31 -197h-52z" />
    <glyph glyph-name="dollar" unicode="$" horiz-adv-x="591" 
d="M318 -99h-57v90q-205 14 -205 173v10h62v-9q0 -58 42 -91.5t148 -33.5q82 0 123 40.5t41 113.5q0 96 -104 121l-147 36q-81 19 -119 59.5t-38 111.5q0 80 49 131t148 57v87h57v-87q206 -11 206 -188v-11h-62v10q0 66 -39 103t-134 37q-164 0 -164 -134q0 -49 26.5 -76
t87.5 -42l150 -37q65 -16 105.5 -58t40.5 -114q0 -97 -53 -152.5t-164 -58.5v-88z" />
    <glyph glyph-name="percent" unicode="%" horiz-adv-x="755" 
d="M298 582v-114q0 -50 -30 -87t-93 -37t-92.5 36.5t-29.5 87.5v114q0 51 29.5 87.5t92.5 36.5t93 -37t30 -87zM622 700l-433 -700h-57l433 700h57zM247 470v110q0 34 -17 58.5t-55 24.5q-37 0 -54.5 -24.5t-17.5 -58.5v-110q0 -33 17.5 -57.5t54.5 -24.5q38 0 55 24t17 58z
M703 232v-114q0 -50 -30 -87t-93 -37t-92.5 36.5t-29.5 87.5v114q0 51 29.5 87.5t92.5 36.5t93 -37t30 -87zM652 120v110q0 34 -17 58.5t-55 24.5q-37 0 -54.5 -24.5t-17.5 -58.5v-110q0 -33 17.5 -57.5t54.5 -24.5q38 0 55 24t17 58z" />
    <glyph glyph-name="ampersand" unicode="&#x26;" horiz-adv-x="662" 
d="M192 562q0 -36 19 -68t55 -72q33 19 45.5 27.5t37 29t34.5 43t10 50.5q0 38 -26 65.5t-73 27.5q-49 0 -75.5 -30.5t-26.5 -72.5zM301 40q118 0 176 62l-230 257q-30 -18 -49 -32t-40.5 -35.5t-32.5 -48.5t-11 -58q0 -66 48 -105.5t139 -39.5zM569 0l-56 63
q-76 -74 -214 -74q-123 0 -185.5 52.5t-62.5 140.5q0 40 13.5 73.5t42 61t49.5 42.5t58 38q-78 90 -78 161q0 61 41.5 107t117.5 46q72 0 112 -40.5t40 -97.5q0 -44 -23 -81.5t-49 -58t-74 -50.5l212 -235q27 57 27 140v49h55v-52q0 -108 -45 -179l81 -90v-16h-62z" />
    <glyph glyph-name="quotesingle" unicode="'" horiz-adv-x="202" 
d="M132 700l-10 -182h-42l-10 182h62z" />
    <glyph glyph-name="parenleft" unicode="(" horiz-adv-x="346" 
d="M87 49v534q0 82 44.5 131t145.5 49h32v-54h-29q-131 0 -131 -129v-528q0 -129 131 -129h29v-54h-32q-101 0 -145.5 49t-44.5 131z" />
    <glyph glyph-name="parenright" unicode=")" horiz-adv-x="346" 
d="M259 583v-534q0 -82 -44.5 -131t-145.5 -49h-32v54h29q131 0 131 129v528q0 129 -131 129h-29v54h32q101 0 145.5 -49t44.5 -131z" />
    <glyph glyph-name="asterisk" unicode="*" horiz-adv-x="483" 
d="M270 345v-21h-56v21l12 140l-115 -80l-18 -11l-28 49l19 11l125 58l-124 59l-20 11l27 49l21 -12l113 -78l-12 136v23h56v-23l-11 -135l112 77l20 12l28 -49l-20 -11l-124 -59l125 -58l18 -11l-28 -49l-18 11l-113 79z" />
    <glyph glyph-name="plus" unicode="+" horiz-adv-x="520" 
d="M232 126v179h-178v52h178v180h54v-180h180v-52h-180v-179h-54z" />
    <glyph glyph-name="comma" unicode="," horiz-adv-x="217" 
d="M145 78v-16l-52 -170h-45l32 186h65z" />
    <glyph glyph-name="hyphen" unicode="-" horiz-adv-x="419" 
d="M77 340h265v-57h-265v57z" />
    <glyph glyph-name="period" unicode="." horiz-adv-x="212" 
d="M139 0h-66v78h66v-78z" />
    <glyph glyph-name="slash" unicode="/" horiz-adv-x="514" 
d="M492 758l-410 -884h-59l409 884h60z" />
    <glyph glyph-name="zero" unicode="0" horiz-adv-x="615" 
d="M307 711q63 0 109.5 -20t72.5 -54t38 -73t12 -83v-262q0 -44 -12 -83t-38 -73t-72.5 -54t-109.5 -20q-62 0 -108.5 20t-72.5 54t-38 73t-12 83v262q0 95 56 162.5t175 67.5zM478 222v256q0 74 -41.5 126t-129.5 52q-87 0 -128.5 -52t-41.5 -126v-256q0 -74 41.5 -126
t128.5 -52q88 0 129.5 52t41.5 126z" />
    <glyph glyph-name="one" unicode="1" horiz-adv-x="565" 
d="M58 670l222 37h51v-653h212v-54h-485v54h211v591l-211 -32v57z" />
    <glyph glyph-name="two" unicode="2" horiz-adv-x="595" 
d="M466 519q0 137 -169 137q-171 0 -171 -149v-17h-60v19q0 88 55 145t177 57q230 0 230 -192q0 -37 -10.5 -68.5t-23.5 -50t-34.5 -35.5t-33 -23t-29.5 -14l-175 -81q-43 -19 -65 -46t-22 -82v-65h400v-54h-462v124q0 51 19 87.5t39.5 52t51.5 30.5l189 87q17 8 28 15
t29 23.5t27.5 41.5t9.5 58z" />
    <glyph glyph-name="three" unicode="3" horiz-adv-x="592" 
d="M294 -11q-124 0 -177.5 52.5t-53.5 134.5v19h60v-16q0 -137 170 -137q95 0 133 44t38 120q0 69 -42.5 104t-105.5 35h-113v49h116q54 0 92.5 33.5t38.5 96.5q0 134 -160 134q-159 0 -159 -136v-15h-61v18q0 81 52 133.5t169 52.5q119 0 169.5 -51.5t50.5 -131.5
q0 -112 -98 -157q48 -17 81 -59t33 -108q0 -215 -233 -215z" />
    <glyph glyph-name="four" unicode="4" horiz-adv-x="608" 
d="M266 700l-160 -425h341v425h61v-700h-61v217h-407v53l164 430h62z" />
    <glyph glyph-name="five" unicode="5" horiz-adv-x="579" 
d="M86 363v337h396v-54h-333v-228h147q231 0 231 -205q0 -101 -53.5 -162.5t-178.5 -61.5t-178.5 52.5t-53.5 134.5v17h61v-14q0 -135 170 -135q94 0 132.5 45.5t38.5 124.5q0 44 -14 74.5t-40 46t-55 22t-66 6.5h-204z" />
    <glyph glyph-name="six" unicode="6" horiz-adv-x="603" 
d="M309 -11q-65 0 -111.5 18t-72 50t-36.5 69t-11 82v267q0 45 12.5 85.5t38.5 75t72 55t107 20.5q115 0 168.5 -53t53.5 -126v-23h-61v22q0 53 -40 90.5t-120 37.5q-85 0 -127.5 -51t-42.5 -126v-153q49 91 180 91q118 0 170 -59.5t52 -153.5q0 -45 -11 -81.5t-36 -68.5
t-72 -50t-113 -18zM309 40q170 0 170 164t-170 164t-170 -164t170 -164z" />
    <glyph glyph-name="seven" unicode="7" horiz-adv-x="538" 
d="M30 700h480v-49l-320 -651h-67l318 646h-411v54z" />
    <glyph glyph-name="eight" unicode="8" horiz-adv-x="599" 
d="M299 -11q-122 0 -177.5 59t-55.5 153q0 66 33 110t85 64q-46 17 -75.5 54.5t-29.5 93.5q0 83 52.5 135.5t167.5 52.5q116 0 168.5 -52.5t52.5 -135.5q0 -56 -29.5 -93.5t-74.5 -54.5q52 -20 84.5 -64t32.5 -110q0 -94 -55.5 -153t-178.5 -59zM279 397h41q56 0 98.5 32.5
t42.5 91.5q0 64 -38.5 102.5t-123.5 38.5q-84 0 -122 -38.5t-38 -102.5q0 -59 42.5 -91.5t97.5 -32.5zM320 349h-41q-61 0 -106 -38t-45 -109q0 -74 41 -118.5t130 -44.5t131 44.5t42 118.5q0 71 -45.5 109t-106.5 38z" />
    <glyph glyph-name="nine" unicode="9" horiz-adv-x="604" 
d="M294 660q-170 0 -170 -164q0 -163 170 -163q171 0 171 163q0 164 -171 164zM294 710q65 0 112 -18t72 -49.5t36.5 -68.5t11.5 -82v-267q0 -45 -12 -85t-37.5 -74.5t-71 -55t-105.5 -20.5q-117 0 -171.5 53t-54.5 125v23h60v-21q0 -53 41.5 -90.5t123.5 -37.5
q83 0 124.5 50.5t41.5 126.5v152q-52 -89 -180 -89q-118 0 -170 58.5t-52 151.5q0 96 53 157t178 61z" />
    <glyph glyph-name="colon" unicode=":" horiz-adv-x="223" 
d="M144 447h-66v78h66v-78zM144 0h-66v78h66v-78z" />
    <glyph glyph-name="semicolon" unicode=";" horiz-adv-x="264" 
d="M173 447h-66v78h66v-78zM173 78v-16l-52 -170h-45l32 186h65z" />
    <glyph glyph-name="less" unicode="&#x3c;" 
d="M493 74v-62l-455 248v48l455 247v-62l-392 -208v-1z" />
    <glyph glyph-name="equal" unicode="=" horiz-adv-x="572" 
d="M80 451h412v-52h-412v52zM80 264h412v-53h-412v53z" />
    <glyph glyph-name="greater" unicode="&#x3e;" 
d="M59 12v62l392 210v1l-392 208v62l455 -247v-48z" />
    <glyph glyph-name="question" unicode="?" horiz-adv-x="560" 
d="M308 159h-61v74q0 50 25 78t82 60q57 30 79.5 59t22.5 85q0 143 -174 143q-100 0 -140.5 -37.5t-40.5 -104.5v-30h-61v33q0 192 242 192q121 0 178 -51.5t57 -139.5q0 -67 -27 -105.5t-90 -74.5q-27 -15 -37 -21.5t-26.5 -20.5t-22.5 -30t-6 -37v-72zM311 0h-67v78h67
v-78z" />
    <glyph glyph-name="at" unicode="@" horiz-adv-x="871" 
d="M610 422l-35 -273q-7 -51 10 -78t55 -27q33 0 56.5 19t34.5 51t15.5 63t4.5 66q0 145 -78.5 237t-240.5 92q-83 0 -145.5 -26.5t-99 -74t-54 -106.5t-17.5 -130q0 -70 17 -128.5t53 -105t97 -73t143 -26.5t146 27l13 -43q-69 -30 -159 -30q-95 0 -167 30t-114.5 83.5
t-63 120t-20.5 145.5q0 80 20.5 147t63.5 121.5t116 85t171 30.5t171.5 -30t117 -83t64.5 -119t21 -144q0 -33 -4 -63.5t-15.5 -64.5t-29.5 -58.5t-49 -40.5t-72 -16q-51 0 -82.5 26t-33.5 76q-42 -65 -135 -65q-64 0 -100.5 34.5t-36.5 89.5q0 13 3 30l11 86
q20 152 158 152q100 0 131 -69l10 62h49zM528 204l10 66q7 52 -19.5 82.5t-88.5 30.5q-59 0 -83 -30t-32 -87l-10 -65q-2 -20 -2 -29q0 -87 98 -87q65 0 91.5 30.5t35.5 88.5z" />
    <glyph glyph-name="A" unicode="A" horiz-adv-x="615" 
d="M434 261l-128 365l-128 -365h256zM526 0l-74 211h-291l-75 -211h-62l253 700h62l252 -700h-65z" />
    <glyph glyph-name="B" unicode="B" horiz-adv-x="659" 
d="M94 0v700h255q228 0 228 -174q0 -122 -121 -156q143 -34 143 -175q0 -195 -253 -195h-252zM349 651h-192v-257h192q166 0 166 128q0 129 -166 129zM346 346h-189v-297h189q190 0 190 148q0 149 -190 149z" />
    <glyph glyph-name="C" unicode="C" horiz-adv-x="626" 
d="M513 209h61v-18q0 -38 -13 -72.5t-40 -64.5t-77 -47.5t-116 -17.5q-68 0 -119 21t-79 57t-41.5 77t-13.5 88v237q0 46 13.5 87t41.5 77t79 57t119 21q66 0 116 -17t77 -46t40 -61.5t13 -69.5v-17h-61v14q0 58 -45 100t-140 42q-99 0 -145.5 -55t-46.5 -132v-237
q0 -78 46.5 -133t145.5 -55q95 0 140 44t45 106v15z" />
    <glyph glyph-name="D" unicode="D" horiz-adv-x="682" 
d="M94 0v700h261q69 0 120 -21t79 -56.5t41.5 -76.5t13.5 -88v-216q0 -46 -13.5 -87t-41.5 -77t-79 -57t-120 -21h-261zM157 55h198q100 0 145.5 55.5t45.5 134.5v210q0 79 -45.5 134.5t-145.5 55.5h-198v-590z" />
    <glyph glyph-name="E" unicode="E" horiz-adv-x="598" 
d="M94 0v700h432v-53h-369v-255h354v-51h-354v-288h387v-53h-450z" />
    <glyph glyph-name="F" unicode="F" horiz-adv-x="577" 
d="M519 320h-362v-320h-63v700h441v-54h-378v-272h362v-54z" />
    <glyph glyph-name="G" unicode="G" horiz-adv-x="647" 
d="M580 341v-111q0 -49 -12.5 -89.5t-39.5 -76t-78 -55.5t-121 -20q-69 0 -120.5 21t-79.5 57t-41 77t-13 88v237q0 46 13.5 87t41.5 77t78.5 57t118.5 21q131 0 191.5 -56.5t60.5 -135.5v-14h-62v12q0 57 -45.5 98t-144.5 41q-98 0 -144.5 -55t-46.5 -132v-237
q0 -78 46.5 -133t146.5 -55q99 0 144.5 50.5t45.5 125.5v74h-201v47h262z" />
    <glyph glyph-name="H" unicode="H" horiz-adv-x="693" 
d="M536 0v343h-379v-343h-63v700h63v-303h379v303h62v-700h-62z" />
    <glyph glyph-name="I" unicode="I" horiz-adv-x="256" 
d="M159 700v-700h-62v700h62z" />
    <glyph glyph-name="J" unicode="J" horiz-adv-x="571" 
d="M420 700h62v-482q0 -96 -54 -162.5t-167 -66.5q-117 0 -171.5 60t-54.5 150v28h61v-25q0 -68 40 -113t125 -45q82 0 120.5 52t38.5 124v480z" />
    <glyph glyph-name="K" unicode="K" horiz-adv-x="636" 
d="M157 212v-212h-63v700h63v-410l376 410h75l-274 -297l285 -403h-76l-251 356z" />
    <glyph glyph-name="L" unicode="L" 
d="M94 0v700h63v-645h371v-55h-434z" />
    <glyph glyph-name="M" unicode="M" horiz-adv-x="760" 
d="M364 257l-211 327v-584h-59v700h53l233 -363l231 363h55v-700h-61v587l-212 -330h-29z" />
    <glyph glyph-name="N" unicode="N" horiz-adv-x="691" 
d="M545 0l-392 583v-583h-59v700h52l392 -583v583h59v-700h-52z" />
    <glyph glyph-name="O" unicode="O" horiz-adv-x="658" 
d="M328 -11q-68 0 -119 21t-79 57t-41.5 77t-13.5 88v237q0 46 13.5 87t41.5 77t79 57t119 21q70 0 121.5 -21t79.5 -57t41 -77t13 -87v-237q0 -47 -13 -88t-41 -77t-79.5 -57t-121.5 -21zM328 44q101 0 147.5 56t46.5 135v230q0 79 -46.5 135t-147.5 56q-99 0 -145.5 -56
t-46.5 -135v-230q0 -79 46.5 -135t145.5 -56z" />
    <glyph glyph-name="P" unicode="P" horiz-adv-x="643" 
d="M345 262h-188v-262h-63v700h251q71 0 122.5 -17.5t79 -49.5t40 -69t12.5 -83q0 -219 -254 -219zM345 646h-188v-331h188q191 0 191 166q0 165 -191 165z" />
    <glyph glyph-name="Q" unicode="Q" horiz-adv-x="658" 
d="M573 -143h-72l-111 137q-32 -5 -62 -5q-68 0 -119 21t-79 57t-41.5 77t-13.5 88v237q0 46 13.5 87t41.5 77t79 57t119 21q70 0 121.5 -21t79.5 -57t41 -77t13 -87v-237q0 -72 -31.5 -131t-98.5 -89l120 -147v-8zM328 44q101 0 147.5 56t46.5 135v230q0 79 -46.5 135
t-147.5 56q-99 0 -145.5 -56t-46.5 -135v-230q0 -79 46.5 -135t145.5 -56z" />
    <glyph glyph-name="R" unicode="R" horiz-adv-x="654" 
d="M345 647h-188v-317h188q191 0 191 158q0 159 -191 159zM345 278h-188v-278h-63v700h251q254 0 254 -211q0 -161 -149 -199l136 -290h-66l-131 280q-28 -2 -44 -2z" />
    <glyph glyph-name="S" unicode="S" horiz-adv-x="621" 
d="M548 513h-62v10q0 63 -41 98.5t-142 35.5q-174 0 -174 -131q0 -47 28 -74t89 -41l159 -36q157 -37 157 -174q0 -99 -58.5 -155.5t-180.5 -56.5q-263 0 -263 175v11h61v-10q0 -57 44.5 -89.5t157.5 -32.5q88 0 131.5 39.5t43.5 112.5q0 96 -114 123l-159 36
q-79 18 -118 58t-39 110q0 86 58 137.5t178 51.5q129 0 186.5 -51.5t57.5 -135.5v-11z" />
    <glyph glyph-name="T" unicode="T" horiz-adv-x="565" 
d="M540 645h-227v-645h-62v645h-226v55h515v-55z" />
    <glyph glyph-name="U" unicode="U" horiz-adv-x="686" 
d="M89 700h62v-465q0 -79 46 -135t145 -56q52 0 91 16.5t60.5 45t31.5 60.5t10 69v465h62v-468q0 -47 -13 -88t-41.5 -77t-80 -57t-120.5 -21q-68 0 -119 21t-79 57t-41.5 77.5t-13.5 87.5v468z" />
    <glyph glyph-name="V" unicode="V" horiz-adv-x="605" 
d="M272 0l-247 700h66l214 -615l212 615h63l-247 -700h-61z" />
    <glyph glyph-name="W" unicode="W" horiz-adv-x="923" 
d="M217 0l-182 700h64l153 -605l180 605h61l181 -606l151 606h63l-182 -700h-61l-183 599l-183 -599h-62z" />
    <glyph glyph-name="X" unicode="X" horiz-adv-x="604" 
d="M509 0l-210 309l-210 -309h-69l244 355l-231 345h72l198 -296l204 296h68l-237 -341l243 -359h-72z" />
    <glyph glyph-name="Y" unicode="Y" horiz-adv-x="589" 
d="M326 0h-62v264l-243 436h67l206 -377l210 377h64l-242 -432v-268z" />
    <glyph glyph-name="Z" unicode="Z" horiz-adv-x="579" 
d="M56 700h469v-48l-406 -598h418v-54h-497v49l406 597h-390v54z" />
    <glyph glyph-name="bracketleft" unicode="[" horiz-adv-x="337" 
d="M97 -126v884h200v-52h-138v-780h138v-52h-200z" />
    <glyph glyph-name="backslash" unicode="\" horiz-adv-x="514" 
d="M432 -126l-409 884h59l410 -884h-60z" />
    <glyph glyph-name="bracketright" unicode="]" horiz-adv-x="337" 
d="M240 758v-884h-200v52h138v780h-138v52h200z" />
    <glyph glyph-name="asciicircum" unicode="^" horiz-adv-x="469" 
d="M417 359h-60l-122 273l-123 -274h-60l158 342h49z" />
    <glyph glyph-name="underscore" unicode="_" horiz-adv-x="504" 
d="M0 -89h504v-49h-504v49z" />
    <glyph glyph-name="grave" unicode="`" horiz-adv-x="500" 
d="M271 597l-95 139h65l80 -139h-50z" />
    <glyph glyph-name="a" unicode="a" horiz-adv-x="545" 
d="M245 38q163 0 163 148v67h-156q-75 0 -107 -27t-32 -78q0 -110 132 -110zM414 0l-2 73q-42 -84 -181 -84q-177 0 -177 158q0 155 190 155h164v50q0 60 -33.5 97.5t-107.5 37.5q-71 0 -107.5 -28t-36.5 -68v-8h-56v8q0 61 51 103t150 42q104 0 151.5 -51t47.5 -135v-350
h-53z" />
    <glyph glyph-name="b" unicode="b" horiz-adv-x="571" 
d="M313 -11q-131 0 -174 94l-4 -83h-52v730h59v-286q45 92 173 92q93 0 142 -58t49 -147v-137q0 -89 -50 -147t-143 -58zM299 42q148 0 148 164v113q0 71 -34 117.5t-114 46.5q-82 0 -119.5 -47.5t-37.5 -119.5v-107q0 -72 37.5 -119.5t119.5 -47.5z" />
    <glyph glyph-name="c" unicode="c" horiz-adv-x="535" 
d="M424 176h59v-10q0 -72 -50.5 -124.5t-154.5 -52.5q-57 0 -100.5 18t-67 48t-35 65t-11.5 74v138q0 84 52 144t162 60q105 0 154.5 -52t49.5 -124v-10h-58v10q0 50 -36 88t-110 38q-80 0 -117.5 -45.5t-37.5 -108.5v-138q0 -63 37.5 -108.5t117.5 -45.5q74 0 110 38t36 88
v10z" />
    <glyph glyph-name="d" unicode="d" horiz-adv-x="571" 
d="M271 42q83 0 120.5 46.5t37.5 117.5v114q0 70 -37.5 116.5t-120.5 46.5q-79 0 -113 -45t-34 -115v-120q0 -70 34 -115.5t113 -45.5zM436 0l-4 84q-46 -95 -176 -95q-92 0 -141.5 57.5t-49.5 144.5v143q0 88 50 145t143 57q126 0 171 -87v281h59v-730h-52z" />
    <glyph glyph-name="e" unicode="e" horiz-adv-x="542" 
d="M480 147q0 -64 -48.5 -111t-156.5 -47q-110 0 -160.5 58t-50.5 140v145q0 84 51 144t159 60t158.5 -60t50.5 -144v-81h-361v-69q0 -60 37 -102t116 -42q77 0 113 33t36 78v9h56v-11zM122 339v-40h304v40q0 61 -37 105t-115 44t-115 -44.5t-37 -104.5z" />
    <glyph glyph-name="f" unicode="f" horiz-adv-x="336" 
d="M315 477h-148v-477h-60v477h-77v48h77v25q0 80 44 130t142 50h42v-50h-43q-125 0 -125 -128v-27h148v-48z" />
    <glyph glyph-name="g" unicode="g" horiz-adv-x="570" 
d="M270 70q82 0 120 45t38 112v99q0 68 -38 113t-120 45q-78 0 -112.5 -45t-34.5 -113v-99q0 -68 34.5 -112.5t112.5 -44.5zM285 -190q-105 0 -154 37.5t-49 101.5v5h57v-5q0 -91 145 -91q74 0 109 37t35 99v113q-46 -90 -173 -90q-93 0 -142 57t-49 145v115q0 88 50 145
t143 57q130 0 174 -93l4 82h52v-526q0 -86 -50 -137.5t-152 -51.5z" />
    <glyph glyph-name="h" unicode="h" horiz-adv-x="584" 
d="M142 0h-59v730h59v-285q46 91 173 91q94 0 142.5 -55.5t48.5 -138.5v-342h-60v330q0 64 -34.5 108.5t-112.5 44.5q-82 0 -119.5 -47t-37.5 -116v-320z" />
    <glyph glyph-name="i" unicode="i" horiz-adv-x="231" 
d="M147 640h-63v90h63v-90zM145 0h-60v525h60v-525z" />
    <glyph glyph-name="j" unicode="j" horiz-adv-x="231" 
d="M147 640h-63v90h63v-90zM-62 -180v50h26q64 0 92.5 27t28.5 69v559h60v-557q0 -63 -41 -105.5t-134 -42.5h-32z" />
    <glyph glyph-name="k" unicode="k" horiz-adv-x="510" 
d="M142 183v-183h-59v730h59v-473l264 268h73l-211 -215l231 -310h-72l-199 270z" />
    <glyph glyph-name="l" unicode="l" horiz-adv-x="231" 
d="M145 0h-60v730h60v-730z" />
    <glyph glyph-name="m" unicode="m" horiz-adv-x="930" 
d="M142 0h-59v525h52l4 -85q45 96 172 96q66 0 109 -30.5t61 -81.5q19 51 66 81.5t119 30.5q91 0 138.5 -55.5t47.5 -138.5v-342h-59v330q0 64 -33.5 108.5t-109.5 44.5q-80 0 -116.5 -47t-36.5 -116v-320h-59v330q0 64 -33.5 108.5t-109.5 44.5q-80 0 -116.5 -47
t-36.5 -116v-320z" />
    <glyph glyph-name="n" unicode="n" horiz-adv-x="584" 
d="M142 0h-59v525h52l4 -85q47 96 176 96q94 0 142.5 -55.5t48.5 -138.5v-342h-60v330q0 64 -34.5 108.5t-112.5 44.5q-82 0 -119.5 -47t-37.5 -116v-320z" />
    <glyph glyph-name="o" unicode="o" 
d="M64 194v138q0 39 11 73.5t35 64.5t66.5 48t99.5 18q110 0 161 -60t51 -144v-138q0 -85 -51 -145t-161 -60q-57 0 -99.5 18t-66.5 48t-35 65t-11 74zM429 193v139q0 63 -37 108.5t-116 45.5t-116 -45.5t-37 -108.5v-139q0 -62 37 -108t116 -46t116 46t37 108z" />
    <glyph glyph-name="p" unicode="p" horiz-adv-x="571" 
d="M299 42q148 0 148 160v120q0 70 -34 115.5t-114 45.5q-82 0 -119.5 -46.5t-37.5 -116.5v-114q0 -71 37.5 -117.5t119.5 -46.5zM313 -11q-125 0 -171 87v-256h-59v705h52l4 -84q46 95 176 95q93 0 142 -57t49 -145v-143q0 -88 -50 -145t-143 -57z" />
    <glyph glyph-name="q" unicode="q" horiz-adv-x="570" 
d="M488 -180h-60v258q-47 -89 -172 -89q-92 0 -141.5 57.5t-49.5 144.5v143q0 88 50 145t143 57q130 0 174 -92l4 81h52v-705zM271 42q79 0 118 44.5t39 111.5v129q0 67 -39 111.5t-118 44.5t-113 -45t-34 -115v-120q0 -70 34 -115.5t113 -45.5z" />
    <glyph glyph-name="r" unicode="r" horiz-adv-x="350" 
d="M142 0h-59v525h52l5 -102q47 112 187 112v-57h-11q-90 0 -132 -53t-42 -134v-291z" />
    <glyph glyph-name="s" unicode="s" horiz-adv-x="514" 
d="M447 383h-57v8q0 99 -140 99q-65 0 -98 -25.5t-33 -69.5q0 -34 22 -53.5t70 -30.5l122 -27q128 -30 128 -134q0 -73 -50 -117t-149 -44q-208 0 -208 135v10h58v-9q0 -41 33.5 -64.5t117.5 -23.5q69 0 104 29t35 79q0 66 -87 87l-119 26q-67 15 -100 45.5t-33 88.5
q0 65 48 104.5t140 39.5q196 0 196 -144v-9z" />
    <glyph glyph-name="t" unicode="t" horiz-adv-x="354" 
d="M335 50v-50h-53q-176 0 -176 158v319h-79v48h79v139h59v-139h150v-48h-150v-316q0 -111 125 -111h45z" />
    <glyph glyph-name="u" unicode="u" horiz-adv-x="575" 
d="M440 0l-4 85q-47 -96 -172 -96q-90 0 -138 54.5t-48 134.5v347h59v-335q0 -62 33.5 -105t109.5 -43q79 0 115.5 47.5t36.5 116.5v319h60v-525h-52z" />
    <glyph glyph-name="v" unicode="v" horiz-adv-x="506" 
d="M224 0l-195 525h62l164 -450l161 450h60l-194 -525h-58z" />
    <glyph glyph-name="w" unicode="w" horiz-adv-x="786" 
d="M188 0l-153 525h62l124 -450l144 450h59l144 -450l124 450h59l-153 -525h-58l-147 445l-147 -445h-58z" />
    <glyph glyph-name="x" unicode="x" horiz-adv-x="500" 
d="M407 0l-162 228l-156 -228h-65l190 268l-180 257h66l152 -215l152 215h62l-183 -255l192 -270h-68z" />
    <glyph glyph-name="y" unicode="y" horiz-adv-x="505" 
d="M214 -180h-58l69 183l-194 522h63l160 -444l165 444h59z" />
    <glyph glyph-name="z" unicode="z" horiz-adv-x="490" 
d="M54 525h383v-43l-321 -435h330v-47h-404v45l321 433h-309v47z" />
    <glyph glyph-name="braceleft" unicode="{" horiz-adv-x="401" 
d="M121 317v-1q91 -19 91 -109v-163q0 -121 123 -121h29v-54h-32q-96 0 -139 47t-43 125v166q0 86 -116 86h-12v47h12q116 0 116 86v165q0 78 43 125t139 47h32v-54h-29q-123 0 -123 -121v-162q0 -90 -91 -109z" />
    <glyph glyph-name="bar" unicode="|" horiz-adv-x="255" 
d="M159 758v-884h-62v884h62z" />
    <glyph glyph-name="braceright" unicode="}" horiz-adv-x="401" 
d="M280 316v1q-91 19 -91 109v162q0 121 -123 121h-29v54h32q96 0 139 -47t43 -125v-165q0 -86 116 -86h12v-47h-12q-116 0 -116 -86v-166q0 -78 -43 -125t-139 -47h-32v54h29q123 0 123 121v163q0 90 91 109z" />
    <glyph glyph-name="asciitilde" unicode="~" horiz-adv-x="544" 
d="M431 359l37 -16q-20 -56 -44 -79.5t-66 -23.5q-39 0 -69 19l-39 25q-35 24 -60 24q-27 0 -45 -16t-33 -56l-36 15q18 55 44 80t67 25t79 -25l37 -25q32 -19 52 -19q27 0 42.5 15.5t33.5 56.5z" />
    <glyph glyph-name="uni00A0" unicode="&#xa0;" horiz-adv-x="225" 
 />
    <glyph glyph-name="exclamdown" unicode="&#xa1;" horiz-adv-x="241" 
d="M88 525h66v-78h-66v78zM153 -60v-115h-64v115l7 426h50q7 -299 7 -426z" />
    <glyph glyph-name="cent" unicode="&#xa2;" horiz-adv-x="544" 
d="M485 261q0 -65 -43 -115.5t-132 -58.5v-97h-57v97q-96 8 -141.5 66.5t-45.5 135.5v139q0 77 45.5 135.5t141.5 66.5v81h57v-81q91 -8 133 -57.5t42 -116.5v-10h-58v10q0 50 -35.5 87.5t-110.5 37.5q-80 0 -117.5 -45.5t-37.5 -107.5v-139q0 -62 37.5 -107.5t117.5 -45.5
q75 0 110.5 37.5t35.5 87.5v10h58v-10z" />
    <glyph glyph-name="sterling" unicode="&#xa3;" horiz-adv-x="630" 
d="M556 50v-50h-502v45l77 5v252h-77v46h77v124q0 46 11.5 86t36.5 75.5t71 56.5t107 21q109 0 162.5 -61.5t53.5 -145.5v-18h-61v14q0 64 -39 110t-118 46q-85 0 -124 -54t-39 -130v-124h230v-46h-230v-252h364z" />
    <glyph glyph-name="currency" unicode="&#xa4;" horiz-adv-x="588" 
d="M482 107l-64 68q-46 -38 -124 -38q-80 0 -126 41l-67 -66l-40 39l71 71q-26 45 -26 109v18q0 65 28 114l-68 73l41 37l65 -67q48 38 122 38q79 0 127 -41l66 65l41 -38l-71 -70q27 -48 27 -111v-18q0 -68 -29 -114l68 -71zM162 355v-30q0 -58 32.5 -97t99.5 -39
q69 0 101 39t32 97v30q0 58 -32 97t-101 39q-67 0 -99.5 -39t-32.5 -97z" />
    <glyph glyph-name="yen" unicode="&#xa5;" horiz-adv-x="571" 
d="M480 156h-164v-156h-62v156h-163v46h163v64l-5 10h-158v46h134l-194 378h68l185 -375l191 375h65l-197 -378h137v-46h-161l-3 -6v-68h164v-46z" />
    <glyph glyph-name="brokenbar" unicode="&#xa6;" horiz-adv-x="253" 
d="M158 427h-62v331h62v-331zM96 205h62v-331h-62v331z" />
    <glyph glyph-name="section" unicode="&#xa7;" horiz-adv-x="522" 
d="M438 291l-241 100q-66 26 -98.5 63t-32.5 98q0 73 47 116t143 43q197 0 197 -147v-7h-57v7q0 101 -141 101q-134 0 -134 -111q0 -76 95 -113l146 -58q80 -30 80 -71zM84 290l241 -100q66 -26 98.5 -63t32.5 -98q0 -73 -46 -116t-144 -43q-197 0 -197 147v7h56v-7
q0 -101 142 -101q134 0 134 111q0 76 -95 113l-146 58q-80 30 -80 71z" />
    <glyph glyph-name="dieresis" unicode="&#xa8;" horiz-adv-x="500" 
d="M338 640h-58v68h58v-68zM219 640h-58v68h58v-68z" />
    <glyph glyph-name="copyright" unicode="&#xa9;" horiz-adv-x="839" 
d="M59 350q0 149 105.5 254.5t254.5 105.5t254.5 -105.5t105.5 -254.5t-105.5 -254.5t-254.5 -105.5t-254.5 105.5t-105.5 254.5zM96 350q0 -134 95 -229t228 -95q134 0 229 95t95 229t-95 229t-229 95q-133 0 -228 -95t-95 -229zM527 280h60v-10q0 -58 -42.5 -100
t-125.5 -42q-90 0 -133 48t-43 115v115q0 67 43 115.5t133 48.5q85 0 126 -42t41 -100v-11h-59v11q0 37 -26.5 64t-81.5 27q-60 0 -88 -33.5t-28 -78.5v-116q0 -45 28 -78.5t88 -33.5q55 0 81.5 27.5t26.5 63.5v10z" />
    <glyph glyph-name="ordfeminine" unicode="&#xaa;" horiz-adv-x="422" 
d="M195 388q98 0 98 88v36h-96q-82 0 -82 -60q0 -64 80 -64zM299 353l-3 52q-25 -60 -113 -60q-119 0 -119 105q0 102 126 102h103v31q0 36 -20.5 59t-65.5 23q-44 0 -66.5 -16.5t-22.5 -41.5v-4h-47v4q0 43 34 71t103 28q135 0 135 -124v-229h-44z" />
    <glyph glyph-name="guillemotleft" unicode="&#xab;" horiz-adv-x="483" 
d="M358 73l-161 189l161 191h62l-152 -191l152 -189h-62zM202 73l-161 189l161 191h62l-152 -191l152 -189h-62z" />
    <glyph glyph-name="logicalnot" unicode="&#xac;" horiz-adv-x="569" 
d="M487 203h-56v181h-356v52h412v-233z" />
    <glyph glyph-name="uni00AD" unicode="&#xad;" horiz-adv-x="419" 
d="M77 340h265v-57h-265v57z" />
    <glyph glyph-name="registered" unicode="&#xae;" 
d="M57 490q0 91 64 155.5t155 64.5t155 -64t64 -156q0 -91 -64 -155t-155 -64t-155 64t-64 155zM92 490q0 -76 54 -130t130 -54t130 54t54 130q0 77 -54 131.5t-130 54.5t-130 -54.5t-54 -131.5zM279 566h-44v-77h44q50 0 50 38q0 39 -50 39zM291 458h-56v-73h-37v212h86
q83 0 83 -69q0 -47 -40 -63l34 -80h-40z" />
    <glyph glyph-name="macron" unicode="&#xaf;" horiz-adv-x="500" 
d="M131 681h237v-40h-237v40z" />
    <glyph glyph-name="degree" unicode="&#xb0;" horiz-adv-x="372" 
d="M316 580q0 -54 -38.5 -92.5t-92.5 -38.5q-53 0 -91 39t-38 92q0 55 38 93t91 38q55 0 93 -38t38 -93zM279 580q0 39 -27.5 66.5t-66.5 27.5q-38 0 -65 -27.5t-27 -66.5t27 -66.5t65 -27.5q39 0 66.5 27.5t27.5 66.5z" />
    <glyph glyph-name="plusminus" unicode="&#xb1;" horiz-adv-x="583" 
d="M264 626h53v-170h180v-51h-180v-171h-53v171h-178v51h178v170zM497 139v-51h-411v51h411z" />
    <glyph glyph-name="twosuperior" unicode="&#xb2;" horiz-adv-x="310" 
d="M228 742q0 61 -72 61t-72 -65v-8h-50v10q0 45 29 75.5t93 30.5q122 0 122 -104q0 -68 -62 -94l-96 -39q-32 -13 -32 -39v-38h189v-42h-239v80q0 49 49 71l107 46q34 12 34 55z" />
    <glyph glyph-name="threesuperior" unicode="&#xb3;" horiz-adv-x="308" 
d="M153 484q-64 0 -93 28t-29 69v11h49v-8q0 -58 71 -58q74 0 74 69q0 28 -18 43.5t-40 15.5h-58v38h57q18 0 33.5 14t15.5 39q0 59 -65 59q-66 0 -66 -56v-8h-49v11q0 41 27.5 68t88.5 27q62 0 88.5 -27.5t26.5 -70.5q0 -51 -45 -73q55 -22 55 -82q0 -48 -28.5 -78.5
t-94.5 -30.5z" />
    <glyph glyph-name="acute" unicode="&#xb4;" horiz-adv-x="500" 
d="M323 736l-95 -139h-50l79 139h66z" />
    <glyph glyph-name="mu" unicode="&#xb5;" horiz-adv-x="602" 
d="M280 -11q-86 0 -133 59l6 -228h-59v705h59v-335q0 -61 35 -104.5t108 -43.5q80 0 116.5 47.5t36.5 116.5v319h59v-525h-52l-4 85q-45 -96 -172 -96z" />
    <glyph glyph-name="paragraph" unicode="&#xb6;" horiz-adv-x="482" 
d="M321 0v289h-45q-234 0 -234 205q0 206 234 206h106v-700h-61z" />
    <glyph glyph-name="periodcentered" unicode="&#xb7;" horiz-adv-x="223" 
d="M145 321h-66v78h66v-78z" />
    <glyph glyph-name="cedilla" unicode="&#xb8;" horiz-adv-x="500" 
d="M174 -105l-29 17l53 98h40l-38 -70q12 5 28 5q38 0 57.5 -21.5t19.5 -52.5q0 -32 -20.5 -55.5t-64.5 -23.5q-82 0 -82 59v10h38v-7q0 -24 43 -24q42 0 42 40q0 38 -43 38q-18 0 -44 -13z" />
    <glyph glyph-name="onesuperior" unicode="&#xb9;" horiz-adv-x="289" 
d="M30 824l109 19h40v-310h97v-43h-246v43h97v260l-97 -14v45z" />
    <glyph glyph-name="ordmasculine" unicode="&#xba;" horiz-adv-x="419" 
d="M65 481v90q0 56 34.5 95.5t109.5 39.5q76 0 110.5 -39.5t34.5 -95.5v-90q0 -56 -34.5 -96t-110.5 -40q-75 0 -109.5 40t-34.5 96zM302 480v91q0 39 -22 66.5t-71 27.5t-71.5 -27.5t-22.5 -66.5v-91q0 -38 22.5 -65.5t71.5 -27.5t71 27t22 66z" />
    <glyph glyph-name="guillemotright" unicode="&#xbb;" horiz-adv-x="483" 
d="M442 262l-161 -189h-62l152 189l-152 191h62zM286 262l-161 -189h-62l152 189l-152 191h62z" />
    <glyph glyph-name="onequarter" unicode="&#xbc;" horiz-adv-x="763" 
d="M57 684l109 19h40v-310h97v-43h-246v43h97v260l-97 -14v45zM633 700l-433 -700h-57l433 700h57zM576 350l-72 -206h144v206h51v-350h-51v102h-196v41l74 207h50z" />
    <glyph glyph-name="onehalf" unicode="&#xbd;" horiz-adv-x="770" 
d="M57 684l109 19h40v-310h97v-43h-246v43h97v260l-97 -14v45zM633 700l-433 -700h-57l433 700h57zM668 252q0 61 -72 61t-72 -65v-8h-50v10q0 45 29 75.5t93 30.5q122 0 122 -104q0 -68 -62 -94l-96 -39q-32 -13 -32 -39v-38h189v-42h-239v80q0 49 49 71l107 46
q34 12 34 55z" />
    <glyph glyph-name="threequarters" unicode="&#xbe;" horiz-adv-x="751" 
d="M620 700l-433 -700h-57l433 700h57zM174 344q-64 0 -93 28t-29 69v11h49v-8q0 -58 71 -58q74 0 74 69q0 28 -18 43.5t-40 15.5h-58v38h57q18 0 33.5 14t15.5 39q0 59 -65 59q-66 0 -66 -56v-8h-49v11q0 41 27 68t89 27t88.5 -27.5t26.5 -70.5q0 -51 -45 -73
q55 -22 55 -82q0 -48 -28.5 -78.5t-94.5 -30.5zM564 350l-72 -206h144v206h51v-350h-51v102h-196v41l74 207h50z" />
    <glyph glyph-name="questiondown" unicode="&#xbf;" horiz-adv-x="554" 
d="M246 525h67v-78h-67v78zM249 366h61v-74q0 -50 -25 -78t-82 -60q-57 -30 -79.5 -59t-22.5 -85q0 -143 174 -143q100 0 140.5 37.5t40.5 104.5v30h61v-33q0 -192 -242 -192q-121 0 -178 51.5t-57 139.5q0 67 27 105.5t90 74.5q27 15 37 21.5t26.5 20.5t22.5 30t6 37v72z
" />
    <glyph glyph-name="Agrave" unicode="&#xc0;" horiz-adv-x="615" 
d="M282 752l-92 139h69l77 -139h-54zM434 261l-128 365l-128 -365h256zM526 0l-74 211h-291l-75 -211h-62l253 700h62l252 -700h-65z" />
    <glyph glyph-name="Aacute" unicode="&#xc1;" horiz-adv-x="615" 
d="M426 891l-95 -139h-49l79 139h65zM434 261l-128 365l-128 -365h256zM526 0l-74 211h-291l-75 -211h-62l253 700h62l252 -700h-65z" />
    <glyph glyph-name="Acircumflex" unicode="&#xc2;" horiz-adv-x="615" 
d="M308 859h-1l-70 -107h-48l89 139h59l89 -139h-48zM434 261l-128 365l-128 -365h256zM526 0l-74 211h-291l-75 -211h-62l253 700h62l252 -700h-65z" />
    <glyph glyph-name="Atilde" unicode="&#xc3;" horiz-adv-x="615" 
d="M314 770l-35 28q-19 13 -36 13q-46 0 -46 -59h-37q0 51 23.5 76.5t58.5 25.5q33 0 58 -21l34 -27q21 -15 39 -15q46 0 46 60h36q0 -51 -22.5 -76.5t-57.5 -25.5t-61 21zM434 261l-128 365l-128 -365h256zM526 0l-74 211h-291l-75 -211h-62l253 700h62l252 -700h-65z" />
    <glyph glyph-name="Adieresis" unicode="&#xc4;" horiz-adv-x="615" 
d="M396 811h-58v68h58v-68zM277 811h-58v68h58v-68zM434 261l-128 365l-128 -365h256zM526 0l-74 211h-291l-75 -211h-62l253 700h62l252 -700h-65z" />
    <glyph glyph-name="Aring" unicode="&#xc5;" horiz-adv-x="615" 
d="M307 930q40 0 68 -27t28 -67q0 -39 -28 -66t-68 -27q-39 0 -66 27t-27 66q0 40 27 67t66 27zM307 778q24 0 41 17t17 41q0 25 -17 41.5t-41 16.5q-23 0 -39.5 -16.5t-16.5 -41.5q0 -24 16.5 -41t39.5 -17zM434 261l-128 365l-128 -365h256zM526 0l-74 211h-291l-75 -211
h-62l253 700h62l252 -700h-65z" />
    <glyph glyph-name="AE" unicode="&#xc6;" horiz-adv-x="977" 
d="M470 261v386h-3l-239 -386h242zM470 0v211h-273l-131 -211h-63l440 700h462v-53h-373v-255h358v-51h-358v-288h390v-53h-452z" />
    <glyph glyph-name="Ccedilla" unicode="&#xc7;" horiz-adv-x="626" 
d="M328 -208q-82 0 -82 59v10h38v-7q0 -24 43 -24q42 0 42 40q0 38 -43 38q-18 0 -44 -13l-29 17l42 78q-114 10 -167 79t-53 163v237q0 46 13.5 87t41.5 77t79 57t119 21q66 0 116 -17t77 -46t40 -61.5t13 -69.5v-17h-61v14q0 58 -45 100t-140 42q-99 0 -145.5 -55
t-46.5 -132v-237q0 -78 46.5 -133t145.5 -55q95 0 140 44t45 106v15h61v-18q0 -83 -58 -142.5t-181 -59.5l-27 -49q12 5 28 5q38 0 57.5 -21.5t19.5 -52.5q0 -32 -20.5 -55.5t-64.5 -23.5z" />
    <glyph glyph-name="Egrave" unicode="&#xc8;" horiz-adv-x="598" 
d="M295 752l-92 139h69l77 -139h-54zM94 0v700h432v-53h-369v-255h354v-51h-354v-288h387v-53h-450z" />
    <glyph glyph-name="Eacute" unicode="&#xc9;" horiz-adv-x="598" 
d="M439 891l-95 -139h-49l79 139h65zM94 0v700h432v-53h-369v-255h354v-51h-354v-288h387v-53h-450z" />
    <glyph glyph-name="Ecircumflex" unicode="&#xca;" horiz-adv-x="598" 
d="M321 859h-1l-70 -107h-48l89 139h59l89 -139h-48zM94 0v700h432v-53h-369v-255h354v-51h-354v-288h387v-53h-450z" />
    <glyph glyph-name="Edieresis" unicode="&#xcb;" horiz-adv-x="598" 
d="M409 811h-58v68h58v-68zM290 811h-58v68h58v-68zM94 0v700h432v-53h-369v-255h354v-51h-354v-288h387v-53h-450z" />
    <glyph glyph-name="Igrave" unicode="&#xcc;" horiz-adv-x="256" 
d="M102 752l-92 139h69l77 -139h-54zM159 700v-700h-62v700h62z" />
    <glyph glyph-name="Iacute" unicode="&#xcd;" horiz-adv-x="256" 
d="M246 891l-95 -139h-49l79 139h65zM159 700v-700h-62v700h62z" />
    <glyph glyph-name="Icircumflex" unicode="&#xce;" horiz-adv-x="256" 
d="M128 859h-1l-70 -107h-48l89 139h59l89 -139h-48zM159 700v-700h-62v700h62z" />
    <glyph glyph-name="Idieresis" unicode="&#xcf;" horiz-adv-x="256" 
d="M216 811h-58v68h58v-68zM97 811h-58v68h58v-68zM159 700v-700h-62v700h62z" />
    <glyph glyph-name="Eth" unicode="&#xd0;" horiz-adv-x="685" 
d="M358 0h-261v344h-61v46h61v310h261q69 0 120 -21t79 -56.5t41.5 -76.5t13.5 -88v-216q0 -46 -13.5 -87t-41.5 -77t-79 -57t-120 -21zM160 55h198q100 0 145.5 55.5t45.5 134.5v210q0 79 -45.5 134.5t-145.5 55.5h-198v-255h116v-46h-116v-289z" />
    <glyph glyph-name="Ntilde" unicode="&#xd1;" horiz-adv-x="691" 
d="M352 770l-35 28q-19 13 -36 13q-46 0 -46 -59h-37q0 51 23.5 76.5t58.5 25.5q33 0 58 -21l34 -27q21 -15 39 -15q46 0 46 60h36q0 -51 -22.5 -76.5t-57.5 -25.5t-61 21zM545 0l-392 583v-583h-59v700h52l392 -583v583h59v-700h-52z" />
    <glyph glyph-name="Ograve" unicode="&#xd2;" horiz-adv-x="658" 
d="M304 752l-92 139h69l77 -139h-54zM328 -11q-68 0 -119 21t-79 57t-41.5 77t-13.5 88v237q0 46 13.5 87t41.5 77t79 57t119 21q70 0 121.5 -21t79.5 -57t41 -77t13 -87v-237q0 -47 -13 -88t-41 -77t-79.5 -57t-121.5 -21zM328 44q101 0 147.5 56t46.5 135v230
q0 79 -46.5 135t-147.5 56q-99 0 -145.5 -56t-46.5 -135v-230q0 -79 46.5 -135t145.5 -56z" />
    <glyph glyph-name="Oacute" unicode="&#xd3;" horiz-adv-x="658" 
d="M448 891l-95 -139h-49l79 139h65zM328 -11q-68 0 -119 21t-79 57t-41.5 77t-13.5 88v237q0 46 13.5 87t41.5 77t79 57t119 21q70 0 121.5 -21t79.5 -57t41 -77t13 -87v-237q0 -47 -13 -88t-41 -77t-79.5 -57t-121.5 -21zM328 44q101 0 147.5 56t46.5 135v230
q0 79 -46.5 135t-147.5 56q-99 0 -145.5 -56t-46.5 -135v-230q0 -79 46.5 -135t145.5 -56z" />
    <glyph glyph-name="Ocircumflex" unicode="&#xd4;" horiz-adv-x="658" 
d="M330 859h-1l-70 -107h-48l89 139h59l89 -139h-48zM328 -11q-68 0 -119 21t-79 57t-41.5 77t-13.5 88v237q0 46 13.5 87t41.5 77t79 57t119 21q70 0 121.5 -21t79.5 -57t41 -77t13 -87v-237q0 -47 -13 -88t-41 -77t-79.5 -57t-121.5 -21zM328 44q101 0 147.5 56t46.5 135
v230q0 79 -46.5 135t-147.5 56q-99 0 -145.5 -56t-46.5 -135v-230q0 -79 46.5 -135t145.5 -56z" />
    <glyph glyph-name="Otilde" unicode="&#xd5;" horiz-adv-x="658" 
d="M335 770l-35 28q-19 13 -36 13q-46 0 -46 -59h-37q0 51 23.5 76.5t58.5 25.5q33 0 58 -21l34 -27q21 -15 39 -15q46 0 46 60h36q0 -51 -22.5 -76.5t-57.5 -25.5t-61 21zM328 -11q-68 0 -119 21t-79 57t-41.5 77t-13.5 88v237q0 46 13.5 87t41.5 77t79 57t119 21
q70 0 121.5 -21t79.5 -57t41 -77t13 -87v-237q0 -47 -13 -88t-41 -77t-79.5 -57t-121.5 -21zM328 44q101 0 147.5 56t46.5 135v230q0 79 -46.5 135t-147.5 56q-99 0 -145.5 -56t-46.5 -135v-230q0 -79 46.5 -135t145.5 -56z" />
    <glyph glyph-name="Odieresis" unicode="&#xd6;" horiz-adv-x="658" 
d="M418 811h-58v68h58v-68zM299 811h-58v68h58v-68zM328 -11q-68 0 -119 21t-79 57t-41.5 77t-13.5 88v237q0 46 13.5 87t41.5 77t79 57t119 21q70 0 121.5 -21t79.5 -57t41 -77t13 -87v-237q0 -47 -13 -88t-41 -77t-79.5 -57t-121.5 -21zM328 44q101 0 147.5 56t46.5 135
v230q0 79 -46.5 135t-147.5 56q-99 0 -145.5 -56t-46.5 -135v-230q0 -79 46.5 -135t145.5 -56z" />
    <glyph glyph-name="multiply" unicode="&#xd7;" horiz-adv-x="474" 
d="M363 167l-127 126l-126 -125l-38 38l127 125l-127 127l38 38l126 -127l128 127l38 -37l-128 -128l127 -126z" />
    <glyph glyph-name="Oslash" unicode="&#xd8;" horiz-adv-x="658" 
d="M136 235q0 -78 41 -129l268 520q-46 30 -117 30q-99 0 -145.5 -56t-46.5 -135v-230zM328 44q101 0 147.5 56t46.5 135v230q0 78 -41 129l-268 -520q46 -30 115 -30zM328 -11q-83 0 -141 32l-24 -44h-57l40 73q-71 67 -71 182v237q0 46 13.5 87t41.5 77t79 57t119 21
q85 0 143 -32l24 44h57l-39 -74q70 -65 70 -180v-237q0 -47 -13 -88t-41 -77t-79.5 -57t-121.5 -21z" />
    <glyph glyph-name="Ugrave" unicode="&#xd9;" horiz-adv-x="686" 
d="M316 752l-92 139h69l77 -139h-54zM89 700h62v-465q0 -79 46 -135t145 -56q52 0 91 16.5t60.5 45t31.5 60.5t10 69v465h62v-468q0 -47 -13 -88t-41.5 -77t-80 -57t-120.5 -21q-68 0 -119 21t-79 57t-41.5 77.5t-13.5 87.5v468z" />
    <glyph glyph-name="Uacute" unicode="&#xda;" horiz-adv-x="686" 
d="M460 891l-95 -139h-49l79 139h65zM89 700h62v-465q0 -79 46 -135t145 -56q52 0 91 16.5t60.5 45t31.5 60.5t10 69v465h62v-468q0 -47 -13 -88t-41.5 -77t-80 -57t-120.5 -21q-68 0 -119 21t-79 57t-41.5 77.5t-13.5 87.5v468z" />
    <glyph glyph-name="Ucircumflex" unicode="&#xdb;" horiz-adv-x="686" 
d="M342 859h-1l-70 -107h-48l89 139h59l89 -139h-48zM89 700h62v-465q0 -79 46 -135t145 -56q52 0 91 16.5t60.5 45t31.5 60.5t10 69v465h62v-468q0 -47 -13 -88t-41.5 -77t-80 -57t-120.5 -21q-68 0 -119 21t-79 57t-41.5 77.5t-13.5 87.5v468z" />
    <glyph glyph-name="Udieresis" unicode="&#xdc;" horiz-adv-x="686" 
d="M430 811h-58v68h58v-68zM311 811h-58v68h58v-68zM89 700h62v-465q0 -79 46 -135t145 -56q52 0 91 16.5t60.5 45t31.5 60.5t10 69v465h62v-468q0 -47 -13 -88t-41.5 -77t-80 -57t-120.5 -21q-68 0 -119 21t-79 57t-41.5 77.5t-13.5 87.5v468z" />
    <glyph glyph-name="Yacute" unicode="&#xdd;" horiz-adv-x="589" 
d="M414 891l-95 -139h-49l79 139h65zM326 0h-62v264l-243 436h67l206 -377l210 377h64l-242 -432v-268z" />
    <glyph glyph-name="Thorn" unicode="&#xde;" horiz-adv-x="647" 
d="M345 103h-188v-103h-63v700h63v-158h188q138 0 196 -61t58 -159q0 -46 -12.5 -83t-40 -69t-79 -49.5t-122.5 -17.5zM345 488h-188v-332h188q191 0 191 166t-191 166z" />
    <glyph glyph-name="germandbls" unicode="&#xdf;" horiz-adv-x="580" 
d="M142 539v-539h-59v538q0 86 48 144.5t157 58.5q108 0 154.5 -51t46.5 -128q0 -127 -117 -162q153 -34 153 -189q0 -94 -58 -152.5t-193 -58.5h-31v49h31q190 0 190 163q0 162 -193 162h-28v47h18q169 0 169 136q0 58 -33 96.5t-111 38.5t-111 -43.5t-33 -109.5z" />
    <glyph glyph-name="agrave" unicode="&#xe0;" horiz-adv-x="545" 
d="M242 597l-95 139h65l80 -139h-50zM245 38q163 0 163 148v67h-156q-75 0 -107 -27t-32 -78q0 -110 132 -110zM414 0l-2 73q-42 -84 -181 -84q-177 0 -177 158q0 155 190 155h164v50q0 60 -33.5 97.5t-107.5 37.5q-71 0 -107.5 -28t-36.5 -68v-8h-56v8q0 61 51 103t150 42
q104 0 151.5 -51t47.5 -135v-350h-53z" />
    <glyph glyph-name="aacute" unicode="&#xe1;" horiz-adv-x="545" 
d="M382 736l-95 -139h-50l79 139h66zM245 38q163 0 163 148v67h-156q-75 0 -107 -27t-32 -78q0 -110 132 -110zM414 0l-2 73q-42 -84 -181 -84q-177 0 -177 158q0 155 190 155h164v50q0 60 -33.5 97.5t-107.5 37.5q-71 0 -107.5 -28t-36.5 -68v-8h-56v8q0 61 51 103t150 42
q104 0 151.5 -51t47.5 -135v-350h-53z" />
    <glyph glyph-name="acircumflex" unicode="&#xe2;" horiz-adv-x="545" 
d="M266 704h-1l-70 -107h-48l89 139h59l89 -139h-48zM245 38q163 0 163 148v67h-156q-75 0 -107 -27t-32 -78q0 -110 132 -110zM414 0l-2 73q-42 -84 -181 -84q-177 0 -177 158q0 155 190 155h164v50q0 60 -33.5 97.5t-107.5 37.5q-71 0 -107.5 -28t-36.5 -68v-8h-56v8
q0 61 51 103t150 42q104 0 151.5 -51t47.5 -135v-350h-53z" />
    <glyph glyph-name="atilde" unicode="&#xe3;" horiz-adv-x="545" 
d="M272 615l-35 27q-17 14 -36 14q-46 0 -46 -59h-37q0 50 23.5 76t58.5 26q33 0 58 -21l34 -27q21 -15 39 -15q46 0 46 60h36q0 -52 -22 -77t-58 -25q-35 0 -61 21zM245 38q163 0 163 148v67h-156q-75 0 -107 -27t-32 -78q0 -110 132 -110zM414 0l-2 73q-42 -84 -181 -84
q-177 0 -177 158q0 155 190 155h164v50q0 60 -33.5 97.5t-107.5 37.5q-71 0 -107.5 -28t-36.5 -68v-8h-56v8q0 61 51 103t150 42q104 0 151.5 -51t47.5 -135v-350h-53z" />
    <glyph glyph-name="adieresis" unicode="&#xe4;" horiz-adv-x="545" 
d="M354 638h-58v68h58v-68zM235 638h-58v68h58v-68zM245 38q163 0 163 148v67h-156q-75 0 -107 -27t-32 -78q0 -110 132 -110zM414 0l-2 73q-42 -84 -181 -84q-177 0 -177 158q0 155 190 155h164v50q0 60 -33.5 97.5t-107.5 37.5q-71 0 -107.5 -28t-36.5 -68v-8h-56v8
q0 61 51 103t150 42q104 0 151.5 -51t47.5 -135v-350h-53z" />
    <glyph glyph-name="aring" unicode="&#xe5;" horiz-adv-x="545" 
d="M265 774q40 0 67.5 -27t27.5 -67q0 -39 -27.5 -66t-67.5 -27q-39 0 -66.5 27t-27.5 66q0 40 27.5 67t66.5 27zM265 623q24 0 40.5 16.5t16.5 40.5q0 25 -16.5 42t-40.5 17q-23 0 -39.5 -17t-16.5 -42q0 -24 16.5 -40.5t39.5 -16.5zM245 38q163 0 163 148v67h-156
q-75 0 -107 -27t-32 -78q0 -110 132 -110zM414 0l-2 73q-42 -84 -181 -84q-177 0 -177 158q0 155 190 155h164v50q0 60 -33.5 97.5t-107.5 37.5q-71 0 -107.5 -28t-36.5 -68v-8h-56v8q0 61 51 103t150 42q104 0 151.5 -51t47.5 -135v-350h-53z" />
    <glyph glyph-name="ae" unicode="&#xe6;" horiz-adv-x="887" 
d="M825 147q0 -64 -48 -111t-154 -47q-81 0 -129 35t-65 91q-23 -126 -195 -126q-179 0 -179 159q0 152 191 152h163v52q0 60 -34 98.5t-108 38.5q-73 0 -110.5 -28.5t-37.5 -69.5v-8h-56v8q0 62 51 103.5t152 41.5q137 0 175 -103q51 103 181 103q106 0 156 -61t50 -146
v-76h-360v-71q0 -60 36.5 -102t115.5 -42q78 0 113.5 33t35.5 78v9h56v-11zM468 339v-39h302v39q0 61 -36.5 105.5t-114.5 44.5t-114.5 -44.5t-36.5 -105.5zM247 38q162 0 162 148v67h-156q-138 0 -138 -104q0 -111 132 -111z" />
    <glyph glyph-name="ccedilla" unicode="&#xe7;" horiz-adv-x="535" 
d="M273 -208q-82 0 -82 59v10h38v-7q0 -24 43 -24q42 0 42 40q0 38 -43 38q-18 0 -44 -13l-29 17l43 79q-91 10 -134 68.5t-43 134.5v138q0 84 52 144t162 60q105 0 154.5 -52t49.5 -124v-10h-58v10q0 50 -36 88t-110 38q-80 0 -117.5 -45.5t-37.5 -108.5v-138
q0 -63 37.5 -108.5t117.5 -45.5q74 0 110 38t36 88v10h59v-10q0 -72 -50 -124.5t-153 -52.5l-27 -49q12 5 28 5q39 0 58 -21.5t19 -52.5q0 -32 -20.5 -55.5t-64.5 -23.5z" />
    <glyph glyph-name="egrave" unicode="&#xe8;" horiz-adv-x="542" 
d="M250 597l-95 139h65l80 -139h-50zM480 147q0 -64 -48.5 -111t-156.5 -47q-110 0 -160.5 58t-50.5 140v145q0 84 51 144t159 60t158.5 -60t50.5 -144v-81h-361v-69q0 -60 37 -102t116 -42q77 0 113 33t36 78v9h56v-11zM122 339v-40h304v40q0 61 -37 105t-115 44
t-115 -44.5t-37 -104.5z" />
    <glyph glyph-name="eacute" unicode="&#xe9;" horiz-adv-x="542" 
d="M390 736l-95 -139h-50l79 139h66zM480 147q0 -64 -48.5 -111t-156.5 -47q-110 0 -160.5 58t-50.5 140v145q0 84 51 144t159 60t158.5 -60t50.5 -144v-81h-361v-69q0 -60 37 -102t116 -42q77 0 113 33t36 78v9h56v-11zM122 339v-40h304v40q0 61 -37 105t-115 44
t-115 -44.5t-37 -104.5z" />
    <glyph glyph-name="ecircumflex" unicode="&#xea;" horiz-adv-x="542" 
d="M274 704h-1l-70 -107h-48l89 139h59l89 -139h-48zM480 147q0 -64 -48.5 -111t-156.5 -47q-110 0 -160.5 58t-50.5 140v145q0 84 51 144t159 60t158.5 -60t50.5 -144v-81h-361v-69q0 -60 37 -102t116 -42q77 0 113 33t36 78v9h56v-11zM122 339v-40h304v40q0 61 -37 105
t-115 44t-115 -44.5t-37 -104.5z" />
    <glyph glyph-name="edieresis" unicode="&#xeb;" horiz-adv-x="542" 
d="M362 638h-58v68h58v-68zM243 638h-58v68h58v-68zM480 147q0 -64 -48.5 -111t-156.5 -47q-110 0 -160.5 58t-50.5 140v145q0 84 51 144t159 60t158.5 -60t50.5 -144v-81h-361v-69q0 -60 37 -102t116 -42q77 0 113 33t36 78v9h56v-11zM122 339v-40h304v40q0 61 -37 105
t-115 44t-115 -44.5t-37 -104.5z" />
    <glyph glyph-name="igrave" unicode="&#xec;" horiz-adv-x="231" 
d="M92 597l-95 139h65l80 -139h-50zM145 0h-60v525h60v-525z" />
    <glyph glyph-name="iacute" unicode="&#xed;" horiz-adv-x="231" 
d="M232 736l-95 -139h-50l79 139h66zM145 0h-60v525h60v-525z" />
    <glyph glyph-name="icircumflex" unicode="&#xee;" horiz-adv-x="231" 
d="M115 704h-1l-70 -107h-48l89 139h59l89 -139h-48zM145 0h-60v525h60v-525z" />
    <glyph glyph-name="idieresis" unicode="&#xef;" horiz-adv-x="231" 
d="M203 638h-58v68h58v-68zM84 638h-58v68h58v-68zM145 0h-60v525h60v-525z" />
    <glyph glyph-name="eth" unicode="&#xf0;" horiz-adv-x="559" 
d="M488 194q0 -89 -50.5 -146.5t-161.5 -57.5t-161.5 58t-50.5 146v138q0 38 11 72t34 64t64.5 47.5t96.5 17.5q89 0 138 -60q-14 36 -23 54q-23 45 -57 91l-94 -41l-17 38l85 37q-38 45 -73 78h68q25 -25 53 -58l87 38l16 -37l-77 -35q40 -54 63 -103q49 -100 49 -199v-142
zM429 193v139q0 66 -36.5 110t-116.5 44q-79 0 -116 -45.5t-37 -108.5v-139q0 -66 36.5 -109.5t116.5 -43.5t116.5 43.5t36.5 109.5z" />
    <glyph glyph-name="ntilde" unicode="&#xf1;" horiz-adv-x="584" 
d="M300 615l-35 27q-17 14 -36 14q-46 0 -46 -59h-37q0 50 23.5 76t58.5 26q33 0 58 -21l34 -27q21 -15 39 -15q46 0 46 60h36q0 -52 -22 -77t-58 -25q-35 0 -61 21zM142 0h-59v525h52l4 -85q47 96 176 96q94 0 142.5 -55.5t48.5 -138.5v-342h-60v330q0 64 -34.5 108.5
t-112.5 44.5q-82 0 -119.5 -47t-37.5 -116v-320z" />
    <glyph glyph-name="ograve" unicode="&#xf2;" 
d="M253 597l-95 139h65l80 -139h-50zM64 194v138q0 39 11 73.5t35 64.5t66.5 48t99.5 18q110 0 161 -60t51 -144v-138q0 -85 -51 -145t-161 -60q-57 0 -99.5 18t-66.5 48t-35 65t-11 74zM429 193v139q0 63 -37 108.5t-116 45.5t-116 -45.5t-37 -108.5v-139q0 -62 37 -108
t116 -46t116 46t37 108z" />
    <glyph glyph-name="oacute" unicode="&#xf3;" 
d="M393 736l-95 -139h-50l79 139h66zM64 194v138q0 39 11 73.5t35 64.5t66.5 48t99.5 18q110 0 161 -60t51 -144v-138q0 -85 -51 -145t-161 -60q-57 0 -99.5 18t-66.5 48t-35 65t-11 74zM429 193v139q0 63 -37 108.5t-116 45.5t-116 -45.5t-37 -108.5v-139q0 -62 37 -108
t116 -46t116 46t37 108z" />
    <glyph glyph-name="ocircumflex" unicode="&#xf4;" 
d="M276 704h-1l-70 -107h-48l89 139h59l89 -139h-48zM64 194v138q0 39 11 73.5t35 64.5t66.5 48t99.5 18q110 0 161 -60t51 -144v-138q0 -85 -51 -145t-161 -60q-57 0 -99.5 18t-66.5 48t-35 65t-11 74zM429 193v139q0 63 -37 108.5t-116 45.5t-116 -45.5t-37 -108.5v-139
q0 -62 37 -108t116 -46t116 46t37 108z" />
    <glyph glyph-name="otilde" unicode="&#xf5;" 
d="M283 615l-35 27q-18 14 -36 14q-46 0 -46 -59h-37q0 50 23.5 76t58.5 26q33 0 58 -21l34 -27q21 -15 39 -15q46 0 46 60h36q0 -52 -22 -77t-58 -25q-35 0 -61 21zM64 194v138q0 39 11 73.5t35 64.5t66.5 48t99.5 18q110 0 161 -60t51 -144v-138q0 -85 -51 -145t-161 -60
q-57 0 -99.5 18t-66.5 48t-35 65t-11 74zM429 193v139q0 63 -37 108.5t-116 45.5t-116 -45.5t-37 -108.5v-139q0 -62 37 -108t116 -46t116 46t37 108z" />
    <glyph glyph-name="odieresis" unicode="&#xf6;" 
d="M364 638h-58v68h58v-68zM245 638h-58v68h58v-68zM64 194v138q0 39 11 73.5t35 64.5t66.5 48t99.5 18q110 0 161 -60t51 -144v-138q0 -85 -51 -145t-161 -60q-57 0 -99.5 18t-66.5 48t-35 65t-11 74zM429 193v139q0 63 -37 108.5t-116 45.5t-116 -45.5t-37 -108.5v-139
q0 -62 37 -108t116 -46t116 46t37 108z" />
    <glyph glyph-name="divide" unicode="&#xf7;" horiz-adv-x="563" 
d="M314 484h-66v69h66v-69zM487 305h-411v53h411v-53zM314 110h-66v69h66v-69z" />
    <glyph glyph-name="oslash" unicode="&#xf8;" 
d="M123 193q0 -56 28 -97l219 364q-37 26 -94 26q-79 0 -116 -45.5t-37 -108.5v-139zM276 39q79 0 116 46t37 108v139q0 57 -28 98l-219 -365q37 -26 94 -26zM276 -11q-71 0 -121 29l-28 -47h-55l46 75q-54 55 -54 148v138q0 39 11 73.5t35 64.5t66.5 48t99.5 18
q71 0 120 -28l31 50h54l-47 -79q54 -54 54 -147v-138q0 -85 -51 -145t-161 -60z" />
    <glyph glyph-name="ugrave" unicode="&#xf9;" horiz-adv-x="575" 
d="M261 597l-95 139h65l80 -139h-50zM440 0l-4 85q-47 -96 -172 -96q-90 0 -138 54.5t-48 134.5v347h59v-335q0 -62 33.5 -105t109.5 -43q79 0 115.5 47.5t36.5 116.5v319h60v-525h-52z" />
    <glyph glyph-name="uacute" unicode="&#xfa;" horiz-adv-x="575" 
d="M402 736l-95 -139h-50l79 139h66zM440 0l-4 85q-47 -96 -172 -96q-90 0 -138 54.5t-48 134.5v347h59v-335q0 -62 33.5 -105t109.5 -43q79 0 115.5 47.5t36.5 116.5v319h60v-525h-52z" />
    <glyph glyph-name="ucircumflex" unicode="&#xfb;" horiz-adv-x="575" 
d="M285 704h-1l-70 -107h-48l89 139h59l89 -139h-48zM440 0l-4 85q-47 -96 -172 -96q-90 0 -138 54.5t-48 134.5v347h59v-335q0 -62 33.5 -105t109.5 -43q79 0 115.5 47.5t36.5 116.5v319h60v-525h-52z" />
    <glyph glyph-name="udieresis" unicode="&#xfc;" horiz-adv-x="575" 
d="M373 638h-58v68h58v-68zM254 638h-58v68h58v-68zM440 0l-4 85q-47 -96 -172 -96q-90 0 -138 54.5t-48 134.5v347h59v-335q0 -62 33.5 -105t109.5 -43q79 0 115.5 47.5t36.5 116.5v319h60v-525h-52z" />
    <glyph glyph-name="yacute" unicode="&#xfd;" horiz-adv-x="505" 
d="M377 736l-95 -139h-50l79 139h66zM214 -180h-58l69 183l-194 522h63l160 -444l165 444h59z" />
    <glyph glyph-name="thorn" unicode="&#xfe;" horiz-adv-x="571" 
d="M299 42q148 0 148 160v120q0 70 -34 115.5t-114 45.5q-82 0 -119.5 -46.5t-37.5 -116.5v-114q0 -71 37.5 -117.5t119.5 -46.5zM313 -11q-125 0 -171 87v-240h-59v894h59v-284q46 90 173 90q93 0 142 -57t49 -145v-143q0 -88 -50 -145t-143 -57z" />
    <glyph glyph-name="ydieresis" unicode="&#xff;" horiz-adv-x="505" 
d="M348 638h-58v68h58v-68zM229 638h-58v68h58v-68zM214 -180h-58l69 183l-194 522h63l160 -444l165 444h59z" />
    <glyph glyph-name="Amacron" unicode="&#x100;" horiz-adv-x="615" 
d="M190 855h237v-42h-237v42zM434 261l-128 365l-128 -365h256zM526 0l-74 211h-291l-75 -211h-62l253 700h62l252 -700h-65z" />
    <glyph glyph-name="amacron" unicode="&#x101;" horiz-adv-x="545" 
d="M147 681h237v-40h-237v40zM245 38q163 0 163 148v67h-156q-75 0 -107 -27t-32 -78q0 -110 132 -110zM414 0l-2 73q-42 -84 -181 -84q-177 0 -177 158q0 155 190 155h164v50q0 60 -33.5 97.5t-107.5 37.5q-71 0 -107.5 -28t-36.5 -68v-8h-56v8q0 61 51 103t150 42
q104 0 151.5 -51t47.5 -135v-350h-53z" />
    <glyph glyph-name="Abreve" unicode="&#x102;" horiz-adv-x="615" 
d="M369 867h41v-27q0 -44 -28 -71t-75 -27t-74.5 27t-27.5 71v27h41v-27q0 -26 16.5 -42.5t44.5 -16.5t45 16.5t17 42.5v27zM434 261l-128 365l-128 -365h256zM526 0l-74 211h-291l-75 -211h-62l253 700h62l252 -700h-65z" />
    <glyph glyph-name="abreve" unicode="&#x103;" horiz-adv-x="545" 
d="M327 711h41v-27q0 -44 -27.5 -70.5t-75.5 -26.5q-47 0 -74.5 26.5t-27.5 70.5v27h41v-27q0 -26 16.5 -42.5t44.5 -16.5t45 16.5t17 42.5v27zM245 38q163 0 163 148v67h-156q-75 0 -107 -27t-32 -78q0 -110 132 -110zM414 0l-2 73q-42 -84 -181 -84q-177 0 -177 158
q0 155 190 155h164v50q0 60 -33.5 97.5t-107.5 37.5q-71 0 -107.5 -28t-36.5 -68v-8h-56v8q0 61 51 103t150 42q104 0 151.5 -51t47.5 -135v-350h-53z" />
    <glyph glyph-name="Aogonek" unicode="&#x104;" horiz-adv-x="615" 
d="M581 -168q-27 -12 -57 -12q-43 0 -69.5 23.5t-26.5 56.5q0 63 94 113l-70 198h-291l-75 -211h-62l253 700h62l252 -700h-32q-81 -43 -81 -88q0 -23 16.5 -36t43.5 -13q18 0 43 6v-37zM434 261l-128 365l-128 -365h256z" />
    <glyph glyph-name="aogonek" unicode="&#x105;" horiz-adv-x="545" 
d="M468 -168q-27 -12 -57 -12q-43 0 -69.5 23.5t-26.5 56.5q0 66 99 115l-2 58q-42 -84 -181 -84q-177 0 -177 158q0 155 190 155h164v50q0 60 -33.5 97.5t-107.5 37.5q-71 0 -107.5 -28t-36.5 -68v-8h-56v8q0 61 51 103t150 42q104 0 151.5 -51t47.5 -135v-350h-21
q-81 -43 -81 -88q0 -23 16.5 -36t43.5 -13q17 0 43 6v-37zM245 38q163 0 163 148v67h-156q-75 0 -107 -27t-32 -78q0 -110 132 -110z" />
    <glyph glyph-name="Cacute" unicode="&#x106;" horiz-adv-x="626" 
d="M447 891l-95 -139h-49l79 139h65zM513 209h61v-18q0 -38 -13 -72.5t-40 -64.5t-77 -47.5t-116 -17.5q-68 0 -119 21t-79 57t-41.5 77t-13.5 88v237q0 46 13.5 87t41.5 77t79 57t119 21q66 0 116 -17t77 -46t40 -61.5t13 -69.5v-17h-61v14q0 58 -45 100t-140 42
q-99 0 -145.5 -55t-46.5 -132v-237q0 -78 46.5 -133t145.5 -55q95 0 140 44t45 106v15z" />
    <glyph glyph-name="cacute" unicode="&#x107;" horiz-adv-x="535" 
d="M395 736l-95 -139h-50l79 139h66zM424 176h59v-10q0 -72 -50.5 -124.5t-154.5 -52.5q-57 0 -100.5 18t-67 48t-35 65t-11.5 74v138q0 84 52 144t162 60q105 0 154.5 -52t49.5 -124v-10h-58v10q0 50 -36 88t-110 38q-80 0 -117.5 -45.5t-37.5 -108.5v-138
q0 -63 37.5 -108.5t117.5 -45.5q74 0 110 38t36 88v10z" />
    <glyph glyph-name="Ccircumflex" unicode="&#x108;" horiz-adv-x="626" 
d="M329 859h-1l-70 -107h-48l89 139h59l89 -139h-48zM513 209h61v-18q0 -38 -13 -72.5t-40 -64.5t-77 -47.5t-116 -17.5q-68 0 -119 21t-79 57t-41.5 77t-13.5 88v237q0 46 13.5 87t41.5 77t79 57t119 21q66 0 116 -17t77 -46t40 -61.5t13 -69.5v-17h-61v14q0 58 -45 100
t-140 42q-99 0 -145.5 -55t-46.5 -132v-237q0 -78 46.5 -133t145.5 -55q95 0 140 44t45 106v15z" />
    <glyph glyph-name="ccircumflex" unicode="&#x109;" horiz-adv-x="535" 
d="M279 704h-1l-70 -107h-48l89 139h59l89 -139h-48zM424 176h59v-10q0 -72 -50.5 -124.5t-154.5 -52.5q-57 0 -100.5 18t-67 48t-35 65t-11.5 74v138q0 84 52 144t162 60q105 0 154.5 -52t49.5 -124v-10h-58v10q0 50 -36 88t-110 38q-80 0 -117.5 -45.5t-37.5 -108.5v-138
q0 -63 37.5 -108.5t117.5 -45.5q74 0 110 38t36 88v10z" />
    <glyph glyph-name="Cdotaccent" unicode="&#x10a;" horiz-adv-x="626" 
d="M362 811h-66v74h66v-74zM513 209h61v-18q0 -38 -13 -72.5t-40 -64.5t-77 -47.5t-116 -17.5q-68 0 -119 21t-79 57t-41.5 77t-13.5 88v237q0 46 13.5 87t41.5 77t79 57t119 21q66 0 116 -17t77 -46t40 -61.5t13 -69.5v-17h-61v14q0 58 -45 100t-140 42q-99 0 -145.5 -55
t-46.5 -132v-237q0 -78 46.5 -133t145.5 -55q95 0 140 44t45 106v15z" />
    <glyph glyph-name="cdotaccent" unicode="&#x10b;" horiz-adv-x="535" 
d="M312 641h-66v74h66v-74zM424 176h59v-10q0 -72 -50.5 -124.5t-154.5 -52.5q-57 0 -100.5 18t-67 48t-35 65t-11.5 74v138q0 84 52 144t162 60q105 0 154.5 -52t49.5 -124v-10h-58v10q0 50 -36 88t-110 38q-80 0 -117.5 -45.5t-37.5 -108.5v-138q0 -63 37.5 -108.5
t117.5 -45.5q74 0 110 38t36 88v10z" />
    <glyph glyph-name="Ccaron" unicode="&#x10c;" horiz-adv-x="626" 
d="M328 784h1l70 107h48l-89 -139h-59l-89 139h48zM513 209h61v-18q0 -38 -13 -72.5t-40 -64.5t-77 -47.5t-116 -17.5q-68 0 -119 21t-79 57t-41.5 77t-13.5 88v237q0 46 13.5 87t41.5 77t79 57t119 21q66 0 116 -17t77 -46t40 -61.5t13 -69.5v-17h-61v14q0 58 -45 100
t-140 42q-99 0 -145.5 -55t-46.5 -132v-237q0 -78 46.5 -133t145.5 -55q95 0 140 44t45 106v15z" />
    <glyph glyph-name="ccaron" unicode="&#x10d;" horiz-adv-x="535" 
d="M278 629h1l70 107h48l-89 -139h-59l-89 139h48zM424 176h59v-10q0 -72 -50.5 -124.5t-154.5 -52.5q-57 0 -100.5 18t-67 48t-35 65t-11.5 74v138q0 84 52 144t162 60q105 0 154.5 -52t49.5 -124v-10h-58v10q0 50 -36 88t-110 38q-80 0 -117.5 -45.5t-37.5 -108.5v-138
q0 -63 37.5 -108.5t117.5 -45.5q74 0 110 38t36 88v10z" />
    <glyph glyph-name="Dcaron" unicode="&#x10e;" horiz-adv-x="682" 
d="M340 784h1l70 107h48l-89 -139h-59l-89 139h48zM94 0v700h261q69 0 120 -21t79 -56.5t41.5 -76.5t13.5 -88v-216q0 -46 -13.5 -87t-41.5 -77t-79 -57t-120 -21h-261zM157 55h198q100 0 145.5 55.5t45.5 134.5v210q0 79 -45.5 134.5t-145.5 55.5h-198v-590z" />
    <glyph glyph-name="dcaron" unicode="&#x10f;" horiz-adv-x="588" 
d="M633 730v-15l-20 -115h-35v130h55zM271 42q83 0 120.5 46.5t37.5 117.5v114q0 70 -37.5 116.5t-120.5 46.5q-79 0 -113 -45t-34 -115v-120q0 -70 34 -115.5t113 -45.5zM436 0l-4 84q-46 -95 -176 -95q-92 0 -141.5 57.5t-49.5 144.5v143q0 88 50 145t143 57
q126 0 171 -87v281h59v-730h-52z" />
    <glyph glyph-name="Dcroat" unicode="&#x110;" horiz-adv-x="685" 
d="M358 0h-261v344h-61v46h61v310h261q69 0 120 -21t79 -56.5t41.5 -76.5t13.5 -88v-216q0 -46 -13.5 -87t-41.5 -77t-79 -57t-120 -21zM160 55h198q100 0 145.5 55.5t45.5 134.5v210q0 79 -45.5 134.5t-145.5 55.5h-198v-255h116v-46h-116v-289z" />
    <glyph glyph-name="dcroat" unicode="&#x111;" horiz-adv-x="571" 
d="M271 42q83 0 120.5 46.5t37.5 117.5v114q0 70 -37.5 116.5t-120.5 46.5q-79 0 -113 -45t-34 -115v-120q0 -70 34 -115.5t113 -45.5zM432 84q-46 -95 -176 -95q-92 0 -141.5 57.5t-49.5 144.5v143q0 88 50 145t143 57q126 0 171 -87v149h-157v41h157v91h59v-91h64v-41h-64
v-598h-52z" />
    <glyph glyph-name="Emacron" unicode="&#x112;" horiz-adv-x="598" 
d="M203 855h237v-42h-237v42zM94 0v700h432v-53h-369v-255h354v-51h-354v-288h387v-53h-450z" />
    <glyph glyph-name="emacron" unicode="&#x113;" horiz-adv-x="542" 
d="M155 681h237v-40h-237v40zM480 147q0 -64 -48.5 -111t-156.5 -47q-110 0 -160.5 58t-50.5 140v145q0 84 51 144t159 60t158.5 -60t50.5 -144v-81h-361v-69q0 -60 37 -102t116 -42q77 0 113 33t36 78v9h56v-11zM122 339v-40h304v40q0 61 -37 105t-115 44t-115 -44.5
t-37 -104.5z" />
    <glyph glyph-name="Ebreve" unicode="&#x114;" horiz-adv-x="598" 
d="M382 867h41v-27q0 -44 -28 -71t-75 -27t-74.5 27t-27.5 71v27h41v-27q0 -26 16.5 -42.5t44.5 -16.5t45 16.5t17 42.5v27zM94 0v700h432v-53h-369v-255h354v-51h-354v-288h387v-53h-450z" />
    <glyph glyph-name="ebreve" unicode="&#x115;" horiz-adv-x="542" 
d="M335 711h41v-27q0 -44 -27.5 -70.5t-75.5 -26.5q-47 0 -74.5 26.5t-27.5 70.5v27h41v-27q0 -26 16.5 -42.5t44.5 -16.5t45 16.5t17 42.5v27zM480 147q0 -64 -48.5 -111t-156.5 -47q-110 0 -160.5 58t-50.5 140v145q0 84 51 144t159 60t158.5 -60t50.5 -144v-81h-361v-69
q0 -60 37 -102t116 -42q77 0 113 33t36 78v9h56v-11zM122 339v-40h304v40q0 61 -37 105t-115 44t-115 -44.5t-37 -104.5z" />
    <glyph glyph-name="Edotaccent" unicode="&#x116;" horiz-adv-x="598" 
d="M354 811h-66v74h66v-74zM94 0v700h432v-53h-369v-255h354v-51h-354v-288h387v-53h-450z" />
    <glyph glyph-name="edotaccent" unicode="&#x117;" horiz-adv-x="542" 
d="M307 641h-66v74h66v-74zM480 147q0 -64 -48.5 -111t-156.5 -47q-110 0 -160.5 58t-50.5 140v145q0 84 51 144t159 60t158.5 -60t50.5 -144v-81h-361v-69q0 -60 37 -102t116 -42q77 0 113 33t36 78v9h56v-11zM122 339v-40h304v40q0 61 -37 105t-115 44t-115 -44.5
t-37 -104.5z" />
    <glyph glyph-name="Eogonek" unicode="&#x118;" horiz-adv-x="598" 
d="M486 -168q-25 -12 -56 -12q-43 0 -69.5 23.5t-26.5 56.5q0 57 71 100h-311v700h432v-53h-369v-255h354v-51h-354v-288h387v-53h-80q-80 -44 -80 -88q0 -23 16.5 -36t43.5 -13q16 0 42 6v-37z" />
    <glyph glyph-name="eogonek" unicode="&#x119;" horiz-adv-x="542" 
d="M339 -180q-43 0 -69.5 23.5t-26.5 56.5q0 51 54 90q-8 -1 -22 -1q-110 0 -160.5 58t-50.5 140v145q0 84 51 144t159 60t158.5 -60t50.5 -144v-81h-361v-69q0 -60 37 -102t116 -42q77 0 113 33t36 78v9h56v-11q0 -92 -88 -136q-99 -48 -99 -99q0 -23 16.5 -36t43.5 -13
q17 0 43 6v-37q-27 -12 -57 -12zM122 339v-40h304v40q0 61 -37 105t-115 44t-115 -44.5t-37 -104.5z" />
    <glyph glyph-name="Ecaron" unicode="&#x11a;" horiz-adv-x="598" 
d="M320 784h1l70 107h48l-89 -139h-59l-89 139h48zM94 0v700h432v-53h-369v-255h354v-51h-354v-288h387v-53h-450z" />
    <glyph glyph-name="ecaron" unicode="&#x11b;" horiz-adv-x="542" 
d="M273 629h1l70 107h48l-89 -139h-59l-89 139h48zM480 147q0 -64 -48.5 -111t-156.5 -47q-110 0 -160.5 58t-50.5 140v145q0 84 51 144t159 60t158.5 -60t50.5 -144v-81h-361v-69q0 -60 37 -102t116 -42q77 0 113 33t36 78v9h56v-11zM122 339v-40h304v40q0 61 -37 105
t-115 44t-115 -44.5t-37 -104.5z" />
    <glyph glyph-name="Gcircumflex" unicode="&#x11c;" horiz-adv-x="647" 
d="M326 859h-1l-70 -107h-48l89 139h59l89 -139h-48zM580 341v-111q0 -49 -12.5 -89.5t-39.5 -76t-78 -55.5t-121 -20q-69 0 -120.5 21t-79.5 57t-41 77t-13 88v237q0 46 13.5 87t41.5 77t78.5 57t118.5 21q131 0 191.5 -56.5t60.5 -135.5v-14h-62v12q0 57 -45.5 98
t-144.5 41q-98 0 -144.5 -55t-46.5 -132v-237q0 -78 46.5 -133t146.5 -55q99 0 144.5 50.5t45.5 125.5v74h-201v47h262z" />
    <glyph glyph-name="gcircumflex" unicode="&#x11d;" horiz-adv-x="570" 
d="M276 704h-1l-70 -107h-48l89 139h59l89 -139h-48zM270 70q82 0 120 45t38 112v99q0 68 -38 113t-120 45q-78 0 -112.5 -45t-34.5 -113v-99q0 -68 34.5 -112.5t112.5 -44.5zM285 -190q-105 0 -154 37.5t-49 101.5v5h57v-5q0 -91 145 -91q74 0 109 37t35 99v113
q-46 -90 -173 -90q-93 0 -142 57t-49 145v115q0 88 50 145t143 57q130 0 174 -93l4 82h52v-526q0 -86 -50 -137.5t-152 -51.5z" />
    <glyph glyph-name="Gbreve" unicode="&#x11e;" horiz-adv-x="647" 
d="M387 867h41v-27q0 -44 -28 -71t-75 -27t-74.5 27t-27.5 71v27h41v-27q0 -26 16.5 -42.5t44.5 -16.5t45 16.5t17 42.5v27zM580 341v-111q0 -49 -12.5 -89.5t-39.5 -76t-78 -55.5t-121 -20q-69 0 -120.5 21t-79.5 57t-41 77t-13 88v237q0 46 13.5 87t41.5 77t78.5 57
t118.5 21q131 0 191.5 -56.5t60.5 -135.5v-14h-62v12q0 57 -45.5 98t-144.5 41q-98 0 -144.5 -55t-46.5 -132v-237q0 -78 46.5 -133t146.5 -55q99 0 144.5 50.5t45.5 125.5v74h-201v47h262z" />
    <glyph glyph-name="gbreve" unicode="&#x11f;" horiz-adv-x="570" 
d="M337 711h41v-27q0 -44 -27.5 -70.5t-75.5 -26.5q-47 0 -74.5 26.5t-27.5 70.5v27h41v-27q0 -26 16.5 -42.5t44.5 -16.5t45 16.5t17 42.5v27zM270 70q82 0 120 45t38 112v99q0 68 -38 113t-120 45q-78 0 -112.5 -45t-34.5 -113v-99q0 -68 34.5 -112.5t112.5 -44.5z
M285 -190q-105 0 -154 37.5t-49 101.5v5h57v-5q0 -91 145 -91q74 0 109 37t35 99v113q-46 -90 -173 -90q-93 0 -142 57t-49 145v115q0 88 50 145t143 57q130 0 174 -93l4 82h52v-526q0 -86 -50 -137.5t-152 -51.5z" />
    <glyph glyph-name="Gdotaccent" unicode="&#x120;" horiz-adv-x="647" 
d="M359 811h-66v74h66v-74zM580 341v-111q0 -49 -12.5 -89.5t-39.5 -76t-78 -55.5t-121 -20q-69 0 -120.5 21t-79.5 57t-41 77t-13 88v237q0 46 13.5 87t41.5 77t78.5 57t118.5 21q131 0 191.5 -56.5t60.5 -135.5v-14h-62v12q0 57 -45.5 98t-144.5 41q-98 0 -144.5 -55
t-46.5 -132v-237q0 -78 46.5 -133t146.5 -55q99 0 144.5 50.5t45.5 125.5v74h-201v47h262z" />
    <glyph glyph-name="gdotaccent" unicode="&#x121;" horiz-adv-x="570" 
d="M309 641h-66v74h66v-74zM270 70q82 0 120 45t38 112v99q0 68 -38 113t-120 45q-78 0 -112.5 -45t-34.5 -113v-99q0 -68 34.5 -112.5t112.5 -44.5zM285 -190q-105 0 -154 37.5t-49 101.5v5h57v-5q0 -91 145 -91q74 0 109 37t35 99v113q-46 -90 -173 -90q-93 0 -142 57
t-49 145v115q0 88 50 145t143 57q130 0 174 -93l4 82h52v-526q0 -86 -50 -137.5t-152 -51.5z" />
    <glyph glyph-name="uni0122" unicode="&#x122;" horiz-adv-x="647" 
d="M580 341v-111q0 -49 -12.5 -89.5t-39.5 -76t-78 -55.5t-121 -20q-69 0 -120.5 21t-79.5 57t-41 77t-13 88v237q0 46 13.5 87t41.5 77t78.5 57t118.5 21q131 0 191.5 -56.5t60.5 -135.5v-14h-62v12q0 57 -45.5 98t-144.5 41q-98 0 -144.5 -55t-46.5 -132v-237
q0 -78 46.5 -133t146.5 -55q99 0 144.5 50.5t45.5 125.5v74h-201v47h262zM356 -60v-15l-31 -115h-44l17 130h58z" />
    <glyph glyph-name="uni0123" unicode="&#x123;" horiz-adv-x="570" 
d="M241 638v16l39 115h45l-21 -131h-63zM270 70q82 0 120 45t38 112v99q0 68 -38 113t-120 45q-78 0 -112.5 -45t-34.5 -113v-99q0 -68 34.5 -112.5t112.5 -44.5zM285 -190q-105 0 -154 37.5t-49 101.5v5h57v-5q0 -91 145 -91q74 0 109 37t35 99v113q-46 -90 -173 -90
q-93 0 -142 57t-49 145v115q0 88 50 145t143 57q130 0 174 -93l4 82h52v-526q0 -86 -50 -137.5t-152 -51.5z" />
    <glyph glyph-name="Hcircumflex" unicode="&#x124;" horiz-adv-x="693" 
d="M347 859h-1l-70 -107h-48l89 139h59l89 -139h-48zM536 0v343h-379v-343h-63v700h63v-303h379v303h62v-700h-62z" />
    <glyph glyph-name="hcircumflex" unicode="&#x125;" horiz-adv-x="584" 
d="M114 858h-1l-70 -107h-48l89 139h59l89 -139h-48zM142 0h-59v730h59v-285q46 91 173 91q94 0 142.5 -55.5t48.5 -138.5v-342h-60v330q0 64 -34.5 108.5t-112.5 44.5q-82 0 -119.5 -47t-37.5 -116v-320z" />
    <glyph glyph-name="Hbar" unicode="&#x126;" horiz-adv-x="699" 
d="M160 397h379v132h-379v-132zM160 343v-343h-63v529h-61v43h61v128h63v-128h379v128h62v-128h62v-43h-62v-529h-62v343h-379z" />
    <glyph glyph-name="hbar" unicode="&#x127;" horiz-adv-x="584" 
d="M142 320v-320h-59v598h-64v41h64v91h59v-91h157v-41h-157v-153q46 91 173 91q94 0 142.5 -55.5t48.5 -138.5v-342h-60v330q0 64 -34.5 108.5t-112.5 44.5q-82 0 -119.5 -47t-37.5 -116z" />
    <glyph glyph-name="Itilde" unicode="&#x128;" horiz-adv-x="256" 
d="M134 770l-35 28q-19 13 -36 13q-46 0 -46 -59h-37q0 51 23.5 76.5t58.5 25.5q33 0 58 -21l34 -27q21 -15 39 -15q46 0 46 60h36q0 -51 -22.5 -76.5t-57.5 -25.5t-61 21zM159 700v-700h-62v700h62z" />
    <glyph glyph-name="itilde" unicode="&#x129;" horiz-adv-x="231" 
d="M122 615l-35 27q-17 14 -36 14q-46 0 -46 -59h-37q0 50 23.5 76t58.5 26q33 0 58 -21l34 -27q21 -15 39 -15q46 0 46 60h36q0 -52 -22 -77t-58 -25q-35 0 -61 21zM145 0h-60v525h60v-525z" />
    <glyph glyph-name="Imacron" unicode="&#x12a;" horiz-adv-x="256" 
d="M9 855h237v-42h-237v42zM159 700v-700h-62v700h62z" />
    <glyph glyph-name="imacron" unicode="&#x12b;" horiz-adv-x="231" 
d="M-4 681h237v-40h-237v40zM145 0h-60v525h60v-525z" />
    <glyph glyph-name="Iogonek" unicode="&#x12e;" horiz-adv-x="256" 
d="M158 -168q-27 -12 -56 -12q-44 0 -70 23.5t-26 56.5q0 63 91 111v689h62v-700h-23q-81 -43 -81 -88q0 -23 17 -36t44 -13q17 0 42 6v-37z" />
    <glyph glyph-name="iogonek" unicode="&#x12f;" horiz-adv-x="231" 
d="M147 640h-63v90h63v-90zM145 -168q-27 -12 -56 -12q-44 0 -70 23.5t-26 56.5q0 64 92 112v513h60v-525h-22q-81 -43 -81 -88q0 -23 17 -36t44 -13q17 0 42 6v-37z" />
    <glyph glyph-name="Idotaccent" unicode="&#x130;" horiz-adv-x="256" 
d="M161 811h-66v74h66v-74zM159 700v-700h-62v700h62z" />
    <glyph glyph-name="dotlessi" unicode="&#x131;" horiz-adv-x="231" 
d="M145 0h-60v525h60v-525z" />
    <glyph glyph-name="IJ" unicode="&#x132;" horiz-adv-x="827" 
d="M159 700v-700h-62v700h62zM676 700h62v-482q0 -96 -54 -162.5t-167 -66.5q-117 0 -171.5 60t-54.5 150v28h61v-25q0 -68 40 -113t125 -45q82 0 120.5 52t38.5 124v480z" />
    <glyph glyph-name="ij" unicode="&#x133;" horiz-adv-x="461" 
d="M378 640h-63v90h63v-90zM147 640h-63v90h63v-90zM169 -180v50h26q64 0 92.5 27t28.5 69v559h60v-557q0 -63 -41 -105.5t-134 -42.5h-32zM145 0h-60v525h60v-525z" />
    <glyph glyph-name="Jcircumflex" unicode="&#x134;" horiz-adv-x="571" 
d="M452 859h-1l-70 -107h-48l89 139h59l89 -139h-48zM420 700h62v-482q0 -96 -54 -162.5t-167 -66.5q-117 0 -171.5 60t-54.5 150v28h61v-25q0 -68 40 -113t125 -45q82 0 120.5 52t38.5 124v480z" />
    <glyph glyph-name="jcircumflex" unicode="&#x135;" horiz-adv-x="231" 
d="M115 704h-1l-70 -107h-48l89 139h59l89 -139h-48zM-62 -179v50h26q64 0 92.5 27.5t28.5 69.5v557h60v-555q0 -63 -41 -106t-134 -43h-32z" />
    <glyph glyph-name="uni0136" unicode="&#x136;" horiz-adv-x="636" 
d="M157 212v-212h-63v700h63v-410l376 410h75l-274 -297l285 -403h-76l-251 356zM357 -60v-15l-31 -115h-44l17 130h58z" />
    <glyph glyph-name="uni0137" unicode="&#x137;" horiz-adv-x="510" 
d="M142 183v-183h-59v730h59v-473l264 268h73l-211 -215l231 -310h-72l-199 270zM299 -60v-15l-31 -115h-44l17 130h58z" />
    <glyph glyph-name="kgreenlandic" unicode="&#x138;" horiz-adv-x="510" 
d="M427 0l-199 270l-86 -87v-183h-59v525h59v-268l264 268h73l-211 -215l231 -310h-72z" />
    <glyph glyph-name="Lacute" unicode="&#x139;" 
d="M244 891l-95 -139h-49l79 139h65zM94 0v700h63v-645h371v-55h-434z" />
    <glyph glyph-name="lacute" unicode="&#x13a;" horiz-adv-x="231" 
d="M232 941l-95 -139h-50l79 139h66zM145 0h-60v730h60v-730z" />
    <glyph glyph-name="uni013B" unicode="&#x13b;" 
d="M94 0v700h63v-645h371v-55h-434zM339 -60v-15l-31 -115h-44l17 130h58z" />
    <glyph glyph-name="uni013C" unicode="&#x13c;" horiz-adv-x="231" 
d="M145 0h-60v730h60v-730zM144 -60v-15l-31 -115h-44l17 130h58z" />
    <glyph glyph-name="Lcaron" unicode="&#x13d;" 
d="M313 730v-15l-20 -115h-35v130h55zM94 0v700h63v-645h371v-55h-434z" />
    <glyph glyph-name="lcaron" unicode="&#x13e;" horiz-adv-x="245" 
d="M292 730v-15l-20 -115h-35v130h55zM145 0h-60v730h60v-730z" />
    <glyph glyph-name="Ldot" unicode="&#x13f;" horiz-adv-x="553" 
d="M94 0v700h63v-645h371v-55h-434zM435 321h-66v78h66v-78z" />
    <glyph glyph-name="ldot" unicode="&#x140;" horiz-adv-x="266" 
d="M145 0h-60v730h60v-730zM281 321h-66v78h66v-78z" />
    <glyph glyph-name="Lslash" unicode="&#x141;" horiz-adv-x="578" 
d="M554 0h-434v344l-103 -83v58l103 83v298h63v-248l104 84v-58l-104 -84v-339h371v-55z" />
    <glyph glyph-name="lslash" unicode="&#x142;" horiz-adv-x="274" 
d="M170 0h-60v361l-87 -70v57l87 70v312h60v-264l87 70v-58l-87 -70v-408z" />
    <glyph glyph-name="Nacute" unicode="&#x143;" horiz-adv-x="691" 
d="M464 891l-95 -139h-49l79 139h65zM545 0l-392 583v-583h-59v700h52l392 -583v583h59v-700h-52z" />
    <glyph glyph-name="nacute" unicode="&#x144;" horiz-adv-x="584" 
d="M411 736l-95 -139h-50l79 139h66zM142 0h-59v525h52l4 -85q47 96 176 96q94 0 142.5 -55.5t48.5 -138.5v-342h-60v330q0 64 -34.5 108.5t-112.5 44.5q-82 0 -119.5 -47t-37.5 -116v-320z" />
    <glyph glyph-name="uni0145" unicode="&#x145;" horiz-adv-x="691" 
d="M545 0l-392 583v-583h-59v700h52l392 -583v583h59v-700h-52zM374 -60v-15l-31 -115h-44l17 130h58z" />
    <glyph glyph-name="uni0146" unicode="&#x146;" horiz-adv-x="584" 
d="M142 0h-59v525h52l4 -85q47 96 176 96q94 0 142.5 -55.5t48.5 -138.5v-342h-60v330q0 64 -34.5 108.5t-112.5 44.5q-82 0 -119.5 -47t-37.5 -116v-320zM322 -60v-15l-31 -115h-44l17 130h58z" />
    <glyph glyph-name="Ncaron" unicode="&#x147;" horiz-adv-x="691" 
d="M345 784h1l70 107h48l-89 -139h-59l-89 139h48zM545 0l-392 583v-583h-59v700h52l392 -583v583h59v-700h-52z" />
    <glyph glyph-name="ncaron" unicode="&#x148;" horiz-adv-x="584" 
d="M293 629h1l70 107h48l-89 -139h-59l-89 139h48zM142 0h-59v525h52l4 -85q47 96 176 96q94 0 142.5 -55.5t48.5 -138.5v-342h-60v330q0 64 -34.5 108.5t-112.5 44.5q-82 0 -119.5 -47t-37.5 -116v-320z" />
    <glyph glyph-name="napostrophe" unicode="&#x149;" horiz-adv-x="584" 
d="M118 693v-15l-31 -115h-44l17 130h58zM142 0h-59v525h52l4 -85q47 96 176 96q94 0 142.5 -55.5t48.5 -138.5v-342h-60v330q0 64 -34.5 108.5t-112.5 44.5q-82 0 -119.5 -47t-37.5 -116v-320z" />
    <glyph glyph-name="Omacron" unicode="&#x14c;" horiz-adv-x="658" 
d="M211 855h237v-42h-237v42zM328 -11q-68 0 -119 21t-79 57t-41.5 77t-13.5 88v237q0 46 13.5 87t41.5 77t79 57t119 21q70 0 121.5 -21t79.5 -57t41 -77t13 -87v-237q0 -47 -13 -88t-41 -77t-79.5 -57t-121.5 -21zM328 44q101 0 147.5 56t46.5 135v230q0 79 -46.5 135
t-147.5 56q-99 0 -145.5 -56t-46.5 -135v-230q0 -79 46.5 -135t145.5 -56z" />
    <glyph glyph-name="omacron" unicode="&#x14d;" 
d="M157 681h237v-40h-237v40zM64 194v138q0 39 11 73.5t35 64.5t66.5 48t99.5 18q110 0 161 -60t51 -144v-138q0 -85 -51 -145t-161 -60q-57 0 -99.5 18t-66.5 48t-35 65t-11 74zM429 193v139q0 63 -37 108.5t-116 45.5t-116 -45.5t-37 -108.5v-139q0 -62 37 -108t116 -46
t116 46t37 108z" />
    <glyph glyph-name="Obreve" unicode="&#x14e;" horiz-adv-x="658" 
d="M391 867h41v-27q0 -44 -28 -71t-75 -27t-74.5 27t-27.5 71v27h41v-27q0 -26 16.5 -42.5t44.5 -16.5t45 16.5t17 42.5v27zM328 -11q-68 0 -119 21t-79 57t-41.5 77t-13.5 88v237q0 46 13.5 87t41.5 77t79 57t119 21q70 0 121.5 -21t79.5 -57t41 -77t13 -87v-237
q0 -47 -13 -88t-41 -77t-79.5 -57t-121.5 -21zM328 44q101 0 147.5 56t46.5 135v230q0 79 -46.5 135t-147.5 56q-99 0 -145.5 -56t-46.5 -135v-230q0 -79 46.5 -135t145.5 -56z" />
    <glyph glyph-name="obreve" unicode="&#x14f;" 
d="M337 711h41v-27q0 -44 -27.5 -70.5t-75.5 -26.5q-47 0 -74.5 26.5t-27.5 70.5v27h41v-27q0 -26 16.5 -42.5t44.5 -16.5t45 16.5t17 42.5v27zM64 194v138q0 39 11 73.5t35 64.5t66.5 48t99.5 18q110 0 161 -60t51 -144v-138q0 -85 -51 -145t-161 -60q-57 0 -99.5 18
t-66.5 48t-35 65t-11 74zM429 193v139q0 63 -37 108.5t-116 45.5t-116 -45.5t-37 -108.5v-139q0 -62 37 -108t116 -46t116 46t37 108z" />
    <glyph glyph-name="Ohungarumlaut" unicode="&#x150;" horiz-adv-x="658" 
d="M503 891l-106 -139h-51l91 139h66zM382 891l-92 -139h-51l77 139h66zM328 -11q-68 0 -119 21t-79 57t-41.5 77t-13.5 88v237q0 46 13.5 87t41.5 77t79 57t119 21q70 0 121.5 -21t79.5 -57t41 -77t13 -87v-237q0 -47 -13 -88t-41 -77t-79.5 -57t-121.5 -21zM328 44
q101 0 147.5 56t46.5 135v230q0 79 -46.5 135t-147.5 56q-99 0 -145.5 -56t-46.5 -135v-230q0 -79 46.5 -135t145.5 -56z" />
    <glyph glyph-name="ohungarumlaut" unicode="&#x151;" 
d="M452 736l-106 -139h-51l90 139h67zM331 736l-92 -139h-52l77 139h67zM64 194v138q0 39 11 73.5t35 64.5t66.5 48t99.5 18q110 0 161 -60t51 -144v-138q0 -85 -51 -145t-161 -60q-57 0 -99.5 18t-66.5 48t-35 65t-11 74zM429 193v139q0 63 -37 108.5t-116 45.5t-116 -45.5
t-37 -108.5v-139q0 -62 37 -108t116 -46t116 46t37 108z" />
    <glyph glyph-name="OE" unicode="&#x152;" horiz-adv-x="1029" 
d="M328 44q55 0 95 16.5t60.5 45t29.5 60.5t9 69v230q0 79 -46.5 135t-147.5 56q-99 0 -145.5 -56t-46.5 -135v-230q0 -79 46.5 -135t145.5 -56zM527 0v92q-56 -103 -201 -103q-68 0 -118.5 21t-78.5 57t-41 77t-13 88v237q0 100 60.5 171t190.5 71q144 0 201 -106v95h430
v-53h-374v-255h359v-51h-359v-288h391v-53h-447z" />
    <glyph glyph-name="oe" unicode="&#x153;" horiz-adv-x="908" 
d="M846 147q0 -64 -48.5 -111t-155.5 -47q-141 0 -184 114q-43 -114 -183 -114q-75 0 -124.5 32t-68 76t-18.5 97v138q0 84 51 144t160 60q141 0 184 -116q20 52 65 84t118 32q106 0 156.5 -60t50.5 -144v-80h-361v-70q0 -59 37 -102t115 -43t114 33.5t36 78.5v9h56v-11z
M488 339v-40h303v40q0 60 -36.5 104.5t-114.5 44.5t-115 -44.5t-37 -104.5zM429 193v139q0 63 -37 108.5t-116 45.5t-116 -45.5t-37 -108.5v-139q0 -62 37 -108t116 -46t116 46t37 108z" />
    <glyph glyph-name="Racute" unicode="&#x154;" horiz-adv-x="654" 
d="M451 891l-95 -139h-49l79 139h65zM345 647h-188v-317h188q191 0 191 158q0 159 -191 159zM345 278h-188v-278h-63v700h251q254 0 254 -211q0 -161 -149 -199l136 -290h-66l-131 280q-28 -2 -44 -2z" />
    <glyph glyph-name="racute" unicode="&#x155;" horiz-adv-x="350" 
d="M322 736l-95 -139h-50l79 139h66zM142 0h-59v525h52l5 -102q47 112 187 112v-57h-11q-90 0 -132 -53t-42 -134v-291z" />
    <glyph glyph-name="uni0156" unicode="&#x156;" horiz-adv-x="654" 
d="M345 647h-188v-317h188q191 0 191 158q0 159 -191 159zM345 278h-188v-278h-63v700h251q254 0 254 -211q0 -161 -149 -199l136 -290h-66l-131 280q-28 -2 -44 -2zM352 -60v-15l-31 -115h-44l17 130h58z" />
    <glyph glyph-name="uni0157" unicode="&#x157;" horiz-adv-x="350" 
d="M142 0h-59v525h52l5 -102q47 112 187 112v-57h-11q-90 0 -132 -53t-42 -134v-291zM141 -60v-15l-31 -115h-44l17 130h58z" />
    <glyph glyph-name="Rcaron" unicode="&#x158;" horiz-adv-x="654" 
d="M332 784h1l70 107h48l-89 -139h-59l-89 139h48zM345 647h-188v-317h188q191 0 191 158q0 159 -191 159zM345 278h-188v-278h-63v700h251q254 0 254 -211q0 -161 -149 -199l136 -290h-66l-131 280q-28 -2 -44 -2z" />
    <glyph glyph-name="rcaron" unicode="&#x159;" horiz-adv-x="350" 
d="M204 629h1l70 107h48l-89 -139h-59l-89 139h48zM142 0h-59v525h52l5 -102q47 112 187 112v-57h-11q-90 0 -132 -53t-42 -134v-291z" />
    <glyph glyph-name="Sacute" unicode="&#x15a;" horiz-adv-x="621" 
d="M427 891l-95 -139h-49l79 139h65zM548 513h-62v10q0 63 -41 98.5t-142 35.5q-174 0 -174 -131q0 -47 28 -74t89 -41l159 -36q157 -37 157 -174q0 -99 -58.5 -155.5t-180.5 -56.5q-263 0 -263 175v11h61v-10q0 -57 44.5 -89.5t157.5 -32.5q88 0 131.5 39.5t43.5 112.5
q0 96 -114 123l-159 36q-79 18 -118 58t-39 110q0 86 58 137.5t178 51.5q129 0 186.5 -51.5t57.5 -135.5v-11z" />
    <glyph glyph-name="sacute" unicode="&#x15b;" horiz-adv-x="514" 
d="M374 736l-95 -139h-50l79 139h66zM447 383h-57v8q0 99 -140 99q-65 0 -98 -25.5t-33 -69.5q0 -34 22 -53.5t70 -30.5l122 -27q128 -30 128 -134q0 -73 -50 -117t-149 -44q-208 0 -208 135v10h58v-9q0 -41 33.5 -64.5t117.5 -23.5q69 0 104 29t35 79q0 66 -87 87l-119 26
q-67 15 -100 45.5t-33 88.5q0 65 48 104.5t140 39.5q196 0 196 -144v-9z" />
    <glyph glyph-name="Scircumflex" unicode="&#x15c;" horiz-adv-x="621" 
d="M308 859h-1l-70 -107h-48l89 139h59l89 -139h-48zM548 513h-62v10q0 63 -41 98.5t-142 35.5q-174 0 -174 -131q0 -47 28 -74t89 -41l159 -36q157 -37 157 -174q0 -99 -58.5 -155.5t-180.5 -56.5q-263 0 -263 175v11h61v-10q0 -57 44.5 -89.5t157.5 -32.5q88 0 131.5 39.5
t43.5 112.5q0 96 -114 123l-159 36q-79 18 -118 58t-39 110q0 86 58 137.5t178 51.5q129 0 186.5 -51.5t57.5 -135.5v-11z" />
    <glyph glyph-name="scircumflex" unicode="&#x15d;" horiz-adv-x="514" 
d="M257 704h-1l-70 -107h-48l89 139h59l89 -139h-48zM447 383h-57v8q0 99 -140 99q-65 0 -98 -25.5t-33 -69.5q0 -34 22 -53.5t70 -30.5l122 -27q128 -30 128 -134q0 -73 -50 -117t-149 -44q-208 0 -208 135v10h58v-9q0 -41 33.5 -64.5t117.5 -23.5q69 0 104 29t35 79
q0 66 -87 87l-119 26q-67 15 -100 45.5t-33 88.5q0 65 48 104.5t140 39.5q196 0 196 -144v-9z" />
    <glyph glyph-name="Scedilla" unicode="&#x15e;" horiz-adv-x="621" 
d="M300 -208q-82 0 -82 59v10h38v-7q0 -24 43 -24q42 0 42 40q0 38 -43 38q-18 0 -44 -13l-29 17l43 79q-208 18 -208 173v11h61v-10q0 -57 44.5 -89.5t157.5 -32.5q88 0 131.5 39.5t43.5 112.5q0 96 -114 123l-159 36q-79 18 -118 58t-39 110q0 86 58 137.5t178 51.5
q129 0 186.5 -51.5t57.5 -135.5v-11h-62v10q0 63 -41 98.5t-142 35.5q-174 0 -174 -131q0 -47 28 -74t89 -41l159 -36q157 -37 157 -174q0 -99 -58.5 -155.5t-180.5 -56.5h-16l-27 -49q12 5 28 5q38 0 57.5 -21.5t19.5 -52.5q0 -32 -20.5 -55.5t-64.5 -23.5z" />
    <glyph glyph-name="scedilla" unicode="&#x15f;" horiz-adv-x="514" 
d="M253 -208q-82 0 -82 59v10h38v-7q0 -24 43 -24q42 0 42 40q0 38 -43 38q-18 0 -44 -13l-29 17l42 78q-166 13 -166 134v10h58v-9q0 -41 33.5 -64.5t117.5 -23.5q69 0 104 29t35 79q0 66 -87 87l-119 26q-67 15 -100 45.5t-33 88.5q0 65 48 104.5t140 39.5q196 0 196 -144
v-9h-57v8q0 99 -140 99q-65 0 -98 -25.5t-33 -69.5q0 -34 22 -53.5t70 -30.5l122 -27q128 -30 128 -134q0 -73 -50 -117t-149 -44h-2l-27 -49q12 5 28 5q39 0 58 -21.5t19 -52.5q0 -32 -20.5 -55.5t-64.5 -23.5z" />
    <glyph glyph-name="Scaron" unicode="&#x160;" horiz-adv-x="621" 
d="M307 784h1l70 107h48l-89 -139h-59l-89 139h48zM548 513h-62v10q0 63 -41 98.5t-142 35.5q-174 0 -174 -131q0 -47 28 -74t89 -41l159 -36q157 -37 157 -174q0 -99 -58.5 -155.5t-180.5 -56.5q-263 0 -263 175v11h61v-10q0 -57 44.5 -89.5t157.5 -32.5q88 0 131.5 39.5
t43.5 112.5q0 96 -114 123l-159 36q-79 18 -118 58t-39 110q0 86 58 137.5t178 51.5q129 0 186.5 -51.5t57.5 -135.5v-11z" />
    <glyph glyph-name="scaron" unicode="&#x161;" horiz-adv-x="514" 
d="M256 629h1l70 107h48l-89 -139h-59l-89 139h48zM447 383h-57v8q0 99 -140 99q-65 0 -98 -25.5t-33 -69.5q0 -34 22 -53.5t70 -30.5l122 -27q128 -30 128 -134q0 -73 -50 -117t-149 -44q-208 0 -208 135v10h58v-9q0 -41 33.5 -64.5t117.5 -23.5q69 0 104 29t35 79
q0 66 -87 87l-119 26q-67 15 -100 45.5t-33 88.5q0 65 48 104.5t140 39.5q196 0 196 -144v-9z" />
    <glyph glyph-name="uni0162" unicode="&#x162;" horiz-adv-x="565" 
d="M291 -208q-43 0 -62.5 17t-19.5 42v10h38v-7q0 -24 43 -24q42 0 42 40q0 38 -43 38q-17 0 -43 -13l-30 17l42 88h-7v645h-226v55h515v-55h-227v-645h-16l-27 -61q15 6 29 6q39 0 58 -21.5t19 -52.5q0 -32 -20.5 -55.5t-64.5 -23.5z" />
    <glyph glyph-name="uni0163" unicode="&#x163;" horiz-adv-x="354" 
d="M211 -208q-44 0 -63.5 17t-19.5 42v10h38v-7q0 -24 43 -24t43 40q0 38 -43 38q-18 0 -44 -13l-29 17l59 101q-89 33 -89 145v319h-79v48h79v139h59v-139h150v-48h-150v-316q0 -111 125 -111h45v-50h-53q-32 0 -52 4l-39 -64q13 5 28 5q38 0 57.5 -21.5t19.5 -52.5
q0 -32 -21 -55.5t-64 -23.5z" />
    <glyph glyph-name="Tcaron" unicode="&#x164;" horiz-adv-x="565" 
d="M282 784h1l70 107h48l-89 -139h-59l-89 139h48zM540 645h-227v-645h-62v645h-226v55h515v-55z" />
    <glyph glyph-name="tcaron" unicode="&#x165;" horiz-adv-x="354" 
d="M299 743v-15l-20 -115h-35v130h55zM335 50v-50h-53q-176 0 -176 158v319h-79v48h79v139h59v-139h150v-48h-150v-316q0 -111 125 -111h45z" />
    <glyph glyph-name="Tbar" unicode="&#x166;" horiz-adv-x="600" 
d="M501 325h-171v-325h-62v325h-170v47h170v273h-226v55h515v-55h-227v-273h171v-47z" />
    <glyph glyph-name="tbar" unicode="&#x167;" horiz-adv-x="357" 
d="M337 50v-50h-53q-176 0 -176 158v114h-66v43h66v162h-79v48h79v139h59v-139h150v-48h-150v-162h141v-43h-141v-111q0 -111 125 -111h45z" />
    <glyph glyph-name="Utilde" unicode="&#x168;" horiz-adv-x="686" 
d="M348 770l-35 28q-19 13 -36 13q-46 0 -46 -59h-37q0 51 23.5 76.5t58.5 25.5q33 0 58 -21l34 -27q21 -15 39 -15q46 0 46 60h36q0 -51 -22.5 -76.5t-57.5 -25.5t-61 21zM89 700h62v-465q0 -79 46 -135t145 -56q52 0 91 16.5t60.5 45t31.5 60.5t10 69v465h62v-468
q0 -47 -13 -88t-41.5 -77t-80 -57t-120.5 -21q-68 0 -119 21t-79 57t-41.5 77.5t-13.5 87.5v468z" />
    <glyph glyph-name="utilde" unicode="&#x169;" horiz-adv-x="575" 
d="M291 615l-35 27q-18 14 -36 14q-46 0 -46 -59h-37q0 50 23.5 76t58.5 26q33 0 58 -21l34 -27q21 -15 39 -15q46 0 46 60h36q0 -52 -22 -77t-58 -25q-35 0 -61 21zM440 0l-4 85q-47 -96 -172 -96q-90 0 -138 54.5t-48 134.5v347h59v-335q0 -62 33.5 -105t109.5 -43
q79 0 115.5 47.5t36.5 116.5v319h60v-525h-52z" />
    <glyph glyph-name="Umacron" unicode="&#x16a;" horiz-adv-x="686" 
d="M224 855h237v-42h-237v42zM89 700h62v-465q0 -79 46 -135t145 -56q52 0 91 16.5t60.5 45t31.5 60.5t10 69v465h62v-468q0 -47 -13 -88t-41.5 -77t-80 -57t-120.5 -21q-68 0 -119 21t-79 57t-41.5 77.5t-13.5 87.5v468z" />
    <glyph glyph-name="umacron" unicode="&#x16b;" horiz-adv-x="575" 
d="M166 681h237v-40h-237v40zM440 0l-4 85q-47 -96 -172 -96q-90 0 -138 54.5t-48 134.5v347h59v-335q0 -62 33.5 -105t109.5 -43q79 0 115.5 47.5t36.5 116.5v319h60v-525h-52z" />
    <glyph glyph-name="Ubreve" unicode="&#x16c;" horiz-adv-x="686" 
d="M403 867h41v-27q0 -44 -28 -71t-75 -27t-74.5 27t-27.5 71v27h41v-27q0 -26 16.5 -42.5t44.5 -16.5t45 16.5t17 42.5v27zM89 700h62v-465q0 -79 46 -135t145 -56q52 0 91 16.5t60.5 45t31.5 60.5t10 69v465h62v-468q0 -47 -13 -88t-41.5 -77t-80 -57t-120.5 -21
q-68 0 -119 21t-79 57t-41.5 77.5t-13.5 87.5v468z" />
    <glyph glyph-name="ubreve" unicode="&#x16d;" horiz-adv-x="575" 
d="M346 711h41v-27q0 -44 -27.5 -70.5t-75.5 -26.5q-47 0 -74.5 26.5t-27.5 70.5v27h41v-27q0 -26 16.5 -42.5t44.5 -16.5t45 16.5t17 42.5v27zM440 0l-4 85q-47 -96 -172 -96q-90 0 -138 54.5t-48 134.5v347h59v-335q0 -62 33.5 -105t109.5 -43q79 0 115.5 47.5t36.5 116.5
v319h60v-525h-52z" />
    <glyph glyph-name="Uring" unicode="&#x16e;" horiz-adv-x="686" 
d="M341 930q40 0 68 -27t28 -67q0 -39 -28 -66t-68 -27q-39 0 -66 27t-27 66q0 40 27 67t66 27zM341 778q24 0 41 17t17 41q0 25 -17 41.5t-41 16.5q-23 0 -39.5 -16.5t-16.5 -41.5q0 -24 16.5 -41t39.5 -17zM89 700h62v-465q0 -79 46 -135t145 -56q52 0 91 16.5t60.5 45
t31.5 60.5t10 69v465h62v-468q0 -47 -13 -88t-41.5 -77t-80 -57t-120.5 -21q-68 0 -119 21t-79 57t-41.5 77.5t-13.5 87.5v468z" />
    <glyph glyph-name="uring" unicode="&#x16f;" horiz-adv-x="575" 
d="M284 774q40 0 67.5 -27t27.5 -67q0 -39 -27.5 -66t-67.5 -27q-39 0 -66.5 27t-27.5 66q0 40 27.5 67t66.5 27zM284 623q24 0 40.5 16.5t16.5 40.5q0 25 -16.5 42t-40.5 17q-23 0 -39.5 -17t-16.5 -42q0 -24 16.5 -40.5t39.5 -16.5zM440 0l-4 85q-47 -96 -172 -96
q-90 0 -138 54.5t-48 134.5v347h59v-335q0 -62 33.5 -105t109.5 -43q79 0 115.5 47.5t36.5 116.5v319h60v-525h-52z" />
    <glyph glyph-name="Uhungarumlaut" unicode="&#x170;" horiz-adv-x="686" 
d="M515 891l-106 -139h-51l91 139h66zM394 891l-92 -139h-51l77 139h66zM89 700h62v-465q0 -79 46 -135t145 -56q52 0 91 16.5t60.5 45t31.5 60.5t10 69v465h62v-468q0 -47 -13 -88t-41.5 -77t-80 -57t-120.5 -21q-68 0 -119 21t-79 57t-41.5 77.5t-13.5 87.5v468z" />
    <glyph glyph-name="uhungarumlaut" unicode="&#x171;" horiz-adv-x="575" 
d="M461 736l-106 -139h-51l90 139h67zM340 736l-92 -139h-52l77 139h67zM440 0l-4 85q-47 -96 -172 -96q-90 0 -138 54.5t-48 134.5v347h59v-335q0 -62 33.5 -105t109.5 -43q79 0 115.5 47.5t36.5 116.5v319h60v-525h-52z" />
    <glyph glyph-name="Uogonek" unicode="&#x172;" horiz-adv-x="686" 
d="M414 -180q-43 0 -69.5 23.5t-26.5 56.5q0 52 53 90q-4 0 -14 -0.5t-15 -0.5q-68 0 -119 21t-79 57t-41.5 77.5t-13.5 87.5v468h62v-465q0 -79 46 -135t145 -56q52 0 91 16.5t60.5 45t31.5 60.5t10 69v465h62v-468q0 -163 -140 -224q-89 -39 -89 -96q0 -23 16.5 -36
t43.5 -13q16 0 42 6v-37q-27 -12 -56 -12z" />
    <glyph glyph-name="uogonek" unicode="&#x173;" horiz-adv-x="575" 
d="M492 -168q-27 -12 -56 -12q-44 0 -70 23.5t-26 56.5q0 68 99 115l-3 70q-47 -96 -172 -96q-90 0 -138 54.5t-48 134.5v347h59v-335q0 -62 33.5 -105t109.5 -43q79 0 115.5 47.5t36.5 116.5v319h60v-525h-22q-81 -43 -81 -88q0 -23 17 -36t44 -13q16 0 42 6v-37z" />
    <glyph glyph-name="Wcircumflex" unicode="&#x174;" horiz-adv-x="923" 
d="M462 859h-1l-70 -107h-48l89 139h59l89 -139h-48zM217 0l-182 700h64l153 -605l180 605h61l181 -606l151 606h63l-182 -700h-61l-183 599l-183 -599h-62z" />
    <glyph glyph-name="wcircumflex" unicode="&#x175;" horiz-adv-x="786" 
d="M397 704h-1l-70 -107h-48l89 139h59l89 -139h-48zM188 0l-153 525h62l124 -450l144 450h59l144 -450l124 450h59l-153 -525h-58l-147 445l-147 -445h-58z" />
    <glyph glyph-name="Ycircumflex" unicode="&#x176;" horiz-adv-x="589" 
d="M296 859h-1l-70 -107h-48l89 139h59l89 -139h-48zM326 0h-62v264l-243 436h67l206 -377l210 377h64l-242 -432v-268z" />
    <glyph glyph-name="ycircumflex" unicode="&#x177;" horiz-adv-x="505" 
d="M260 704h-1l-70 -107h-48l89 139h59l89 -139h-48zM214 -180h-58l69 183l-194 522h63l160 -444l165 444h59z" />
    <glyph glyph-name="Ydieresis" unicode="&#x178;" horiz-adv-x="589" 
d="M384 811h-58v68h58v-68zM265 811h-58v68h58v-68zM326 0h-62v264l-243 436h67l206 -377l210 377h64l-242 -432v-268z" />
    <glyph glyph-name="Zacute" unicode="&#x179;" horiz-adv-x="579" 
d="M407 891l-95 -139h-49l79 139h65zM56 700h469v-48l-406 -598h418v-54h-497v49l406 597h-390v54z" />
    <glyph glyph-name="zacute" unicode="&#x17a;" horiz-adv-x="490" 
d="M361 736l-95 -139h-50l79 139h66zM54 525h383v-43l-321 -435h330v-47h-404v45l321 433h-309v47z" />
    <glyph glyph-name="Zdotaccent" unicode="&#x17b;" horiz-adv-x="579" 
d="M322 811h-66v74h66v-74zM56 700h469v-48l-406 -598h418v-54h-497v49l406 597h-390v54z" />
    <glyph glyph-name="zdotaccent" unicode="&#x17c;" horiz-adv-x="490" 
d="M277 641h-66v74h66v-74zM54 525h383v-43l-321 -435h330v-47h-404v45l321 433h-309v47z" />
    <glyph glyph-name="Zcaron" unicode="&#x17d;" horiz-adv-x="579" 
d="M288 784h1l70 107h48l-89 -139h-59l-89 139h48zM56 700h469v-48l-406 -598h418v-54h-497v49l406 597h-390v54z" />
    <glyph glyph-name="zcaron" unicode="&#x17e;" horiz-adv-x="490" 
d="M243 629h1l70 107h48l-89 -139h-59l-89 139h48zM54 525h383v-43l-321 -435h330v-47h-404v45l321 433h-309v47z" />
    <glyph glyph-name="longs" unicode="&#x17f;" horiz-adv-x="297" 
d="M167 0h-60v478h-77v47h77v25q0 80 44 130t142 50h42v-50h-43q-125 0 -125 -128v-552z" />
    <glyph glyph-name="florin" unicode="&#x192;" horiz-adv-x="474" 
d="M211 24q-22 -180 -204 -180h-43v50h46q127 0 142 130l39 321h-116v49h122l15 126q22 180 204 180h43v-50h-46q-127 0 -142 -130l-15 -126h117v-49h-123z" />
    <glyph glyph-name="uni0218" unicode="&#x218;" horiz-adv-x="621" 
d="M548 513h-62v10q0 63 -41 98.5t-142 35.5q-174 0 -174 -131q0 -47 28 -74t89 -41l159 -36q157 -37 157 -174q0 -99 -58.5 -155.5t-180.5 -56.5q-263 0 -263 175v11h61v-10q0 -57 44.5 -89.5t157.5 -32.5q88 0 131.5 39.5t43.5 112.5q0 96 -114 123l-159 36
q-79 18 -118 58t-39 110q0 86 58 137.5t178 51.5q129 0 186.5 -51.5t57.5 -135.5v-11zM339 -60v-15l-31 -115h-44l17 130h58z" />
    <glyph glyph-name="uni0219" unicode="&#x219;" horiz-adv-x="514" 
d="M447 383h-57v8q0 99 -140 99q-65 0 -98 -25.5t-33 -69.5q0 -34 22 -53.5t70 -30.5l122 -27q128 -30 128 -134q0 -73 -50 -117t-149 -44q-208 0 -208 135v10h58v-9q0 -41 33.5 -64.5t117.5 -23.5q69 0 104 29t35 79q0 66 -87 87l-119 26q-67 15 -100 45.5t-33 88.5
q0 65 48 104.5t140 39.5q196 0 196 -144v-9zM286 -60v-15l-31 -115h-44l17 130h58z" />
    <glyph glyph-name="uni021A" unicode="&#x21a;" horiz-adv-x="565" 
d="M540 645h-227v-645h-62v645h-226v55h515v-55zM311 -60v-15l-31 -115h-44l17 130h58z" />
    <glyph glyph-name="uni021B" unicode="&#x21b;" horiz-adv-x="354" 
d="M335 50v-50h-53q-176 0 -176 158v319h-79v48h79v139h59v-139h150v-48h-150v-316q0 -111 125 -111h45zM174 -60v-15l-31 -115h-44l17 130h58z" />
    <glyph glyph-name="uni0237" unicode="&#x237;" horiz-adv-x="231" 
d="M-62 -179v50h26q64 0 92.5 27.5t28.5 69.5v557h60v-555q0 -63 -41 -106t-134 -43h-32z" />
    <glyph glyph-name="circumflex" unicode="&#x2c6;" horiz-adv-x="500" 
d="M250 704h-1l-70 -107h-48l89 139h59l89 -139h-48z" />
    <glyph glyph-name="caron" unicode="&#x2c7;" horiz-adv-x="500" 
d="M249 629h1l70 107h48l-89 -139h-59l-89 139h48z" />
    <glyph glyph-name="uni02C9" unicode="&#x2c9;" horiz-adv-x="500" 
d="M131 681h237v-40h-237v40z" />
    <glyph glyph-name="breve" unicode="&#x2d8;" horiz-adv-x="500" 
d="M311 711h41v-27q0 -44 -27.5 -70.5t-75.5 -26.5q-47 0 -74.5 26.5t-27.5 70.5v27h41v-27q0 -26 16.5 -42.5t44.5 -16.5t45 16.5t17 42.5v27z" />
    <glyph glyph-name="dotaccent" unicode="&#x2d9;" horiz-adv-x="500" 
d="M283 641h-66v74h66v-74z" />
    <glyph glyph-name="ring" unicode="&#x2da;" horiz-adv-x="500" 
d="M249 774q40 0 67.5 -27t27.5 -67q0 -39 -27.5 -66t-67.5 -27q-39 0 -66.5 27t-27.5 66q0 40 27.5 67t66.5 27zM249 623q24 0 40.5 16.5t16.5 40.5q0 25 -16.5 42t-40.5 17q-23 0 -39.5 -17t-16.5 -42q0 -24 16.5 -40.5t39.5 -16.5z" />
    <glyph glyph-name="ogonek" unicode="&#x2db;" horiz-adv-x="500" 
d="M323 -131v-37q-25 -12 -56 -12q-43 0 -69.5 23.5t-26.5 56.5q0 70 106 118l33 -13q-89 -47 -89 -93q0 -23 16.5 -36t43.5 -13q17 0 42 6z" />
    <glyph glyph-name="tilde" unicode="&#x2dc;" horiz-adv-x="500" 
d="M257 615l-35 27q-17 14 -36 14q-46 0 -46 -59h-37q0 50 23.5 76t58.5 26q33 0 58 -21l34 -27q21 -15 39 -15q46 0 46 60h36q0 -52 -22 -77t-58 -25q-35 0 -61 21z" />
    <glyph glyph-name="hungarumlaut" unicode="&#x2dd;" horiz-adv-x="500" 
d="M387 736l-106 -139h-51l90 139h67zM266 736l-92 -139h-52l77 139h67z" />
    <glyph glyph-name="uni0394" unicode="&#x394;" horiz-adv-x="588" 
d="M559 0h-531l225 700h81zM102 50h383l-189 586h-5z" />
    <glyph glyph-name="uni03A9" unicode="&#x3a9;" horiz-adv-x="658" 
d="M522 325v140q0 79 -46.5 135t-147.5 56q-99 0 -145 -56t-46 -135v-140q0 -78 34.5 -128.5t79.5 -64.5v-132h-180v52h137v43q-55 19 -94 80.5t-39 146.5v147q0 46 13.5 87t41.5 77t79 57t119 21q69 0 120.5 -21t80 -57t41.5 -77t13 -87v-147q0 -85 -39 -146.5t-93 -80.5
v-43h137v-52h-181v132q46 14 80.5 64.5t34.5 128.5z" />
    <glyph glyph-name="uni03BC" unicode="&#x3bc;" horiz-adv-x="580" 
d="M269 -11q-86 0 -133 59l6 -228h-59v705h59v-335q0 -61 35 -104.5t108 -43.5q80 0 116.5 47.5t36.5 116.5v319h59v-525h-52l-4 85q-45 -96 -172 -96z" />
    <glyph glyph-name="pi" unicode="&#x3c0;" horiz-adv-x="601" 
d="M518 0h-62v473h-311v-473h-62v525h435v-525z" />
    <glyph glyph-name="Wgrave" unicode="&#x1e80;" horiz-adv-x="923" 
d="M436 752l-92 139h69l77 -139h-54zM217 0l-182 700h64l153 -605l180 605h61l181 -606l151 606h63l-182 -700h-61l-183 599l-183 -599h-62z" />
    <glyph glyph-name="wgrave" unicode="&#x1e81;" horiz-adv-x="786" 
d="M374 597l-95 139h65l80 -139h-50zM188 0l-153 525h62l124 -450l144 450h59l144 -450l124 450h59l-153 -525h-58l-147 445l-147 -445h-58z" />
    <glyph glyph-name="Wacute" unicode="&#x1e82;" horiz-adv-x="923" 
d="M580 891l-95 -139h-49l79 139h65zM217 0l-182 700h64l153 -605l180 605h61l181 -606l151 606h63l-182 -700h-61l-183 599l-183 -599h-62z" />
    <glyph glyph-name="wacute" unicode="&#x1e83;" horiz-adv-x="786" 
d="M514 736l-95 -139h-50l79 139h66zM188 0l-153 525h62l124 -450l144 450h59l144 -450l124 450h59l-153 -525h-58l-147 445l-147 -445h-58z" />
    <glyph glyph-name="Wdieresis" unicode="&#x1e84;" horiz-adv-x="923" 
d="M550 811h-58v68h58v-68zM431 811h-58v68h58v-68zM217 0l-182 700h64l153 -605l180 605h61l181 -606l151 606h63l-182 -700h-61l-183 599l-183 -599h-62z" />
    <glyph glyph-name="wdieresis" unicode="&#x1e85;" horiz-adv-x="786" 
d="M485 638h-58v68h58v-68zM366 638h-58v68h58v-68zM188 0l-153 525h62l124 -450l144 450h59l144 -450l124 450h59l-153 -525h-58l-147 445l-147 -445h-58z" />
    <glyph glyph-name="Ygrave" unicode="&#x1ef2;" horiz-adv-x="589" 
d="M270 752l-92 139h69l77 -139h-54zM326 0h-62v264l-243 436h67l206 -377l210 377h64l-242 -432v-268z" />
    <glyph glyph-name="ygrave" unicode="&#x1ef3;" horiz-adv-x="505" 
d="M237 597l-95 139h65l80 -139h-50zM214 -180h-58l69 183l-194 522h63l160 -444l165 444h59z" />
    <glyph glyph-name="endash" unicode="&#x2013;" horiz-adv-x="572" 
d="M75 340h422v-55h-422v55z" />
    <glyph glyph-name="emdash" unicode="&#x2014;" horiz-adv-x="912" 
d="M75 340h762v-55h-762v55z" />
    <glyph glyph-name="quoteleft" unicode="&#x2018;" horiz-adv-x="217" 
d="M63 516v16l51 168h45l-32 -184h-64z" />
    <glyph glyph-name="quoteright" unicode="&#x2019;" horiz-adv-x="214" 
d="M161 700v-16l-51 -168h-45l32 184h64z" />
    <glyph glyph-name="quotesinglbase" unicode="&#x201a;" horiz-adv-x="218" 
d="M145 78v-16l-51 -168h-45l32 184h64z" />
    <glyph glyph-name="quotedblleft" unicode="&#x201c;" horiz-adv-x="342" 
d="M188 516v16l51 168h45l-32 -184h-64zM63 516v16l51 168h45l-32 -184h-64z" />
    <glyph glyph-name="quotedblright" unicode="&#x201d;" horiz-adv-x="339" 
d="M286 700v-16l-51 -168h-45l32 184h64zM161 700v-16l-51 -168h-45l32 184h64z" />
    <glyph glyph-name="quotedblbase" unicode="&#x201e;" horiz-adv-x="342" 
d="M270 78v-16l-51 -168h-45l32 184h64zM145 78v-16l-51 -168h-45l32 184h64z" />
    <glyph glyph-name="dagger" unicode="&#x2020;" horiz-adv-x="484" 
d="M276 61v-61h-65v61l18 424l-142 -11h-23v51h23l140 -11l-15 163v23h63v-23l-13 -162l136 10h22v-51h-22l-137 11z" />
    <glyph glyph-name="daggerdbl" unicode="&#x2021;" horiz-adv-x="484" 
d="M212 350l15 135l-140 -11h-23v51h23l140 -11l-15 163v23h63v-23l-13 -162l136 10h22v-51h-22l-136 10l14 -134l-15 -134l137 10h22v-50h-22l-137 9l14 -162v-23h-63v23l14 163l-139 -10h-23v50h23l139 -10z" />
    <glyph glyph-name="bullet" unicode="&#x2022;" horiz-adv-x="347" 
d="M247 279h-147v142h147v-142z" />
    <glyph glyph-name="ellipsis" unicode="&#x2026;" horiz-adv-x="608" 
d="M535 0h-66v78h66v-78zM337 0h-66v78h66v-78zM139 0h-66v78h66v-78z" />
    <glyph glyph-name="perthousand" unicode="&#x2030;" horiz-adv-x="1064" 
d="M298 582v-114q0 -50 -30 -87t-93 -37t-92.5 36.5t-29.5 87.5v114q0 51 29.5 87.5t92.5 36.5t93 -37t30 -87zM618 700l-433 -700h-57l433 700h57zM247 470v110q0 34 -17 58.5t-55 24.5q-37 0 -54.5 -24.5t-17.5 -58.5v-110q0 -33 17.5 -57.5t54.5 -24.5q38 0 55 24t17 58z
M1016 232v-114q0 -50 -30 -87t-93 -37t-92.5 36.5t-29.5 87.5v114q0 51 29.5 87.5t92.5 36.5t93 -37t30 -87zM703 232v-114q0 -50 -30 -87t-93 -37t-92.5 36.5t-29.5 87.5v114q0 51 29.5 87.5t92.5 36.5t93 -37t30 -87zM965 120v110q0 34 -17 58.5t-55 24.5
q-37 0 -54.5 -24.5t-17.5 -58.5v-110q0 -33 17.5 -57.5t54.5 -24.5q38 0 55 24t17 58zM652 120v110q0 34 -17 58.5t-55 24.5q-37 0 -54.5 -24.5t-17.5 -58.5v-110q0 -33 17.5 -57.5t54.5 -24.5q38 0 55 24t17 58z" />
    <glyph glyph-name="guilsinglleft" unicode="&#x2039;" horiz-adv-x="327" 
d="M202 73l-161 189l161 191h62l-152 -191l152 -189h-62z" />
    <glyph glyph-name="guilsinglright" unicode="&#x203a;" horiz-adv-x="327" 
d="M286 262l-161 -189h-62l152 189l-152 191h62z" />
    <glyph glyph-name="fraction" unicode="&#x2044;" horiz-adv-x="151" 
d="M319 700l-433 -700h-57l433 700h57z" />
    <glyph glyph-name="zero.superior" unicode="&#x2070;" horiz-adv-x="321" 
d="M283 722v-114q0 -50 -30 -87t-93 -37t-92.5 36.5t-29.5 87.5v114q0 51 29.5 87.5t92.5 36.5t93 -37t30 -87zM232 610v110q0 34 -17 58.5t-55 24.5q-37 0 -54.5 -24.5t-17.5 -58.5v-110q0 -33 17.5 -57.5t54.5 -24.5q38 0 55 24t17 58z" />
    <glyph glyph-name="four.superior" unicode="&#x2074;" horiz-adv-x="317" 
d="M145 840l-72 -206h144v206h51v-350h-51v102h-196v41l74 207h50z" />
    <glyph glyph-name="five.superior" unicode="&#x2075;" horiz-adv-x="303" 
d="M44 662v178h210v-42h-160v-95h63q120 0 120 -106q0 -113 -123 -113q-64 0 -93 28t-29 69v9h50v-7q0 -57 72 -57t72 72q0 64 -75 64h-107z" />
    <glyph glyph-name="six.superior" unicode="&#x2076;" horiz-adv-x="314" 
d="M160 484q-66 0 -94 32t-28 81v125q0 50 29.5 87t91.5 37t89.5 -28.5t27.5 -66.5v-8h-49v7q0 23 -17.5 39t-51.5 16t-52 -22.5t-18 -55.5v-65q22 40 83 40q59 0 86 -29.5t27 -76.5q0 -48 -29 -80t-95 -32zM160 522q72 0 72 72q0 70 -72 70t-72 -70q0 -72 72 -72z" />
    <glyph glyph-name="seven.superior" unicode="&#x2077;" horiz-adv-x="289" 
d="M14 840h260v-38l-153 -312h-55l150 308h-202v42z" />
    <glyph glyph-name="eight.superior" unicode="&#x2078;" horiz-adv-x="317" 
d="M158 484q-67 0 -96.5 30.5t-29.5 77.5q0 61 57 84q-47 20 -47 72q0 98 116 98q117 0 117 -98q0 -52 -47 -72q57 -23 57 -84q0 -47 -29.5 -77.5t-97.5 -30.5zM172 693q21 0 38 14.5t17 39.5q0 61 -69 61q-67 0 -67 -61q0 -25 16.5 -39.5t36.5 -14.5h28zM172 655h-28
q-23 0 -42 -17t-19 -45q0 -70 75 -70q77 0 77 70q0 28 -19.5 45t-43.5 17z" />
    <glyph glyph-name="nine.superior" unicode="&#x2079;" horiz-adv-x="314" 
d="M154 808q-72 0 -72 -72q0 -70 72 -70t72 70q0 72 -72 72zM154 845q66 0 94 -32t28 -80v-124q0 -51 -29 -87.5t-91 -36.5t-90.5 28.5t-28.5 67.5v6h50v-6q0 -23 17.5 -39.5t51.5 -16.5q35 0 52.5 22.5t17.5 55.5v64q-24 -39 -83 -39q-58 0 -85 29.5t-27 75.5q0 48 28.5 80
t94.5 32z" />
    <glyph glyph-name="parenleft.superior" unicode="&#x207d;" horiz-adv-x="193" 
d="M45 542v246q0 48 23.5 73t83.5 25h18v-42h-16q-59 0 -59 -59v-240q0 -59 59 -59h16v-42h-18q-60 0 -83.5 25t-23.5 73z" />
    <glyph glyph-name="parenright.superior" unicode="&#x207e;" horiz-adv-x="193" 
d="M149 788v-246q0 -48 -23.5 -73t-83.5 -25h-19v42h17q59 0 59 59v240q0 59 -59 59h-17v42h19q60 0 83.5 -25t23.5 -73z" />
    <glyph glyph-name="zero.inferior" unicode="&#x2080;" horiz-adv-x="321" 
d="M283 92v-114q0 -50 -30 -87t-93 -37t-92.5 36.5t-29.5 87.5v114q0 51 29.5 87.5t92.5 36.5t93 -37t30 -87zM232 -20v110q0 34 -17 58.5t-55 24.5q-37 0 -54.5 -24.5t-17.5 -58.5v-110q0 -33 17.5 -57.5t54.5 -24.5q38 0 55 24t17 58z" />
    <glyph glyph-name="one.inferior" unicode="&#x2081;" horiz-adv-x="289" 
d="M30 194l109 19h40v-310h97v-43h-246v43h97v260l-97 -14v45z" />
    <glyph glyph-name="two.inferior" unicode="&#x2082;" horiz-adv-x="310" 
d="M228 112q0 61 -72 61t-72 -65v-8h-50v10q0 45 29 75.5t93 30.5q122 0 122 -104q0 -68 -62 -94l-96 -39q-32 -13 -32 -39v-38h189v-42h-239v80q0 49 49 71l107 46q34 12 34 55z" />
    <glyph glyph-name="three.inferior" unicode="&#x2083;" horiz-adv-x="308" 
d="M153 -146q-64 0 -93 28t-29 69v11h49v-8q0 -58 71 -58q74 0 74 69q0 28 -18 43.5t-40 15.5h-58v38h57q18 0 33.5 14t15.5 39q0 59 -65 59q-66 0 -66 -56v-8h-49v11q0 41 27.5 68t88.5 27q62 0 88.5 -27.5t26.5 -70.5q0 -51 -45 -73q55 -22 55 -82q0 -48 -28.5 -78.5
t-94.5 -30.5z" />
    <glyph glyph-name="four.inferior" unicode="&#x2084;" horiz-adv-x="317" 
d="M145 210l-72 -206h144v206h51v-350h-51v102h-196v41l74 207h50z" />
    <glyph glyph-name="five.inferior" unicode="&#x2085;" horiz-adv-x="303" 
d="M44 32v178h210v-42h-160v-95h63q120 0 120 -106q0 -113 -123 -113q-64 0 -93 28t-29 69v9h50v-7q0 -57 72 -57t72 72q0 64 -75 64h-107z" />
    <glyph glyph-name="six.inferior" unicode="&#x2086;" horiz-adv-x="314" 
d="M160 -146q-66 0 -94 32t-28 81v125q0 50 29.5 87t91.5 37t89.5 -28.5t27.5 -66.5v-8h-49v7q0 23 -17.5 39t-51.5 16t-52 -22.5t-18 -55.5v-65q22 40 83 40q59 0 86 -29.5t27 -76.5q0 -48 -29 -80t-95 -32zM160 -108q72 0 72 72q0 70 -72 70t-72 -70q0 -72 72 -72z" />
    <glyph glyph-name="seven.inferior" unicode="&#x2087;" horiz-adv-x="289" 
d="M14 210h260v-38l-153 -312h-55l150 308h-202v42z" />
    <glyph glyph-name="eight.inferior" unicode="&#x2088;" horiz-adv-x="317" 
d="M158 -146q-67 0 -96.5 30.5t-29.5 77.5q0 61 57 84q-47 20 -47 72q0 98 116 98q117 0 117 -98q0 -52 -47 -72q57 -23 57 -84q0 -47 -29.5 -77.5t-97.5 -30.5zM172 63q21 0 38 14.5t17 39.5q0 61 -69 61q-67 0 -67 -61q0 -25 16.5 -39.5t36.5 -14.5h28zM172 25h-28
q-23 0 -42 -17t-19 -45q0 -70 75 -70q77 0 77 70q0 28 -19.5 45t-43.5 17z" />
    <glyph glyph-name="nine.inferior" unicode="&#x2089;" horiz-adv-x="314" 
d="M154 178q-72 0 -72 -72q0 -70 72 -70t72 70q0 72 -72 72zM154 215q66 0 94 -32t28 -80v-124q0 -51 -29 -87.5t-91 -36.5t-90.5 28.5t-28.5 67.5v6h50v-6q0 -23 17.5 -39.5t51.5 -16.5q35 0 52.5 22.5t17.5 55.5v64q-24 -39 -83 -39q-58 0 -85 29.5t-27 75.5q0 48 28.5 80
t94.5 32z" />
    <glyph glyph-name="parenleft.inferior" unicode="&#x208d;" horiz-adv-x="193" 
d="M45 -88v246q0 48 23.5 73t83.5 25h18v-42h-16q-59 0 -59 -59v-240q0 -59 59 -59h16v-42h-18q-60 0 -83.5 25t-23.5 73z" />
    <glyph glyph-name="parenright.inferior" unicode="&#x208e;" horiz-adv-x="193" 
d="M149 158v-246q0 -48 -23.5 -73t-83.5 -25h-19v42h17q59 0 59 59v240q0 59 -59 59h-17v42h19q60 0 83.5 -25t23.5 -73z" />
    <glyph glyph-name="franc" unicode="&#x20a3;" horiz-adv-x="932" 
d="M524 320h-362v-320h-63v700h441v-54h-378v-272h362v-54zM724 0h-59v525h52l5 -102q47 112 187 112v-57h-11q-90 0 -132 -53t-42 -134v-291z" />
    <glyph glyph-name="lira" unicode="&#x20a4;" horiz-adv-x="639" 
d="M565 50v-50h-502v45l77 5v192h-78v45h78v74h-78v45h78v66q0 46 11.5 86t36.5 75.5t71 56.5t107 21q109 0 162.5 -61.5t53.5 -145.5v-18h-60v14q0 64 -39.5 110t-118.5 46q-85 0 -124 -54t-39 -130v-66h194v-45h-194v-74h194v-45h-194v-192h364z" />
    <glyph glyph-name="peseta" unicode="&#x20a7;" horiz-adv-x="1513" 
d="M350 262h-188v-262h-63v700h251q71 0 122.5 -17.5t79 -49.5t40 -69t12.5 -83q0 -219 -254 -219zM978 50v-50h-53q-176 0 -176 158v319h-79v48h79v139h59v-139h150v-48h-150v-316q0 -111 125 -111h45zM350 646h-188v-331h188q191 0 191 166q0 165 -191 165zM1444 383h-57
v8q0 99 -140 99q-65 0 -98 -25.5t-33 -69.5q0 -34 22 -53.5t70 -30.5l122 -27q128 -30 128 -134q0 -73 -50 -117t-149 -44q-208 0 -208 135v10h58v-9q0 -41 33.5 -64.5t117.5 -23.5q69 0 104 29t35 79q0 66 -87 87l-119 26q-67 15 -100 45.5t-33 88.5q0 65 48 104.5
t140 39.5q196 0 196 -144v-9z" />
    <glyph glyph-name="Euro" unicode="&#x20ac;" horiz-adv-x="657" 
d="M592 191q0 -38 -12.5 -72.5t-38 -64.5t-72 -47.5t-108.5 -17.5q-63 0 -110.5 21t-74 57t-39 77.5t-12.5 87.5v33h-77v46h77v74h-77v46h77v38q0 46 12.5 87t39 77t74 57t110.5 21q119 0 175 -57.5t56 -136.5v-17h-62v15q0 58 -41 99.5t-127 41.5q-91 0 -133 -54.5
t-42 -132.5v-38h199v-46h-199v-74h199v-46h-199v-34q0 -78 42 -132.5t133 -54.5q87 0 127.5 43.5t40.5 105.5v16h62v-18z" />
    <glyph glyph-name="uni2113" unicode="&#x2113;" horiz-adv-x="488" 
d="M433 0h-119q-105 0 -144.5 48.5t-39.5 137.5v34q-18 -8 -49 -20.5t-38 -15.5l-18 47q73 30 105 45v228q0 90 41.5 148.5t127.5 58.5q148 0 148 -167q0 -171 -258 -297v-56q0 -68 26.5 -103.5t102.5 -35.5h115v-52zM189 504v-198q207 108 207 238q0 119 -96 119
q-111 0 -111 -159z" />
    <glyph glyph-name="trademark" unicode="&#x2122;" horiz-adv-x="826" 
d="M343 655h-125v-364h-51v364h-132v45h308v-45zM560 441l-113 174v-324h-50v409h51l125 -193l121 193h46v-409h-51v320l-107 -170h-22z" />
    <glyph glyph-name="Omega" unicode="&#x2126;" horiz-adv-x="658" 
d="M522 325v140q0 79 -46.5 135t-147.5 56q-99 0 -145 -56t-46 -135v-140q0 -78 34.5 -128.5t79.5 -64.5v-132h-180v52h137v43q-55 19 -94 80.5t-39 146.5v147q0 46 13.5 87t41.5 77t79 57t119 21q69 0 120.5 -21t80 -57t41.5 -77t13 -87v-147q0 -85 -39 -146.5t-93 -80.5
v-43h137v-52h-181v132q46 14 80.5 64.5t34.5 128.5z" />
    <glyph glyph-name="estimated" unicode="&#x212e;" horiz-adv-x="822" 
d="M711 139q-50 -69 -126.5 -109.5t-165.5 -40.5q-149 0 -254.5 106t-105.5 255t105.5 255t254.5 106q151 0 255.5 -106.5t104.5 -264.5h-616v-187q45 -59 112 -93t144 -34q80 0 148.5 36.5t113.5 99.5zM419 675q-77 0 -144 -34t-112 -93v-169h518v156q-44 64 -112 102
t-150 38z" />
    <glyph glyph-name="uni2153" unicode="&#x2153;" horiz-adv-x="764" 
d="M57 684l109 19h40v-310h97v-43h-246v43h97v260l-97 -14v45zM633 700l-433 -700h-57l433 700h57zM592 -6q-64 0 -93 28t-29 69v11h49v-8q0 -58 71 -58q74 0 74 69q0 28 -18 43.5t-40 15.5h-58v38h57q18 0 33.5 14t15.5 39q0 59 -65 59q-66 0 -66 -56v-8h-49v11q0 41 27 68
t89 27t88.5 -27.5t26.5 -70.5q0 -51 -45 -73q55 -22 55 -82q0 -48 -28.5 -78.5t-94.5 -30.5z" />
    <glyph glyph-name="uni2154" unicode="&#x2154;" horiz-adv-x="767" 
d="M251 602q0 61 -72 61t-72 -65v-8h-50v10q0 45 29 75.5t93 30.5q122 0 122 -104q0 -68 -62 -94l-96 -39q-32 -13 -32 -39v-38h189v-42h-239v80q0 49 49 71l107 46q34 12 34 55zM636 700l-433 -700h-57l433 700h57zM595 -6q-64 0 -93 28t-29 69v11h49v-8q0 -58 71 -58
q74 0 74 69q0 28 -18 43.5t-40 15.5h-58v38h57q18 0 33.5 14t15.5 39q0 59 -65 59q-66 0 -66 -56v-8h-49v11q0 41 27.5 68t88.5 27q62 0 88.5 -27.5t26.5 -70.5q0 -51 -45 -73q55 -22 55 -82q0 -48 -28.5 -78.5t-94.5 -30.5z" />
    <glyph glyph-name="uni2155" unicode="&#x2155;" horiz-adv-x="775" 
d="M57 684l109 19h40v-310h97v-43h-246v43h97v260l-97 -14v45zM633 700l-433 -700h-57l433 700h57zM493 173v178h210v-42h-160v-95h63q120 0 120 -106q0 -113 -123 -113q-64 0 -93 28t-29 69v9h50v-7q0 -57 72 -57t72 72q0 64 -75 64h-107z" />
    <glyph glyph-name="uni2156" unicode="&#x2156;" horiz-adv-x="780" 
d="M251 602q0 61 -72 61t-72 -65v-8h-50v10q0 45 29 75.5t93 30.5q122 0 122 -104q0 -68 -62 -94l-96 -39q-32 -13 -32 -39v-38h189v-42h-239v80q0 49 49 71l107 46q34 12 34 55zM638 700l-433 -700h-57l433 700h57zM498 172v178h210v-42h-160v-95h63q120 0 120 -106
q0 -113 -123 -113q-64 0 -93 28t-29 69v9h50v-7q0 -57 72 -57t72 72q0 64 -75 64h-107z" />
    <glyph glyph-name="uni2157" unicode="&#x2157;" horiz-adv-x="763" 
d="M621 700l-433 -700h-57l433 700h57zM174 344q-64 0 -93 28t-29 69v11h49v-8q0 -58 71 -58q74 0 74 69q0 28 -18 43.5t-40 15.5h-58v38h57q18 0 33.5 14t15.5 39q0 59 -65 59q-66 0 -66 -56v-8h-49v11q0 41 27 68t89 27t88.5 -27.5t26.5 -70.5q0 -51 -45 -73
q55 -22 55 -82q0 -48 -28.5 -78.5t-94.5 -30.5zM481 172v178h210v-42h-160v-95h63q120 0 120 -106q0 -113 -123 -113q-64 0 -93 28t-29 69v9h50v-7q0 -57 72 -57t72 72q0 64 -75 64h-107z" />
    <glyph glyph-name="uni2158" unicode="&#x2158;" horiz-adv-x="773" 
d="M630 700l-433 -700h-57l433 700h57zM162 700l-72 -206h144v206h51v-350h-51v102h-196v41l74 207h50zM491 172v178h210v-42h-160v-95h63q120 0 120 -106q0 -113 -123 -113q-64 0 -93 28t-29 69v9h50v-7q0 -57 72 -57t72 72q0 64 -75 64h-107z" />
    <glyph glyph-name="uni2159" unicode="&#x2159;" horiz-adv-x="770" 
d="M57 684l109 19h40v-310h97v-43h-246v43h97v260l-97 -14v45zM633 700l-433 -700h-57l433 700h57zM598 -6q-66 0 -94 32t-28 81v125q0 50 29.5 87t91.5 37t89.5 -28.5t27.5 -66.5v-8h-49v7q0 23 -17.5 39t-51.5 16t-52 -22.5t-18 -55.5v-65q22 40 83 40q59 0 86 -29.5
t27 -76.5q0 -48 -29 -80t-95 -32zM598 32q72 0 72 72q0 70 -72 70t-72 -70q0 -72 72 -72z" />
    <glyph glyph-name="uni215A" unicode="&#x215a;" horiz-adv-x="750" 
d="M612 700l-433 -700h-57l433 700h57zM64 522v178h210v-42h-160v-95h63q120 0 120 -106q0 -113 -123 -113q-64 0 -93 28t-29 69v9h50v-7q0 -57 72 -57t72 72q0 64 -75 64h-107zM577 -6q-66 0 -94 32t-28 81v125q0 50 29.5 87t91.5 37t89.5 -28.5t27.5 -66.5v-8h-49v7
q0 23 -17.5 39t-51.5 16t-52 -22.5t-18 -55.5v-65q22 40 83 40q59 0 86 -29.5t27 -76.5q0 -48 -29 -80t-95 -32zM577 32q72 0 72 72q0 70 -72 70t-72 -70q0 -72 72 -72z" />
    <glyph glyph-name="uni215B" unicode="&#x215b;" horiz-adv-x="770" 
d="M57 684l109 19h40v-310h97v-43h-246v43h97v260l-97 -14v45zM633 700l-433 -700h-57l433 700h57zM595 -6q-67 0 -96.5 30.5t-29.5 77.5q0 61 57 84q-47 20 -47 72q0 98 116 98q117 0 117 -98q0 -52 -47 -72q57 -23 57 -84q0 -47 -29.5 -77.5t-97.5 -30.5zM609 203
q21 0 38 14.5t17 39.5q0 61 -69 61q-67 0 -67 -61q0 -25 16.5 -39.5t36.5 -14.5h28zM609 165h-28q-23 0 -42 -17t-19 -45q0 -70 75 -70q77 0 77 70q0 28 -19.5 45t-43.5 17z" />
    <glyph glyph-name="uni215C" unicode="&#x215c;" horiz-adv-x="759" 
d="M621 700l-433 -700h-57l433 700h57zM174 344q-64 0 -93 28t-29 69v11h49v-8q0 -58 71 -58q74 0 74 69q0 28 -18 43.5t-40 15.5h-58v38h57q18 0 33.5 14t15.5 39q0 59 -65 59q-66 0 -66 -56v-8h-49v11q0 41 27 68t89 27t88.5 -27.5t26.5 -70.5q0 -51 -45 -73
q55 -22 55 -82q0 -48 -28.5 -78.5t-94.5 -30.5zM584 -6q-67 0 -96.5 30.5t-29.5 77.5q0 61 57 84q-47 20 -47 72q0 98 116 98q117 0 117 -98q0 -52 -47 -72q57 -23 57 -84q0 -47 -29.5 -77.5t-97.5 -30.5zM598 203q21 0 38 14.5t17 39.5q0 61 -69 61q-67 0 -67 -61
q0 -25 16.5 -39.5t36.5 -14.5h28zM598 165h-28q-23 0 -42 -17t-19 -45q0 -70 75 -70q77 0 77 70q0 28 -19.5 45t-43.5 17z" />
    <glyph glyph-name="uni215D" unicode="&#x215d;" horiz-adv-x="750" 
d="M612 700l-433 -700h-57l433 700h57zM64 522v178h210v-42h-160v-95h63q120 0 120 -106q0 -113 -123 -113q-64 0 -93 28t-29 69v9h50v-7q0 -57 72 -57t72 72q0 64 -75 64h-107zM575 -6q-67 0 -96.5 30.5t-29.5 77.5q0 61 57 84q-47 20 -47 72q0 98 116 98q117 0 117 -98
q0 -52 -47 -72q57 -23 57 -84q0 -47 -29.5 -77.5t-97.5 -30.5zM589 203q21 0 38 14.5t17 39.5q0 61 -69 61q-67 0 -67 -61q0 -25 16.5 -39.5t36.5 -14.5h28zM589 165h-28q-23 0 -42 -17t-19 -45q0 -70 75 -70q77 0 77 70q0 28 -19.5 45t-43.5 17z" />
    <glyph glyph-name="uni215E" unicode="&#x215e;" horiz-adv-x="712" 
d="M574 700l-433 -700h-57l433 700h57zM40 700h260v-38l-153 -312h-55l150 308h-202v42zM537 -6q-67 0 -96.5 30.5t-29.5 77.5q0 61 57 84q-47 20 -47 72q0 98 116 98q117 0 117 -98q0 -52 -47 -72q57 -23 57 -84q0 -47 -29.5 -77.5t-97.5 -30.5zM551 203q21 0 38 14.5
t17 39.5q0 61 -69 61q-67 0 -67 -61q0 -25 16.5 -39.5t36.5 -14.5h28zM551 165h-28q-23 0 -42 -17t-19 -45q0 -70 75 -70q77 0 77 70q0 28 -19.5 45t-43.5 17z" />
    <glyph glyph-name="uni215F" unicode="&#x215f;" horiz-adv-x="443" 
d="M57 684l109 19h40v-310h97v-43h-246v43h97v260l-97 -14v45zM633 700l-433 -700h-57l433 700h57z" />
    <glyph glyph-name="partialdiff" unicode="&#x2202;" horiz-adv-x="554" 
d="M475 186q0 -81 -50.5 -139t-159.5 -58q-58 0 -101 17.5t-67 46.5t-35 62.5t-11 70.5v58q0 81 50.5 139t158.5 58q101 0 156 -72v116q0 87 -41 132.5t-137 45.5h-100v48h90q133 0 190 -58t57 -170v-297zM416 187v57q0 60 -37 103.5t-116 43.5t-115.5 -43.5t-36.5 -103.5
v-57q0 -60 36.5 -103.5t115.5 -43.5t116 43.5t37 103.5z" />
    <glyph glyph-name="Delta" unicode="&#x2206;" horiz-adv-x="585" 
d="M558 0h-531l225 700h81zM101 50h383l-189 586h-5z" />
    <glyph glyph-name="product" unicode="&#x220f;" horiz-adv-x="712" 
d="M613 -126h-62v773h-389v-773h-62v826h513v-826z" />
    <glyph glyph-name="summation" unicode="&#x2211;" horiz-adv-x="579" 
d="M347 317v-21l-220 -367h403v-55h-491v31l243 403l-243 368v24h491v-55h-397z" />
    <glyph glyph-name="minus" unicode="&#x2212;" horiz-adv-x="572" 
d="M492 305h-412v53h412v-53z" />
    <glyph glyph-name="uni2215" unicode="&#x2215;" horiz-adv-x="151" 
d="M319 700l-433 -700h-57l433 700h57z" />
    <glyph glyph-name="uni2219" unicode="&#x2219;" horiz-adv-x="225" 
d="M146 321h-66v78h66v-78z" />
    <glyph glyph-name="radical" unicode="&#x221a;" horiz-adv-x="613" 
d="M35 473v52h139l142 -434h10l198 609h65l-235 -700h-68l-159 473h-92z" />
    <glyph glyph-name="infinity" unicode="&#x221e;" horiz-adv-x="855" 
d="M623 119q-64 0 -108 37t-83 98q-82 -133 -201 -133q-81 0 -124.5 47.5t-43.5 122.5t43.5 122t124.5 47q113 0 199 -124q81 122 193 122q82 0 125 -47t43 -122t-43 -122.5t-125 -47.5zM230 172q100 0 173 122q-77 115 -173 115q-54 0 -84.5 -33t-30.5 -85t30.5 -85.5
t84.5 -33.5zM625 407q-96 0 -163 -111q19 -29 31 -45t33 -38t45.5 -32.5t53.5 -10.5q54 0 84 33.5t30 85.5t-30 85t-84 33z" />
    <glyph glyph-name="integral" unicode="&#x222b;" horiz-adv-x="428" 
d="M244 529v-508q0 -85 -41.5 -131t-146.5 -46h-40v50h43q74 0 100 32t26 95v508q0 84 41.5 130t146.5 46h40v-50h-43q-74 0 -100 -32t-26 -94z" />
    <glyph glyph-name="approxequal" unicode="&#x2248;" horiz-adv-x="542" 
d="M432 465l37 -16q-20 -56 -44 -79.5t-66 -23.5q-39 0 -69 19l-39 25q-35 24 -60 24q-27 0 -45 -16t-33 -56l-36 15q18 55 44 80t67 25t79 -25l37 -25q32 -19 52 -19q27 0 42.5 15.5t33.5 56.5zM432 335l37 -16q-20 -56 -44 -79.5t-66 -23.5q-39 0 -69 19l-39 25
q-35 24 -60 24q-27 0 -45 -16t-33 -56l-36 15q18 55 44 80t67 25t79 -25l37 -25q32 -19 52 -19q27 0 42.5 15.5t33.5 56.5z" />
    <glyph glyph-name="notequal" unicode="&#x2260;" horiz-adv-x="572" 
d="M492 211h-277l-67 -77h-57l67 77h-78v54h120l115 133h-235v54h278l66 77h58l-67 -77h77v-54h-119l-115 -133h234v-54z" />
    <glyph glyph-name="lessequal" unicode="&#x2264;" horiz-adv-x="605" 
d="M136 355v-1l390 -148v-59l-455 184v48l455 183v-58zM71 14v48h455v-48h-455z" />
    <glyph glyph-name="greaterequal" unicode="&#x2265;" horiz-adv-x="605" 
d="M469 354v1l-390 149v58l455 -183v-48l-455 -184v59zM534 62v-48h-455v48h455z" />
    <glyph glyph-name="lozenge" unicode="&#x25ca;" horiz-adv-x="582" 
d="M550 349l-216 -349h-86l-216 349l216 351h86zM301 59l179 286l-183 297h-15l-180 -289l184 -294h15z" />
    <glyph glyph-name="hyphen.denominator" unicode="&#xf62b;" horiz-adv-x="216" 
d="M38 180h140v-45h-140v45z" />
    <glyph glyph-name="parenleft.denominator" unicode="&#xf62c;" horiz-adv-x="193" 
d="M45 52v246q0 48 23.5 73t83.5 25h18v-42h-16q-59 0 -59 -59v-240q0 -59 59 -59h16v-42h-18q-60 0 -83.5 25t-23.5 73z" />
    <glyph glyph-name="parenright.denominator" unicode="&#xf62d;" horiz-adv-x="193" 
d="M149 298v-246q0 -48 -23.5 -73t-83.5 -25h-19v42h17q59 0 59 59v240q0 59 -59 59h-17v42h19q60 0 83.5 -25t23.5 -73z" />
    <glyph glyph-name="hyphen.numerator" unicode="&#xf630;" horiz-adv-x="217" 
d="M38 530h140v-45h-140v45z" />
    <glyph glyph-name="parenleft.numerator" unicode="&#xf631;" horiz-adv-x="193" 
d="M45 402v246q0 48 23.5 73t83.5 25h18v-42h-16q-59 0 -59 -59v-240q0 -59 59 -59h16v-42h-18q-60 0 -83.5 25t-23.5 73z" />
    <glyph glyph-name="parenright.numerator" unicode="&#xf632;" horiz-adv-x="193" 
d="M149 648v-246q0 -48 -23.5 -73t-83.5 -25h-19v42h17q59 0 59 59v240q0 59 -59 59h-17v42h19q60 0 83.5 -25t23.5 -73z" />
    <glyph glyph-name="zero.denominator" unicode="&#xf655;" horiz-adv-x="321" 
d="M283 232v-114q0 -50 -30 -87t-93 -37t-92.5 36.5t-29.5 87.5v114q0 51 29.5 87.5t92.5 36.5t93 -37t30 -87zM232 120v110q0 34 -17 58.5t-55 24.5q-37 0 -54.5 -24.5t-17.5 -58.5v-110q0 -33 17.5 -57.5t54.5 -24.5q38 0 55 24t17 58z" />
    <glyph glyph-name="one.denominator" unicode="&#xf656;" horiz-adv-x="289" 
d="M30 334l109 19h40v-310h97v-43h-246v43h97v260l-97 -14v45z" />
    <glyph glyph-name="two.denominator" unicode="&#xf657;" horiz-adv-x="310" 
d="M228 252q0 61 -72 61t-72 -65v-8h-50v10q0 45 29 75.5t93 30.5q122 0 122 -104q0 -68 -62 -94l-96 -39q-32 -13 -32 -39v-38h189v-42h-239v80q0 49 49 71l107 46q34 12 34 55z" />
    <glyph glyph-name="three.denominator" unicode="&#xf658;" horiz-adv-x="308" 
d="M153 -6q-64 0 -93 28t-29 69v11h49v-8q0 -58 71 -58q74 0 74 69q0 28 -18 43.5t-40 15.5h-58v38h57q18 0 33.5 14t15.5 39q0 59 -65 59q-66 0 -66 -56v-8h-49v11q0 41 27.5 68t88.5 27q62 0 88.5 -27.5t26.5 -70.5q0 -51 -45 -73q55 -22 55 -82q0 -48 -28.5 -78.5
t-94.5 -30.5z" />
    <glyph glyph-name="four.denominator" unicode="&#xf659;" horiz-adv-x="317" 
d="M145 350l-72 -206h144v206h51v-350h-51v102h-196v41l74 207h50z" />
    <glyph glyph-name="five.denominator" unicode="&#xf65a;" horiz-adv-x="303" 
d="M44 172v178h210v-42h-160v-95h63q120 0 120 -106q0 -113 -123 -113q-64 0 -93 28t-29 69v9h50v-7q0 -57 72 -57t72 72q0 64 -75 64h-107z" />
    <glyph glyph-name="six.denominator" unicode="&#xf65b;" horiz-adv-x="314" 
d="M160 -6q-66 0 -94 32t-28 81v125q0 50 29.5 87t91.5 37t89.5 -28.5t27.5 -66.5v-8h-49v7q0 23 -17.5 39t-51.5 16t-52 -22.5t-18 -55.5v-65q22 40 83 40q59 0 86 -29.5t27 -76.5q0 -48 -29 -80t-95 -32zM160 32q72 0 72 72q0 70 -72 70t-72 -70q0 -72 72 -72z" />
    <glyph glyph-name="seven.denominator" unicode="&#xf65c;" horiz-adv-x="289" 
d="M14 350h260v-38l-153 -312h-55l150 308h-202v42z" />
    <glyph glyph-name="eight.denominator" unicode="&#xf65d;" horiz-adv-x="317" 
d="M158 -6q-67 0 -96.5 30.5t-29.5 77.5q0 61 57 84q-47 20 -47 72q0 98 116 98q117 0 117 -98q0 -52 -47 -72q57 -23 57 -84q0 -47 -29.5 -77.5t-97.5 -30.5zM172 203q21 0 38 14.5t17 39.5q0 61 -69 61q-67 0 -67 -61q0 -25 16.5 -39.5t36.5 -14.5h28zM172 165h-28
q-23 0 -42 -17t-19 -45q0 -70 75 -70q77 0 77 70q0 28 -19.5 45t-43.5 17z" />
    <glyph glyph-name="nine.denominator" unicode="&#xf65e;" horiz-adv-x="314" 
d="M154 318q-72 0 -72 -72q0 -70 72 -70t72 70q0 72 -72 72zM154 355q66 0 94 -32t28 -80v-124q0 -51 -29 -87.5t-91 -36.5t-90.5 28.5t-28.5 67.5v6h50v-6q0 -23 17.5 -39.5t51.5 -16.5q35 0 52.5 22.5t17.5 55.5v64q-24 -39 -83 -39q-58 0 -85 29.5t-27 75.5q0 48 28.5 80
t94.5 32z" />
    <glyph glyph-name="comma.denominator" unicode="&#xf65f;" horiz-adv-x="129" 
d="M95 52v-12l-31 -100h-38l15 112h54z" />
    <glyph glyph-name="period.denominator" unicode="&#xf660;" horiz-adv-x="126" 
d="M90 0h-54v52h54v-52z" />
    <glyph glyph-name="zero.numerator" unicode="&#xf661;" horiz-adv-x="321" 
d="M283 582v-114q0 -50 -30 -87t-93 -37t-92.5 36.5t-29.5 87.5v114q0 51 29.5 87.5t92.5 36.5t93 -37t30 -87zM232 470v110q0 34 -17 58.5t-55 24.5q-37 0 -54.5 -24.5t-17.5 -58.5v-110q0 -33 17.5 -57.5t54.5 -24.5q38 0 55 24t17 58z" />
    <glyph glyph-name="one.numerator" unicode="&#xf662;" horiz-adv-x="289" 
d="M30 684l109 19h40v-310h97v-43h-246v43h97v260l-97 -14v45z" />
    <glyph glyph-name="two.numerator" unicode="&#xf663;" horiz-adv-x="310" 
d="M228 602q0 61 -72 61t-72 -65v-8h-50v10q0 45 29 75.5t93 30.5q122 0 122 -104q0 -68 -62 -94l-96 -39q-32 -13 -32 -39v-38h189v-42h-239v80q0 49 49 71l107 46q34 12 34 55z" />
    <glyph glyph-name="three.numerator" unicode="&#xf664;" horiz-adv-x="308" 
d="M153 344q-64 0 -93 28t-29 69v11h49v-8q0 -58 71 -58q74 0 74 69q0 28 -18 43.5t-40 15.5h-58v38h57q18 0 33.5 14t15.5 39q0 59 -65 59q-66 0 -66 -56v-8h-49v11q0 41 27.5 68t88.5 27q62 0 88.5 -27.5t26.5 -70.5q0 -51 -45 -73q55 -22 55 -82q0 -48 -28.5 -78.5
t-94.5 -30.5z" />
    <glyph glyph-name="four.numerator" unicode="&#xf665;" horiz-adv-x="317" 
d="M145 700l-72 -206h144v206h51v-350h-51v102h-196v41l74 207h50z" />
    <glyph glyph-name="five.numerator" unicode="&#xf666;" horiz-adv-x="303" 
d="M44 522v178h210v-42h-160v-95h63q120 0 120 -106q0 -113 -123 -113q-64 0 -93 28t-29 69v9h50v-7q0 -57 72 -57t72 72q0 64 -75 64h-107z" />
    <glyph glyph-name="six.numerator" unicode="&#xf667;" horiz-adv-x="314" 
d="M160 344q-66 0 -94 32t-28 81v125q0 50 29.5 87t91.5 37t89.5 -28.5t27.5 -66.5v-8h-49v7q0 23 -17.5 39t-51.5 16t-52 -22.5t-18 -55.5v-65q22 40 83 40q59 0 86 -29.5t27 -76.5q0 -48 -29 -80t-95 -32zM160 382q72 0 72 72q0 70 -72 70t-72 -70q0 -72 72 -72z" />
    <glyph glyph-name="seven.numerator" unicode="&#xf668;" horiz-adv-x="289" 
d="M14 700h260v-38l-153 -312h-55l150 308h-202v42z" />
    <glyph glyph-name="eight.numerator" unicode="&#xf669;" horiz-adv-x="317" 
d="M158 344q-67 0 -96.5 30.5t-29.5 77.5q0 61 57 84q-47 20 -47 72q0 98 116 98q117 0 117 -98q0 -52 -47 -72q57 -23 57 -84q0 -47 -29.5 -77.5t-97.5 -30.5zM172 553q21 0 38 14.5t17 39.5q0 61 -69 61q-67 0 -67 -61q0 -25 16.5 -39.5t36.5 -14.5h28zM172 515h-28
q-23 0 -42 -17t-19 -45q0 -70 75 -70q77 0 77 70q0 28 -19.5 45t-43.5 17z" />
    <glyph glyph-name="nine.numerator" unicode="&#xf66a;" horiz-adv-x="314" 
d="M154 668q-72 0 -72 -72q0 -70 72 -70t72 70q0 72 -72 72zM154 705q66 0 94 -32t28 -80v-124q0 -51 -29 -87.5t-91 -36.5t-90.5 28.5t-28.5 67.5v6h50v-6q0 -23 17.5 -39.5t51.5 -16.5q35 0 52.5 22.5t17.5 55.5v64q-24 -39 -83 -39q-58 0 -85 29.5t-27 75.5q0 48 28.5 80
t94.5 32z" />
    <glyph glyph-name="comma.numerator" unicode="&#xf66b;" horiz-adv-x="128" 
d="M96 402v-12l-31 -100h-38l15 112h54z" />
    <glyph glyph-name="period.numerator" unicode="&#xf66c;" horiz-adv-x="122" 
d="M88 350h-54v52h54v-52z" />
    <glyph glyph-name="commaaccent" unicode="&#xf6c3;" horiz-adv-x="241" 
d="M139 -50v-15l-31 -115h-44l17 130h58z" />
    <glyph glyph-name="uniF8FF" unicode="&#xf8ff;" horiz-adv-x="1495" 
d="M76 529v8h1338v-8h-1338zM1220 332l-29 -2v4q0 20 12 20h17l-3 30q24 8 32 8q11 0 11 -8v-29h47v-3q0 -21 -12 -21h-35v-90q0 -15 16 -15q11 0 38.5 5.5t46.5 5.5q17 0 39.5 -6t22.5 -18q0 -14 -9.5 -21t-17.5 -7q-2 0 -26.5 12t-44.5 12q-7 0 -32 -4t-44 -4
q-20 0 -24 16q-2 8 -5 108v7zM1179 258q-16 -6 -44 -6q2 -22 26 -22q17 0 32 9q8 -5 8 -16q0 -4 -2.5 -8.5t-14 -9.5t-30.5 -5q-28 0 -44 14.5t-16 38.5q0 27 18.5 47.5t50.5 20.5q19 0 30 -9.5t11 -21.5q0 -24 -25 -32zM856 258q-16 -6 -44 -6q2 -22 26 -22q17 0 32 9
q8 -5 8 -16q0 -4 -2.5 -8.5t-14 -9.5t-30.5 -5q-28 0 -44 14.5t-16 38.5q0 27 18.5 47.5t50.5 20.5q19 0 30 -9.5t11 -21.5q0 -24 -25 -32zM157 258q-16 -6 -44 -6q2 -22 26 -22q17 0 32 9q8 -5 8 -16q0 -4 -2.5 -8.5t-14 -9.5t-30.5 -5q-28 0 -44 14.5t-16 38.5
q0 27 18.5 47.5t50.5 20.5q19 0 30 -9.5t11 -21.5q0 -24 -25 -32zM1078 289v-49l2 -32q-24 -8 -31 -8q-11 0 -11 8v67q0 15 -8 15q-7 0 -16.5 -17.5t-9.5 -30.5l3 -34q-24 -8 -32 -8q-11 0 -11 8v69l-3 36q24 8 32 8q11 0 11 -9v-40q18 49 45 49q29 0 29 -32zM387 289v-49
l3 -32q-24 -8 -31 -8q-11 0 -11 8v66q0 16 -8 16q-7 0 -16.5 -17.5t-9.5 -30.5l2 -34q-24 -8 -31 -8q-11 0 -11 8v66q0 16 -8 16q-7 0 -16.5 -17.5t-9.5 -30.5l3 -34q-24 -8 -32 -8q-11 0 -11 8v69l-3 36q24 8 32 8q11 0 11 -9v-40q3 9 7.5 19t15 20t22.5 10q29 0 29 -32
v-17q14 49 45 49q28 0 28 -32zM811 264q37 0 37 21q0 13 -13 13q-20 0 -24 -34zM1134 264q37 0 37 21q0 13 -13 13q-20 0 -24 -34zM112 264q37 0 37 21q0 13 -13 13q-20 0 -24 -34zM671 219q45 6 45 51q0 20 -13 20t-22.5 -18.5t-9.5 -29.5v-23zM921 250q11 0 18.5 -7
t7.5 -17t-7.5 -16.5t-18.5 -6.5t-18 6.5t-7 16.5t7 17t18 7zM718 320q17 0 28.5 -13.5t11.5 -37.5q0 -68 -87 -68v-40l3 -32q-24 -8 -32 -8q-11 0 -11 8v75l-25 -3v-3q0 -79 -68 -79q-21 0 -31 10.5t-10 23.5q0 36 70 53v42q-17 -48 -46 -48q-28 0 -28 31v3q-19 -33 -53 -33
q-29 0 -29 30v101l-29 -2v4q0 20 12 20h17l-3 30q24 8 32 8q11 0 11 -8v-29h47v-3q0 -21 -12 -21h-35v-86q0 -16 13 -16q9 0 19 8t10 18v25l-3 33q24 8 32 8q11 0 11 -9v-66q0 -15 7 -15t16.5 17t9.5 31l-2 34q24 8 31 8q11 0 11 -9v-99l25 3v61l-3 36q24 8 32 8q11 0 11 -9
v-40q17 48 47 48zM566 194q-41 -9 -41 -32q0 -14 14 -14q25 0 27 46zM76 0v8h1338v-8h-1338z" />
    <glyph glyph-name="f_f" unicode="&#xfb00;" horiz-adv-x="671" 
d="M651 477h-148v-477h-60v477h-77v48h77v25q0 80 44 130t142 50h42v-50h-43q-125 0 -125 -128v-27h148v-48zM315 477h-148v-477h-60v477h-77v48h77v25q0 80 44 130t142 50h42v-50h-43q-125 0 -125 -128v-27h148v-48z" />
    <glyph glyph-name="f_f_i" unicode="&#xfb03;" horiz-adv-x="902" 
d="M818 640h-63v90h63v-90zM315 477h-148v-477h-60v477h-77v48h77v25q0 80 44 130t142 50h42v-50h-43q-125 0 -125 -128v-27h148v-48zM651 477h-148v-477h-60v477h-77v48h77v25q0 80 44 130t142 50h42v-50h-43q-125 0 -125 -128v-27h148v-48zM816 0h-60v525h60v-525z" />
    <glyph glyph-name="f_f_l" unicode="&#xfb04;" horiz-adv-x="902" 
d="M816 0h-60v730h60v-730zM315 477h-148v-477h-60v477h-77v48h77v25q0 80 44 130t142 50h42v-50h-43q-125 0 -125 -128v-27h148v-48zM651 477h-148v-477h-60v477h-77v48h77v25q0 80 44 130t142 50h42v-50h-43q-125 0 -125 -128v-27h148v-48z" />
    <glyph glyph-name="longs_t" unicode="&#xfb05;" horiz-adv-x="652" 
d="M167 0h-60v478h-77v47h77v25q0 80 44 130t142 50h42v-50h-43q-125 0 -125 -128v-552zM633 50v-50h-53q-176 0 -176 158v319h-79v48h79v139h59v-139h150v-48h-150v-316q0 -111 125 -111h45z" />
    <glyph glyph-name="zero.tab" unicode="&#xff10;" horiz-adv-x="602" 
d="M301 711q63 0 109.5 -20t72.5 -54t38 -73t12 -83v-262q0 -44 -12 -83t-38 -73t-72.5 -54t-109.5 -20q-62 0 -108.5 20t-72.5 54t-38 73t-12 83v262q0 95 56 162.5t175 67.5zM472 222v256q0 74 -41.5 126t-129.5 52q-87 0 -128.5 -52t-41.5 -126v-256q0 -74 41.5 -126
t128.5 -52q88 0 129.5 52t41.5 126z" />
    <glyph glyph-name="one.tab" unicode="&#xff11;" horiz-adv-x="602" 
d="M75 670l222 37h51v-653h212v-54h-485v54h211v591l-211 -32v57z" />
    <glyph glyph-name="two.tab" unicode="&#xff12;" horiz-adv-x="602" 
d="M469 519q0 137 -169 137q-171 0 -171 -149v-17h-60v19q0 88 55 145t177 57q230 0 230 -192q0 -37 -10.5 -68.5t-23.5 -50t-34.5 -35.5t-33 -23t-29.5 -14l-175 -81q-43 -19 -65 -46t-22 -82v-65h400v-54h-462v124q0 51 19 87.5t39.5 52t51.5 30.5l189 87q17 8 28 15
t29 23.5t27.5 41.5t9.5 58z" />
    <glyph glyph-name="three.tab" unicode="&#xff13;" horiz-adv-x="602" 
d="M298 -11q-124 0 -177.5 52.5t-53.5 134.5v19h60v-16q0 -137 170 -137q95 0 133 44t38 120q0 69 -42.5 104t-105.5 35h-113v49h116q54 0 92.5 33.5t38.5 96.5q0 134 -160 134q-159 0 -159 -136v-15h-61v18q0 81 52 133.5t169 52.5q119 0 169.5 -51.5t50.5 -131.5
q0 -112 -98 -157q48 -17 81 -59t33 -108q0 -215 -233 -215z" />
    <glyph glyph-name="four.tab" unicode="&#xff14;" horiz-adv-x="602" 
d="M263 700l-160 -425h341v425h61v-700h-61v217h-407v53l164 430h62z" />
    <glyph glyph-name="five.tab" unicode="&#xff15;" horiz-adv-x="602" 
d="M97 363v337h396v-54h-333v-228h147q231 0 231 -205q0 -101 -53.5 -162.5t-178.5 -61.5t-178.5 52.5t-53.5 134.5v17h61v-14q0 -135 170 -135q94 0 132.5 45.5t38.5 124.5q0 44 -14 74.5t-40 46t-55 22t-66 6.5h-204z" />
    <glyph glyph-name="six.tab" unicode="&#xff16;" horiz-adv-x="602" 
d="M308 -11q-65 0 -111.5 18t-72 50t-36.5 69t-11 82v267q0 45 12.5 85.5t38.5 75t72 55t107 20.5q115 0 168.5 -53t53.5 -126v-23h-61v22q0 53 -40 90.5t-120 37.5q-85 0 -127.5 -51t-42.5 -126v-153q49 91 180 91q118 0 170 -59.5t52 -153.5q0 -45 -11 -81.5t-36 -68.5
t-72 -50t-113 -18zM308 40q170 0 170 164t-170 164t-170 -164t170 -164z" />
    <glyph glyph-name="seven.tab" unicode="&#xff17;" horiz-adv-x="602" 
d="M60 700h480v-49l-320 -651h-67l318 646h-411v54z" />
    <glyph glyph-name="eight.tab" unicode="&#xff18;" horiz-adv-x="602" 
d="M300 -11q-122 0 -177.5 59t-55.5 153q0 66 33 110t85 64q-46 17 -75.5 54.5t-29.5 93.5q0 83 52.5 135.5t167.5 52.5q116 0 168.5 -52.5t52.5 -135.5q0 -56 -29.5 -93.5t-74.5 -54.5q52 -20 84.5 -64t32.5 -110q0 -94 -55.5 -153t-178.5 -59zM280 397h41q56 0 98.5 32.5
t42.5 91.5q0 64 -38.5 102.5t-123.5 38.5q-84 0 -122 -38.5t-38 -102.5q0 -59 42.5 -91.5t97.5 -32.5zM321 349h-41q-61 0 -106 -38t-45 -109q0 -74 41 -118.5t130 -44.5t131 44.5t42 118.5q0 71 -45.5 109t-106.5 38z" />
    <glyph glyph-name="nine.tab" unicode="&#xff19;" horiz-adv-x="602" 
d="M293 660q-170 0 -170 -164q0 -163 170 -163q171 0 171 163q0 164 -171 164zM293 710q65 0 112 -18t72 -49.5t36.5 -68.5t11.5 -82v-267q0 -45 -12 -85t-37.5 -74.5t-71 -55t-105.5 -20.5q-117 0 -171.5 53t-54.5 125v23h60v-21q0 -53 41.5 -90.5t123.5 -37.5
q83 0 124.5 50.5t41.5 126.5v152q-52 -89 -180 -89q-118 0 -170 58.5t-52 151.5q0 96 53 157t178 61z" />
    <glyph glyph-name="Lgeminada" horiz-adv-x="1105" 
d="M647 0v700h63v-645h371v-55h-434zM94 0v700h63v-645h371v-55h-434zM435 321h-66v78h66v-78z" />
    <glyph glyph-name="lgeminada" horiz-adv-x="497" 
d="M411 0h-60v730h60v-730zM145 0h-60v730h60v-730zM281 321h-66v78h66v-78z" />
    <glyph glyph-name="caron.salt" horiz-adv-x="237" 
d="M141 733v-15l-20 -115h-35v130h55z" />
    <glyph glyph-name="commaaccent.salt" horiz-adv-x="241" 
d="M88 638v16l39 115h45l-21 -131h-63z" />
    <glyph glyph-name="acute.case" horiz-adv-x="250" 
d="M198 891l-95 -139h-49l79 139h65z" />
    <glyph glyph-name="grave.case" horiz-adv-x="250" 
d="M144 752l-92 139h69l77 -139h-54z" />
    <glyph glyph-name="hungarumlaut.case" horiz-adv-x="250" 
d="M257 891l-106 -139h-51l91 139h66zM136 891l-92 -139h-51l77 139h66z" />
    <glyph glyph-name="circumflex.case" horiz-adv-x="250" 
d="M126 859h-1l-70 -107h-48l89 139h59l89 -139h-48z" />
    <glyph glyph-name="caron.case" horiz-adv-x="250" 
d="M125 784h1l70 107h48l-89 -139h-59l-89 139h48z" />
    <glyph glyph-name="breve.case" horiz-adv-x="250" 
d="M187 867h41v-27q0 -44 -28 -71t-75 -27t-74.5 27t-27.5 71v27h41v-27q0 -26 16.5 -42.5t44.5 -16.5t45 16.5t17 42.5v27z" />
    <glyph glyph-name="tilde.case" horiz-adv-x="250" 
d="M132 770l-35 28q-19 13 -36 13q-46 0 -46 -59h-37q0 51 23.5 76.5t58.5 25.5q33 0 58 -21l34 -27q21 -15 39 -15q46 0 46 60h36q0 -51 -22.5 -76.5t-57.5 -25.5t-61 21z" />
    <glyph glyph-name="macron.case" horiz-adv-x="250" 
d="M7 855h237v-42h-237v42z" />
    <glyph glyph-name="dieresis.case" horiz-adv-x="250" 
d="M214 811h-58v68h58v-68zM95 811h-58v68h58v-68z" />
    <glyph glyph-name="dotaccent.case" horiz-adv-x="250" 
d="M158 811h-66v74h66v-74z" />
    <glyph glyph-name="ring.case" horiz-adv-x="250" 
d="M124 930q40 0 68 -27t28 -67q0 -39 -28 -66t-68 -27q-39 0 -66 27t-27 66q0 40 27 67t66 27zM124 778q24 0 41 17t17 41q0 25 -17 41.5t-41 16.5q-23 0 -39.5 -16.5t-16.5 -41.5q0 -24 16.5 -41t39.5 -17z" />
    </font>
</defs>
</svg>
