<?xml version="1.0" standalone="no"?>
<!DOCTYPE svg PUBLIC "-//W3C//DTD SVG 1.1//EN" "http://www.w3.org/Graphics/SVG/1.1/DTD/svg11.dtd" >
<svg>
<metadata>
Created by FontForge 20090622 at Thu Sep 19 12:26:25 2019
 By deploy user
Copyright (c) 2015 by Eduardo Manso. All rights reserved.
</metadata>
<defs>
<font id="Camber-Md" horiz-adv-x="553" >
  <font-face 
    font-family="Camber-Md"
    font-weight="400"
    font-stretch="normal"
    units-per-em="1000"
    panose-1="0 0 0 0 0 0 0 0 0 0"
    ascent="793"
    descent="-207"
    x-height="532"
    cap-height="700"
    bbox="-186 -231 1518 954"
    underline-thickness="12"
    underline-position="-78"
    unicode-range="U+000D-U+FF19"
  />
<missing-glyph horiz-adv-x="869" 
d="M672 94q-105 -102 -249 -102t-246 102q-103 101 -103 247q0 144 103 247q102 102 246 102q147 0 249 -102q103 -103 103 -247t-103 -247zM638 129q89 91 89 212q0 122 -89 213q-89 89 -215 89q-124 0 -211 -89q-90 -87 -90 -213q0 -123 90 -212q91 -89 211 -89
q126 0 215 89zM551 181l-126 127l-126 -126l-34 34l127 125l-127 127l34 34l126 -127l127 127l34 -34l-127 -127l126 -126z" />
    <glyph glyph-name="fi" unicode="fi" horiz-adv-x="614" 
d="M544 623h-113v107h113v-107zM345 445h-135v-445h-111v445h-71v85h71v16q0 184 216 184h43v-87h-48q-100 0 -100 -92v-21h135v-85zM543 0h-111v532h111v-532z" />
    <glyph glyph-name="fl" unicode="fl" horiz-adv-x="614" 
d="M543 0h-111v730h111v-730zM345 445h-135v-445h-111v445h-71v85h71v16q0 184 216 184h43v-87h-48q-100 0 -100 -92v-21h135v-85z" />
    <glyph glyph-name=".notdef" horiz-adv-x="869" 
d="M672 94q-105 -102 -249 -102t-246 102q-103 101 -103 247q0 144 103 247q102 102 246 102q147 0 249 -102q103 -103 103 -247t-103 -247zM638 129q89 91 89 212q0 122 -89 213q-89 89 -215 89q-124 0 -211 -89q-90 -87 -90 -213q0 -123 90 -212q91 -89 211 -89
q126 0 215 89zM551 181l-126 127l-126 -126l-34 34l127 125l-127 127l34 34l126 -127l127 127l34 -34l-127 -127l126 -126z" />
    <glyph glyph-name=".null" horiz-adv-x="0" 
 />
    <glyph glyph-name="nonmarkingreturn" horiz-adv-x="333" 
 />
    <glyph glyph-name="CR" unicode="&#xd;" horiz-adv-x="0" 
 />
    <glyph glyph-name="space" unicode=" " horiz-adv-x="217" 
 />
    <glyph glyph-name="exclam" unicode="!" horiz-adv-x="274" 
d="M198 700v-104q0 -51 -3 -153t-7 -179l-3 -76h-95q-14 294 -14 408v104h122zM195 0h-116v117h116v-117z" />
    <glyph glyph-name="quotedbl" unicode="&#x22;" horiz-adv-x="399" 
d="M341 700l-16 -238h-78l-14 238h108zM167 700l-16 -238h-78l-14 238h108z" />
    <glyph glyph-name="numbersign" unicode="#" horiz-adv-x="635" 
d="M381 272l24 156h-149l-24 -156h149zM338 0l28 181h-148l-29 -181h-96l29 181h-81v91h95l24 156h-79v92h94l28 180h96l-28 -180h148l29 180h95l-29 -180h81v-92h-95l-24 -156h79v-91h-94l-28 -181h-95z" />
    <glyph glyph-name="dollar" unicode="$" horiz-adv-x="597" 
d="M345 -99h-104v91q-200 21 -200 188v13h115v-11q0 -102 147 -102q134 0 134 116q0 38 -21.5 60.5t-67.5 33.5l-134 32q-164 39 -164 186q0 76 49 131t142 68v90h104v-89q103 -11 152.5 -65t49.5 -129v-14h-116v11q0 110 -138 110q-67 0 -97.5 -28t-30.5 -74q0 -37 20 -58
t65 -32l140 -35q71 -17 118 -61.5t47 -123.5q0 -199 -210 -218v-90z" />
    <glyph glyph-name="percent" unicode="%" horiz-adv-x="765" 
d="M308 577v-104q0 -53 -32 -91t-102 -38t-102 38t-32 91v104q0 53 32 91t102 38t102 -38t32 -91zM648 700l-443 -700h-90l443 700h90zM224 475v100q0 61 -50 61t-50 -61v-100q0 -60 50 -60t50 60zM724 227v-104q0 -53 -32 -91t-102 -38t-102 38t-32 91v104q0 53 32 91
t102 38t102 -38t32 -91zM640 125v100q0 61 -50 61t-50 -61v-100q0 -60 50 -60t50 60z" />
    <glyph glyph-name="ampersand" unicode="&#x26;" horiz-adv-x="681" 
d="M227 553q0 -29 14.5 -53t45.5 -60q43 26 67.5 53t24.5 67q0 29 -19.5 50.5t-55.5 21.5q-37 0 -57 -23.5t-20 -55.5zM309 80q83 0 133 35l-191 212q-93 -54 -93 -128q0 -53 38 -86t113 -33zM546 0l-42 46q-77 -57 -200 -57q-136 0 -199.5 56.5t-63.5 146.5q0 38 13 70.5
t38 57.5t46 40.5t54 34.5q-66 82 -66 149q0 66 46.5 116.5t133.5 50.5q80 0 125.5 -43.5t45.5 -104.5q0 -65 -35 -109t-95 -81l163 -181q16 44 16 104v50h99v-57q0 -104 -46 -174l78 -86v-29h-111z" />
    <glyph glyph-name="quotesingle" unicode="'" horiz-adv-x="225" 
d="M167 700l-16 -238h-78l-14 238h108z" />
    <glyph glyph-name="parenleft" unicode="(" horiz-adv-x="371" 
d="M72 76v480q0 97 50 152t172 55h40v-99h-35q-63 0 -87 -31t-24 -84v-466q0 -53 24 -84t87 -31h35v-99h-40q-122 0 -172 55t-50 152z" />
    <glyph glyph-name="parenright" unicode=")" horiz-adv-x="371" 
d="M299 556v-480q0 -97 -50 -152t-172 -55h-40v99h35q63 0 87 31t24 84v466q0 53 -24 84t-87 31h-35v99h40q122 0 172 -55t50 -152z" />
    <glyph glyph-name="asterisk" unicode="*" horiz-adv-x="508" 
d="M304 316v-32h-100v32l18 121l-96 -75l-27 -17l-50 88l27 15l112 44l-110 44l-29 17l49 86l30 -17l94 -74l-18 119v33h100v-33l-17 -118l93 73l30 17l49 -86l-29 -17l-110 -44l112 -44l27 -15l-50 -88l-27 17l-95 74z" />
    <glyph glyph-name="plus" unicode="+" horiz-adv-x="521" 
d="M210 122v170h-168v95h168v171h99v-171h169v-95h-169v-170h-99z" />
    <glyph glyph-name="comma" unicode="," horiz-adv-x="248" 
d="M187 117v-29l-65 -218h-81l30 247h116z" />
    <glyph glyph-name="hyphen" unicode="-" horiz-adv-x="418" 
d="M67 370h284v-106h-284v106z" />
    <glyph glyph-name="period" unicode="." horiz-adv-x="248" 
d="M182 0h-116v117h116v-117z" />
    <glyph glyph-name="slash" unicode="/" horiz-adv-x="548" 
d="M531 758l-404 -884h-110l404 884h110z" />
    <glyph glyph-name="zero" unicode="0" horiz-adv-x="626" 
d="M313 711q69 0 119.5 -21t78 -57t40 -76.5t12.5 -86.5v-240q0 -46 -12.5 -87t-40 -76.5t-78 -56.5t-119.5 -21t-119.5 21t-78 56.5t-40 76.5t-12.5 87v240q0 46 12.5 86.5t40 76.5t78 57t119.5 21zM447 235v230q0 61 -31.5 102.5t-102.5 41.5t-102.5 -41.5t-31.5 -102.5
v-230q0 -61 31.5 -102.5t102.5 -41.5t102.5 41.5t31.5 102.5z" />
    <glyph glyph-name="one" unicode="1" horiz-adv-x="567" 
d="M53 667l217 37h88v-603h189v-101h-494v101h189v484l-189 -25v107z" />
    <glyph glyph-name="two" unicode="2" horiz-adv-x="610" 
d="M437 505q0 106 -133 106q-135 0 -135 -120v-18h-113v23q0 90 60.5 152.5t190.5 62.5q69 0 119 -17t77 -47t39 -65t12 -76q0 -142 -137 -200l-166 -72q-38 -17 -55.5 -36.5t-17.5 -60.5v-37h378v-100h-494v146q0 117 109 166l195 86q71 33 71 107z" />
    <glyph glyph-name="three" unicode="3" horiz-adv-x="605" 
d="M300 -11q-131 0 -190.5 56t-59.5 139v24h114v-18q0 -103 134 -103q136 0 136 125q0 53 -31.5 81t-91.5 28h-99v89h105q50 0 76.5 25.5t26.5 74.5q0 103 -124 103t-124 -100v-16h-114v22q0 81 58 136.5t183 55.5q66 0 114.5 -16.5t74 -45t37 -61t11.5 -71.5
q0 -99 -78 -148q93 -49 93 -162q0 -94 -58.5 -156t-192.5 -62z" />
    <glyph glyph-name="four" unicode="4" horiz-adv-x="623" 
d="M293 700l-136 -401h266v401h116v-700h-116v195h-387v99l140 406h117z" />
    <glyph glyph-name="five" unicode="5" horiz-adv-x="594" 
d="M75 333v367h431v-101h-314v-167h117q124 0 184 -58.5t60 -158.5q0 -97 -59 -161.5t-192 -64.5q-69 0 -119.5 16.5t-78 45.5t-40 62t-12.5 71v19h114v-13q0 -102 134 -102q137 0 137 128q0 117 -142 117h-220z" />
    <glyph glyph-name="six" unicode="6" horiz-adv-x="614" 
d="M313 -11q-70 0 -120.5 19t-77.5 53t-39.5 72.5t-12.5 83.5v247q0 47 13.5 89.5t41.5 78.5t78 57.5t116 21.5t115 -17t75 -45.5t37.5 -59.5t11.5 -66v-18h-113v15q0 41 -31.5 68.5t-91.5 27.5q-67 0 -102 -38t-35 -100v-110q55 62 159 62q117 0 172 -61t55 -153
q0 -45 -12 -83t-39.5 -72t-78.5 -53t-121 -19zM313 80q135 0 135 129q0 128 -135 128q-134 0 -134 -129q0 -128 134 -128z" />
    <glyph glyph-name="seven" unicode="7" horiz-adv-x="550" 
d="M26 700h500v-89l-299 -611h-124l292 599h-369v101z" />
    <glyph glyph-name="eight" unicode="8" horiz-adv-x="614" 
d="M307 -11q-134 0 -194 61t-60 153q0 117 99 168q-82 45 -82 144q0 84 56 140t181 56t181 -56t56 -140q0 -98 -82 -145q98 -50 98 -167q0 -92 -59.5 -153t-193.5 -61zM298 411h18q54 0 85.5 26.5t31.5 73.5q0 112 -126 112t-126 -112q0 -47 32 -73.5t85 -26.5zM316 321h-18
q-59 0 -93.5 -30.5t-34.5 -86.5t32.5 -90.5t104.5 -34.5t104.5 34.5t32.5 90.5t-34.5 86.5t-93.5 30.5z" />
    <glyph glyph-name="nine" unicode="9" horiz-adv-x="615" 
d="M301 619q-134 0 -134 -129q0 -126 134 -126q135 0 135 127q0 128 -135 128zM301 710q70 0 120.5 -19t77.5 -53t39.5 -72t12.5 -83v-246q0 -47 -12.5 -89t-39.5 -78.5t-76.5 -58t-115.5 -21.5q-67 0 -116.5 17t-76 45.5t-38.5 60t-12 65.5v17h113v-14q0 -41 33 -68.5
t94 -27.5q66 0 99.5 38t33.5 101v109q-55 -61 -159 -61q-118 0 -172.5 59.5t-54.5 151.5q0 46 12 84t39 71.5t78 52.5t121 19z" />
    <glyph glyph-name="colon" unicode=":" horiz-adv-x="250" 
d="M183 415h-116v117h116v-117zM183 0h-116v117h116v-117z" />
    <glyph glyph-name="semicolon" unicode=";" horiz-adv-x="280" 
d="M206 415h-116v117h116v-117zM205 117v-29l-65 -218h-81l30 247h116z" />
    <glyph glyph-name="less" unicode="&#x3c;" horiz-adv-x="550" 
d="M491 153v-115l-461 232v85l461 230v-114l-341 -158v-1z" />
    <glyph glyph-name="equal" unicode="=" horiz-adv-x="574" 
d="M69 492h436v-97h-436v97zM69 284h436v-97h-436v97z" />
    <glyph glyph-name="greater" unicode="&#x3e;" horiz-adv-x="550" 
d="M59 38v115l341 159v1l-341 158v114l461 -230v-85z" />
    <glyph glyph-name="question" unicode="?" horiz-adv-x="570" 
d="M341 188h-114v54q0 47 23.5 76.5t85.5 65.5q49 29 69 52.5t20 67.5q0 111 -138 111q-80 0 -111.5 -31t-31.5 -84v-27h-116v33q0 89 60.5 147t198.5 58q128 0 190 -55t62 -142q0 -59 -25.5 -101t-80.5 -77q-7 -5 -23.5 -15.5t-23 -15t-17.5 -14t-15.5 -16t-8.5 -17
t-4 -21.5v-49zM342 0h-117v117h117v-117z" />
    <glyph glyph-name="at" unicode="@" horiz-adv-x="893" 
d="M628 422l-32 -265q-13 -90 53 -90q29 0 50 17t30.5 46t13.5 57t4 60q0 132 -74.5 215t-229.5 83q-79 0 -138.5 -25t-94.5 -69t-51.5 -99.5t-16.5 -121.5q0 -65 16 -118.5t49 -96.5t90 -67t134 -24q74 0 140 25l19 -70q-69 -30 -159 -30q-100 0 -175 30.5t-119 84
t-65.5 120t-21.5 146.5q0 81 22 149.5t67 123.5t122.5 86.5t181.5 31.5q103 0 181.5 -30t125 -82.5t69 -118t22.5 -143.5q0 -34 -4.5 -66t-18.5 -67t-35 -60.5t-58 -42t-84 -16.5q-123 0 -137 96q-40 -56 -120 -56q-59 0 -96.5 36.5t-37.5 91.5q0 15 2 25l11 90
q9 71 48.5 111t103.5 40q89 0 121 -61l11 54h81zM512 213l6 43q13 95 -80 95q-45 0 -62.5 -23.5t-23.5 -70.5l-7 -49q-2 -18 -2 -26q0 -68 71 -68q50 0 70 24.5t28 74.5z" />
    <glyph glyph-name="A" unicode="A" horiz-adv-x="646" 
d="M423 261l-103 304l-103 -304h206zM512 0l-58 169h-268l-57 -169h-117l253 700h117l252 -700h-122z" />
    <glyph glyph-name="B" unicode="B" horiz-adv-x="671" 
d="M81 0v700h276q132 0 188 -51t56 -132q0 -109 -101 -149q122 -42 122 -167q0 -88 -60.5 -144.5t-201.5 -56.5h-279zM357 611h-160v-202h160q128 0 128 100q0 102 -128 102zM360 322h-163v-233h163q146 0 146 116q0 117 -146 117z" />
    <glyph glyph-name="C" unicode="C" horiz-adv-x="643" 
d="M484 232h115v-28q0 -41 -13.5 -77t-43 -68t-83.5 -51t-127 -19q-74 0 -128.5 22t-84.5 59t-44 79.5t-14 90.5v221q0 48 14 90t44 79t84.5 59t128.5 22q73 0 127 -18.5t83.5 -50t43 -66.5t13.5 -75v-24h-115v18q0 47 -36 80.5t-116 33.5q-81 0 -118 -43t-37 -105v-221
q0 -63 36.5 -106t118.5 -43q80 0 116 34.5t36 84.5v22z" />
    <glyph glyph-name="D" unicode="D" horiz-adv-x="693" 
d="M81 0v700h275q76 0 131.5 -22t86 -59t44.5 -79.5t14 -90.5v-198q0 -48 -14 -90.5t-44.5 -79.5t-86 -59t-131.5 -22h-275zM197 102h159q85 0 122.5 44.5t37.5 110.5v186q0 66 -37.5 110.5t-122.5 44.5h-159v-496z" />
    <glyph glyph-name="E" unicode="E" horiz-adv-x="600" 
d="M81 0v700h457v-98h-341v-192h320v-94h-320v-218h355v-98h-471z" />
    <glyph glyph-name="F" unicode="F" horiz-adv-x="581" 
d="M523 294h-326v-294h-116v700h464v-101h-348v-205h326v-100z" />
    <glyph glyph-name="G" unicode="G" horiz-adv-x="661" 
d="M606 353v-112q0 -53 -13.5 -96t-43.5 -79.5t-84.5 -56.5t-129.5 -20q-62 0 -110.5 15t-79 39t-50 57t-27 67.5t-7.5 72.5v221q0 48 14 90t44 79t85 59t129 22t128.5 -18t84 -48.5t43.5 -65t14 -73.5v-18h-115v13q0 45 -36.5 76.5t-118.5 31.5t-119 -43t-37 -105v-221
q0 -64 36.5 -106.5t121.5 -42.5q78 0 117 36t39 93v47h-151v86h266z" />
    <glyph glyph-name="H" unicode="H" horiz-adv-x="708" 
d="M511 0v315h-314v-315h-116v700h116v-284h314v284h116v-700h-116z" />
    <glyph glyph-name="I" unicode="I" horiz-adv-x="280" 
d="M198 700v-700h-116v700h116z" />
    <glyph glyph-name="J" unicode="J" horiz-adv-x="590" 
d="M398 700h117v-473q0 -101 -59 -169.5t-185 -68.5q-66 0 -115.5 19.5t-76.5 52.5t-40 72t-13 83v30h114v-24q0 -57 31 -94t100 -37q66 0 96.5 41t30.5 100v468z" />
    <glyph glyph-name="K" unicode="K" horiz-adv-x="655" 
d="M197 193v-193h-116v700h116v-355l305 355h138l-257 -296l263 -404h-139l-204 312z" />
    <glyph glyph-name="L" unicode="L" horiz-adv-x="560" 
d="M81 0v700h116v-598h344v-102h-460z" />
    <glyph glyph-name="M" unicode="M" horiz-adv-x="777" 
d="M361 235l-172 257v-492h-108v700h101l206 -317l202 317h106v-700h-114v498l-170 -263h-51z" />
    <glyph glyph-name="N" unicode="N" horiz-adv-x="707" 
d="M530 0l-339 486v-486h-110v700h96l339 -488v488h111v-700h-97z" />
    <glyph glyph-name="O" unicode="O" horiz-adv-x="675" 
d="M337 -11q-76 0 -131.5 22t-86 59t-44.5 79.5t-14 90.5v221q0 48 14 90t44.5 79t86 59t131.5 22t132 -22t86.5 -59t44.5 -79t14 -90v-221q0 -48 -14 -90.5t-44.5 -79.5t-86.5 -59t-132 -22zM337 91q86 0 123.5 44.5t37.5 110.5v208q0 66 -37.5 110.5t-123.5 44.5
q-85 0 -122.5 -45t-37.5 -110v-208q0 -65 37.5 -110t122.5 -45z" />
    <glyph glyph-name="P" unicode="P" horiz-adv-x="656" 
d="M346 230h-149v-230h-116v700h265q77 0 133 -19.5t86 -53.5t43.5 -74t13.5 -88q0 -103 -63.5 -169t-212.5 -66zM345 601h-148v-273h148q159 0 159 136q0 137 -159 137z" />
    <glyph glyph-name="Q" unicode="Q" horiz-adv-x="675" 
d="M603 -143h-135l-104 133q-9 -1 -27 -1q-76 0 -131.5 22t-86 59t-44.5 79.5t-14 90.5v221q0 48 14 90t44.5 79t86 59t131.5 22t132 -22t86.5 -59t44.5 -79t14 -90v-221q0 -70 -30.5 -130t-97.5 -92l117 -146v-15zM337 91q86 0 123.5 44.5t37.5 110.5v208q0 66 -37.5 110.5
t-123.5 44.5q-85 0 -122.5 -45t-37.5 -110v-208q0 -65 37.5 -110t122.5 -45z" />
    <glyph glyph-name="R" unicode="R" horiz-adv-x="668" 
d="M346 602h-149v-253h149q158 0 158 126q0 127 -158 127zM345 253h-148v-253h-116v700h264q78 0 134 -18t86 -50.5t43.5 -70.5t13.5 -84q0 -156 -138 -203l127 -274h-124l-116 254q-9 -1 -26 -1z" />
    <glyph glyph-name="S" unicode="S" horiz-adv-x="635" 
d="M574 500h-116v12q0 103 -148 103q-139 0 -139 -97q0 -37 22.5 -57t71.5 -31l148 -33q175 -37 175 -184q0 -103 -63 -163.5t-200 -60.5q-79 0 -136 16t-86.5 44.5t-42.5 60.5t-13 71v13h116v-11q0 -97 160 -97q145 0 145 112q0 39 -23.5 61.5t-73.5 33.5l-148 33
q-166 36 -166 183q0 88 63.5 145t191.5 57q135 0 198.5 -56.5t63.5 -140.5v-14z" />
    <glyph glyph-name="T" unicode="T" horiz-adv-x="582" 
d="M563 598h-214v-598h-116v598h-214v102h544v-102z" />
    <glyph glyph-name="U" unicode="U" horiz-adv-x="701" 
d="M75 700h116v-454q0 -65 37 -110t122 -45t122 45t37 110v454h116v-460q0 -48 -14 -90.5t-44 -79.5t-85.5 -59t-131.5 -22q-75 0 -131 22t-86 59t-44 79.5t-14 90.5v460z" />
    <glyph glyph-name="V" unicode="V" horiz-adv-x="634" 
d="M258 0l-244 700h124l183 -542l182 542h118l-245 -700h-118z" />
    <glyph glyph-name="W" unicode="W" horiz-adv-x="959" 
d="M204 0l-181 700h121l127 -522l151 522h118l153 -523l124 523h118l-179 -700h-117l-159 515l-158 -515h-118z" />
    <glyph glyph-name="X" unicode="X" horiz-adv-x="627" 
d="M483 0l-174 266l-172 -266h-127l235 353l-224 347h133l162 -253l167 253h125l-228 -339l236 -361h-133z" />
    <glyph glyph-name="Y" unicode="Y" horiz-adv-x="611" 
d="M364 0h-116v258l-237 442h125l170 -328l174 328h121l-237 -434v-266z" />
    <glyph glyph-name="Z" unicode="Z" horiz-adv-x="607" 
d="M55 700h499v-93l-371 -508h385v-99h-530v94l371 507h-354v99z" />
    <glyph glyph-name="bracketleft" unicode="[" horiz-adv-x="359" 
d="M81 -126v884h241v-95h-125v-694h125v-95h-241z" />
    <glyph glyph-name="backslash" unicode="\" horiz-adv-x="548" 
d="M421 -126l-404 884h110l404 -884h-110z" />
    <glyph glyph-name="bracketright" unicode="]" horiz-adv-x="359" 
d="M278 758v-884h-241v95h125v694h-125v95h241z" />
    <glyph glyph-name="asciicircum" unicode="^" horiz-adv-x="502" 
d="M465 321h-110l-104 255l-104 -256h-111l172 380h85z" />
    <glyph glyph-name="underscore" unicode="_" horiz-adv-x="504" 
d="M0 -65h504v-88h-504v88z" />
    <glyph glyph-name="grave" unicode="`" horiz-adv-x="500" 
d="M253 599l-103 144h121l72 -144h-90z" />
    <glyph glyph-name="a" unicode="a" 
d="M250 75q65 0 96.5 31t31.5 84v39h-128q-97 0 -97 -76q0 -78 97 -78zM390 0l-5 58q-41 -69 -165 -69q-94 0 -136.5 43.5t-42.5 116.5q0 161 192 161h145v40q0 106 -108 106q-53 0 -81.5 -20.5t-28.5 -53.5v-8h-104v8q0 70 54.5 115.5t162.5 45.5q215 0 215 -197v-346h-98z
" />
    <glyph glyph-name="b" unicode="b" horiz-adv-x="585" 
d="M338 -11q-119 0 -165 77l-5 -66h-98v730h110v-259q50 72 160 72q89 0 141 -57.5t52 -149.5v-140q0 -92 -52.5 -149.5t-142.5 -57.5zM306 87q66 0 91.5 35.5t25.5 99.5v88q0 135 -117 135q-126 0 -126 -141v-76q0 -141 126 -141z" />
    <glyph glyph-name="c" unicode="c" horiz-adv-x="546" 
d="M395 192h109v-10q0 -79 -54.5 -136t-166.5 -57q-63 0 -110 18.5t-72.5 50t-37 67.5t-11.5 77v128q0 41 11.5 76.5t37 67.5t72.5 50.5t110 18.5q115 0 167.5 -57t52.5 -136v-10h-108v11q0 42 -27 71.5t-85 29.5q-63 0 -92 -35.5t-29 -85.5v-129q0 -50 29 -85.5t92 -35.5
q58 0 85 29.5t27 71.5v10z" />
    <glyph glyph-name="d" unicode="d" horiz-adv-x="586" 
d="M280 87q126 0 126 141v76q0 141 -126 141q-117 0 -117 -135v-88q0 -135 117 -135zM418 0l-7 70q-46 -81 -165 -81q-90 0 -141.5 57t-51.5 150v140q0 94 52 150.5t143 56.5q111 0 158 -69v256h110v-730h-98z" />
    <glyph glyph-name="e" unicode="e" 
d="M501 154q0 -30 -9.5 -56.5t-32 -52t-68 -41t-109.5 -15.5q-65 0 -112 18t-71.5 49.5t-35.5 66.5t-11 76v131q0 88 54.5 150.5t174.5 62.5q61 0 106.5 -18.5t70 -50.5t36 -68t11.5 -76v-95h-344v-47q0 -49 28.5 -81.5t92.5 -32.5q62 0 89 24.5t27 58.5v8h103v-11zM161 346
v-30h238v30q0 47 -28.5 80t-90.5 33q-63 0 -91 -33t-28 -80z" />
    <glyph glyph-name="f" unicode="f" horiz-adv-x="361" 
d="M345 445h-135v-445h-111v445h-71v85h71v16q0 184 216 184h43v-87h-48q-100 0 -100 -92v-21h135v-85z" />
    <glyph glyph-name="g" unicode="g" horiz-adv-x="584" 
d="M278 124q66 0 96 35.5t30 93.5v65q0 58 -30 93.5t-96 35.5q-116 0 -116 -129v-65q0 -129 116 -129zM290 -190q-114 0 -167.5 43t-53.5 115v3h104v-3q0 -72 116 -72q115 0 115 106v98q-48 -72 -160 -72q-89 0 -140.5 56.5t-51.5 150.5v101q0 94 52.5 150.5t142.5 56.5
q117 0 164 -79l6 68h98v-520q0 -94 -55.5 -148t-169.5 -54z" />
    <glyph glyph-name="h" unicode="h" horiz-adv-x="596" 
d="M180 0h-110v730h110v-260q50 73 160 73q90 0 140.5 -56t50.5 -147v-340h-111v314q0 131 -114 131q-67 0 -96.5 -39t-29.5 -102v-304z" />
    <glyph glyph-name="i" unicode="i" horiz-adv-x="253" 
d="M183 623h-113v107h113v-107zM182 0h-111v532h111v-532z" />
    <glyph glyph-name="j" unicode="j" horiz-adv-x="253" 
d="M183 623h-113v107h113v-107zM-65 -180v91h34q102 0 102 78v543h111v-539q0 -173 -202 -173h-45z" />
    <glyph glyph-name="k" unicode="k" horiz-adv-x="540" 
d="M180 152v-152h-110v730h110v-435l213 237h131l-202 -224l215 -308h-130l-158 228z" />
    <glyph glyph-name="l" unicode="l" horiz-adv-x="253" 
d="M182 0h-111v730h111v-730z" />
    <glyph glyph-name="m" unicode="m" horiz-adv-x="933" 
d="M180 0h-110v532h98l6 -71q47 82 162 82q122 0 167 -100q20 47 66.5 73.5t111.5 26.5q89 0 138 -55.5t49 -147.5v-340h-110v314q0 131 -111 131q-123 0 -123 -141v-304h-110v314q0 131 -111 131q-123 0 -123 -141v-304z" />
    <glyph glyph-name="n" unicode="n" horiz-adv-x="596" 
d="M180 0h-110v532h98l6 -72q48 83 166 83q90 0 140.5 -56t50.5 -147v-340h-111v314q0 131 -114 131q-67 0 -96.5 -39t-29.5 -102v-304z" />
    <glyph glyph-name="o" unicode="o" horiz-adv-x="569" 
d="M52 202v128q0 88 55 150.5t177 62.5q65 0 112 -18.5t72.5 -50.5t37 -67.5t11.5 -76.5v-128q0 -41 -11.5 -77t-37 -67.5t-72.5 -50t-112 -18.5q-64 0 -111 18.5t-72.5 50t-37 67.5t-11.5 77zM407 201v130q0 50 -29 85.5t-94 35.5q-64 0 -93 -35.5t-29 -85.5v-130
q0 -51 29 -86.5t93 -35.5q65 0 94 35.5t29 86.5z" />
    <glyph glyph-name="p" unicode="p" horiz-adv-x="585" 
d="M306 87q66 0 91.5 35.5t25.5 99.5v88q0 135 -117 135q-126 0 -126 -141v-76q0 -141 126 -141zM338 -11q-111 0 -158 68v-237h-110v712h98l6 -71q48 82 166 82q90 0 141.5 -57t51.5 -150v-140q0 -94 -52 -150.5t-143 -56.5z" />
    <glyph glyph-name="q" unicode="q" horiz-adv-x="585" 
d="M515 -180h-110v239q-51 -70 -160 -70q-89 0 -140.5 57.5t-51.5 149.5v140q0 92 52.5 149.5t142.5 57.5q117 0 163 -78l7 67h97v-712zM279 86q64 0 95 36.5t31 96.5v93q0 60 -31 96.5t-95 36.5q-116 0 -116 -135v-88q0 -136 116 -136z" />
    <glyph glyph-name="r" unicode="r" horiz-adv-x="382" 
d="M180 0h-110v532h98l7 -86q50 95 188 95v-106h-21q-84 0 -123 -42t-39 -115v-278z" />
    <glyph glyph-name="s" unicode="s" horiz-adv-x="522" 
d="M467 380h-107v9q0 73 -105 73q-51 0 -76 -19t-25 -50q0 -26 18 -40t54 -22l110 -24q144 -33 144 -147q0 -77 -52 -124t-164 -47q-119 0 -170 41t-51 105v13h108v-11q0 -65 114 -65q53 0 79.5 21t26.5 57q0 49 -69 64l-104 23q-72 17 -110 48t-38 100q0 68 52.5 113
t154.5 45q111 0 160.5 -43t49.5 -108v-12z" />
    <glyph glyph-name="t" unicode="t" horiz-adv-x="382" 
d="M358 92v-92h-69q-110 0 -151.5 44.5t-41.5 126.5v274h-73v85h73v136h111v-136h137v-85h-137v-267q0 -45 21.5 -65.5t77.5 -20.5h52z" />
    <glyph glyph-name="u" unicode="u" horiz-adv-x="589" 
d="M421 0l-6 70q-49 -81 -163 -81q-87 0 -137 52.5t-50 137.5v353h110v-327q0 -118 111 -118q122 0 122 141v304h111v-532h-98z" />
    <glyph glyph-name="v" unicode="v" horiz-adv-x="530" 
d="M211 0l-193 532h115l135 -394l133 394h111l-191 -532h-110z" />
    <glyph glyph-name="w" unicode="w" horiz-adv-x="813" 
d="M173 0l-149 532h114l98 -392l117 392h112l117 -392l98 392h110l-149 -532h-111l-124 385l-123 -385h-110z" />
    <glyph glyph-name="x" unicode="x" horiz-adv-x="518" 
d="M380 0l-128 192l-119 -192h-120l181 271l-171 261h122l118 -180l118 180h115l-176 -258l183 -274h-123z" />
    <glyph glyph-name="y" unicode="y" horiz-adv-x="529" 
d="M250 -180h-105l67 181l-192 531h117l129 -384l138 384h110z" />
    <glyph glyph-name="z" unicode="z" horiz-adv-x="503" 
d="M51 532h401v-79l-278 -367h292v-86h-430v80l278 366h-263v86z" />
    <glyph glyph-name="braceleft" unicode="{" horiz-adv-x="421" 
d="M159 317v-1q84 -21 84 -116v-135q0 -44 23 -70.5t84 -26.5h35v-99h-41q-119 0 -168.5 50.5t-49.5 138.5v142q0 74 -93 74h-12v85h12q93 0 93 74v141q0 88 49.5 138.5t168.5 50.5h41v-99h-35q-61 0 -84 -26.5t-23 -70.5v-134q0 -95 -84 -116z" />
    <glyph glyph-name="bar" unicode="|" horiz-adv-x="278" 
d="M197 758v-884h-116v884h116z" />
    <glyph glyph-name="braceright" unicode="}" horiz-adv-x="421" 
d="M262 316v1q-84 21 -84 116v134q0 44 -23 70.5t-84 26.5h-35v99h41q119 0 168.5 -50.5t49.5 -138.5v-141q0 -74 93 -74h12v-85h-12q-93 0 -93 -74v-142q0 -88 -49.5 -138.5t-168.5 -50.5h-41v99h35q61 0 84 26.5t23 70.5v135q0 95 84 116z" />
    <glyph glyph-name="asciitilde" unicode="~" horiz-adv-x="567" 
d="M441 380l67 -24q-20 -68 -49 -101t-80 -33q-44 0 -80 19l-37 21q-44 24 -64 24q-26 0 -42 -16t-31 -54l-65 23q18 67 48.5 101t80.5 34t96 -26l33 -20q32 -19 54 -19q25 0 39 15.5t30 55.5z" />
    <glyph glyph-name="uni00A0" unicode="&#xa0;" horiz-adv-x="217" 
 />
    <glyph glyph-name="exclamdown" unicode="&#xa1;" horiz-adv-x="265" 
d="M74 532h116v-117h-116v117zM193 -64v-104h-122v104q0 51 3.5 153t7.5 179l3 76h95q13 -294 13 -408z" />
    <glyph glyph-name="cent" unicode="&#xa2;" horiz-adv-x="554" 
d="M508 271q0 -67 -41.5 -120.5t-126.5 -67.5v-94h-105v94q-49 7 -85 27.5t-56 50t-29.5 62t-9.5 68.5v129q0 49 16 90t58 74.5t106 42.5v84h105v-84q87 -13 126.5 -65.5t39.5 -121.5v-11h-107v12q0 40 -27 69.5t-85 29.5q-63 0 -92 -35t-29 -85v-129q0 -50 29 -85t92 -35
q58 0 85 29.5t27 70.5v10h109v-10z" />
    <glyph glyph-name="sterling" unicode="&#xa3;" horiz-adv-x="648" 
d="M582 92v-92h-534v84l75 8v189h-74v82h74v105q0 46 12.5 87t39.5 77.5t76.5 57.5t116.5 21q63 0 110 -19t73 -51t38.5 -68t12.5 -77v-27h-114v20q0 49 -30.5 84.5t-91.5 35.5q-68 0 -97.5 -40.5t-29.5 -100.5v-105h186v-82h-186v-189h343z" />
    <glyph glyph-name="currency" unicode="&#xa4;" horiz-adv-x="611" 
d="M491 83l-67 71q-47 -30 -119 -30t-120 32l-68 -70l-69 67l75 77q-18 39 -18 94v32q0 55 20 98l-74 79l70 64l68 -70q47 29 116 29q73 0 120 -30l66 68l72 -64l-75 -77q19 -44 19 -97v-32q0 -56 -20 -97l73 -77zM201 367v-54q0 -43 25.5 -71.5t78.5 -28.5q55 0 80 28.5
t25 71.5v54q0 43 -25 71.5t-80 28.5q-53 0 -78.5 -28.5t-25.5 -71.5z" />
    <glyph glyph-name="yen" unicode="&#xa5;" horiz-adv-x="604" 
d="M518 164h-158v-164h-116v164h-160v75h160v21l-16 31h-144v75h106l-168 334h129l150 -326l158 326h123l-171 -334h107v-75h-145l-13 -25v-27h158v-75z" />
    <glyph glyph-name="brokenbar" unicode="&#xa6;" horiz-adv-x="279" 
d="M198 427h-117v331h117v-331zM81 205h117v-331h-117v331z" />
    <glyph glyph-name="section" unicode="&#xa7;" horiz-adv-x="538" 
d="M467 272l-272 111q-71 29 -105.5 66.5t-34.5 100.5q0 71 52 116t158 45q113 0 163 -44t50 -112v-9h-106v8q0 75 -109 75q-106 0 -106 -75q0 -54 71 -79l138 -53q33 -12 53 -22.5t38 -33t18 -52.5q0 -10 -2 -20.5t-4 -15.5zM71 309l273 -111q71 -30 105 -67t34 -100
q0 -71 -51 -116t-158 -45q-111 0 -162.5 44.5t-51.5 111.5v9h105v-8q0 -75 111 -75q106 0 106 75q0 53 -71 79l-139 53q-33 12 -53 22.5t-38 33t-18 52.5q0 10 2 20.5t4 16.5z" />
    <glyph glyph-name="dieresis" unicode="&#xa8;" horiz-adv-x="500" 
d="M377 623h-100v95h100v-95zM222 623h-100v95h100v-95z" />
    <glyph glyph-name="copyright" unicode="&#xa9;" horiz-adv-x="816" 
d="M48 350q0 149 105.5 254.5t254.5 105.5t254.5 -105.5t105.5 -254.5t-105.5 -254.5t-254.5 -105.5t-254.5 105.5t-105.5 254.5zM104 350q0 -126 89.5 -215.5t214.5 -89.5q126 0 215.5 89.5t89.5 215.5t-89.5 215.5t-215.5 89.5q-125 0 -214.5 -89.5t-89.5 -215.5zM489 292
h99v-12q0 -60 -45.5 -105t-132.5 -45q-95 0 -140.5 48.5t-45.5 115.5v110q0 67 45.5 115.5t140.5 48.5q90 0 133.5 -44t43.5 -105v-13h-98v13q0 27 -19 46.5t-60 19.5q-45 0 -65 -23t-20 -57v-111q0 -33 20 -56t65 -23q41 0 60 19.5t19 45.5v12z" />
    <glyph glyph-name="ordfeminine" unicode="&#xaa;" horiz-adv-x="416" 
d="M191 413q74 0 74 66v17h-77q-52 0 -52 -41q0 -42 55 -42zM275 354l-4 43q-27 -51 -102 -51q-117 0 -117 105t124 105h89v25q0 60 -62 60q-31 0 -47.5 -11.5t-16.5 -30.5v-5h-79v5q0 47 36.5 77t108.5 30q144 0 144 -128v-224h-74z" />
    <glyph glyph-name="guillemotleft" unicode="&#xab;" horiz-adv-x="540" 
d="M388 69l-156 195l156 195h101l-145 -195l145 -195h-101zM188 69l-156 195l156 195h101l-145 -195l145 -195h-101z" />
    <glyph glyph-name="logicalnot" unicode="&#xac;" horiz-adv-x="566" 
d="M493 196h-102v172h-334v96h436v-268z" />
    <glyph glyph-name="uni00AD" unicode="&#xad;" horiz-adv-x="418" 
d="M67 370h284v-106h-284v106z" />
    <glyph glyph-name="registered" unicode="&#xae;" horiz-adv-x="544" 
d="M48 485q0 94 65.5 159.5t158.5 65.5t158.5 -65.5t65.5 -159.5q0 -93 -65.5 -158.5t-158.5 -65.5t-158.5 65.5t-65.5 158.5zM99 485q0 -71 51 -122t122 -51q72 0 122 50.5t50 122.5q0 73 -50 123.5t-122 50.5t-122.5 -50.5t-50.5 -123.5zM275 550h-31v-59h31q37 0 37 30
q0 29 -37 29zM305 382l-25 65h-36v-65h-54v212h95q44 0 63.5 -21t19.5 -51q0 -46 -35 -65l31 -75h-59z" />
    <glyph glyph-name="macron" unicode="&#xaf;" horiz-adv-x="500" 
d="M110 696h280v-72h-280v72z" />
    <glyph glyph-name="degree" unicode="&#xb0;" horiz-adv-x="375" 
d="M332 567q0 -59 -42.5 -102t-102.5 -43q-59 0 -101 43t-42 102q0 60 42 102t101 42q60 0 102.5 -42t42.5 -102zM269 567q0 34 -24 58t-58 24q-33 0 -57 -24t-24 -58t24 -58.5t57 -24.5q34 0 58 24t24 59z" />
    <glyph glyph-name="plusminus" unicode="&#xb1;" horiz-adv-x="575" 
d="M237 634h99v-150h169v-94h-169v-150h-99v150h-167v94h167v150zM505 167v-93h-435v93h435z" />
    <glyph glyph-name="twosuperior" unicode="&#xb2;" horiz-adv-x="326" 
d="M213 735q0 42 -51 42q-50 0 -50 -48v-9h-82v13q0 47 32 80t102 33t101 -31.5t31 -77.5q0 -74 -70 -102l-84 -34q-26 -10 -26 -27v-15h179v-69h-262v83q0 55 50 78l106 45q24 10 24 39z" />
    <glyph glyph-name="threesuperior" unicode="&#xb3;" horiz-adv-x="321" 
d="M159 484q-69 0 -101 29.5t-32 71.5v14h82v-8q0 -40 49 -40q53 0 53 47q0 20 -11.5 31.5t-30.5 11.5h-49v59h48q14 0 23 11t9 27q0 41 -43 41q-44 0 -44 -37v-7h-81v13q0 40 30 69t96 29t95.5 -30t29.5 -73q0 -46 -36 -69q48 -25 48 -79q0 -46 -31.5 -78.5t-103.5 -32.5z
" />
    <glyph glyph-name="acute" unicode="&#xb4;" horiz-adv-x="500" 
d="M347 743l-103 -144h-90l71 144h122z" />
    <glyph glyph-name="mu" unicode="&#xb5;" horiz-adv-x="613" 
d="M267 -11q-54 0 -88 22l10 -191h-110v712h110v-327q0 -52 26.5 -85t85.5 -33q122 0 122 141v304h110v-532h-97l-6 70q-49 -81 -163 -81z" />
    <glyph glyph-name="paragraph" unicode="&#xb6;" horiz-adv-x="509" 
d="M309 0v289h-45q-234 0 -234 205q0 206 234 206h161v-700h-116z" />
    <glyph glyph-name="periodcentered" unicode="&#xb7;" horiz-adv-x="252" 
d="M184 302h-116v117h116v-117z" />
    <glyph glyph-name="cedilla" unicode="&#xb8;" horiz-adv-x="500" 
d="M195 -115l-49 28l52 105h64l-34 -66q6 2 17 2q47 0 69.5 -26.5t22.5 -61.5q0 -40 -25 -68.5t-79 -28.5q-52 0 -75.5 22t-23.5 52v10h62v-4q0 -18 34 -18q33 0 33 33q0 31 -34 31q-14 0 -34 -10z" />
    <glyph glyph-name="onesuperior" unicode="&#xb9;" horiz-adv-x="295" 
d="M30 822l106 19h62v-281h84v-70h-252v70h84v199l-84 -10v73z" />
    <glyph glyph-name="ordmasculine" unicode="&#xba;" horiz-adv-x="416" 
d="M53 486v82q0 58 36.5 98t118.5 40q83 0 119.5 -40t36.5 -98v-82q0 -59 -36.5 -99.5t-119.5 -40.5q-82 0 -118.5 40.5t-36.5 99.5zM279 485v84q0 71 -71 71q-38 0 -55 -20.5t-17 -50.5v-84q0 -30 17 -51t55 -21t54.5 21t16.5 51z" />
    <glyph glyph-name="guillemotright" unicode="&#xbb;" horiz-adv-x="540" 
d="M507 264l-156 -195h-101l145 195l-145 195h101zM308 264l-156 -195h-101l145 195l-145 195h101z" />
    <glyph glyph-name="onequarter" unicode="&#xbc;" horiz-adv-x="789" 
d="M48 682l106 19h62v-281h84v-70h-252v70h84v199l-84 -10v73zM662 700l-443 -700h-90l443 700h90zM609 350l-57 -192h101v192h84v-350h-84v89h-185v68l60 193h81z" />
    <glyph glyph-name="onehalf" unicode="&#xbd;" horiz-adv-x="786" 
d="M48 682l106 19h62v-281h84v-70h-252v70h84v199l-84 -10v73zM662 700l-443 -700h-90l443 700h90zM661 245q0 42 -51 42q-50 0 -50 -48v-9h-82v13q0 47 32 80t102 33t101 -31.5t31 -77.5q0 -74 -70 -102l-84 -34q-26 -10 -26 -27v-15h179v-69h-262v83q0 55 50 78l106 45
q24 10 24 39z" />
    <glyph glyph-name="threequarters" unicode="&#xbe;" horiz-adv-x="780" 
d="M653 700l-443 -700h-90l443 700h90zM172 344q-69 0 -101 29.5t-32 71.5v14h82v-8q0 -40 49 -40q53 0 53 47q0 20 -11.5 31.5t-30.5 11.5h-49v59h48q14 0 23 11t9 27q0 41 -43 41q-44 0 -44 -37v-7h-81v13q0 40 30 69t96 29t95.5 -30t29.5 -73q0 -46 -36 -69
q48 -25 48 -79q0 -46 -31.5 -78.5t-103.5 -32.5zM601 350l-57 -192h101v192h84v-350h-84v89h-185v68l60 193h81z" />
    <glyph glyph-name="questiondown" unicode="&#xbf;" horiz-adv-x="566" 
d="M226 531h117v-117h-117v117zM227 343h114v-54q0 -47 -23.5 -76.5t-85.5 -65.5q-49 -29 -69 -52.5t-20 -67.5q0 -111 138 -111q80 0 111.5 31t31.5 84v27h116v-33q0 -89 -60.5 -147t-198.5 -58q-128 0 -190 55t-62 142q0 59 25.5 101t80.5 77q7 5 23.5 15.5t23 15t17.5 14
t15.5 16t8.5 17t4 21.5v49z" />
    <glyph glyph-name="Agrave" unicode="&#xc0;" horiz-adv-x="646" 
d="M275 750l-96 143h129l66 -143h-99zM423 261l-103 304l-103 -304h206zM512 0l-58 169h-268l-57 -169h-117l253 700h117l252 -700h-122z" />
    <glyph glyph-name="Aacute" unicode="&#xc1;" horiz-adv-x="646" 
d="M471 893l-103 -143h-89l72 143h120zM423 261l-103 304l-103 -304h206zM512 0l-58 169h-268l-57 -169h-117l253 700h117l252 -700h-122z" />
    <glyph glyph-name="Acircumflex" unicode="&#xc2;" horiz-adv-x="646" 
d="M324 837h-1l-63 -87h-87l100 143h101l100 -143h-87zM423 261l-103 304l-103 -304h206zM512 0l-58 169h-268l-57 -169h-117l253 700h117l252 -700h-122z" />
    <glyph glyph-name="Atilde" unicode="&#xc3;" horiz-adv-x="646" 
d="M332 764l-38 26q-19 11 -36 11q-22 0 -33 -15.5t-11 -35.5h-62q0 59 27 93t74 34q35 0 61 -18l38 -26q21 -15 42 -15q22 0 31 16.5t9 37.5h60q0 -126 -94 -126q-41 0 -68 18zM423 261l-103 304l-103 -304h206zM512 0l-58 169h-268l-57 -169h-117l253 700h117l252 -700
h-122z" />
    <glyph glyph-name="Adieresis" unicode="&#xc4;" horiz-adv-x="646" 
d="M451 783h-100v94h100v-94zM296 783h-100v94h100v-94zM423 261l-103 304l-103 -304h206zM512 0l-58 169h-268l-57 -169h-117l253 700h117l252 -700h-122z" />
    <glyph glyph-name="Aring" unicode="&#xc5;" horiz-adv-x="646" 
d="M323 954q46 0 77.5 -30t31.5 -77q0 -46 -31.5 -76t-77.5 -30q-45 0 -76.5 30t-31.5 76t31.5 76.5t76.5 30.5zM323 799q21 0 34.5 13.5t13.5 34.5t-13.5 34.5t-34.5 13.5q-20 0 -33.5 -13.5t-13.5 -34.5t13.5 -34.5t33.5 -13.5zM423 261l-103 304l-103 -304h206zM512 0
l-58 169h-268l-57 -169h-117l253 700h117l252 -700h-122z" />
    <glyph glyph-name="AE" unicode="&#xc6;" horiz-adv-x="988" 
d="M468 261v341h-4l-200 -341h204zM468 0v169h-257l-99 -169h-117l422 700h509v-98h-342v-192h321v-94h-321v-218h357v-98h-473z" />
    <glyph glyph-name="Ccedilla" unicode="&#xc7;" horiz-adv-x="643" 
d="M327 -231q-52 0 -75.5 22t-23.5 52v10h62v-4q0 -18 34 -18q33 0 33 33q0 31 -34 31q-14 0 -34 -10l-49 28l39 79q-114 15 -166 85t-52 163v221q0 48 14 90t44 79t84.5 59t128.5 22q73 0 127 -18.5t83.5 -50t43 -66.5t13.5 -75v-24h-115v18q0 47 -36 80.5t-116 33.5
q-81 0 -118 -43t-37 -105v-221q0 -63 36.5 -106t118.5 -43q80 0 116 34.5t36 84.5v22h115v-28q0 -40 -13.5 -76t-41.5 -67.5t-80.5 -51t-122.5 -20.5l-19 -37q6 2 17 2q47 0 69.5 -26.5t22.5 -61.5q0 -40 -25 -68.5t-79 -28.5z" />
    <glyph glyph-name="Egrave" unicode="&#xc8;" horiz-adv-x="600" 
d="M269 750l-96 143h129l66 -143h-99zM81 0v700h457v-98h-341v-192h320v-94h-320v-218h355v-98h-471z" />
    <glyph glyph-name="Eacute" unicode="&#xc9;" horiz-adv-x="600" 
d="M465 893l-103 -143h-89l72 143h120zM81 0v700h457v-98h-341v-192h320v-94h-320v-218h355v-98h-471z" />
    <glyph glyph-name="Ecircumflex" unicode="&#xca;" horiz-adv-x="600" 
d="M318 837h-1l-63 -87h-87l100 143h101l100 -143h-87zM81 0v700h457v-98h-341v-192h320v-94h-320v-218h355v-98h-471z" />
    <glyph glyph-name="Edieresis" unicode="&#xcb;" horiz-adv-x="600" 
d="M445 783h-100v94h100v-94zM290 783h-100v94h100v-94zM81 0v700h457v-98h-341v-192h320v-94h-320v-218h355v-98h-471z" />
    <glyph glyph-name="Igrave" unicode="&#xcc;" horiz-adv-x="280" 
d="M91 750l-96 143h129l66 -143h-99zM198 700v-700h-116v700h116z" />
    <glyph glyph-name="Iacute" unicode="&#xcd;" horiz-adv-x="280" 
d="M287 893l-103 -143h-89l72 143h120zM198 700v-700h-116v700h116z" />
    <glyph glyph-name="Icircumflex" unicode="&#xce;" horiz-adv-x="280" 
d="M140 837h-1l-63 -87h-87l100 143h101l100 -143h-87zM198 700v-700h-116v700h116z" />
    <glyph glyph-name="Idieresis" unicode="&#xcf;" horiz-adv-x="280" 
d="M267 783h-100v94h100v-94zM112 783h-100v94h100v-94zM198 700v-700h-116v700h116z" />
    <glyph glyph-name="Eth" unicode="&#xd0;" horiz-adv-x="700" 
d="M363 0h-275v326h-63v73h63v301h275q76 0 131.5 -22t86 -59t44.5 -79.5t14 -90.5v-198q0 -48 -14 -90.5t-44.5 -79.5t-86 -59t-131.5 -22zM204 102h159q85 0 122.5 44.5t37.5 110.5v186q0 66 -37.5 110.5t-122.5 44.5h-159v-199h103v-73h-103v-224z" />
    <glyph glyph-name="Ntilde" unicode="&#xd1;" horiz-adv-x="707" 
d="M362 764l-38 26q-19 11 -36 11q-22 0 -33 -15.5t-11 -35.5h-62q0 59 27 93t74 34q35 0 61 -18l38 -26q21 -15 42 -15q22 0 31 16.5t9 37.5h60q0 -126 -94 -126q-41 0 -68 18zM530 0l-339 486v-486h-110v700h96l339 -488v488h111v-700h-97z" />
    <glyph glyph-name="Ograve" unicode="&#xd2;" horiz-adv-x="675" 
d="M289 750l-96 143h129l66 -143h-99zM337 -11q-76 0 -131.5 22t-86 59t-44.5 79.5t-14 90.5v221q0 48 14 90t44.5 79t86 59t131.5 22t132 -22t86.5 -59t44.5 -79t14 -90v-221q0 -48 -14 -90.5t-44.5 -79.5t-86.5 -59t-132 -22zM337 91q86 0 123.5 44.5t37.5 110.5v208
q0 66 -37.5 110.5t-123.5 44.5q-85 0 -122.5 -45t-37.5 -110v-208q0 -65 37.5 -110t122.5 -45z" />
    <glyph glyph-name="Oacute" unicode="&#xd3;" horiz-adv-x="675" 
d="M485 893l-103 -143h-89l72 143h120zM337 -11q-76 0 -131.5 22t-86 59t-44.5 79.5t-14 90.5v221q0 48 14 90t44.5 79t86 59t131.5 22t132 -22t86.5 -59t44.5 -79t14 -90v-221q0 -48 -14 -90.5t-44.5 -79.5t-86.5 -59t-132 -22zM337 91q86 0 123.5 44.5t37.5 110.5v208
q0 66 -37.5 110.5t-123.5 44.5q-85 0 -122.5 -45t-37.5 -110v-208q0 -65 37.5 -110t122.5 -45z" />
    <glyph glyph-name="Ocircumflex" unicode="&#xd4;" horiz-adv-x="675" 
d="M338 837h-1l-63 -87h-87l100 143h101l100 -143h-87zM337 -11q-76 0 -131.5 22t-86 59t-44.5 79.5t-14 90.5v221q0 48 14 90t44.5 79t86 59t131.5 22t132 -22t86.5 -59t44.5 -79t14 -90v-221q0 -48 -14 -90.5t-44.5 -79.5t-86.5 -59t-132 -22zM337 91q86 0 123.5 44.5
t37.5 110.5v208q0 66 -37.5 110.5t-123.5 44.5q-85 0 -122.5 -45t-37.5 -110v-208q0 -65 37.5 -110t122.5 -45z" />
    <glyph glyph-name="Otilde" unicode="&#xd5;" horiz-adv-x="675" 
d="M346 764l-38 26q-19 11 -36 11q-22 0 -33 -15.5t-11 -35.5h-62q0 59 27 93t74 34q35 0 61 -18l38 -26q21 -15 42 -15q22 0 31 16.5t9 37.5h60q0 -126 -94 -126q-41 0 -68 18zM337 -11q-76 0 -131.5 22t-86 59t-44.5 79.5t-14 90.5v221q0 48 14 90t44.5 79t86 59t131.5 22
t132 -22t86.5 -59t44.5 -79t14 -90v-221q0 -48 -14 -90.5t-44.5 -79.5t-86.5 -59t-132 -22zM337 91q86 0 123.5 44.5t37.5 110.5v208q0 66 -37.5 110.5t-123.5 44.5q-85 0 -122.5 -45t-37.5 -110v-208q0 -65 37.5 -110t122.5 -45z" />
    <glyph glyph-name="Odieresis" unicode="&#xd6;" horiz-adv-x="675" 
d="M465 783h-100v94h100v-94zM310 783h-100v94h100v-94zM337 -11q-76 0 -131.5 22t-86 59t-44.5 79.5t-14 90.5v221q0 48 14 90t44.5 79t86 59t131.5 22t132 -22t86.5 -59t44.5 -79t14 -90v-221q0 -48 -14 -90.5t-44.5 -79.5t-86.5 -59t-132 -22zM337 91q86 0 123.5 44.5
t37.5 110.5v208q0 66 -37.5 110.5t-123.5 44.5q-85 0 -122.5 -45t-37.5 -110v-208q0 -65 37.5 -110t122.5 -45z" />
    <glyph glyph-name="multiply" unicode="&#xd7;" horiz-adv-x="490" 
d="M363 150l-119 119l-119 -118l-70 70l119 118l-119 120l70 70l119 -120l120 120l70 -70l-120 -120l119 -119z" />
    <glyph glyph-name="Oslash" unicode="&#xd8;" horiz-adv-x="675" 
d="M177 246q0 -51 21 -87l229 431q-36 19 -90 19q-85 0 -122.5 -45t-37.5 -110v-208zM337 91q86 0 123.5 44.5t37.5 110.5v208q0 49 -20 86l-230 -430q36 -19 89 -19zM337 -11q-80 0 -138 25l-24 -43h-86l46 83q-74 67 -74 186v221q0 48 14 90t44.5 79t86 59t131.5 22
q79 0 138 -24l24 42h87l-46 -83q74 -67 74 -185v-221q0 -48 -14 -90.5t-44.5 -79.5t-86.5 -59t-132 -22z" />
    <glyph glyph-name="Ugrave" unicode="&#xd9;" horiz-adv-x="701" 
d="M302 750l-96 143h129l66 -143h-99zM75 700h116v-454q0 -65 37 -110t122 -45t122 45t37 110v454h116v-460q0 -48 -14 -90.5t-44 -79.5t-85.5 -59t-131.5 -22q-75 0 -131 22t-86 59t-44 79.5t-14 90.5v460z" />
    <glyph glyph-name="Uacute" unicode="&#xda;" horiz-adv-x="701" 
d="M498 893l-103 -143h-89l72 143h120zM75 700h116v-454q0 -65 37 -110t122 -45t122 45t37 110v454h116v-460q0 -48 -14 -90.5t-44 -79.5t-85.5 -59t-131.5 -22q-75 0 -131 22t-86 59t-44 79.5t-14 90.5v460z" />
    <glyph glyph-name="Ucircumflex" unicode="&#xdb;" horiz-adv-x="701" 
d="M351 837h-1l-63 -87h-87l100 143h101l100 -143h-87zM75 700h116v-454q0 -65 37 -110t122 -45t122 45t37 110v454h116v-460q0 -48 -14 -90.5t-44 -79.5t-85.5 -59t-131.5 -22q-75 0 -131 22t-86 59t-44 79.5t-14 90.5v460z" />
    <glyph glyph-name="Udieresis" unicode="&#xdc;" horiz-adv-x="701" 
d="M478 783h-100v94h100v-94zM323 783h-100v94h100v-94zM75 700h116v-454q0 -65 37 -110t122 -45t122 45t37 110v454h116v-460q0 -48 -14 -90.5t-44 -79.5t-85.5 -59t-131.5 -22q-75 0 -131 22t-86 59t-44 79.5t-14 90.5v460z" />
    <glyph glyph-name="Yacute" unicode="&#xdd;" horiz-adv-x="611" 
d="M458 893l-103 -143h-89l72 143h120zM364 0h-116v258l-237 442h125l170 -328l174 328h121l-237 -434v-266z" />
    <glyph glyph-name="Thorn" unicode="&#xde;" horiz-adv-x="659" 
d="M346 96h-149v-96h-116v700h116v-133h149q149 0 212.5 -66t63.5 -169q0 -48 -13.5 -88t-43.5 -74.5t-86 -54t-133 -19.5zM345 468h-148v-273h148q159 0 159 136q0 137 -159 137z" />
    <glyph glyph-name="germandbls" unicode="&#xdf;" horiz-adv-x="598" 
d="M180 528v-528h-110v527q0 40 11 76t36 68t71.5 51t109.5 19q61 0 106 -16.5t69 -44t35 -59t11 -67.5q0 -116 -99 -159q134 -41 134 -181q0 -93 -60 -153.5t-198 -60.5h-37v89h37q145 0 145 128q0 131 -152 131h-30v85h16q134 0 134 111q0 45 -26 76.5t-88 31.5
t-88.5 -35.5t-26.5 -88.5z" />
    <glyph glyph-name="agrave" unicode="&#xe0;" 
d="M228 599l-103 144h121l72 -144h-90zM250 75q65 0 96.5 31t31.5 84v39h-128q-97 0 -97 -76q0 -78 97 -78zM390 0l-5 58q-41 -69 -165 -69q-94 0 -136.5 43.5t-42.5 116.5q0 161 192 161h145v40q0 106 -108 106q-53 0 -81.5 -20.5t-28.5 -53.5v-8h-104v8q0 70 54.5 115.5
t162.5 45.5q215 0 215 -197v-346h-98z" />
    <glyph glyph-name="aacute" unicode="&#xe1;" 
d="M417 743l-103 -144h-90l71 144h122zM250 75q65 0 96.5 31t31.5 84v39h-128q-97 0 -97 -76q0 -78 97 -78zM390 0l-5 58q-41 -69 -165 -69q-94 0 -136.5 43.5t-42.5 116.5q0 161 192 161h145v40q0 106 -108 106q-53 0 -81.5 -20.5t-28.5 -53.5v-8h-104v8q0 70 54.5 115.5
t162.5 45.5q215 0 215 -197v-346h-98z" />
    <glyph glyph-name="acircumflex" unicode="&#xe2;" 
d="M271 687h-1l-63 -88h-87l100 144h101l100 -144h-87zM250 75q65 0 96.5 31t31.5 84v39h-128q-97 0 -97 -76q0 -78 97 -78zM390 0l-5 58q-41 -69 -165 -69q-94 0 -136.5 43.5t-42.5 116.5q0 161 192 161h145v40q0 106 -108 106q-53 0 -81.5 -20.5t-28.5 -53.5v-8h-104v8
q0 70 54.5 115.5t162.5 45.5q215 0 215 -197v-346h-98z" />
    <glyph glyph-name="atilde" unicode="&#xe3;" 
d="M280 613l-39 26q-19 12 -35 12q-23 0 -34 -15.5t-11 -36.5h-61q0 59 27 93t74 34q36 0 61 -18l37 -25q22 -15 42 -15q22 0 31.5 16.5t9.5 37.5h60q0 -127 -95 -127q-40 0 -67 18zM250 75q65 0 96.5 31t31.5 84v39h-128q-97 0 -97 -76q0 -78 97 -78zM390 0l-5 58
q-41 -69 -165 -69q-94 0 -136.5 43.5t-42.5 116.5q0 161 192 161h145v40q0 106 -108 106q-53 0 -81.5 -20.5t-28.5 -53.5v-8h-104v8q0 70 54.5 115.5t162.5 45.5q215 0 215 -197v-346h-98z" />
    <glyph glyph-name="adieresis" unicode="&#xe4;" 
d="M398 622h-100v95h100v-95zM243 622h-100v95h100v-95zM250 75q65 0 96.5 31t31.5 84v39h-128q-97 0 -97 -76q0 -78 97 -78zM390 0l-5 58q-41 -69 -165 -69q-94 0 -136.5 43.5t-42.5 116.5q0 161 192 161h145v40q0 106 -108 106q-53 0 -81.5 -20.5t-28.5 -53.5v-8h-104v8
q0 70 54.5 115.5t162.5 45.5q215 0 215 -197v-346h-98z" />
    <glyph glyph-name="aring" unicode="&#xe5;" 
d="M270 802q46 0 78 -30t32 -77q0 -46 -32 -76t-78 -30q-45 0 -76.5 30t-31.5 76t31.5 76.5t76.5 30.5zM270 647q21 0 34.5 13.5t13.5 34.5t-14 35t-34 14t-33.5 -14t-13.5 -35t13.5 -34.5t33.5 -13.5zM250 75q65 0 96.5 31t31.5 84v39h-128q-97 0 -97 -76q0 -78 97 -78z
M390 0l-5 58q-41 -69 -165 -69q-94 0 -136.5 43.5t-42.5 116.5q0 161 192 161h145v40q0 106 -108 106q-53 0 -81.5 -20.5t-28.5 -53.5v-8h-104v8q0 70 54.5 115.5t162.5 45.5q215 0 215 -197v-346h-98z" />
    <glyph glyph-name="ae" unicode="&#xe6;" horiz-adv-x="880" 
d="M828 154q0 -30 -9.5 -56.5t-31 -52t-65.5 -41t-106 -15.5q-157 0 -207 110q-24 -110 -186 -110q-181 0 -181 160q0 163 192 163h145v38q0 107 -109 107q-54 0 -83 -21t-29 -54v-8h-104v8q0 70 53.5 115.5t161.5 45.5q117 0 166 -74q57 74 178 74q60 0 104.5 -19t69 -52
t35.5 -69.5t11 -78.5v-91h-345v-45q0 -49 28.5 -81.5t92.5 -32.5q62 0 89 24t27 59v8h103v-11zM488 346v-34h238v34q0 47 -28.5 80t-90.5 33q-63 0 -91 -33t-28 -80zM251 75q65 0 96.5 31.5t31.5 84.5v42h-128q-51 0 -74 -19t-23 -59q0 -80 97 -80z" />
    <glyph glyph-name="ccedilla" unicode="&#xe7;" horiz-adv-x="546" 
d="M277 -231q-52 0 -75.5 22t-23.5 52v10h62v-4q0 -18 34 -18q33 0 33 33q0 31 -34 31q-14 0 -34 -10l-49 28l40 80q-94 14 -136 72.5t-42 136.5v128q0 41 11.5 76.5t37 67.5t72.5 50.5t110 18.5q115 0 167.5 -57t52.5 -136v-10h-108v11q0 42 -27 71.5t-85 29.5
q-63 0 -92 -35.5t-29 -85.5v-129q0 -50 29 -85.5t92 -35.5q58 0 85 29.5t27 71.5v10h109v-10q0 -77 -52.5 -134t-160.5 -59l-19 -37q6 2 17 2q47 0 69.5 -26.5t22.5 -61.5q0 -40 -25 -68.5t-79 -28.5z" />
    <glyph glyph-name="egrave" unicode="&#xe8;" 
d="M236 599l-103 144h121l72 -144h-90zM501 154q0 -30 -9.5 -56.5t-32 -52t-68 -41t-109.5 -15.5q-65 0 -112 18t-71.5 49.5t-35.5 66.5t-11 76v131q0 88 54.5 150.5t174.5 62.5q61 0 106.5 -18.5t70 -50.5t36 -68t11.5 -76v-95h-344v-47q0 -49 28.5 -81.5t92.5 -32.5
q62 0 89 24.5t27 58.5v8h103v-11zM161 346v-30h238v30q0 47 -28.5 80t-90.5 33q-63 0 -91 -33t-28 -80z" />
    <glyph glyph-name="eacute" unicode="&#xe9;" 
d="M424 743l-103 -144h-90l71 144h122zM501 154q0 -30 -9.5 -56.5t-32 -52t-68 -41t-109.5 -15.5q-65 0 -112 18t-71.5 49.5t-35.5 66.5t-11 76v131q0 88 54.5 150.5t174.5 62.5q61 0 106.5 -18.5t70 -50.5t36 -68t11.5 -76v-95h-344v-47q0 -49 28.5 -81.5t92.5 -32.5
q62 0 89 24.5t27 58.5v8h103v-11zM161 346v-30h238v30q0 47 -28.5 80t-90.5 33q-63 0 -91 -33t-28 -80z" />
    <glyph glyph-name="ecircumflex" unicode="&#xea;" 
d="M279 687h-1l-63 -88h-87l100 144h101l100 -144h-87zM501 154q0 -30 -9.5 -56.5t-32 -52t-68 -41t-109.5 -15.5q-65 0 -112 18t-71.5 49.5t-35.5 66.5t-11 76v131q0 88 54.5 150.5t174.5 62.5q61 0 106.5 -18.5t70 -50.5t36 -68t11.5 -76v-95h-344v-47q0 -49 28.5 -81.5
t92.5 -32.5q62 0 89 24.5t27 58.5v8h103v-11zM161 346v-30h238v30q0 47 -28.5 80t-90.5 33q-63 0 -91 -33t-28 -80z" />
    <glyph glyph-name="edieresis" unicode="&#xeb;" 
d="M406 622h-100v95h100v-95zM251 622h-100v95h100v-95zM501 154q0 -30 -9.5 -56.5t-32 -52t-68 -41t-109.5 -15.5q-65 0 -112 18t-71.5 49.5t-35.5 66.5t-11 76v131q0 88 54.5 150.5t174.5 62.5q61 0 106.5 -18.5t70 -50.5t36 -68t11.5 -76v-95h-344v-47q0 -49 28.5 -81.5
t92.5 -32.5q62 0 89 24.5t27 58.5v8h103v-11zM161 346v-30h238v30q0 47 -28.5 80t-90.5 33q-63 0 -91 -33t-28 -80z" />
    <glyph glyph-name="igrave" unicode="&#xec;" horiz-adv-x="253" 
d="M84 599l-103 144h121l72 -144h-90zM182 0h-111v532h111v-532z" />
    <glyph glyph-name="iacute" unicode="&#xed;" horiz-adv-x="253" 
d="M272 743l-103 -144h-90l71 144h122zM182 0h-111v532h111v-532z" />
    <glyph glyph-name="icircumflex" unicode="&#xee;" horiz-adv-x="253" 
d="M127 687h-1l-63 -88h-87l100 144h101l100 -144h-87zM182 0h-111v532h111v-532z" />
    <glyph glyph-name="idieresis" unicode="&#xef;" horiz-adv-x="253" 
d="M254 622h-100v95h100v-95zM99 622h-100v95h100v-95zM182 0h-111v532h111v-532z" />
    <glyph glyph-name="eth" unicode="&#xf0;" horiz-adv-x="574" 
d="M517 202q0 -91 -54.5 -151.5t-178.5 -60.5q-123 0 -177.5 61t-54.5 151v128q0 40 11 74.5t35.5 65t69 48.5t104.5 18t103 -28q-2 3 -4 7l-4.5 9t-3.5 8q-16 33 -43 72l-86 -32l-23 60l69 27q-51 56 -67 71h119l38 -40l78 29l23 -59l-60 -23q32 -46 56 -95
q50 -111 50 -203v-137zM407 201v130q0 52 -29 86.5t-94 34.5q-64 0 -93 -35.5t-29 -85.5v-130q0 -52 28.5 -86t93.5 -34t94 33.5t29 86.5z" />
    <glyph glyph-name="ntilde" unicode="&#xf1;" horiz-adv-x="596" 
d="M309 613l-39 26q-19 12 -35 12q-23 0 -34 -15.5t-11 -36.5h-61q0 59 27 93t74 34q36 0 61 -18l37 -25q22 -15 42 -15q22 0 31.5 16.5t9.5 37.5h60q0 -127 -95 -127q-40 0 -67 18zM180 0h-110v532h98l6 -72q48 83 166 83q90 0 140.5 -56t50.5 -147v-340h-111v314
q0 131 -114 131q-67 0 -96.5 -39t-29.5 -102v-304z" />
    <glyph glyph-name="ograve" unicode="&#xf2;" horiz-adv-x="569" 
d="M242 599l-103 144h121l72 -144h-90zM52 202v128q0 88 55 150.5t177 62.5q65 0 112 -18.5t72.5 -50.5t37 -67.5t11.5 -76.5v-128q0 -41 -11.5 -77t-37 -67.5t-72.5 -50t-112 -18.5q-64 0 -111 18.5t-72.5 50t-37 67.5t-11.5 77zM407 201v130q0 50 -29 85.5t-94 35.5
q-64 0 -93 -35.5t-29 -85.5v-130q0 -51 29 -86.5t93 -35.5q65 0 94 35.5t29 86.5z" />
    <glyph glyph-name="oacute" unicode="&#xf3;" horiz-adv-x="569" 
d="M430 743l-103 -144h-90l71 144h122zM52 202v128q0 88 55 150.5t177 62.5q65 0 112 -18.5t72.5 -50.5t37 -67.5t11.5 -76.5v-128q0 -41 -11.5 -77t-37 -67.5t-72.5 -50t-112 -18.5q-64 0 -111 18.5t-72.5 50t-37 67.5t-11.5 77zM407 201v130q0 50 -29 85.5t-94 35.5
q-64 0 -93 -35.5t-29 -85.5v-130q0 -51 29 -86.5t93 -35.5q65 0 94 35.5t29 86.5z" />
    <glyph glyph-name="ocircumflex" unicode="&#xf4;" horiz-adv-x="569" 
d="M285 687h-1l-63 -88h-87l100 144h101l100 -144h-87zM52 202v128q0 88 55 150.5t177 62.5q65 0 112 -18.5t72.5 -50.5t37 -67.5t11.5 -76.5v-128q0 -41 -11.5 -77t-37 -67.5t-72.5 -50t-112 -18.5q-64 0 -111 18.5t-72.5 50t-37 67.5t-11.5 77zM407 201v130q0 50 -29 85.5
t-94 35.5q-64 0 -93 -35.5t-29 -85.5v-130q0 -51 29 -86.5t93 -35.5q65 0 94 35.5t29 86.5z" />
    <glyph glyph-name="otilde" unicode="&#xf5;" horiz-adv-x="569" 
d="M294 613l-39 26q-19 12 -35 12q-23 0 -34 -15.5t-11 -36.5h-61q0 59 27 93t74 34q36 0 61 -18l37 -25q22 -15 42 -15q22 0 31.5 16.5t9.5 37.5h60q0 -127 -95 -127q-40 0 -67 18zM52 202v128q0 88 55 150.5t177 62.5q65 0 112 -18.5t72.5 -50.5t37 -67.5t11.5 -76.5v-128
q0 -41 -11.5 -77t-37 -67.5t-72.5 -50t-112 -18.5q-64 0 -111 18.5t-72.5 50t-37 67.5t-11.5 77zM407 201v130q0 50 -29 85.5t-94 35.5q-64 0 -93 -35.5t-29 -85.5v-130q0 -51 29 -86.5t93 -35.5q65 0 94 35.5t29 86.5z" />
    <glyph glyph-name="odieresis" unicode="&#xf6;" horiz-adv-x="569" 
d="M412 622h-100v95h100v-95zM257 622h-100v95h100v-95zM52 202v128q0 88 55 150.5t177 62.5q65 0 112 -18.5t72.5 -50.5t37 -67.5t11.5 -76.5v-128q0 -41 -11.5 -77t-37 -67.5t-72.5 -50t-112 -18.5q-64 0 -111 18.5t-72.5 50t-37 67.5t-11.5 77zM407 201v130
q0 50 -29 85.5t-94 35.5q-64 0 -93 -35.5t-29 -85.5v-130q0 -51 29 -86.5t93 -35.5q65 0 94 35.5t29 86.5z" />
    <glyph glyph-name="divide" unicode="&#xf7;" 
d="M335 492h-117v100h117v-100zM495 290h-436v99h436v-99zM335 88h-117v99h117v-99z" />
    <glyph glyph-name="oslash" unicode="&#xf8;" horiz-adv-x="569" 
d="M162 201q0 -31 12 -60l179 295q-27 16 -69 16q-64 0 -93 -35.5t-29 -85.5v-130zM284 79q65 0 94 35.5t29 86.5v130q0 33 -11 58l-179 -295q28 -15 67 -15zM284 -11q-67 0 -115 20l-26 -44h-84l52 82q-59 58 -59 155v128q0 88 55 150.5t177 62.5q64 0 116 -20l28 45h83
l-51 -85q57 -56 57 -153v-128q0 -41 -11.5 -77t-37 -67.5t-72.5 -50t-112 -18.5z" />
    <glyph glyph-name="ugrave" unicode="&#xf9;" horiz-adv-x="589" 
d="M249 599l-103 144h121l72 -144h-90zM421 0l-6 70q-49 -81 -163 -81q-87 0 -137 52.5t-50 137.5v353h110v-327q0 -118 111 -118q122 0 122 141v304h111v-532h-98z" />
    <glyph glyph-name="uacute" unicode="&#xfa;" horiz-adv-x="589" 
d="M437 743l-103 -144h-90l71 144h122zM421 0l-6 70q-49 -81 -163 -81q-87 0 -137 52.5t-50 137.5v353h110v-327q0 -118 111 -118q122 0 122 141v304h111v-532h-98z" />
    <glyph glyph-name="ucircumflex" unicode="&#xfb;" horiz-adv-x="589" 
d="M292 687h-1l-63 -88h-87l100 144h101l100 -144h-87zM421 0l-6 70q-49 -81 -163 -81q-87 0 -137 52.5t-50 137.5v353h110v-327q0 -118 111 -118q122 0 122 141v304h111v-532h-98z" />
    <glyph glyph-name="udieresis" unicode="&#xfc;" horiz-adv-x="589" 
d="M419 622h-100v95h100v-95zM264 622h-100v95h100v-95zM421 0l-6 70q-49 -81 -163 -81q-87 0 -137 52.5t-50 137.5v353h110v-327q0 -118 111 -118q122 0 122 141v304h111v-532h-98z" />
    <glyph glyph-name="yacute" unicode="&#xfd;" horiz-adv-x="529" 
d="M418 743l-103 -144h-90l71 144h122zM250 -180h-105l67 181l-192 531h117l129 -384l138 384h110z" />
    <glyph glyph-name="thorn" unicode="&#xfe;" horiz-adv-x="585" 
d="M306 87q66 0 91.5 35.5t25.5 99.5v88q0 135 -117 135q-126 0 -126 -141v-76q0 -141 126 -141zM338 -11q-111 0 -158 68v-221h-110v894h110v-259q50 72 160 72q90 0 141.5 -57t51.5 -150v-140q0 -94 -52 -150.5t-143 -56.5z" />
    <glyph glyph-name="ydieresis" unicode="&#xff;" horiz-adv-x="529" 
d="M400 622h-100v95h100v-95zM245 622h-100v95h100v-95zM250 -180h-105l67 181l-192 531h117l129 -384l138 384h110z" />
    <glyph glyph-name="Amacron" unicode="&#x100;" horiz-adv-x="646" 
d="M184 868h280v-72h-280v72zM423 261l-103 304l-103 -304h206zM512 0l-58 169h-268l-57 -169h-117l253 700h117l252 -700h-122z" />
    <glyph glyph-name="amacron" unicode="&#x101;" 
d="M131 696h280v-72h-280v72zM250 75q65 0 96.5 31t31.5 84v39h-128q-97 0 -97 -76q0 -78 97 -78zM390 0l-5 58q-41 -69 -165 -69q-94 0 -136.5 43.5t-42.5 116.5q0 161 192 161h145v40q0 106 -108 106q-53 0 -81.5 -20.5t-28.5 -53.5v-8h-104v8q0 70 54.5 115.5t162.5 45.5
q215 0 215 -197v-346h-98z" />
    <glyph glyph-name="Abreve" unicode="&#x102;" horiz-adv-x="646" 
d="M379 880h70v-19q0 -55 -33.5 -88t-92.5 -33q-58 0 -91.5 33t-33.5 88v19h70v-19q0 -25 15 -39.5t40 -14.5q26 0 41 14.5t15 39.5v19zM423 261l-103 304l-103 -304h206zM512 0l-58 169h-268l-57 -169h-117l253 700h117l252 -700h-122z" />
    <glyph glyph-name="abreve" unicode="&#x103;" 
d="M326 728h70v-19q0 -55 -33.5 -87.5t-92.5 -32.5q-58 0 -91.5 32.5t-33.5 87.5v19h70v-19q0 -25 15 -39.5t40 -14.5q26 0 41 14.5t15 39.5v19zM250 75q65 0 96.5 31t31.5 84v39h-128q-97 0 -97 -76q0 -78 97 -78zM390 0l-5 58q-41 -69 -165 -69q-94 0 -136.5 43.5
t-42.5 116.5q0 161 192 161h145v40q0 106 -108 106q-53 0 -81.5 -20.5t-28.5 -53.5v-8h-104v8q0 70 54.5 115.5t162.5 45.5q215 0 215 -197v-346h-98z" />
    <glyph glyph-name="Aogonek" unicode="&#x104;" horiz-adv-x="646" 
d="M609 -172q-37 -23 -77 -23q-49 0 -79.5 27.5t-30.5 67.5q0 68 85 115l-53 154h-268l-57 -169h-117l253 700h117l252 -700h-69q-55 -33 -55 -70q0 -44 56 -44q19 0 43 6v-64zM423 261l-103 304l-103 -304h206z" />
    <glyph glyph-name="aogonek" unicode="&#x105;" 
d="M489 -172q-37 -23 -77 -23q-50 0 -80 27.5t-30 67.5q0 69 87 116l-4 42q-41 -69 -165 -69q-94 0 -136.5 43.5t-42.5 116.5q0 161 192 161h145v40q0 106 -108 106q-53 0 -81.5 -20.5t-28.5 -53.5v-8h-104v8q0 70 54.5 115.5t162.5 45.5q215 0 215 -197v-346h-43
q-55 -33 -55 -70q0 -44 56 -44q19 0 43 6v-64zM250 75q65 0 96.5 31t31.5 84v39h-128q-97 0 -97 -76q0 -78 97 -78z" />
    <glyph glyph-name="Cacute" unicode="&#x106;" horiz-adv-x="643" 
d="M480 893l-103 -143h-89l72 143h120zM484 232h115v-28q0 -41 -13.5 -77t-43 -68t-83.5 -51t-127 -19q-74 0 -128.5 22t-84.5 59t-44 79.5t-14 90.5v221q0 48 14 90t44 79t84.5 59t128.5 22q73 0 127 -18.5t83.5 -50t43 -66.5t13.5 -75v-24h-115v18q0 47 -36 80.5
t-116 33.5q-81 0 -118 -43t-37 -105v-221q0 -63 36.5 -106t118.5 -43q80 0 116 34.5t36 84.5v22z" />
    <glyph glyph-name="cacute" unicode="&#x107;" horiz-adv-x="546" 
d="M429 743l-103 -144h-90l71 144h122zM395 192h109v-10q0 -79 -54.5 -136t-166.5 -57q-63 0 -110 18.5t-72.5 50t-37 67.5t-11.5 77v128q0 41 11.5 76.5t37 67.5t72.5 50.5t110 18.5q115 0 167.5 -57t52.5 -136v-10h-108v11q0 42 -27 71.5t-85 29.5q-63 0 -92 -35.5
t-29 -85.5v-129q0 -50 29 -85.5t92 -35.5q58 0 85 29.5t27 71.5v10z" />
    <glyph glyph-name="Ccircumflex" unicode="&#x108;" horiz-adv-x="643" 
d="M333 837h-1l-63 -87h-87l100 143h101l100 -143h-87zM484 232h115v-28q0 -41 -13.5 -77t-43 -68t-83.5 -51t-127 -19q-74 0 -128.5 22t-84.5 59t-44 79.5t-14 90.5v221q0 48 14 90t44 79t84.5 59t128.5 22q73 0 127 -18.5t83.5 -50t43 -66.5t13.5 -75v-24h-115v18
q0 47 -36 80.5t-116 33.5q-81 0 -118 -43t-37 -105v-221q0 -63 36.5 -106t118.5 -43q80 0 116 34.5t36 84.5v22z" />
    <glyph glyph-name="ccircumflex" unicode="&#x109;" horiz-adv-x="546" 
d="M284 687h-1l-63 -88h-87l100 144h101l100 -144h-87zM395 192h109v-10q0 -79 -54.5 -136t-166.5 -57q-63 0 -110 18.5t-72.5 50t-37 67.5t-11.5 77v128q0 41 11.5 76.5t37 67.5t72.5 50.5t110 18.5q115 0 167.5 -57t52.5 -136v-10h-108v11q0 42 -27 71.5t-85 29.5
q-63 0 -92 -35.5t-29 -85.5v-129q0 -50 29 -85.5t92 -35.5q58 0 85 29.5t27 71.5v10z" />
    <glyph glyph-name="Cdotaccent" unicode="&#x10a;" horiz-adv-x="643" 
d="M386 783h-108v105h108v-105zM484 232h115v-28q0 -41 -13.5 -77t-43 -68t-83.5 -51t-127 -19q-74 0 -128.5 22t-84.5 59t-44 79.5t-14 90.5v221q0 48 14 90t44 79t84.5 59t128.5 22q73 0 127 -18.5t83.5 -50t43 -66.5t13.5 -75v-24h-115v18q0 47 -36 80.5t-116 33.5
q-81 0 -118 -43t-37 -105v-221q0 -63 36.5 -106t118.5 -43q80 0 116 34.5t36 84.5v22z" />
    <glyph glyph-name="cdotaccent" unicode="&#x10b;" horiz-adv-x="546" 
d="M338 624h-108v105h108v-105zM395 192h109v-10q0 -79 -54.5 -136t-166.5 -57q-63 0 -110 18.5t-72.5 50t-37 67.5t-11.5 77v128q0 41 11.5 76.5t37 67.5t72.5 50.5t110 18.5q115 0 167.5 -57t52.5 -136v-10h-108v11q0 42 -27 71.5t-85 29.5q-63 0 -92 -35.5t-29 -85.5
v-129q0 -50 29 -85.5t92 -35.5q58 0 85 29.5t27 71.5v10z" />
    <glyph glyph-name="Ccaron" unicode="&#x10c;" horiz-adv-x="643" 
d="M332 806h1l63 87h87l-100 -143h-101l-100 143h87zM484 232h115v-28q0 -41 -13.5 -77t-43 -68t-83.5 -51t-127 -19q-74 0 -128.5 22t-84.5 59t-44 79.5t-14 90.5v221q0 48 14 90t44 79t84.5 59t128.5 22q73 0 127 -18.5t83.5 -50t43 -66.5t13.5 -75v-24h-115v18
q0 47 -36 80.5t-116 33.5q-81 0 -118 -43t-37 -105v-221q0 -63 36.5 -106t118.5 -43q80 0 116 34.5t36 84.5v22z" />
    <glyph glyph-name="ccaron" unicode="&#x10d;" horiz-adv-x="546" 
d="M283 655h1l63 88h87l-100 -144h-101l-100 144h87zM395 192h109v-10q0 -79 -54.5 -136t-166.5 -57q-63 0 -110 18.5t-72.5 50t-37 67.5t-11.5 77v128q0 41 11.5 76.5t37 67.5t72.5 50.5t110 18.5q115 0 167.5 -57t52.5 -136v-10h-108v11q0 42 -27 71.5t-85 29.5
q-63 0 -92 -35.5t-29 -85.5v-129q0 -50 29 -85.5t92 -35.5q58 0 85 29.5t27 71.5v10z" />
    <glyph glyph-name="Dcaron" unicode="&#x10e;" horiz-adv-x="693" 
d="M345 806h1l63 87h87l-100 -143h-101l-100 143h87zM81 0v700h275q76 0 131.5 -22t86 -59t44.5 -79.5t14 -90.5v-198q0 -48 -14 -90.5t-44.5 -79.5t-86 -59t-131.5 -22h-275zM197 102h159q85 0 122.5 44.5t37.5 110.5v186q0 66 -37.5 110.5t-122.5 44.5h-159v-496z" />
    <glyph glyph-name="dcaron" unicode="&#x10f;" horiz-adv-x="619" 
d="M682 730v-28l-28 -137h-60v165h88zM280 87q126 0 126 141v76q0 141 -126 141q-117 0 -117 -135v-88q0 -135 117 -135zM418 0l-7 70q-46 -81 -165 -81q-90 0 -141.5 57t-51.5 150v140q0 94 52 150.5t143 56.5q111 0 158 -69v256h110v-730h-98z" />
    <glyph glyph-name="Dcroat" unicode="&#x110;" horiz-adv-x="700" 
d="M363 0h-275v326h-63v73h63v301h275q76 0 131.5 -22t86 -59t44.5 -79.5t14 -90.5v-198q0 -48 -14 -90.5t-44.5 -79.5t-86 -59t-131.5 -22zM204 102h159q85 0 122.5 44.5t37.5 110.5v186q0 66 -37.5 110.5t-122.5 44.5h-159v-199h103v-73h-103v-224z" />
    <glyph glyph-name="dcroat" unicode="&#x111;" horiz-adv-x="586" 
d="M280 87q126 0 126 141v76q0 141 -126 141q-117 0 -117 -135v-88q0 -135 117 -135zM411 70q-46 -81 -165 -81q-90 0 -141.5 57t-51.5 150v140q0 94 52 150.5t143 56.5q111 0 158 -69v115h-134v64h134v77h110v-77h62v-64h-62v-589h-98z" />
    <glyph glyph-name="Emacron" unicode="&#x112;" horiz-adv-x="600" 
d="M178 868h280v-72h-280v72zM81 0v700h457v-98h-341v-192h320v-94h-320v-218h355v-98h-471z" />
    <glyph glyph-name="emacron" unicode="&#x113;" 
d="M139 696h280v-72h-280v72zM501 154q0 -30 -9.5 -56.5t-32 -52t-68 -41t-109.5 -15.5q-65 0 -112 18t-71.5 49.5t-35.5 66.5t-11 76v131q0 88 54.5 150.5t174.5 62.5q61 0 106.5 -18.5t70 -50.5t36 -68t11.5 -76v-95h-344v-47q0 -49 28.5 -81.5t92.5 -32.5q62 0 89 24.5
t27 58.5v8h103v-11zM161 346v-30h238v30q0 47 -28.5 80t-90.5 33q-63 0 -91 -33t-28 -80z" />
    <glyph glyph-name="Ebreve" unicode="&#x114;" horiz-adv-x="600" 
d="M373 880h70v-19q0 -55 -33.5 -88t-92.5 -33q-58 0 -91.5 33t-33.5 88v19h70v-19q0 -25 15 -39.5t40 -14.5q26 0 41 14.5t15 39.5v19zM81 0v700h457v-98h-341v-192h320v-94h-320v-218h355v-98h-471z" />
    <glyph glyph-name="ebreve" unicode="&#x115;" 
d="M334 728h70v-19q0 -55 -33.5 -87.5t-92.5 -32.5q-58 0 -91.5 32.5t-33.5 87.5v19h70v-19q0 -25 15 -39.5t40 -14.5q26 0 41 14.5t15 39.5v19zM501 154q0 -30 -9.5 -56.5t-32 -52t-68 -41t-109.5 -15.5q-65 0 -112 18t-71.5 49.5t-35.5 66.5t-11 76v131q0 88 54.5 150.5
t174.5 62.5q61 0 106.5 -18.5t70 -50.5t36 -68t11.5 -76v-95h-344v-47q0 -49 28.5 -81.5t92.5 -32.5q62 0 89 24.5t27 58.5v8h103v-11zM161 346v-30h238v30q0 47 -28.5 80t-90.5 33q-63 0 -91 -33t-28 -80z" />
    <glyph glyph-name="Edotaccent" unicode="&#x116;" horiz-adv-x="600" 
d="M372 783h-108v105h108v-105zM81 0v700h457v-98h-341v-192h320v-94h-320v-218h355v-98h-471z" />
    <glyph glyph-name="edotaccent" unicode="&#x117;" 
d="M333 624h-108v105h108v-105zM501 154q0 -30 -9.5 -56.5t-32 -52t-68 -41t-109.5 -15.5q-65 0 -112 18t-71.5 49.5t-35.5 66.5t-11 76v131q0 88 54.5 150.5t174.5 62.5q61 0 106.5 -18.5t70 -50.5t36 -68t11.5 -76v-95h-344v-47q0 -49 28.5 -81.5t92.5 -32.5q62 0 89 24.5
t27 58.5v8h103v-11zM161 346v-30h238v30q0 47 -28.5 80t-90.5 33q-63 0 -91 -33t-28 -80z" />
    <glyph glyph-name="Eogonek" unicode="&#x118;" horiz-adv-x="600" 
d="M513 -172q-37 -23 -78 -23q-49 0 -79.5 27.5t-30.5 67.5q0 57 62 100h-306v700h457v-98h-341v-192h320v-94h-320v-218h355v-98h-86q-52 -34 -52 -70q0 -44 56 -44q18 0 43 6v-64z" />
    <glyph glyph-name="eogonek" unicode="&#x119;" 
d="M362 -195q-49 0 -79.5 27.5t-30.5 67.5q0 52 45 89h-15q-65 0 -112 18t-71.5 49.5t-35.5 66.5t-11 76v131q0 88 54.5 150.5t174.5 62.5q61 0 106.5 -18.5t70 -50.5t36 -68t11.5 -76v-95h-344v-47q0 -49 28.5 -81.5t92.5 -32.5q62 0 89 24.5t27 58.5v8h103v-11
q0 -96 -85 -139q-76 -38 -76 -86q0 -43 56 -43q19 0 43 6v-64q-37 -23 -77 -23zM161 346v-30h238v30q0 47 -28.5 80t-90.5 33q-63 0 -91 -33t-28 -80z" />
    <glyph glyph-name="Ecaron" unicode="&#x11a;" horiz-adv-x="600" 
d="M317 806h1l63 87h87l-100 -143h-101l-100 143h87zM81 0v700h457v-98h-341v-192h320v-94h-320v-218h355v-98h-471z" />
    <glyph glyph-name="ecaron" unicode="&#x11b;" 
d="M278 655h1l63 88h87l-100 -144h-101l-100 144h87zM501 154q0 -30 -9.5 -56.5t-32 -52t-68 -41t-109.5 -15.5q-65 0 -112 18t-71.5 49.5t-35.5 66.5t-11 76v131q0 88 54.5 150.5t174.5 62.5q61 0 106.5 -18.5t70 -50.5t36 -68t11.5 -76v-95h-344v-47q0 -49 28.5 -81.5
t92.5 -32.5q62 0 89 24.5t27 58.5v8h103v-11zM161 346v-30h238v30q0 47 -28.5 80t-90.5 33q-63 0 -91 -33t-28 -80z" />
    <glyph glyph-name="Gcircumflex" unicode="&#x11c;" horiz-adv-x="661" 
d="M332 837h-1l-63 -87h-87l100 143h101l100 -143h-87zM606 353v-112q0 -53 -13.5 -96t-43.5 -79.5t-84.5 -56.5t-129.5 -20q-62 0 -110.5 15t-79 39t-50 57t-27 67.5t-7.5 72.5v221q0 48 14 90t44 79t85 59t129 22t128.5 -18t84 -48.5t43.5 -65t14 -73.5v-18h-115v13
q0 45 -36.5 76.5t-118.5 31.5t-119 -43t-37 -105v-221q0 -64 36.5 -106.5t121.5 -42.5q78 0 117 36t39 93v47h-151v86h266z" />
    <glyph glyph-name="gcircumflex" unicode="&#x11d;" horiz-adv-x="584" 
d="M291 687h-1l-63 -88h-87l100 144h101l100 -144h-87zM278 124q66 0 96 35.5t30 93.5v65q0 58 -30 93.5t-96 35.5q-116 0 -116 -129v-65q0 -129 116 -129zM290 -190q-114 0 -167.5 43t-53.5 115v3h104v-3q0 -72 116 -72q115 0 115 106v98q-48 -72 -160 -72
q-89 0 -140.5 56.5t-51.5 150.5v101q0 94 52.5 150.5t142.5 56.5q117 0 164 -79l6 68h98v-520q0 -94 -55.5 -148t-169.5 -54z" />
    <glyph glyph-name="Gbreve" unicode="&#x11e;" horiz-adv-x="661" 
d="M387 880h70v-19q0 -55 -33.5 -88t-92.5 -33q-58 0 -91.5 33t-33.5 88v19h70v-19q0 -25 15 -39.5t40 -14.5q26 0 41 14.5t15 39.5v19zM606 353v-112q0 -53 -13.5 -96t-43.5 -79.5t-84.5 -56.5t-129.5 -20q-62 0 -110.5 15t-79 39t-50 57t-27 67.5t-7.5 72.5v221
q0 48 14 90t44 79t85 59t129 22t128.5 -18t84 -48.5t43.5 -65t14 -73.5v-18h-115v13q0 45 -36.5 76.5t-118.5 31.5t-119 -43t-37 -105v-221q0 -64 36.5 -106.5t121.5 -42.5q78 0 117 36t39 93v47h-151v86h266z" />
    <glyph glyph-name="gbreve" unicode="&#x11f;" horiz-adv-x="584" 
d="M346 728h70v-19q0 -55 -33.5 -87.5t-92.5 -32.5q-58 0 -91.5 32.5t-33.5 87.5v19h70v-19q0 -25 15 -39.5t40 -14.5q26 0 41 14.5t15 39.5v19zM278 124q66 0 96 35.5t30 93.5v65q0 58 -30 93.5t-96 35.5q-116 0 -116 -129v-65q0 -129 116 -129zM290 -190q-114 0 -167.5 43
t-53.5 115v3h104v-3q0 -72 116 -72q115 0 115 106v98q-48 -72 -160 -72q-89 0 -140.5 56.5t-51.5 150.5v101q0 94 52.5 150.5t142.5 56.5q117 0 164 -79l6 68h98v-520q0 -94 -55.5 -148t-169.5 -54z" />
    <glyph glyph-name="Gdotaccent" unicode="&#x120;" horiz-adv-x="661" 
d="M386 783h-108v105h108v-105zM606 353v-112q0 -53 -13.5 -96t-43.5 -79.5t-84.5 -56.5t-129.5 -20q-62 0 -110.5 15t-79 39t-50 57t-27 67.5t-7.5 72.5v221q0 48 14 90t44 79t85 59t129 22t128.5 -18t84 -48.5t43.5 -65t14 -73.5v-18h-115v13q0 45 -36.5 76.5t-118.5 31.5
t-119 -43t-37 -105v-221q0 -64 36.5 -106.5t121.5 -42.5q78 0 117 36t39 93v47h-151v86h266z" />
    <glyph glyph-name="gdotaccent" unicode="&#x121;" horiz-adv-x="584" 
d="M345 624h-108v105h108v-105zM278 124q66 0 96 35.5t30 93.5v65q0 58 -30 93.5t-96 35.5q-116 0 -116 -129v-65q0 -129 116 -129zM290 -190q-114 0 -167.5 43t-53.5 115v3h104v-3q0 -72 116 -72q115 0 115 106v98q-48 -72 -160 -72q-89 0 -140.5 56.5t-51.5 150.5v101
q0 94 52.5 150.5t142.5 56.5q117 0 164 -79l6 68h98v-520q0 -94 -55.5 -148t-169.5 -54z" />
    <glyph glyph-name="uni0122" unicode="&#x122;" horiz-adv-x="661" 
d="M606 353v-112q0 -53 -13.5 -96t-43.5 -79.5t-84.5 -56.5t-129.5 -20q-62 0 -110.5 15t-79 39t-50 57t-27 67.5t-7.5 72.5v221q0 48 14 90t44 79t85 59t129 22t128.5 -18t84 -48.5t43.5 -65t14 -73.5v-18h-115v13q0 45 -36.5 76.5t-118.5 31.5t-119 -43t-37 -105v-221
q0 -64 36.5 -106.5t121.5 -42.5q78 0 117 36t39 93v47h-151v86h266zM387 -60v-28l-44 -136h-81l17 164h108z" />
    <glyph glyph-name="uni0123" unicode="&#x123;" horiz-adv-x="584" 
d="M232 619v28l48 137h84l-20 -165h-112zM278 124q66 0 96 35.5t30 93.5v65q0 58 -30 93.5t-96 35.5q-116 0 -116 -129v-65q0 -129 116 -129zM290 -190q-114 0 -167.5 43t-53.5 115v3h104v-3q0 -72 116 -72q115 0 115 106v98q-48 -72 -160 -72q-89 0 -140.5 56.5
t-51.5 150.5v101q0 94 52.5 150.5t142.5 56.5q117 0 164 -79l6 68h98v-520q0 -94 -55.5 -148t-169.5 -54z" />
    <glyph glyph-name="Hcircumflex" unicode="&#x124;" horiz-adv-x="708" 
d="M354 837h-1l-63 -87h-87l100 143h101l100 -143h-87zM511 0v315h-314v-315h-116v700h116v-284h314v284h116v-700h-116z" />
    <glyph glyph-name="hcircumflex" unicode="&#x125;" horiz-adv-x="596" 
d="M126 857h-1l-63 -88h-87l100 144h101l100 -144h-87zM180 0h-110v730h110v-260q50 73 160 73q90 0 140.5 -56t50.5 -147v-340h-111v314q0 131 -114 131q-67 0 -96.5 -39t-29.5 -102v-304z" />
    <glyph glyph-name="Hbar" unicode="&#x126;" horiz-adv-x="724" 
d="M205 416h314v108h-314v-108zM205 315v-315h-116v524h-63v70h63v106h116v-106h314v106h116v-106h63v-70h-63v-524h-116v315h-314z" />
    <glyph glyph-name="hbar" unicode="&#x127;" horiz-adv-x="596" 
d="M180 304v-304h-110v589h-62v64h62v77h110v-77h134v-64h-134v-119q50 73 160 73q90 0 140.5 -56t50.5 -147v-340h-111v314q0 131 -114 131q-67 0 -96.5 -39t-29.5 -102z" />
    <glyph glyph-name="Itilde" unicode="&#x128;" horiz-adv-x="280" 
d="M148 764l-38 26q-19 11 -36 11q-22 0 -33 -15.5t-11 -35.5h-62q0 59 27 93t74 34q35 0 61 -18l38 -26q21 -15 42 -15q22 0 31 16.5t9 37.5h60q0 -126 -94 -126q-41 0 -68 18zM198 700v-700h-116v700h116z" />
    <glyph glyph-name="itilde" unicode="&#x129;" horiz-adv-x="253" 
d="M136 613l-39 26q-19 12 -35 12q-23 0 -34 -15.5t-11 -36.5h-61q0 59 27 93t74 34q36 0 61 -18l37 -25q23 -15 42 -15q22 0 31.5 16.5t9.5 37.5h60q0 -127 -95 -127q-40 0 -67 18zM182 0h-111v532h111v-532z" />
    <glyph glyph-name="Imacron" unicode="&#x12a;" horiz-adv-x="280" 
d="M0 868h280v-72h-280v72zM198 700v-700h-116v700h116z" />
    <glyph glyph-name="imacron" unicode="&#x12b;" horiz-adv-x="253" 
d="M-13 696h280v-72h-280v72zM182 0h-111v532h111v-532z" />
    <glyph glyph-name="Iogonek" unicode="&#x12e;" horiz-adv-x="280" 
d="M194 -172q-37 -23 -77 -23q-49 0 -79.5 27.5t-30.5 67.5q0 63 75 108v692h116v-700h-48q-55 -33 -55 -70q0 -44 57 -44q18 0 42 6v-64z" />
    <glyph glyph-name="iogonek" unicode="&#x12f;" horiz-adv-x="253" 
d="M183 623h-113v107h113v-107zM182 -172q-37 -23 -77 -23q-50 0 -80 27.5t-30 67.5q0 63 76 110v522h111v-532h-44q-55 -33 -55 -70q0 -44 56 -44q19 0 43 6v-64z" />
    <glyph glyph-name="Idotaccent" unicode="&#x130;" horiz-adv-x="280" 
d="M194 783h-108v105h108v-105zM198 700v-700h-116v700h116z" />
    <glyph glyph-name="dotlessi" unicode="&#x131;" horiz-adv-x="253" 
d="M182 0h-111v532h111v-532z" />
    <glyph glyph-name="IJ" unicode="&#x132;" horiz-adv-x="870" 
d="M198 700v-700h-116v700h116zM678 700h117v-473q0 -101 -59 -169.5t-185 -68.5q-66 0 -115.5 19.5t-76.5 52.5t-40 72t-13 83v30h114v-24q0 -57 31 -94t100 -37q66 0 96.5 41t30.5 100v468z" />
    <glyph glyph-name="ij" unicode="&#x133;" horiz-adv-x="506" 
d="M436 623h-113v107h113v-107zM183 623h-113v107h113v-107zM188 -180v91h34q102 0 102 78v543h111v-539q0 -173 -202 -173h-45zM182 0h-111v532h111v-532z" />
    <glyph glyph-name="Jcircumflex" unicode="&#x134;" horiz-adv-x="590" 
d="M458 837h-1l-63 -87h-87l100 143h101l100 -143h-87zM398 700h117v-473q0 -101 -59 -169.5t-185 -68.5q-66 0 -115.5 19.5t-76.5 52.5t-40 72t-13 83v30h114v-24q0 -57 31 -94t100 -37q66 0 96.5 41t30.5 100v468z" />
    <glyph glyph-name="jcircumflex" unicode="&#x135;" horiz-adv-x="253" 
d="M125 687h-1l-63 -88h-87l100 144h101l100 -144h-87zM-65 -180v91h34q102 0 102 78v543h111v-539q0 -173 -202 -173h-45z" />
    <glyph glyph-name="uni0136" unicode="&#x136;" horiz-adv-x="655" 
d="M197 193v-193h-116v700h116v-355l305 355h138l-257 -296l263 -404h-139l-204 312zM393 -60v-28l-44 -136h-81l17 164h108z" />
    <glyph glyph-name="uni0137" unicode="&#x137;" horiz-adv-x="540" 
d="M180 152v-152h-110v730h110v-435l213 237h131l-202 -224l215 -308h-130l-158 228zM339 -60v-28l-44 -136h-81l17 164h108z" />
    <glyph glyph-name="kgreenlandic" unicode="&#x138;" horiz-adv-x="540" 
d="M408 0l-158 229l-70 -77v-152h-110v532h110v-237l213 237h131l-202 -224l215 -308h-129z" />
    <glyph glyph-name="Lacute" unicode="&#x139;" horiz-adv-x="560" 
d="M286 893l-103 -143h-89l72 143h120zM81 0v700h116v-598h344v-102h-460z" />
    <glyph glyph-name="lacute" unicode="&#x13a;" horiz-adv-x="253" 
d="M272 941l-103 -144h-90l71 144h122zM182 0h-111v730h111v-730z" />
    <glyph glyph-name="uni013B" unicode="&#x13b;" horiz-adv-x="560" 
d="M81 0v700h116v-598h344v-102h-460zM364 -60v-28l-44 -136h-81l17 164h108z" />
    <glyph glyph-name="uni013C" unicode="&#x13c;" horiz-adv-x="253" 
d="M182 0h-111v730h111v-730zM180 -60v-28l-44 -136h-81l17 164h108z" />
    <glyph glyph-name="Lcaron" unicode="&#x13d;" horiz-adv-x="560" 
d="M373 730v-28l-28 -137h-60v165h88zM81 0v700h116v-598h344v-102h-460z" />
    <glyph glyph-name="lcaron" unicode="&#x13e;" horiz-adv-x="285" 
d="M349 730v-28l-28 -137h-60v165h88zM182 0h-111v730h111v-730z" />
    <glyph glyph-name="Ldot" unicode="&#x13f;" horiz-adv-x="562" 
d="M81 0v700h116v-598h344v-102h-460zM478 302h-116v117h116v-117z" />
    <glyph glyph-name="ldot" unicode="&#x140;" horiz-adv-x="355" 
d="M182 0h-111v730h111v-730zM362 302h-116v117h116v-117z" />
    <glyph glyph-name="Lslash" unicode="&#x141;" horiz-adv-x="585" 
d="M565 0h-460v286l-90 -71v94l90 71v320h116v-229l91 72v-95l-91 -71v-275h344v-102z" />
    <glyph glyph-name="lslash" unicode="&#x142;" horiz-adv-x="301" 
d="M209 0h-111v300l-80 -63v94l80 63v336h111v-248l79 62v-95l-79 -62v-387z" />
    <glyph glyph-name="Nacute" unicode="&#x143;" horiz-adv-x="707" 
d="M501 893l-103 -143h-89l72 143h120zM530 0l-339 486v-486h-110v700h96l339 -488v488h111v-700h-97z" />
    <glyph glyph-name="nacute" unicode="&#x144;" horiz-adv-x="596" 
d="M446 743l-103 -144h-90l71 144h122zM180 0h-110v532h98l6 -72q48 83 166 83q90 0 140.5 -56t50.5 -147v-340h-111v314q0 131 -114 131q-67 0 -96.5 -39t-29.5 -102v-304z" />
    <glyph glyph-name="uni0145" unicode="&#x145;" horiz-adv-x="707" 
d="M530 0l-339 486v-486h-110v700h96l339 -488v488h111v-700h-97zM408 -60v-28l-44 -136h-81l17 164h108z" />
    <glyph glyph-name="uni0146" unicode="&#x146;" horiz-adv-x="596" 
d="M180 0h-110v532h98l6 -72q48 83 166 83q90 0 140.5 -56t50.5 -147v-340h-111v314q0 131 -114 131q-67 0 -96.5 -39t-29.5 -102v-304zM354 -60v-28l-44 -136h-81l17 164h108z" />
    <glyph glyph-name="Ncaron" unicode="&#x147;" horiz-adv-x="707" 
d="M353 806h1l63 87h87l-100 -143h-101l-100 143h87zM530 0l-339 486v-486h-110v700h96l339 -488v488h111v-700h-97z" />
    <glyph glyph-name="ncaron" unicode="&#x148;" horiz-adv-x="596" 
d="M299 655h1l63 88h87l-100 -144h-101l-100 144h87zM180 0h-110v532h98l6 -72q48 83 166 83q90 0 140.5 -56t50.5 -147v-340h-111v314q0 131 -114 131q-67 0 -96.5 -39t-29.5 -102v-304z" />
    <glyph glyph-name="napostrophe" unicode="&#x149;" horiz-adv-x="596" 
d="M139 736v-28l-44 -136h-81l17 164h108zM180 0h-110v532h98l6 -72q48 83 166 83q90 0 140.5 -56t50.5 -147v-340h-111v314q0 131 -114 131q-67 0 -96.5 -39t-29.5 -102v-304z" />
    <glyph glyph-name="Omacron" unicode="&#x14c;" horiz-adv-x="675" 
d="M198 868h280v-72h-280v72zM337 -11q-76 0 -131.5 22t-86 59t-44.5 79.5t-14 90.5v221q0 48 14 90t44.5 79t86 59t131.5 22t132 -22t86.5 -59t44.5 -79t14 -90v-221q0 -48 -14 -90.5t-44.5 -79.5t-86.5 -59t-132 -22zM337 91q86 0 123.5 44.5t37.5 110.5v208
q0 66 -37.5 110.5t-123.5 44.5q-85 0 -122.5 -45t-37.5 -110v-208q0 -65 37.5 -110t122.5 -45z" />
    <glyph glyph-name="omacron" unicode="&#x14d;" horiz-adv-x="569" 
d="M144 696h280v-72h-280v72zM52 202v128q0 88 55 150.5t177 62.5q65 0 112 -18.5t72.5 -50.5t37 -67.5t11.5 -76.5v-128q0 -41 -11.5 -77t-37 -67.5t-72.5 -50t-112 -18.5q-64 0 -111 18.5t-72.5 50t-37 67.5t-11.5 77zM407 201v130q0 50 -29 85.5t-94 35.5
q-64 0 -93 -35.5t-29 -85.5v-130q0 -51 29 -86.5t93 -35.5q65 0 94 35.5t29 86.5z" />
    <glyph glyph-name="Obreve" unicode="&#x14e;" horiz-adv-x="675" 
d="M393 880h70v-19q0 -55 -33.5 -88t-92.5 -33q-58 0 -91.5 33t-33.5 88v19h70v-19q0 -25 15 -39.5t40 -14.5q26 0 41 14.5t15 39.5v19zM337 -11q-76 0 -131.5 22t-86 59t-44.5 79.5t-14 90.5v221q0 48 14 90t44.5 79t86 59t131.5 22t132 -22t86.5 -59t44.5 -79t14 -90v-221
q0 -48 -14 -90.5t-44.5 -79.5t-86.5 -59t-132 -22zM337 91q86 0 123.5 44.5t37.5 110.5v208q0 66 -37.5 110.5t-123.5 44.5q-85 0 -122.5 -45t-37.5 -110v-208q0 -65 37.5 -110t122.5 -45z" />
    <glyph glyph-name="obreve" unicode="&#x14f;" horiz-adv-x="569" 
d="M340 728h70v-19q0 -55 -33.5 -87.5t-92.5 -32.5q-58 0 -91.5 32.5t-33.5 87.5v19h70v-19q0 -25 15 -39.5t40 -14.5q26 0 41 14.5t15 39.5v19zM52 202v128q0 88 55 150.5t177 62.5q65 0 112 -18.5t72.5 -50.5t37 -67.5t11.5 -76.5v-128q0 -41 -11.5 -77t-37 -67.5
t-72.5 -50t-112 -18.5q-64 0 -111 18.5t-72.5 50t-37 67.5t-11.5 77zM407 201v130q0 50 -29 85.5t-94 35.5q-64 0 -93 -35.5t-29 -85.5v-130q0 -51 29 -86.5t93 -35.5q65 0 94 35.5t29 86.5z" />
    <glyph glyph-name="Ohungarumlaut" unicode="&#x150;" horiz-adv-x="675" 
d="M566 893l-115 -143h-93l85 143h123zM389 893l-96 -143h-93l66 143h123zM337 -11q-76 0 -131.5 22t-86 59t-44.5 79.5t-14 90.5v221q0 48 14 90t44.5 79t86 59t131.5 22t132 -22t86.5 -59t44.5 -79t14 -90v-221q0 -48 -14 -90.5t-44.5 -79.5t-86.5 -59t-132 -22zM337 91
q86 0 123.5 44.5t37.5 110.5v208q0 66 -37.5 110.5t-123.5 44.5q-85 0 -122.5 -45t-37.5 -110v-208q0 -65 37.5 -110t122.5 -45z" />
    <glyph glyph-name="ohungarumlaut" unicode="&#x151;" horiz-adv-x="569" 
d="M515 743l-115 -144h-93l85 144h123zM338 743l-96 -144h-93l66 144h123zM52 202v128q0 88 55 150.5t177 62.5q65 0 112 -18.5t72.5 -50.5t37 -67.5t11.5 -76.5v-128q0 -41 -11.5 -77t-37 -67.5t-72.5 -50t-112 -18.5q-64 0 -111 18.5t-72.5 50t-37 67.5t-11.5 77zM407 201
v130q0 50 -29 85.5t-94 35.5q-64 0 -93 -35.5t-29 -85.5v-130q0 -51 29 -86.5t93 -35.5q65 0 94 35.5t29 86.5z" />
    <glyph glyph-name="OE" unicode="&#x152;" horiz-adv-x="1019" 
d="M337 91q88 0 124.5 44t36.5 111v208q0 66 -37.5 110.5t-123.5 44.5q-85 0 -122.5 -45t-37.5 -110v-208q0 -65 37.5 -110t122.5 -45zM509 0v60q-59 -71 -178 -71q-74 0 -128.5 22t-84 59t-43.5 79.5t-14 90.5v221q0 48 14 90t43.5 79t84 59t128.5 22q119 0 178 -72v61h448
v-98h-343v-192h321v-94h-321v-218h357v-98h-462z" />
    <glyph glyph-name="oe" unicode="&#x153;" horiz-adv-x="909" 
d="M857 154q0 -30 -9.5 -56.5t-31.5 -52t-67 -41t-108 -15.5q-128 0 -180 86q-52 -86 -179 -86q-63 0 -110 18.5t-72 50t-36.5 67.5t-11.5 77v128q0 41 11.5 76.5t36.5 67.5t72 50.5t110 18.5q128 0 181 -89q51 89 177 89q116 0 169 -62.5t53 -150.5v-94h-345v-48
q0 -49 28.5 -82t92.5 -33q62 0 89 24.5t27 59.5v8h103v-11zM517 346v-31h238v31q0 46 -28.5 79.5t-90.5 33.5q-63 0 -91 -33t-28 -80zM407 201v130q0 50 -29 85.5t-94 35.5q-64 0 -93 -35.5t-29 -85.5v-130q0 -51 29 -86.5t93 -35.5q65 0 94 35.5t29 86.5z" />
    <glyph glyph-name="Racute" unicode="&#x154;" horiz-adv-x="668" 
d="M485 893l-103 -143h-89l72 143h120zM346 602h-149v-253h149q158 0 158 126q0 127 -158 127zM345 253h-148v-253h-116v700h264q78 0 134 -18t86 -50.5t43.5 -70.5t13.5 -84q0 -156 -138 -203l127 -274h-124l-116 254q-9 -1 -26 -1z" />
    <glyph glyph-name="racute" unicode="&#x155;" horiz-adv-x="382" 
d="M362 743l-103 -144h-90l71 144h122zM180 0h-110v532h98l7 -86q50 95 188 95v-106h-21q-84 0 -123 -42t-39 -115v-278z" />
    <glyph glyph-name="uni0156" unicode="&#x156;" horiz-adv-x="668" 
d="M346 602h-149v-253h149q158 0 158 126q0 127 -158 127zM345 253h-148v-253h-116v700h264q78 0 134 -18t86 -50.5t43.5 -70.5t13.5 -84q0 -156 -138 -203l127 -274h-124l-116 254q-9 -1 -26 -1zM384 -60v-28l-44 -136h-81l17 164h108z" />
    <glyph glyph-name="uni0157" unicode="&#x157;" horiz-adv-x="382" 
d="M180 0h-110v532h98l7 -86q50 95 188 95v-106h-21q-84 0 -123 -42t-39 -115v-278zM178 -60v-28l-44 -136h-81l17 164h108z" />
    <glyph glyph-name="Rcaron" unicode="&#x158;" horiz-adv-x="668" 
d="M337 806h1l63 87h87l-100 -143h-101l-100 143h87zM346 602h-149v-253h149q158 0 158 126q0 127 -158 127zM345 253h-148v-253h-116v700h264q78 0 134 -18t86 -50.5t43.5 -70.5t13.5 -84q0 -156 -138 -203l127 -274h-124l-116 254q-9 -1 -26 -1z" />
    <glyph glyph-name="rcaron" unicode="&#x159;" horiz-adv-x="382" 
d="M216 655h1l63 88h87l-100 -144h-101l-100 144h87zM180 0h-110v532h98l7 -86q50 95 188 95v-106h-21q-84 0 -123 -42t-39 -115v-278z" />
    <glyph glyph-name="Sacute" unicode="&#x15a;" horiz-adv-x="635" 
d="M468 893l-103 -143h-89l72 143h120zM574 500h-116v12q0 103 -148 103q-139 0 -139 -97q0 -37 22.5 -57t71.5 -31l148 -33q175 -37 175 -184q0 -103 -63 -163.5t-200 -60.5q-79 0 -136 16t-86.5 44.5t-42.5 60.5t-13 71v13h116v-11q0 -97 160 -97q145 0 145 112
q0 39 -23.5 61.5t-73.5 33.5l-148 33q-166 36 -166 183q0 88 63.5 145t191.5 57q135 0 198.5 -56.5t63.5 -140.5v-14z" />
    <glyph glyph-name="sacute" unicode="&#x15b;" horiz-adv-x="522" 
d="M407 743l-103 -144h-90l71 144h122zM467 380h-107v9q0 73 -105 73q-51 0 -76 -19t-25 -50q0 -26 18 -40t54 -22l110 -24q144 -33 144 -147q0 -77 -52 -124t-164 -47q-119 0 -170 41t-51 105v13h108v-11q0 -65 114 -65q53 0 79.5 21t26.5 57q0 49 -69 64l-104 23
q-72 17 -110 48t-38 100q0 68 52.5 113t154.5 45q111 0 160.5 -43t49.5 -108v-12z" />
    <glyph glyph-name="Scircumflex" unicode="&#x15c;" horiz-adv-x="635" 
d="M320 837h-1l-63 -87h-87l100 143h101l100 -143h-87zM574 500h-116v12q0 103 -148 103q-139 0 -139 -97q0 -37 22.5 -57t71.5 -31l148 -33q175 -37 175 -184q0 -103 -63 -163.5t-200 -60.5q-79 0 -136 16t-86.5 44.5t-42.5 60.5t-13 71v13h116v-11q0 -97 160 -97
q145 0 145 112q0 39 -23.5 61.5t-73.5 33.5l-148 33q-166 36 -166 183q0 88 63.5 145t191.5 57q135 0 198.5 -56.5t63.5 -140.5v-14z" />
    <glyph glyph-name="scircumflex" unicode="&#x15d;" horiz-adv-x="522" 
d="M261 687h-1l-63 -88h-87l100 144h101l100 -144h-87zM467 380h-107v9q0 73 -105 73q-51 0 -76 -19t-25 -50q0 -26 18 -40t54 -22l110 -24q144 -33 144 -147q0 -77 -52 -124t-164 -47q-119 0 -170 41t-51 105v13h108v-11q0 -65 114 -65q53 0 79.5 21t26.5 57q0 49 -69 64
l-104 23q-72 17 -110 48t-38 100q0 68 52.5 113t154.5 45q111 0 160.5 -43t49.5 -108v-12z" />
    <glyph glyph-name="Scedilla" unicode="&#x15e;" horiz-adv-x="635" 
d="M307 -231q-52 0 -75.5 22t-23.5 52v10h62v-4q0 -18 34 -18q33 0 33 33q0 31 -34 31q-14 0 -34 -10l-49 28l39 79q-212 23 -212 189v13h116v-11q0 -97 160 -97q145 0 145 112q0 39 -23.5 61.5t-73.5 33.5l-148 33q-81 18 -123.5 61.5t-42.5 121.5q0 88 63.5 145t191.5 57
q135 0 198.5 -56.5t63.5 -140.5v-14h-116v12q0 103 -148 103q-139 0 -139 -97q0 -37 22.5 -57t71.5 -31l148 -33q175 -39 175 -184q0 -103 -63 -163.5t-200 -60.5h-4l-19 -37q6 2 17 2q47 0 69.5 -26.5t22.5 -61.5q0 -40 -25 -68.5t-79 -28.5z" />
    <glyph glyph-name="scedilla" unicode="&#x15f;" horiz-adv-x="522" 
d="M259 -231q-52 0 -75.5 22t-23.5 52v10h62v-4q0 -18 34 -18q33 0 33 33q0 31 -34 31q-14 0 -34 -10l-49 28l39 79q-90 9 -129 48t-39 95v13h108v-11q0 -65 114 -65q53 0 79.5 21t26.5 57q0 49 -69 64l-104 23q-72 17 -110 48t-38 100q0 68 52.5 113t154.5 45
q111 0 160.5 -43t49.5 -108v-12h-107v9q0 73 -105 73q-51 0 -76 -19t-25 -50q0 -26 18 -40t54 -22l110 -24q144 -33 144 -147q0 -75 -50 -122t-157 -49l-19 -37q6 2 17 2q47 0 69.5 -26.5t22.5 -61.5q0 -40 -25 -68.5t-79 -28.5z" />
    <glyph glyph-name="Scaron" unicode="&#x160;" horiz-adv-x="635" 
d="M319 806h1l63 87h87l-100 -143h-101l-100 143h87zM574 500h-116v12q0 103 -148 103q-139 0 -139 -97q0 -37 22.5 -57t71.5 -31l148 -33q175 -37 175 -184q0 -103 -63 -163.5t-200 -60.5q-79 0 -136 16t-86.5 44.5t-42.5 60.5t-13 71v13h116v-11q0 -97 160 -97
q145 0 145 112q0 39 -23.5 61.5t-73.5 33.5l-148 33q-166 36 -166 183q0 88 63.5 145t191.5 57q135 0 198.5 -56.5t63.5 -140.5v-14z" />
    <glyph glyph-name="scaron" unicode="&#x161;" horiz-adv-x="522" 
d="M260 655h1l63 88h87l-100 -144h-101l-100 144h87zM467 380h-107v9q0 73 -105 73q-51 0 -76 -19t-25 -50q0 -26 18 -40t54 -22l110 -24q144 -33 144 -147q0 -77 -52 -124t-164 -47q-119 0 -170 41t-51 105v13h108v-11q0 -65 114 -65q53 0 79.5 21t26.5 57q0 49 -69 64
l-104 23q-72 17 -110 48t-38 100q0 68 52.5 113t154.5 45q111 0 160.5 -43t49.5 -108v-12z" />
    <glyph glyph-name="uni0162" unicode="&#x162;" horiz-adv-x="582" 
d="M294 -231q-52 0 -76 22t-24 52v10h63v-4q0 -18 33 -18t33 33q0 31 -34 31q-14 0 -34 -10l-49 28l44 87h-17v598h-214v102h544v-102h-214v-598h-36l-24 -48q4 2 16 2q47 0 69.5 -26.5t22.5 -61.5q0 -39 -24.5 -68t-78.5 -29z" />
    <glyph glyph-name="uni0163" unicode="&#x163;" horiz-adv-x="382" 
d="M213 -231q-52 0 -76 22t-24 52v10h63v-4q0 -18 34 -18q33 0 33 33q0 13 -8.5 22t-25.5 9q-13 0 -35 -10l-49 28l56 105q-84 34 -84 153v274h-73v85h73v136h111v-136h137v-85h-137v-267q0 -45 21.5 -65.5t77.5 -20.5h52v-92h-69q-30 0 -54 3l-28 -51q6 2 16 2
q47 0 69.5 -26.5t22.5 -61.5q0 -40 -24.5 -68.5t-78.5 -28.5z" />
    <glyph glyph-name="Tcaron" unicode="&#x164;" horiz-adv-x="582" 
d="M290 806h1l63 87h87l-100 -143h-101l-100 143h87zM563 598h-214v-598h-116v598h-214v102h544v-102z" />
    <glyph glyph-name="tcaron" unicode="&#x165;" horiz-adv-x="382" 
d="M354 759v-28l-28 -137h-60v165h88zM358 92v-92h-69q-110 0 -151.5 44.5t-41.5 126.5v274h-73v85h73v136h111v-136h137v-85h-137v-267q0 -45 21.5 -65.5t77.5 -20.5h52z" />
    <glyph glyph-name="Tbar" unicode="&#x166;" horiz-adv-x="610" 
d="M513 298h-150v-298h-116v298h-152v73h152v227h-214v102h544v-102h-214v-227h150v-73z" />
    <glyph glyph-name="tbar" unicode="&#x167;" horiz-adv-x="385" 
d="M360 92v-92h-69q-110 0 -151.5 44.5t-41.5 126.5v88h-61v70h61v116h-73v85h73v136h111v-136h137v-85h-137v-116h126v-70h-126v-81q0 -45 21.5 -65.5t77.5 -20.5h52z" />
    <glyph glyph-name="Utilde" unicode="&#x168;" horiz-adv-x="701" 
d="M359 764l-38 26q-19 11 -36 11q-22 0 -33 -15.5t-11 -35.5h-62q0 59 27 93t74 34q35 0 61 -18l38 -26q21 -15 42 -15q22 0 31 16.5t9 37.5h60q0 -126 -94 -126q-41 0 -68 18zM75 700h116v-454q0 -65 37 -110t122 -45t122 45t37 110v454h116v-460q0 -48 -14 -90.5
t-44 -79.5t-85.5 -59t-131.5 -22q-75 0 -131 22t-86 59t-44 79.5t-14 90.5v460z" />
    <glyph glyph-name="utilde" unicode="&#x169;" horiz-adv-x="589" 
d="M301 613l-39 26q-19 12 -35 12q-23 0 -34 -15.5t-11 -36.5h-61q0 59 27 93t74 34q36 0 61 -18l37 -25q22 -15 42 -15q22 0 31.5 16.5t9.5 37.5h60q0 -127 -95 -127q-40 0 -67 18zM421 0l-6 70q-49 -81 -163 -81q-87 0 -137 52.5t-50 137.5v353h110v-327q0 -118 111 -118
q122 0 122 141v304h111v-532h-98z" />
    <glyph glyph-name="Umacron" unicode="&#x16a;" horiz-adv-x="701" 
d="M210 868h280v-72h-280v72zM75 700h116v-454q0 -65 37 -110t122 -45t122 45t37 110v454h116v-460q0 -48 -14 -90.5t-44 -79.5t-85.5 -59t-131.5 -22q-75 0 -131 22t-86 59t-44 79.5t-14 90.5v460z" />
    <glyph glyph-name="umacron" unicode="&#x16b;" horiz-adv-x="589" 
d="M152 696h280v-72h-280v72zM421 0l-6 70q-49 -81 -163 -81q-87 0 -137 52.5t-50 137.5v353h110v-327q0 -118 111 -118q122 0 122 141v304h111v-532h-98z" />
    <glyph glyph-name="Ubreve" unicode="&#x16c;" horiz-adv-x="701" 
d="M406 880h70v-19q0 -55 -33.5 -88t-92.5 -33q-58 0 -91.5 33t-33.5 88v19h70v-19q0 -25 15 -39.5t40 -14.5q26 0 41 14.5t15 39.5v19zM75 700h116v-454q0 -65 37 -110t122 -45t122 45t37 110v454h116v-460q0 -48 -14 -90.5t-44 -79.5t-85.5 -59t-131.5 -22q-75 0 -131 22
t-86 59t-44 79.5t-14 90.5v460z" />
    <glyph glyph-name="ubreve" unicode="&#x16d;" horiz-adv-x="589" 
d="M347 728h70v-19q0 -55 -33.5 -87.5t-92.5 -32.5q-58 0 -91.5 32.5t-33.5 87.5v19h70v-19q0 -25 15 -39.5t40 -14.5q26 0 41 14.5t15 39.5v19zM421 0l-6 70q-49 -81 -163 -81q-87 0 -137 52.5t-50 137.5v353h110v-327q0 -118 111 -118q122 0 122 141v304h111v-532h-98z
" />
    <glyph glyph-name="Uring" unicode="&#x16e;" horiz-adv-x="701" 
d="M350 954q46 0 77.5 -30t31.5 -77q0 -46 -31.5 -76t-77.5 -30q-45 0 -76.5 30t-31.5 76t31.5 76.5t76.5 30.5zM350 799q21 0 34.5 13.5t13.5 34.5t-13.5 34.5t-34.5 13.5q-20 0 -33.5 -13.5t-13.5 -34.5t13.5 -34.5t33.5 -13.5zM75 700h116v-454q0 -65 37 -110t122 -45
t122 45t37 110v454h116v-460q0 -48 -14 -90.5t-44 -79.5t-85.5 -59t-131.5 -22q-75 0 -131 22t-86 59t-44 79.5t-14 90.5v460z" />
    <glyph glyph-name="uring" unicode="&#x16f;" horiz-adv-x="589" 
d="M291 802q46 0 78 -30t32 -77q0 -46 -32 -76t-78 -30q-45 0 -76.5 30t-31.5 76t31.5 76.5t76.5 30.5zM291 647q21 0 34.5 13.5t13.5 34.5t-13.5 35t-34.5 14q-20 0 -33.5 -14t-13.5 -35t13.5 -34.5t33.5 -13.5zM421 0l-6 70q-49 -81 -163 -81q-87 0 -137 52.5t-50 137.5
v353h110v-327q0 -118 111 -118q122 0 122 141v304h111v-532h-98z" />
    <glyph glyph-name="Uhungarumlaut" unicode="&#x170;" horiz-adv-x="701" 
d="M578 893l-115 -143h-93l85 143h123zM401 893l-96 -143h-93l66 143h123zM75 700h116v-454q0 -65 37 -110t122 -45t122 45t37 110v454h116v-460q0 -48 -14 -90.5t-44 -79.5t-85.5 -59t-131.5 -22q-75 0 -131 22t-86 59t-44 79.5t-14 90.5v460z" />
    <glyph glyph-name="uhungarumlaut" unicode="&#x171;" horiz-adv-x="589" 
d="M522 743l-115 -144h-93l85 144h123zM345 743l-96 -144h-93l66 144h123zM421 0l-6 70q-49 -81 -163 -81q-87 0 -137 52.5t-50 137.5v353h110v-327q0 -118 111 -118q122 0 122 141v304h111v-532h-98z" />
    <glyph glyph-name="Uogonek" unicode="&#x172;" horiz-adv-x="701" 
d="M438 -195q-50 0 -80 27.5t-30 67.5q0 52 44 89h-22q-75 0 -131 22t-86 59t-44 79.5t-14 90.5v460h116v-454q0 -65 37 -110t122 -45t122 45t37 110v454h116v-460q0 -156 -131 -223q-78 -40 -78 -87q0 -44 56 -44q18 0 43 6v-64q-37 -23 -77 -23z" />
    <glyph glyph-name="uogonek" unicode="&#x173;" horiz-adv-x="589" 
d="M519 -172q-37 -23 -77 -23q-50 0 -80 27.5t-30 67.5q0 70 88 116l-5 54q-49 -81 -163 -81q-87 0 -137 52.5t-50 137.5v353h110v-327q0 -118 111 -118q122 0 122 141v304h111v-532h-44q-55 -33 -55 -70q0 -44 56 -44q19 0 43 6v-64z" />
    <glyph glyph-name="Wcircumflex" unicode="&#x174;" horiz-adv-x="959" 
d="M480 837h-1l-63 -87h-87l100 143h101l100 -143h-87zM204 0l-181 700h121l127 -522l151 522h118l153 -523l124 523h118l-179 -700h-117l-159 515l-158 -515h-118z" />
    <glyph glyph-name="wcircumflex" unicode="&#x175;" horiz-adv-x="813" 
d="M414 687h-1l-63 -88h-87l100 144h101l100 -144h-87zM173 0l-149 532h114l98 -392l117 392h112l117 -392l98 392h110l-149 -532h-111l-124 385l-123 -385h-110z" />
    <glyph glyph-name="Ycircumflex" unicode="&#x176;" horiz-adv-x="611" 
d="M310 837h-1l-63 -87h-87l100 143h101l100 -143h-87zM364 0h-116v258l-237 442h125l170 -328l174 328h121l-237 -434v-266z" />
    <glyph glyph-name="ycircumflex" unicode="&#x177;" horiz-adv-x="529" 
d="M273 687h-1l-63 -88h-87l100 144h101l100 -144h-87zM250 -180h-105l67 181l-192 531h117l129 -384l138 384h110z" />
    <glyph glyph-name="Ydieresis" unicode="&#x178;" horiz-adv-x="611" 
d="M437 783h-100v94h100v-94zM282 783h-100v94h100v-94zM364 0h-116v258l-237 442h125l170 -328l174 328h121l-237 -434v-266z" />
    <glyph glyph-name="Zacute" unicode="&#x179;" horiz-adv-x="607" 
d="M451 893l-103 -143h-89l72 143h120zM55 700h499v-93l-371 -508h385v-99h-530v94l371 507h-354v99z" />
    <glyph glyph-name="zacute" unicode="&#x17a;" horiz-adv-x="503" 
d="M397 743l-103 -144h-90l71 144h122zM51 532h401v-79l-278 -367h292v-86h-430v80l278 366h-263v86z" />
    <glyph glyph-name="Zdotaccent" unicode="&#x17b;" horiz-adv-x="607" 
d="M357 783h-108v105h108v-105zM55 700h499v-93l-371 -508h385v-99h-530v94l371 507h-354v99z" />
    <glyph glyph-name="zdotaccent" unicode="&#x17c;" horiz-adv-x="503" 
d="M306 624h-108v105h108v-105zM51 532h401v-79l-278 -367h292v-86h-430v80l278 366h-263v86z" />
    <glyph glyph-name="Zcaron" unicode="&#x17d;" horiz-adv-x="607" 
d="M302 806h1l63 87h87l-100 -143h-101l-100 143h87zM55 700h499v-93l-371 -508h385v-99h-530v94l371 507h-354v99z" />
    <glyph glyph-name="zcaron" unicode="&#x17e;" horiz-adv-x="503" 
d="M251 655h1l63 88h87l-100 -144h-101l-100 144h87zM51 532h401v-79l-278 -367h292v-86h-430v80l278 366h-263v86z" />
    <glyph glyph-name="longs" unicode="&#x17f;" horiz-adv-x="327" 
d="M210 0h-111v446h-71v85h71v15q0 184 216 184h43v-87h-48q-100 0 -100 -92v-551z" />
    <glyph glyph-name="florin" unicode="&#x192;" horiz-adv-x="482" 
d="M249 28q-10 -86 -60.5 -135t-166.5 -49h-47v90h51q101 0 112 94l35 292h-100v87h110l13 109q10 86 60.5 135t166.5 49h48v-90h-51q-58 0 -83 -25t-31 -69l-12 -109h100v-87h-111z" />
    <glyph glyph-name="uni0218" unicode="&#x218;" horiz-adv-x="635" 
d="M574 500h-116v12q0 103 -148 103q-139 0 -139 -97q0 -37 22.5 -57t71.5 -31l148 -33q175 -37 175 -184q0 -103 -63 -163.5t-200 -60.5q-79 0 -136 16t-86.5 44.5t-42.5 60.5t-13 71v13h116v-11q0 -97 160 -97q145 0 145 112q0 39 -23.5 61.5t-73.5 33.5l-148 33
q-166 36 -166 183q0 88 63.5 145t191.5 57q135 0 198.5 -56.5t63.5 -140.5v-14zM371 -60v-28l-44 -136h-81l17 164h108z" />
    <glyph glyph-name="uni0219" unicode="&#x219;" horiz-adv-x="522" 
d="M467 380h-107v9q0 73 -105 73q-51 0 -76 -19t-25 -50q0 -26 18 -40t54 -22l110 -24q144 -33 144 -147q0 -77 -52 -124t-164 -47q-119 0 -170 41t-51 105v13h108v-11q0 -65 114 -65q53 0 79.5 21t26.5 57q0 49 -69 64l-104 23q-72 17 -110 48t-38 100q0 68 52.5 113
t154.5 45q111 0 160.5 -43t49.5 -108v-12zM315 -60v-28l-44 -136h-81l17 164h108z" />
    <glyph glyph-name="uni021A" unicode="&#x21a;" horiz-adv-x="582" 
d="M563 598h-214v-598h-116v598h-214v102h544v-102zM345 -60v-28l-44 -136h-81l17 164h108z" />
    <glyph glyph-name="uni021B" unicode="&#x21b;" horiz-adv-x="382" 
d="M358 92v-92h-69q-110 0 -151.5 44.5t-41.5 126.5v274h-73v85h73v136h111v-136h137v-85h-137v-267q0 -45 21.5 -65.5t77.5 -20.5h52zM217 -60v-28l-44 -136h-81l17 164h108z" />
    <glyph glyph-name="uni0237" unicode="&#x237;" horiz-adv-x="253" 
d="M-65 -180v91h34q102 0 102 78v543h111v-539q0 -173 -202 -173h-45z" />
    <glyph glyph-name="circumflex" unicode="&#x2c6;" horiz-adv-x="500" 
d="M250 687h-1l-63 -88h-87l100 144h101l100 -144h-87z" />
    <glyph glyph-name="caron" unicode="&#x2c7;" horiz-adv-x="500" 
d="M249 655h1l63 88h87l-100 -144h-101l-100 144h87z" />
    <glyph glyph-name="uni02C9" unicode="&#x2c9;" horiz-adv-x="500" 
d="M110 696h280v-72h-280v72z" />
    <glyph glyph-name="breve" unicode="&#x2d8;" horiz-adv-x="500" 
d="M305 728h70v-19q0 -55 -33.5 -87.5t-92.5 -32.5q-58 0 -91.5 32.5t-33.5 87.5v19h70v-19q0 -25 15 -39.5t40 -14.5q26 0 41 14.5t15 39.5v19z" />
    <glyph glyph-name="dotaccent" unicode="&#x2d9;" horiz-adv-x="500" 
d="M304 624h-108v105h108v-105z" />
    <glyph glyph-name="ring" unicode="&#x2da;" horiz-adv-x="500" 
d="M249 802q46 0 78 -30t32 -77q0 -46 -32 -76t-78 -30q-45 0 -76.5 30t-31.5 76t31.5 76.5t76.5 30.5zM249 647q21 0 34.5 13.5t13.5 34.5t-13.5 35t-34.5 14q-20 0 -33.5 -14t-13.5 -35t13.5 -34.5t33.5 -13.5z" />
    <glyph glyph-name="ogonek" unicode="&#x2db;" horiz-adv-x="500" 
d="M357 -108v-64q-37 -23 -78 -23q-49 0 -79.5 27.5t-30.5 67.5q0 70 95 120l61 -11q-67 -39 -67 -79q0 -44 56 -44q18 0 43 6z" />
    <glyph glyph-name="tilde" unicode="&#x2dc;" horiz-adv-x="500" 
d="M259 613l-39 26q-19 12 -35 12q-23 0 -34 -15.5t-11 -36.5h-61q0 59 27 93t74 34q36 0 61 -18l37 -25q22 -15 42 -15q22 0 31.5 16.5t9.5 37.5h60q0 -127 -95 -127q-40 0 -67 18z" />
    <glyph glyph-name="hungarumlaut" unicode="&#x2dd;" horiz-adv-x="500" 
d="M443 743l-115 -144h-93l85 144h123zM266 743l-96 -144h-93l66 144h123z" />
    <glyph glyph-name="uni0394" unicode="&#x394;" horiz-adv-x="597" 
d="M577 0h-558l207 700h145zM154 92h287l-140 487h-5z" />
    <glyph glyph-name="uni03A9" unicode="&#x3a9;" horiz-adv-x="676" 
d="M498 348v106q0 66 -37.5 110.5t-123.5 44.5q-85 0 -122 -45t-37 -110v-106q0 -67 28 -110.5t75 -50.5v-187h-213v93h137v26q-66 21 -104.5 82t-38.5 141v119q0 48 14 90t44 79t86 59t131 22q76 0 132.5 -22t86.5 -59t44 -79t14 -90v-119q0 -80 -38.5 -141t-104.5 -82v-26
h138v-93h-214v187q47 7 75 50.5t28 110.5z" />
    <glyph glyph-name="uni03BC" unicode="&#x3bc;" horiz-adv-x="594" 
d="M258 -11q-54 0 -88 22l10 -191h-110v712h110v-327q0 -52 26.5 -85t85.5 -33q122 0 122 141v304h110v-532h-97l-6 70q-49 -81 -163 -81z" />
    <glyph glyph-name="pi" unicode="&#x3c0;" horiz-adv-x="629" 
d="M559 0h-116v434h-257v-434h-116v532h489v-532z" />
    <glyph glyph-name="Wgrave" unicode="&#x1e80;" horiz-adv-x="959" 
d="M431 750l-96 143h129l66 -143h-99zM204 0l-181 700h121l127 -522l151 522h118l153 -523l124 523h118l-179 -700h-117l-159 515l-158 -515h-118z" />
    <glyph glyph-name="wgrave" unicode="&#x1e81;" horiz-adv-x="813" 
d="M371 599l-103 144h121l72 -144h-90zM173 0l-149 532h114l98 -392l117 392h112l117 -392l98 392h110l-149 -532h-111l-124 385l-123 -385h-110z" />
    <glyph glyph-name="Wacute" unicode="&#x1e82;" horiz-adv-x="959" 
d="M627 893l-103 -143h-89l72 143h120zM204 0l-181 700h121l127 -522l151 522h118l153 -523l124 523h118l-179 -700h-117l-159 515l-158 -515h-118z" />
    <glyph glyph-name="wacute" unicode="&#x1e83;" horiz-adv-x="813" 
d="M560 743l-103 -144h-90l71 144h122zM173 0l-149 532h114l98 -392l117 392h112l117 -392l98 392h110l-149 -532h-111l-124 385l-123 -385h-110z" />
    <glyph glyph-name="Wdieresis" unicode="&#x1e84;" horiz-adv-x="959" 
d="M607 783h-100v94h100v-94zM452 783h-100v94h100v-94zM204 0l-181 700h121l127 -522l151 522h118l153 -523l124 523h118l-179 -700h-117l-159 515l-158 -515h-118z" />
    <glyph glyph-name="wdieresis" unicode="&#x1e85;" horiz-adv-x="813" 
d="M541 622h-100v95h100v-95zM386 622h-100v95h100v-95zM173 0l-149 532h114l98 -392l117 392h112l117 -392l98 392h110l-149 -532h-111l-124 385l-123 -385h-110z" />
    <glyph glyph-name="Ygrave" unicode="&#x1ef2;" horiz-adv-x="611" 
d="M262 750l-96 143h129l66 -143h-99zM364 0h-116v258l-237 442h125l170 -328l174 328h121l-237 -434v-266z" />
    <glyph glyph-name="ygrave" unicode="&#x1ef3;" horiz-adv-x="529" 
d="M230 599l-103 144h121l72 -144h-90zM250 -180h-105l67 181l-192 531h117l129 -384l138 384h110z" />
    <glyph glyph-name="endash" unicode="&#x2013;" horiz-adv-x="595" 
d="M67 368h460v-102h-460v102z" />
    <glyph glyph-name="emdash" unicode="&#x2014;" horiz-adv-x="917" 
d="M67 368h783v-102h-783v102z" />
    <glyph glyph-name="quoteleft" unicode="&#x2018;" horiz-adv-x="244" 
d="M52 460v29l63 211h78l-29 -240h-112z" />
    <glyph glyph-name="quoteright" unicode="&#x2019;" horiz-adv-x="239" 
d="M197 700v-29l-63 -211h-78l29 240h112z" />
    <glyph glyph-name="quotesinglbase" unicode="&#x201a;" horiz-adv-x="247" 
d="M185 117v-29l-63 -211h-78l29 240h112z" />
    <glyph glyph-name="quotedblleft" unicode="&#x201c;" horiz-adv-x="410" 
d="M218 460v29l63 211h78l-29 -240h-112zM52 460v29l63 211h78l-29 -240h-112z" />
    <glyph glyph-name="quotedblright" unicode="&#x201d;" horiz-adv-x="405" 
d="M363 700v-29l-63 -211h-78l29 240h112zM197 700v-29l-63 -211h-78l29 240h112z" />
    <glyph glyph-name="quotedblbase" unicode="&#x201e;" horiz-adv-x="413" 
d="M350 117v-29l-63 -211h-78l29 240h112zM184 117v-29l-63 -211h-78l29 240h112z" />
    <glyph glyph-name="dagger" unicode="&#x2020;" horiz-adv-x="506" 
d="M313 110v-110h-114v110l30 350l-143 -17h-32v86h32l140 -16l-25 154v33h111v-33l-24 -153l132 15h32v-86h-32l-134 16z" />
    <glyph glyph-name="daggerdbl" unicode="&#x2021;" horiz-adv-x="506" 
d="M201 350l24 109l-139 -16h-32v86h32l140 -16l-25 154v33h111v-33l-23 -153l131 15h32v-86h-32l-130 15l22 -108l-23 -108l131 15h32v-86h-32l-132 15l24 -153v-33h-111v33l24 154l-139 -16h-32v86h32l138 -17z" />
    <glyph glyph-name="bullet" unicode="&#x2022;" horiz-adv-x="364" 
d="M275 262h-186v175h186v-175z" />
    <glyph glyph-name="ellipsis" unicode="&#x2026;" horiz-adv-x="734" 
d="M668 0h-116v117h116v-117zM425 0h-116v117h116v-117zM182 0h-116v117h116v-117z" />
    <glyph glyph-name="perthousand" unicode="&#x2030;" horiz-adv-x="1081" 
d="M308 577v-104q0 -53 -32 -91t-102 -38t-102 38t-32 91v104q0 53 32 91t102 38t102 -38t32 -91zM644 700l-443 -700h-90l443 700h90zM224 475v100q0 61 -50 61t-50 -61v-100q0 -60 50 -60t50 60zM1046 227v-104q0 -53 -32 -91t-102 -38t-102 38t-32 91v104q0 53 32 91
t102 38t102 -38t32 -91zM724 227v-104q0 -53 -32 -91t-102 -38t-102 38t-32 91v104q0 53 32 91t102 38t102 -38t32 -91zM962 125v100q0 61 -50 61t-50 -61v-100q0 -60 50 -60t50 60zM640 125v100q0 61 -50 61t-50 -61v-100q0 -60 50 -60t50 60z" />
    <glyph glyph-name="guilsinglleft" unicode="&#x2039;" horiz-adv-x="340" 
d="M188 69l-156 195l156 195h101l-145 -195l145 -195h-101z" />
    <glyph glyph-name="guilsinglright" unicode="&#x203a;" horiz-adv-x="340" 
d="M308 264l-156 -195h-101l145 195l-145 195h101z" />
    <glyph glyph-name="fraction" unicode="&#x2044;" horiz-adv-x="164" 
d="M347 700l-443 -700h-90l443 700h90z" />
    <glyph glyph-name="zero.superior" unicode="&#x2070;" horiz-adv-x="333" 
d="M300 717v-104q0 -53 -32 -91t-102 -38t-102 38t-32 91v104q0 53 32 91t102 38t102 -38t32 -91zM216 615v100q0 61 -50 61t-50 -61v-100q0 -60 50 -60t50 60z" />
    <glyph glyph-name="four.superior" unicode="&#x2074;" horiz-adv-x="333" 
d="M162 840l-57 -192h101v192h84v-350h-84v89h-185v68l60 193h81z" />
    <glyph glyph-name="five.superior" unicode="&#x2075;" horiz-adv-x="318" 
d="M40 645v195h231v-69h-148v-61h45q127 0 127 -111q0 -48 -31.5 -81.5t-102.5 -33.5q-69 0 -101 29.5t-32 71.5v10h82v-5q0 -39 50 -39q52 0 52 49q0 45 -55 45h-117z" />
    <glyph glyph-name="six.superior" unicode="&#x2076;" horiz-adv-x="326" 
d="M166 484q-71 0 -102 34.5t-31 83.5v115q0 53 32 91t100 38t97.5 -29.5t29.5 -68.5v-7h-80v4q0 15 -13 25t-35 10q-23 0 -36 -14.5t-13 -39.5v-42q24 24 70 24q58 0 86.5 -30.5t28.5 -76.5q0 -49 -31.5 -83t-102.5 -34zM166 545q51 0 51 51q0 52 -51 52q-52 0 -52 -52
q0 -51 52 -51z" />
    <glyph glyph-name="seven.superior" unicode="&#x2077;" horiz-adv-x="298" 
d="M15 840h269v-61l-140 -289h-89l134 281h-174v69z" />
    <glyph glyph-name="eight.superior" unicode="&#x2078;" horiz-adv-x="329" 
d="M164 484q-72 0 -104 31.5t-32 77.5q0 55 49 80q-39 22 -39 70q0 44 29.5 73.5t96.5 29.5q68 0 97.5 -29.5t29.5 -73.5q0 -48 -40 -70q50 -24 50 -80q0 -46 -32 -77.5t-105 -31.5zM171 701q19 0 30.5 11.5t11.5 29.5q0 44 -49 44q-48 0 -48 -44q0 -18 11.5 -29.5
t29.5 -11.5h14zM171 639h-14q-21 0 -34 -12.5t-13 -31.5q0 -50 54 -50q55 0 55 50q0 19 -13.5 31.5t-34.5 12.5z" />
    <glyph glyph-name="nine.superior" unicode="&#x2079;" horiz-adv-x="326" 
d="M160 786q-50 0 -50 -53q0 -51 50 -51q51 0 51 52t-51 52zM161 845q71 0 102 -34t31 -83v-114q0 -53 -31.5 -91t-100.5 -38q-68 0 -98.5 30t-30.5 69v5h82v-4q0 -15 13 -25t35 -10q23 0 36 14.5t13 39.5v42q-26 -24 -71 -24q-58 0 -86.5 30.5t-28.5 75.5q0 49 31.5 83
t103.5 34z" />
    <glyph glyph-name="parenleft.superior" unicode="&#x207d;" horiz-adv-x="214" 
d="M39 558v214q0 56 28 85.5t98 29.5h25v-69h-21q-47 0 -47 -51v-203q0 -52 47 -52h21v-67h-25q-71 0 -98.5 29t-27.5 84z" />
    <glyph glyph-name="parenright.superior" unicode="&#x207e;" horiz-adv-x="214" 
d="M175 772v-214q0 -55 -27.5 -84t-98.5 -29h-25v67h21q47 0 47 52v203q0 51 -47 51h-21v69h25q71 0 98.5 -29.5t27.5 -85.5z" />
    <glyph glyph-name="zero.inferior" unicode="&#x2080;" horiz-adv-x="333" 
d="M300 87v-104q0 -53 -32 -91t-102 -38t-102 38t-32 91v104q0 53 32 91t102 38t102 -38t32 -91zM216 -15v100q0 61 -50 61t-50 -61v-100q0 -60 50 -60t50 60z" />
    <glyph glyph-name="one.inferior" unicode="&#x2081;" horiz-adv-x="295" 
d="M30 192l106 19h62v-281h84v-70h-252v70h84v199l-84 -10v73z" />
    <glyph glyph-name="two.inferior" unicode="&#x2082;" horiz-adv-x="326" 
d="M213 105q0 42 -51 42q-50 0 -50 -48v-9h-82v13q0 47 32 80t102 33t101 -31.5t31 -77.5q0 -74 -70 -102l-84 -34q-26 -10 -26 -27v-15h179v-69h-262v83q0 55 50 78l106 45q24 10 24 39z" />
    <glyph glyph-name="three.inferior" unicode="&#x2083;" horiz-adv-x="321" 
d="M159 -146q-69 0 -101 29.5t-32 71.5v14h82v-8q0 -40 49 -40q53 0 53 47q0 20 -11.5 31.5t-30.5 11.5h-49v59h48q14 0 23 11t9 27q0 41 -43 41q-44 0 -44 -37v-7h-81v13q0 40 30 69t96 29t95.5 -30t29.5 -73q0 -46 -36 -69q48 -25 48 -79q0 -46 -31.5 -78.5t-103.5 -32.5z
" />
    <glyph glyph-name="four.inferior" unicode="&#x2084;" horiz-adv-x="333" 
d="M162 210l-57 -192h101v192h84v-350h-84v89h-185v68l60 193h81z" />
    <glyph glyph-name="five.inferior" unicode="&#x2085;" horiz-adv-x="318" 
d="M40 15v195h231v-69h-148v-61h45q127 0 127 -111q0 -48 -31.5 -81.5t-102.5 -33.5q-69 0 -101 29.5t-32 71.5v10h82v-5q0 -39 50 -39q52 0 52 49q0 45 -55 45h-117z" />
    <glyph glyph-name="six.inferior" unicode="&#x2086;" horiz-adv-x="326" 
d="M166 -146q-71 0 -102 34.5t-31 83.5v115q0 53 32 91t100 38t97.5 -29.5t29.5 -68.5v-7h-80v4q0 15 -13 25t-35 10q-23 0 -36 -14.5t-13 -39.5v-42q24 24 70 24q58 0 86.5 -30.5t28.5 -76.5q0 -49 -31.5 -83t-102.5 -34zM166 -85q51 0 51 51q0 52 -51 52q-52 0 -52 -52
q0 -51 52 -51z" />
    <glyph glyph-name="seven.inferior" unicode="&#x2087;" horiz-adv-x="298" 
d="M15 210h269v-61l-140 -289h-89l134 281h-174v69z" />
    <glyph glyph-name="eight.inferior" unicode="&#x2088;" horiz-adv-x="329" 
d="M164 -146q-72 0 -104 31.5t-32 77.5q0 55 49 80q-39 22 -39 70q0 44 29.5 73.5t96.5 29.5q68 0 97.5 -29.5t29.5 -73.5q0 -48 -40 -70q50 -24 50 -80q0 -46 -32 -77.5t-105 -31.5zM171 71q19 0 30.5 11.5t11.5 29.5q0 44 -49 44q-48 0 -48 -44q0 -18 11.5 -29.5
t29.5 -11.5h14zM171 9h-14q-21 0 -34 -12.5t-13 -31.5q0 -50 54 -50q55 0 55 50q0 19 -13.5 31.5t-34.5 12.5z" />
    <glyph glyph-name="nine.inferior" unicode="&#x2089;" horiz-adv-x="326" 
d="M160 156q-50 0 -50 -53q0 -51 50 -51q51 0 51 52t-51 52zM161 215q71 0 102 -34t31 -83v-114q0 -53 -31.5 -91t-100.5 -38q-68 0 -98.5 30t-30.5 69v5h82v-4q0 -15 13 -25t35 -10q23 0 36 14.5t13 39.5v42q-26 -24 -71 -24q-58 0 -86.5 30.5t-28.5 75.5q0 49 31.5 83
t103.5 34z" />
    <glyph glyph-name="parenleft.inferior" unicode="&#x208d;" horiz-adv-x="214" 
d="M39 -73v214q0 56 28 85.5t98 29.5h25v-69h-21q-47 0 -47 -51v-203q0 -52 47 -52h21v-67h-25q-71 0 -98.5 29t-27.5 84z" />
    <glyph glyph-name="parenright.inferior" unicode="&#x208e;" horiz-adv-x="214" 
d="M175 141v-214q0 -55 -27.5 -84t-98.5 -29h-25v67h21q47 0 47 52v203q0 51 -47 51h-21v69h25q71 0 98.5 -29.5t27.5 -85.5z" />
    <glyph glyph-name="franc" unicode="&#x20a3;" horiz-adv-x="966" 
d="M526 294h-326v-294h-116v700h464v-101h-348v-205h326v-100zM764 0h-110v532h98l7 -86q50 95 188 95v-106h-21q-84 0 -123 -42t-39 -115v-278z" />
    <glyph glyph-name="lira" unicode="&#x20a4;" horiz-adv-x="654" 
d="M589 92v-92h-534v84l75 8v128h-75v71h75v53h-75v71h75v53q0 46 12.5 87t39.5 77.5t76.5 57.5t116.5 21q120 0 176.5 -63.5t56.5 -151.5v-27h-113v20q0 49 -30.5 84.5t-92.5 35.5q-67 0 -96.5 -40.5t-29.5 -100.5v-53h157v-71h-157v-53h157v-71h-157v-128h343z" />
    <glyph glyph-name="peseta" unicode="&#x20a7;" horiz-adv-x="1562" 
d="M349 230h-149v-230h-116v700h265q77 0 133 -19.5t86 -53.5t43.5 -74t13.5 -88q0 -103 -63.5 -169t-212.5 -66zM1018 92v-92h-69q-110 0 -151.5 44.5t-41.5 126.5v274h-73v85h73v136h111v-136h137v-85h-137v-267q0 -45 21.5 -65.5t77.5 -20.5h52zM348 601h-148v-273h148
q159 0 159 136q0 137 -159 137zM1505 380h-107v9q0 73 -105 73q-51 0 -76 -19t-25 -50q0 -26 18 -40t54 -22l110 -24q144 -33 144 -147q0 -77 -52 -124t-164 -47q-119 0 -170 41t-51 105v13h108v-11q0 -65 114 -65q53 0 79.5 21t26.5 57q0 49 -69 64l-104 23q-72 17 -110 48
t-38 100q0 68 52.5 113t154.5 45q111 0 160.5 -43t49.5 -108v-12z" />
    <glyph glyph-name="Euro" unicode="&#x20ac;" horiz-adv-x="670" 
d="M616 204q0 -41 -13 -77t-41 -68t-78.5 -51t-117.5 -19q-69 0 -119.5 22t-78.5 59t-41 79.5t-13 90.5v5h-74v76h74v51h-74v76h74v13q0 48 13 90t41 79t78.5 59t119.5 22q67 0 117.5 -18.5t78.5 -50t41 -67t13 -74.5v-24h-115v19q0 48 -32 81.5t-102 33.5q-72 0 -104.5 -43
t-32.5 -106v-14h156v-76h-156v-51h156v-76h-156v-7q0 -63 32.5 -106t104.5 -43q70 0 102 34.5t32 84.5v24h115v-28z" />
    <glyph glyph-name="uni2113" unicode="&#x2113;" horiz-adv-x="511" 
d="M460 0h-138q-64 0 -107.5 15.5t-65 45t-29.5 62.5t-8 79v4l-67 -24l-28 85l41 16t54 22v193q0 92 48.5 152.5t146.5 60.5q93 0 132 -50.5t39 -122.5q0 -169 -255 -286v-40q0 -58 21 -87t86 -29h130v-96zM223 498v-142q162 87 162 182q0 35 -16.5 61t-58.5 26
q-87 0 -87 -127z" />
    <glyph glyph-name="trademark" unicode="&#x2122;" horiz-adv-x="872" 
d="M362 619h-117v-328h-93v328h-120v81h330v-81zM587 424l-85 127v-260h-90v409h89l107 -168l103 168h86v-409h-92v259l-81 -126h-37z" />
    <glyph glyph-name="Omega" unicode="&#x2126;" horiz-adv-x="676" 
d="M498 348v106q0 66 -37.5 110.5t-123.5 44.5q-85 0 -122 -45t-37 -110v-106q0 -67 28 -110.5t75 -50.5v-187h-213v93h137v26q-66 21 -104.5 82t-38.5 141v119q0 48 14 90t44 79t86 59t131 22q76 0 132.5 -22t86.5 -59t44 -79t14 -90v-119q0 -80 -38.5 -141t-104.5 -82v-26
h138v-93h-214v187q47 7 75 50.5t28 110.5z" />
    <glyph glyph-name="estimated" unicode="&#x212e;" horiz-adv-x="799" 
d="M700 139q-50 -69 -126.5 -109.5t-165.5 -40.5q-149 0 -254.5 106t-105.5 255t105.5 255t254.5 106q152 0 256 -107t104 -275h-587v-171q41 -51 100 -79.5t127 -28.5q73 0 135.5 34t103.5 93zM408 652q-139 0 -227 -109v-149h458v139q-38 54 -97.5 86.5t-133.5 32.5z" />
    <glyph glyph-name="uni2153" unicode="&#x2153;" horiz-adv-x="778" 
d="M48 682l106 19h62v-281h84v-70h-252v70h84v199l-84 -10v73zM662 700l-443 -700h-90l443 700h90zM607 -6q-69 0 -101 29.5t-32 71.5v14h82v-8q0 -40 49 -40q53 0 53 47q0 20 -11.5 31.5t-30.5 11.5h-49v59h48q14 0 23 11t9 27q0 41 -43 41q-44 0 -44 -37v-7h-81v13
q0 40 30 69t96 29t95.5 -30t29.5 -73q0 -46 -36 -69q48 -25 48 -79q0 -46 -31.5 -78.5t-103.5 -32.5z" />
    <glyph glyph-name="uni2154" unicode="&#x2154;" horiz-adv-x="790" 
d="M228 595q0 42 -51 42q-50 0 -50 -48v-9h-82v13q0 47 32 80t102 33t101 -31.5t31 -77.5q0 -74 -70 -102l-84 -34q-26 -10 -26 -27v-15h179v-69h-262v83q0 55 50 78l106 45q24 10 24 39zM674 700l-443 -700h-90l443 700h90zM619 -6q-69 0 -101 29.5t-32 71.5v14h82v-8
q0 -40 49 -40q53 0 53 47q0 20 -11.5 31.5t-30.5 11.5h-49v59h48q14 0 23 11t9 27q0 41 -43 41q-44 0 -44 -37v-7h-81v13q0 40 30 69t96 29t95.5 -30t29.5 -73q0 -46 -36 -69q48 -25 48 -79q0 -46 -31.5 -78.5t-103.5 -32.5z" />
    <glyph glyph-name="uni2155" unicode="&#x2155;" horiz-adv-x="795" 
d="M48 682l106 19h62v-281h84v-70h-252v70h84v199l-84 -10v73zM662 700l-443 -700h-90l443 700h90zM504 156v195h231v-69h-148v-61h45q127 0 127 -111q0 -48 -31.5 -81.5t-102.5 -33.5q-69 0 -101 29.5t-32 71.5v10h82v-5q0 -39 50 -39q52 0 52 49q0 45 -55 45h-117z" />
    <glyph glyph-name="uni2156" unicode="&#x2156;" horiz-adv-x="811" 
d="M228 595q0 42 -51 42q-50 0 -50 -48v-9h-82v13q0 47 32 80t102 33t101 -31.5t31 -77.5q0 -74 -70 -102l-84 -34q-26 -10 -26 -27v-15h179v-69h-262v83q0 55 50 78l106 45q24 10 24 39zM678 700l-443 -700h-90l443 700h90zM519 155v195h231v-69h-148v-61h45
q127 0 127 -111q0 -48 -31.5 -81.5t-102.5 -33.5q-69 0 -101 29.5t-32 71.5v10h82v-5q0 -39 50 -39q52 0 52 49q0 45 -55 45h-117z" />
    <glyph glyph-name="uni2157" unicode="&#x2157;" horiz-adv-x="787" 
d="M654 700l-443 -700h-90l443 700h90zM172 344q-69 0 -101 29.5t-32 71.5v14h82v-8q0 -40 49 -40q53 0 53 47q0 20 -11.5 31.5t-30.5 11.5h-49v59h48q14 0 23 11t9 27q0 41 -43 41q-44 0 -44 -37v-7h-81v13q0 40 30 69t96 29t95.5 -30t29.5 -73q0 -46 -36 -69
q48 -25 48 -79q0 -46 -31.5 -78.5t-103.5 -32.5zM496 155v195h231v-69h-148v-61h45q127 0 127 -111q0 -48 -31.5 -81.5t-102.5 -33.5q-69 0 -101 29.5t-32 71.5v10h82v-5q0 -39 50 -39q52 0 52 49q0 45 -55 45h-117z" />
    <glyph glyph-name="uni2158" unicode="&#x2158;" horiz-adv-x="803" 
d="M669 700l-443 -700h-90l443 700h90zM171 700l-57 -192h101v192h84v-350h-84v89h-185v68l60 193h81zM512 155v195h231v-69h-148v-61h45q127 0 127 -111q0 -48 -31.5 -81.5t-102.5 -33.5q-69 0 -101 29.5t-32 71.5v10h82v-5q0 -39 50 -39q52 0 52 49q0 45 -55 45h-117z" />
    <glyph glyph-name="uni2159" unicode="&#x2159;" horiz-adv-x="786" 
d="M48 682l106 19h62v-281h84v-70h-252v70h84v199l-84 -10v73zM662 700l-443 -700h-90l443 700h90zM614 -6q-71 0 -102 34.5t-31 83.5v115q0 53 32 91t100 38t97.5 -29.5t29.5 -68.5v-7h-80v4q0 15 -13 25t-35 10q-23 0 -36 -14.5t-13 -39.5v-42q24 24 70 24
q58 0 86.5 -30.5t28.5 -76.5q0 -49 -31.5 -83t-102.5 -34zM614 55q51 0 51 51q0 52 -51 52q-52 0 -52 -52q0 -51 52 -51z" />
    <glyph glyph-name="uni215A" unicode="&#x215a;" horiz-adv-x="772" 
d="M648 700l-443 -700h-90l443 700h90zM52 505v195h231v-69h-148v-61h45q127 0 127 -111q0 -48 -31.5 -81.5t-102.5 -33.5q-69 0 -101 29.5t-32 71.5v10h82v-5q0 -39 50 -39q52 0 52 49q0 45 -55 45h-117zM601 -6q-71 0 -102 34.5t-31 83.5v115q0 53 32 91t100 38
t97.5 -29.5t29.5 -68.5v-7h-80v4q0 15 -13 25t-35 10q-23 0 -36 -14.5t-13 -39.5v-42q24 24 70 24q58 0 86.5 -30.5t28.5 -76.5q0 -49 -31.5 -83t-102.5 -34zM601 55q51 0 51 51q0 52 -51 52q-52 0 -52 -52q0 -51 52 -51z" />
    <glyph glyph-name="uni215B" unicode="&#x215b;" horiz-adv-x="784" 
d="M48 682l106 19h62v-281h84v-70h-252v70h84v199l-84 -10v73zM662 700l-443 -700h-90l443 700h90zM612 -6q-72 0 -104 31.5t-32 77.5q0 55 49 80q-39 22 -39 70q0 44 29.5 73.5t96.5 29.5q68 0 97.5 -29.5t29.5 -73.5q0 -48 -40 -70q50 -24 50 -80q0 -46 -32 -77.5
t-105 -31.5zM619 211q19 0 30.5 11.5t11.5 29.5q0 44 -49 44q-48 0 -48 -44q0 -18 11.5 -29.5t29.5 -11.5h14zM619 149h-14q-21 0 -34 -12.5t-13 -31.5q0 -50 54 -50q55 0 55 50q0 19 -13.5 31.5t-34.5 12.5z" />
    <glyph glyph-name="uni215C" unicode="&#x215c;" horiz-adv-x="777" 
d="M654 700l-443 -700h-90l443 700h90zM172 344q-69 0 -101 29.5t-32 71.5v14h82v-8q0 -40 49 -40q53 0 53 47q0 20 -11.5 31.5t-30.5 11.5h-49v59h48q14 0 23 11t9 27q0 41 -43 41q-44 0 -44 -37v-7h-81v13q0 40 30 69t96 29t95.5 -30t29.5 -73q0 -46 -36 -69
q48 -25 48 -79q0 -46 -31.5 -78.5t-103.5 -32.5zM604 -6q-72 0 -104 31.5t-32 77.5q0 55 49 80q-39 22 -39 70q0 44 29.5 73.5t96.5 29.5q68 0 97.5 -29.5t29.5 -73.5q0 -48 -40 -70q50 -24 50 -80q0 -46 -32 -77.5t-105 -31.5zM611 211q19 0 30.5 11.5t11.5 29.5
q0 44 -49 44q-48 0 -48 -44q0 -18 11.5 -29.5t29.5 -11.5h14zM611 149h-14q-21 0 -34 -12.5t-13 -31.5q0 -50 54 -50q55 0 55 50q0 19 -13.5 31.5t-34.5 12.5z" />
    <glyph glyph-name="uni215D" unicode="&#x215d;" horiz-adv-x="772" 
d="M648 700l-443 -700h-90l443 700h90zM52 505v195h231v-69h-148v-61h45q127 0 127 -111q0 -48 -31.5 -81.5t-102.5 -33.5q-69 0 -101 29.5t-32 71.5v10h82v-5q0 -39 50 -39q52 0 52 49q0 45 -55 45h-117zM599 -6q-72 0 -104 31.5t-32 77.5q0 55 49 80q-39 22 -39 70
q0 44 29.5 73.5t96.5 29.5q68 0 97.5 -29.5t29.5 -73.5q0 -48 -40 -70q50 -24 50 -80q0 -46 -32 -77.5t-105 -31.5zM606 211q18 0 30 11.5t12 29.5q0 44 -49 44q-48 0 -48 -44q0 -18 11.5 -29.5t29.5 -11.5h14zM606 149h-14q-21 0 -34 -12.5t-13 -31.5q0 -50 54 -50
q55 0 55 50q0 19 -13.5 31.5t-34.5 12.5z" />
    <glyph glyph-name="uni215E" unicode="&#x215e;" horiz-adv-x="738" 
d="M615 700l-443 -700h-90l443 700h90zM33 700h269v-61l-140 -289h-89l134 281h-174v69zM565 -6q-72 0 -104 31.5t-32 77.5q0 55 49 80q-39 22 -39 70q0 44 29.5 73.5t96.5 29.5q68 0 97.5 -29.5t29.5 -73.5q0 -48 -40 -70q50 -24 50 -80q0 -46 -32 -77.5t-105 -31.5z
M572 211q18 0 30 11.5t12 29.5q0 44 -49 44q-48 0 -48 -44q0 -18 11.5 -29.5t29.5 -11.5h14zM572 149h-14q-21 0 -34 -12.5t-13 -31.5q0 -50 54 -50q55 0 55 50q0 19 -13.5 31.5t-34.5 12.5z" />
    <glyph glyph-name="uni215F" unicode="&#x215f;" horiz-adv-x="456" 
d="M48 682l106 19h62v-281h84v-70h-252v70h84v199l-84 -10v73zM662 700l-443 -700h-90l443 700h90z" />
    <glyph glyph-name="partialdiff" unicode="&#x2202;" horiz-adv-x="569" 
d="M504 194q0 -39 -11.5 -73.5t-36 -65t-71 -48.5t-109.5 -18q-66 0 -114 18t-73.5 48.5t-37.5 65t-12 73.5v52q0 39 11.5 73.5t36 65t70 48.5t107.5 18q75 0 130 -44v69q0 75 -34 112t-117 37h-115v86h105q147 0 209 -59.5t62 -179.5v-278zM394 194v52q0 46 -29 79.5
t-94 33.5q-64 0 -92.5 -33t-28.5 -80v-52q0 -47 28.5 -80t92.5 -33q65 0 94 33.5t29 79.5z" />
    <glyph glyph-name="Delta" unicode="&#x2206;" horiz-adv-x="600" 
d="M579 0h-558l207 700h145zM156 92h287l-140 487h-5z" />
    <glyph glyph-name="product" unicode="&#x220f;" horiz-adv-x="735" 
d="M652 -126h-117v728h-334v-728h-117v826h568v-826z" />
    <glyph glyph-name="summation" unicode="&#x2211;" horiz-adv-x="596" 
d="M385 324v-35l-177 -312h344v-103h-522v41l231 395l-231 356v34h522v-103h-338z" />
    <glyph glyph-name="minus" unicode="&#x2212;" horiz-adv-x="574" 
d="M505 291h-436v97h436v-97z" />
    <glyph glyph-name="uni2215" unicode="&#x2215;" horiz-adv-x="164" 
d="M347 700l-443 -700h-90l443 700h90z" />
    <glyph glyph-name="uni2219" unicode="&#x2219;" horiz-adv-x="254" 
d="M185 302h-116v117h116v-117z" />
    <glyph glyph-name="radical" unicode="&#x221a;" horiz-adv-x="637" 
d="M28 434v98h186l109 -353h12l167 521h121l-239 -700h-112l-147 434h-97z" />
    <glyph glyph-name="infinity" unicode="&#x221e;" horiz-adv-x="863" 
d="M622 126q-104 0 -187 124q-83 -122 -194 -122q-92 0 -141 52.5t-49 136.5t49 137t141 53q109 0 193 -115q79 113 188 113q92 0 140.5 -52.5t48.5 -137.5q0 -84 -48.5 -136.5t-140.5 -52.5zM238 221q82 0 145 99q-65 93 -145 93q-43 0 -67.5 -27t-24.5 -69t24.5 -69
t67.5 -27zM625 410q-79 0 -134 -88q30 -47 60.5 -74t73.5 -27t67 27t24 67q0 42 -24 68.5t-67 26.5z" />
    <glyph glyph-name="integral" unicode="&#x222b;" horiz-adv-x="434" 
d="M272 529v-502q0 -87 -48 -135t-169 -48h-41v90h47q60 0 80.5 23t20.5 70v502q0 86 48.5 134.5t168.5 48.5h42v-90h-47q-60 0 -81 -23t-21 -70z" />
    <glyph glyph-name="approxequal" unicode="&#x2248;" horiz-adv-x="566" 
d="M442 499l67 -24q-20 -68 -49 -101t-80 -33q-44 0 -80 19l-37 21q-44 24 -64 24q-26 0 -42 -16t-31 -54l-65 23q18 67 48.5 101t80.5 34t96 -26l33 -20q32 -19 54 -19q25 0 39 15.5t30 55.5zM442 325l67 -24q-20 -68 -49 -101t-80 -33q-44 0 -80 19l-37 21q-44 24 -64 24
q-26 0 -42 -16t-31 -54l-65 23q18 67 48.5 101t80.5 34t96 -26l33 -20q32 -19 54 -19q25 0 39 15.5t30 55.5z" />
    <glyph glyph-name="notequal" unicode="&#x2260;" horiz-adv-x="574" 
d="M505 187h-274l-50 -72h-94l50 72h-68v99h132l77 108h-209v99h274l49 71h96l-50 -71h67v-99h-132l-76 -108h208v-99z" />
    <glyph glyph-name="lessequal" unicode="&#x2264;" horiz-adv-x="590" 
d="M184 385v-2l337 -106v-109l-460 174v84l460 173v-108zM61 30v84h460v-84h-460z" />
    <glyph glyph-name="greaterequal" unicode="&#x2265;" horiz-adv-x="590" 
d="M406 383v2l-337 106v108l460 -173v-84l-460 -174v109zM529 114v-84h-460v84h460z" />
    <glyph glyph-name="lozenge" unicode="&#x25ca;" horiz-adv-x="604" 
d="M576 349l-200 -349h-148l-201 349l201 351h148zM313 110l134 229l-142 252h-13l-135 -234l143 -247h13z" />
    <glyph glyph-name="hyphen.denominator" unicode="&#xf62b;" horiz-adv-x="230" 
d="M39 197h152v-73h-152v73z" />
    <glyph glyph-name="parenleft.denominator" unicode="&#xf62c;" horiz-adv-x="214" 
d="M39 67v214q0 56 28 85.5t98 29.5h25v-69h-21q-47 0 -47 -51v-203q0 -52 47 -52h21v-67h-25q-71 0 -98.5 29t-27.5 84z" />
    <glyph glyph-name="parenright.denominator" unicode="&#xf62d;" horiz-adv-x="214" 
d="M175 281v-214q0 -55 -27.5 -84t-98.5 -29h-25v67h21q47 0 47 52v203q0 51 -47 51h-21v69h25q71 0 98.5 -29.5t27.5 -85.5z" />
    <glyph glyph-name="hyphen.numerator" unicode="&#xf630;" horiz-adv-x="230" 
d="M39 547h152v-73h-152v73z" />
    <glyph glyph-name="parenleft.numerator" unicode="&#xf631;" horiz-adv-x="214" 
d="M39 418v214q0 56 28 85.5t98 29.5h25v-69h-21q-47 0 -47 -51v-203q0 -52 47 -52h21v-67h-25q-71 0 -98.5 29t-27.5 84z" />
    <glyph glyph-name="parenright.numerator" unicode="&#xf632;" horiz-adv-x="214" 
d="M175 632v-214q0 -55 -27.5 -84t-98.5 -29h-25v67h21q47 0 47 52v203q0 51 -47 51h-21v69h25q71 0 98.5 -29.5t27.5 -85.5z" />
    <glyph glyph-name="zero.denominator" unicode="&#xf655;" horiz-adv-x="333" 
d="M300 227v-104q0 -53 -32 -91t-102 -38t-102 38t-32 91v104q0 53 32 91t102 38t102 -38t32 -91zM216 125v100q0 61 -50 61t-50 -61v-100q0 -60 50 -60t50 60z" />
    <glyph glyph-name="one.denominator" unicode="&#xf656;" horiz-adv-x="295" 
d="M30 332l106 19h62v-281h84v-70h-252v70h84v199l-84 -10v73z" />
    <glyph glyph-name="two.denominator" unicode="&#xf657;" horiz-adv-x="326" 
d="M213 245q0 42 -51 42q-50 0 -50 -48v-9h-82v13q0 47 32 80t102 33t101 -31.5t31 -77.5q0 -74 -70 -102l-84 -34q-26 -10 -26 -27v-15h179v-69h-262v83q0 55 50 78l106 45q24 10 24 39z" />
    <glyph glyph-name="three.denominator" unicode="&#xf658;" horiz-adv-x="321" 
d="M159 -6q-69 0 -101 29.5t-32 71.5v14h82v-8q0 -40 49 -40q53 0 53 47q0 20 -11.5 31.5t-30.5 11.5h-49v59h48q14 0 23 11t9 27q0 41 -43 41q-44 0 -44 -37v-7h-81v13q0 40 30 69t96 29t95.5 -30t29.5 -73q0 -46 -36 -69q48 -25 48 -79q0 -46 -31.5 -78.5t-103.5 -32.5z
" />
    <glyph glyph-name="four.denominator" unicode="&#xf659;" horiz-adv-x="333" 
d="M162 350l-57 -192h101v192h84v-350h-84v89h-185v68l60 193h81z" />
    <glyph glyph-name="five.denominator" unicode="&#xf65a;" horiz-adv-x="318" 
d="M40 155v195h231v-69h-148v-61h45q127 0 127 -111q0 -48 -31.5 -81.5t-102.5 -33.5q-69 0 -101 29.5t-32 71.5v10h82v-5q0 -39 50 -39q52 0 52 49q0 45 -55 45h-117z" />
    <glyph glyph-name="six.denominator" unicode="&#xf65b;" horiz-adv-x="326" 
d="M166 -6q-71 0 -102 34.5t-31 83.5v115q0 53 32 91t100 38t97.5 -29.5t29.5 -68.5v-7h-80v4q0 15 -13 25t-35 10q-23 0 -36 -14.5t-13 -39.5v-42q24 24 70 24q58 0 86.5 -30.5t28.5 -76.5q0 -49 -31.5 -83t-102.5 -34zM166 55q51 0 51 51q0 52 -51 52q-52 0 -52 -52
q0 -51 52 -51z" />
    <glyph glyph-name="seven.denominator" unicode="&#xf65c;" horiz-adv-x="298" 
d="M15 350h269v-61l-140 -289h-89l134 281h-174v69z" />
    <glyph glyph-name="eight.denominator" unicode="&#xf65d;" horiz-adv-x="329" 
d="M164 -6q-72 0 -104 31.5t-32 77.5q0 55 49 80q-39 22 -39 70q0 44 29.5 73.5t96.5 29.5q68 0 97.5 -29.5t29.5 -73.5q0 -48 -40 -70q50 -24 50 -80q0 -46 -32 -77.5t-105 -31.5zM171 211q19 0 30.5 11.5t11.5 29.5q0 44 -49 44q-48 0 -48 -44q0 -18 11.5 -29.5
t29.5 -11.5h14zM171 149h-14q-21 0 -34 -12.5t-13 -31.5q0 -50 54 -50q55 0 55 50q0 19 -13.5 31.5t-34.5 12.5z" />
    <glyph glyph-name="nine.denominator" unicode="&#xf65e;" horiz-adv-x="326" 
d="M160 296q-50 0 -50 -53q0 -51 50 -51q51 0 51 52t-51 52zM161 355q71 0 102 -34t31 -83v-114q0 -53 -31.5 -91t-100.5 -38q-68 0 -98.5 30t-30.5 69v5h82v-4q0 -15 13 -25t35 -10q23 0 36 14.5t13 39.5v42q-26 -24 -71 -24q-58 0 -86.5 30.5t-28.5 75.5q0 49 31.5 83
t103.5 34z" />
    <glyph glyph-name="comma.denominator" unicode="&#xf65f;" horiz-adv-x="155" 
d="M122 74v-19l-39 -129h-60l16 148h83z" />
    <glyph glyph-name="period.denominator" unicode="&#xf660;" horiz-adv-x="155" 
d="M119 0h-83v74h83v-74z" />
    <glyph glyph-name="zero.numerator" unicode="&#xf661;" horiz-adv-x="333" 
d="M300 577v-104q0 -53 -32 -91t-102 -38t-102 38t-32 91v104q0 53 32 91t102 38t102 -38t32 -91zM216 475v100q0 61 -50 61t-50 -61v-100q0 -60 50 -60t50 60z" />
    <glyph glyph-name="one.numerator" unicode="&#xf662;" horiz-adv-x="295" 
d="M30 682l106 19h62v-281h84v-70h-252v70h84v199l-84 -10v73z" />
    <glyph glyph-name="two.numerator" unicode="&#xf663;" horiz-adv-x="326" 
d="M213 595q0 42 -51 42q-50 0 -50 -48v-9h-82v13q0 47 32 80t102 33t101 -31.5t31 -77.5q0 -74 -70 -102l-84 -34q-26 -10 -26 -27v-15h179v-69h-262v83q0 55 50 78l106 45q24 10 24 39z" />
    <glyph glyph-name="three.numerator" unicode="&#xf664;" horiz-adv-x="321" 
d="M159 344q-69 0 -101 29.5t-32 71.5v14h82v-8q0 -40 49 -40q53 0 53 47q0 20 -11.5 31.5t-30.5 11.5h-49v59h48q14 0 23 11t9 27q0 41 -43 41q-44 0 -44 -37v-7h-81v13q0 40 30 69t96 29t95.5 -30t29.5 -73q0 -46 -36 -69q48 -25 48 -79q0 -46 -31.5 -78.5t-103.5 -32.5z
" />
    <glyph glyph-name="four.numerator" unicode="&#xf665;" horiz-adv-x="333" 
d="M162 700l-57 -192h101v192h84v-350h-84v89h-185v68l60 193h81z" />
    <glyph glyph-name="five.numerator" unicode="&#xf666;" horiz-adv-x="318" 
d="M40 505v195h231v-69h-148v-61h45q127 0 127 -111q0 -48 -31.5 -81.5t-102.5 -33.5q-69 0 -101 29.5t-32 71.5v10h82v-5q0 -39 50 -39q52 0 52 49q0 45 -55 45h-117z" />
    <glyph glyph-name="six.numerator" unicode="&#xf667;" horiz-adv-x="326" 
d="M166 344q-71 0 -102 34.5t-31 83.5v115q0 53 32 91t100 38t97.5 -29.5t29.5 -68.5v-7h-80v4q0 15 -13 25t-35 10q-23 0 -36 -14.5t-13 -39.5v-42q24 24 70 24q58 0 86.5 -30.5t28.5 -76.5q0 -49 -31.5 -83t-102.5 -34zM166 405q51 0 51 51q0 52 -51 52q-52 0 -52 -52
q0 -51 52 -51z" />
    <glyph glyph-name="seven.numerator" unicode="&#xf668;" horiz-adv-x="298" 
d="M15 700h269v-61l-140 -289h-89l134 281h-174v69z" />
    <glyph glyph-name="eight.numerator" unicode="&#xf669;" horiz-adv-x="329" 
d="M164 344q-72 0 -104 31.5t-32 77.5q0 55 49 80q-39 22 -39 70q0 44 29.5 73.5t96.5 29.5q68 0 97.5 -29.5t29.5 -73.5q0 -48 -40 -70q50 -24 50 -80q0 -46 -32 -77.5t-105 -31.5zM171 561q19 0 30.5 11.5t11.5 29.5q0 44 -49 44q-48 0 -48 -44q0 -18 11.5 -29.5
t29.5 -11.5h14zM171 499h-14q-21 0 -34 -12.5t-13 -31.5q0 -50 54 -50q55 0 55 50q0 19 -13.5 31.5t-34.5 12.5z" />
    <glyph glyph-name="nine.numerator" unicode="&#xf66a;" horiz-adv-x="326" 
d="M160 646q-50 0 -50 -53q0 -51 50 -51q51 0 51 52t-51 52zM161 705q71 0 102 -34t31 -83v-114q0 -53 -31.5 -91t-100.5 -38q-68 0 -98.5 30t-30.5 69v5h82v-4q0 -15 13 -25t35 -10q23 0 36 14.5t13 39.5v42q-26 -24 -71 -24q-58 0 -86.5 30.5t-28.5 75.5q0 49 31.5 83
t103.5 34z" />
    <glyph glyph-name="comma.numerator" unicode="&#xf66b;" horiz-adv-x="153" 
d="M122 424v-19l-39 -129h-60l16 148h83z" />
    <glyph glyph-name="period.numerator" unicode="&#xf66c;" horiz-adv-x="153" 
d="M118 350h-83v74h83v-74z" />
    <glyph glyph-name="commaaccent" unicode="&#xf6c3;" horiz-adv-x="230" 
d="M163 -50v-28l-44 -136h-81l17 164h108z" />
    <glyph glyph-name="uniF8FF" unicode="&#xf8ff;" horiz-adv-x="1495" 
d="M76 529v8h1338v-8h-1338zM1220 332l-29 -2v4q0 20 12 20h17l-3 30q24 8 32 8q11 0 11 -8v-29h47v-3q0 -21 -12 -21h-35v-90q0 -15 16 -15q11 0 38.5 5.5t46.5 5.5q17 0 39.5 -6t22.5 -18q0 -14 -9.5 -21t-17.5 -7q-2 0 -26.5 12t-44.5 12q-7 0 -32 -4t-44 -4
q-20 0 -24 16q-2 8 -5 108v7zM1179 258q-16 -6 -44 -6q2 -22 26 -22q17 0 32 9q8 -5 8 -16q0 -4 -2.5 -8.5t-14 -9.5t-30.5 -5q-28 0 -44 14.5t-16 38.5q0 27 18.5 47.5t50.5 20.5q19 0 30 -9.5t11 -21.5q0 -24 -25 -32zM856 258q-16 -6 -44 -6q2 -22 26 -22q17 0 32 9
q8 -5 8 -16q0 -4 -2.5 -8.5t-14 -9.5t-30.5 -5q-28 0 -44 14.5t-16 38.5q0 27 18.5 47.5t50.5 20.5q19 0 30 -9.5t11 -21.5q0 -24 -25 -32zM157 258q-16 -6 -44 -6q2 -22 26 -22q17 0 32 9q8 -5 8 -16q0 -4 -2.5 -8.5t-14 -9.5t-30.5 -5q-28 0 -44 14.5t-16 38.5
q0 27 18.5 47.5t50.5 20.5q19 0 30 -9.5t11 -21.5q0 -24 -25 -32zM1078 289v-49l2 -32q-24 -8 -31 -8q-11 0 -11 8v67q0 15 -8 15q-7 0 -16.5 -17.5t-9.5 -30.5l3 -34q-24 -8 -32 -8q-11 0 -11 8v69l-3 36q24 8 32 8q11 0 11 -9v-40q18 49 45 49q29 0 29 -32zM387 289v-49
l3 -32q-24 -8 -31 -8q-11 0 -11 8v66q0 16 -8 16q-7 0 -16.5 -17.5t-9.5 -30.5l2 -34q-24 -8 -31 -8q-11 0 -11 8v66q0 16 -8 16q-7 0 -16.5 -17.5t-9.5 -30.5l3 -34q-24 -8 -32 -8q-11 0 -11 8v69l-3 36q24 8 32 8q11 0 11 -9v-40q3 9 7.5 19t15 20t22.5 10q29 0 29 -32
v-17q14 49 45 49q28 0 28 -32zM811 264q37 0 37 21q0 13 -13 13q-20 0 -24 -34zM1134 264q37 0 37 21q0 13 -13 13q-20 0 -24 -34zM112 264q37 0 37 21q0 13 -13 13q-20 0 -24 -34zM671 219q45 6 45 51q0 20 -13 20t-22.5 -18.5t-9.5 -29.5v-23zM921 250q11 0 18.5 -7
t7.5 -17t-7.5 -16.5t-18.5 -6.5t-18 6.5t-7 16.5t7 17t18 7zM718 320q17 0 28.5 -13.5t11.5 -37.5q0 -68 -87 -68v-40l3 -32q-24 -8 -32 -8q-11 0 -11 8v75l-25 -3v-3q0 -79 -68 -79q-21 0 -31 10.5t-10 23.5q0 36 70 53v42q-17 -48 -46 -48q-28 0 -28 31v3q-19 -33 -53 -33
q-29 0 -29 30v101l-29 -2v4q0 20 12 20h17l-3 30q24 8 32 8q11 0 11 -8v-29h47v-3q0 -21 -12 -21h-35v-86q0 -16 13 -16q9 0 19 8t10 18v25l-3 33q24 8 32 8q11 0 11 -9v-66q0 -15 7 -15t16.5 17t9.5 31l-2 34q24 8 31 8q11 0 11 -9v-99l25 3v61l-3 36q24 8 32 8q11 0 11 -9
v-40q17 48 47 48zM566 194q-41 -9 -41 -32q0 -14 14 -14q25 0 27 46zM76 0v8h1338v-8h-1338z" />
    <glyph glyph-name="f_f" unicode="&#xfb00;" horiz-adv-x="722" 
d="M706 445h-135v-445h-111v445h-71v85h71v16q0 184 216 184h43v-87h-48q-100 0 -100 -92v-21h135v-85zM345 445h-135v-445h-111v445h-71v85h71v16q0 184 216 184h43v-87h-48q-100 0 -100 -92v-21h135v-85z" />
    <glyph glyph-name="f_f_i" unicode="&#xfb03;" horiz-adv-x="976" 
d="M905 623h-113v107h113v-107zM345 445h-135v-445h-111v445h-71v85h71v16q0 184 216 184h43v-87h-48q-100 0 -100 -92v-21h135v-85zM706 445h-135v-445h-111v445h-71v85h71v16q0 184 216 184h43v-87h-48q-100 0 -100 -92v-21h135v-85zM904 0h-111v532h111v-532z" />
    <glyph glyph-name="f_f_l" unicode="&#xfb04;" horiz-adv-x="976" 
d="M904 0h-111v730h111v-730zM345 445h-135v-445h-111v445h-71v85h71v16q0 184 216 184h43v-87h-48q-100 0 -100 -92v-21h135v-85zM706 445h-135v-445h-111v445h-71v85h71v16q0 184 216 184h43v-87h-48q-100 0 -100 -92v-21h135v-85z" />
    <glyph glyph-name="longs_t" unicode="&#xfb05;" horiz-adv-x="709" 
d="M210 0h-111v446h-71v85h71v15q0 184 216 184h43v-87h-48q-100 0 -100 -92v-551zM685 92v-92h-69q-110 0 -151.5 44.5t-41.5 126.5v274h-73v85h73v136h111v-136h137v-85h-137v-267q0 -45 21.5 -65.5t77.5 -20.5h52z" />
    <glyph glyph-name="zero.tab" unicode="&#xff10;" horiz-adv-x="617" 
d="M308 711q69 0 119.5 -21t78 -57t40 -76.5t12.5 -86.5v-240q0 -46 -12.5 -87t-40 -76.5t-78 -56.5t-119.5 -21t-119.5 21t-78 56.5t-40 76.5t-12.5 87v240q0 46 12.5 86.5t40 76.5t78 57t119.5 21zM442 235v230q0 61 -31.5 102.5t-102.5 41.5t-102.5 -41.5t-31.5 -102.5
v-230q0 -61 31.5 -102.5t102.5 -41.5t102.5 41.5t31.5 102.5z" />
    <glyph glyph-name="one.tab" unicode="&#xff11;" horiz-adv-x="617" 
d="M77 667l217 37h88v-603h189v-101h-494v101h189v484l-189 -25v107z" />
    <glyph glyph-name="two.tab" unicode="&#xff12;" horiz-adv-x="617" 
d="M440 505q0 106 -133 106q-135 0 -135 -120v-18h-113v23q0 90 60.5 152.5t190.5 62.5q69 0 119 -17t77 -47t39 -65t12 -76q0 -142 -137 -200l-166 -72q-38 -17 -55.5 -36.5t-17.5 -60.5v-37h378v-100h-494v146q0 117 109 166l195 86q71 33 71 107z" />
    <glyph glyph-name="three.tab" unicode="&#xff13;" horiz-adv-x="617" 
d="M305 -11q-131 0 -190.5 56t-59.5 139v24h114v-18q0 -103 134 -103q136 0 136 125q0 53 -31.5 81t-91.5 28h-99v89h105q50 0 76.5 25.5t26.5 74.5q0 103 -124 103t-124 -100v-16h-114v22q0 81 58 136.5t183 55.5q66 0 114.5 -16.5t74 -45t37 -61t11.5 -71.5
q0 -99 -78 -148q93 -49 93 -162q0 -94 -58.5 -156t-192.5 -62z" />
    <glyph glyph-name="four.tab" unicode="&#xff14;" horiz-adv-x="617" 
d="M290 700l-136 -401h266v401h116v-700h-116v195h-387v99l140 406h117z" />
    <glyph glyph-name="five.tab" unicode="&#xff15;" horiz-adv-x="617" 
d="M86 333v367h431v-101h-314v-167h117q124 0 184 -58.5t60 -158.5q0 -97 -59 -161.5t-192 -64.5q-69 0 -119.5 16.5t-78 45.5t-40 62t-12.5 71v19h114v-13q0 -102 134 -102q137 0 137 128q0 117 -142 117h-220z" />
    <glyph glyph-name="six.tab" unicode="&#xff16;" horiz-adv-x="617" 
d="M315 -11q-70 0 -120.5 19t-77.5 53t-39.5 72.5t-12.5 83.5v247q0 47 13.5 89.5t41.5 78.5t78 57.5t116 21.5t115 -17t75 -45.5t37.5 -59.5t11.5 -66v-18h-113v15q0 41 -31.5 68.5t-91.5 27.5q-67 0 -102 -38t-35 -100v-110q55 62 159 62q117 0 172 -61t55 -153
q0 -45 -12 -83t-39.5 -72t-78.5 -53t-121 -19zM315 80q135 0 135 129q0 128 -135 128q-134 0 -134 -129q0 -128 134 -128z" />
    <glyph glyph-name="seven.tab" unicode="&#xff17;" horiz-adv-x="617" 
d="M58 700h500v-89l-299 -611h-124l292 599h-369v101z" />
    <glyph glyph-name="eight.tab" unicode="&#xff18;" horiz-adv-x="617" 
d="M308 -11q-134 0 -194 61t-60 153q0 117 99 168q-82 45 -82 144q0 84 56 140t181 56t181 -56t56 -140q0 -98 -82 -145q98 -50 98 -167q0 -92 -59.5 -153t-193.5 -61zM299 411h18q54 0 85.5 26.5t31.5 73.5q0 112 -126 112t-126 -112q0 -47 32 -73.5t85 -26.5zM317 321h-18
q-59 0 -93.5 -30.5t-34.5 -86.5t32.5 -90.5t104.5 -34.5t104.5 34.5t32.5 90.5t-34.5 86.5t-93.5 30.5z" />
    <glyph glyph-name="nine.tab" unicode="&#xff19;" horiz-adv-x="617" 
d="M301 619q-134 0 -134 -129q0 -126 134 -126q135 0 135 127q0 128 -135 128zM301 710q70 0 120.5 -19t77.5 -53t39.5 -72t12.5 -83v-246q0 -47 -12.5 -89t-39.5 -78.5t-76.5 -58t-115.5 -21.5q-67 0 -116.5 17t-76 45.5t-38.5 60t-12 65.5v17h113v-14q0 -41 33 -68.5
t94 -27.5q66 0 99.5 38t33.5 101v109q-55 -61 -159 -61q-118 0 -172.5 59.5t-54.5 151.5q0 46 12 84t39 71.5t78 52.5t121 19z" />
    <glyph glyph-name="Lgeminada" horiz-adv-x="1122" 
d="M643 0v700h116v-598h344v-102h-460zM81 0v700h116v-598h344v-102h-460zM478 302h-116v117h116v-117z" />
    <glyph glyph-name="lgeminada" horiz-adv-x="608" 
d="M537 0h-111v730h111v-730zM182 0h-111v730h111v-730zM362 302h-116v117h116v-117z" />
    <glyph glyph-name="caron.salt" horiz-adv-x="221" 
d="M152 737v-28l-28 -137h-60v165h88z" />
    <glyph glyph-name="commaaccent.salt" horiz-adv-x="230" 
d="M58 619v28l48 137h84l-20 -165h-112z" />
    <glyph glyph-name="acute.case" horiz-adv-x="250" 
d="M223 893l-103 -143h-89l72 143h120z" />
    <glyph glyph-name="grave.case" horiz-adv-x="250" 
d="M124 750l-96 143h129l66 -143h-99z" />
    <glyph glyph-name="hungarumlaut.case" horiz-adv-x="250" 
d="M308 893l-115 -143h-93l85 143h123zM131 893l-96 -143h-93l66 143h123z" />
    <glyph glyph-name="circumflex.case" horiz-adv-x="250" 
d="M126 837h-1l-63 -87h-87l100 143h101l100 -143h-87z" />
    <glyph glyph-name="caron.case" horiz-adv-x="250" 
d="M125 806h1l63 87h87l-100 -143h-101l-100 143h87z" />
    <glyph glyph-name="breve.case" horiz-adv-x="250" 
d="M181 880h70v-19q0 -55 -33.5 -88t-92.5 -33q-58 0 -91.5 33t-33.5 88v19h70v-19q0 -25 15 -39.5t40 -14.5q26 0 41 14.5t15 39.5v19z" />
    <glyph glyph-name="tilde.case" horiz-adv-x="250" 
d="M134 764l-38 26q-19 11 -36 11q-22 0 -33 -15.5t-11 -35.5h-62q0 59 27 93t74 34q35 0 61 -18l38 -26q21 -15 42 -15q22 0 31 16.5t9 37.5h60q0 -126 -94 -126q-41 0 -68 18z" />
    <glyph glyph-name="macron.case" horiz-adv-x="250" 
d="M-15 868h280v-72h-280v72z" />
    <glyph glyph-name="dieresis.case" horiz-adv-x="250" 
d="M253 783h-100v94h100v-94zM98 783h-100v94h100v-94z" />
    <glyph glyph-name="dotaccent.case" horiz-adv-x="250" 
d="M179 783h-108v105h108v-105z" />
    <glyph glyph-name="ring.case" horiz-adv-x="250" 
d="M124 954q46 0 77.5 -30t31.5 -77q0 -46 -31.5 -76t-77.5 -30q-45 0 -76.5 30t-31.5 76t31.5 76.5t76.5 30.5zM124 799q21 0 34.5 13.5t13.5 34.5t-13.5 34.5t-34.5 13.5q-20 0 -33.5 -13.5t-13.5 -34.5t13.5 -34.5t33.5 -13.5z" />
    </font>
</defs>
</svg>
