<svg xmlns="http://www.w3.org/2000/svg" width="43.526" height="43.526" viewBox="0 0 43.526 43.526"><defs><style>.a{fill:#3e3e3e;}</style></defs><path class="a" d="M6.376,43.526h14.2V28.054h-5.1v-5.1h5.1V16.577A6.383,6.383,0,0,1,26.949,10.2h6.376v5.1h-5.1a2.553,2.553,0,0,0-2.55,2.55v5.1h7.421l-.85,5.1H25.674V43.526H37.15a6.383,6.383,0,0,0,6.376-6.376V6.376A6.383,6.383,0,0,0,37.15,0H6.376A6.383,6.383,0,0,0,0,6.376V37.15A6.383,6.383,0,0,0,6.376,43.526ZM2.55,6.376A3.83,3.83,0,0,1,6.376,2.55H37.15a3.83,3.83,0,0,1,3.826,3.826V37.15a3.83,3.83,0,0,1-3.826,3.826H28.224V30.6H34.4l1.7-10.2H28.224v-2.55h7.651V7.651H26.949a8.936,8.936,0,0,0-8.926,8.926V20.4h-5.1V30.6h5.1V40.976H6.376A3.83,3.83,0,0,1,2.55,37.15Zm0,0"/></svg>