<svg xmlns="http://www.w3.org/2000/svg" width="43.53" height="43.53" viewBox="0 0 43.53 43.53"><defs><style>.a{fill:#3e3e3e;}</style></defs><g transform="translate(-489.691 -51.235)"><g transform="translate(-795 18)"><path class="a" d="M37.154,0H6.376A6.384,6.384,0,0,0,0,6.376V37.154A6.384,6.384,0,0,0,6.376,43.53H37.154a6.384,6.384,0,0,0,6.376-6.376V6.376A6.384,6.384,0,0,0,37.154,0Zm3.826,37.154a3.83,3.83,0,0,1-3.826,3.826H6.376a3.83,3.83,0,0,1-3.826-3.826V6.376A3.83,3.83,0,0,1,6.376,2.551H37.154a3.83,3.83,0,0,1,3.826,3.826Zm0,0" transform="translate(1328.221 76.765) rotate(180)"/><path class="a" d="M131.544,121a10.544,10.544,0,1,0,10.544,10.544A10.556,10.556,0,0,0,131.544,121Zm0,18.745a8.2,8.2,0,1,1,8.2-8.2A8.21,8.21,0,0,1,131.544,139.745Zm0,0" transform="translate(1438 186.544) rotate(180)"/><path class="a" d="M365.06,61a3.971,3.971,0,1,0,4.06,3.97A4.02,4.02,0,0,0,365.06,61Zm0,5.294a1.324,1.324,0,1,1,1.353-1.323A1.34,1.34,0,0,1,365.06,66.294Zm0,0" transform="translate(1684.221 107.456) rotate(180)"/></g></g></svg>