<svg xmlns="http://www.w3.org/2000/svg" width="276.633" height="43.528" viewBox="0 0 276.633 43.528"><defs><style>.a{fill:#fff;fill-rule:evenodd;}</style></defs><g transform="translate(-291 -6612.999)"><g transform="translate(291 6612.999)"><g transform="translate(0 0)"><path class="a" d="M38.9,7.872q-1.346-2.549-5.264-2.549H28.06a1.424,1.424,0,0,1-.85-.255.76.76,0,0,1-.356-.636.7.7,0,0,1,.347-.606,1.535,1.535,0,0,1,.861-.227H38.669V0H28.582a7.185,7.185,0,0,0-2.909.564A4.5,4.5,0,0,0,23.5,2.518a3.989,3.989,0,0,0,0,3.775A5.256,5.256,0,0,0,28.582,8.78h5.66a1.281,1.281,0,0,1,.811.263.8.8,0,0,1,.336.656q0,.807-1.148.807H23.517v3.59H33.649a7.635,7.635,0,0,0,3.007-.563,4.474,4.474,0,0,0,2.257-2.02,3.764,3.764,0,0,0,.455-1.818A3.837,3.837,0,0,0,38.9,7.872ZM62.139,0,59.606,7.706q-.636,1.759-.995,2.642-.553-1.764-.852-2.642L55.21,0H51.234L48.682,7.7q-.612,1.84-.85,2.642-.657-1.759-.995-2.642L44.305,0H39.927l5.758,14.094h4.142l3.4-8.548,3.383,8.548h4.139L66.5,0Zm5.1,14.113h3.8V0h-3.8ZM88.552,7.872q-1.346-2.549-5.264-2.549H77.709a1.422,1.422,0,0,1-.852-.255.76.76,0,0,1-.356-.636.7.7,0,0,1,.347-.606,1.539,1.539,0,0,1,.861-.227H88.316V0H78.224a7.178,7.178,0,0,0-2.909.564,4.491,4.491,0,0,0-2.176,1.954,3.989,3.989,0,0,0,0,3.775A5.254,5.254,0,0,0,78.224,8.78h5.66a1.282,1.282,0,0,1,.811.263.8.8,0,0,1,.336.656q0,.807-1.147.807H73.16v3.59H83.287a7.642,7.642,0,0,0,3.007-.563,4.473,4.473,0,0,0,2.257-2.02,3.77,3.77,0,0,0,.455-1.818,3.843,3.843,0,0,0-.454-1.821Zm17.473,0q-1.346-2.549-5.264-2.549H95.182a1.422,1.422,0,0,1-.852-.255.76.76,0,0,1-.356-.636.7.7,0,0,1,.347-.606,1.539,1.539,0,0,1,.861-.227h10.607V0H95.7a7.178,7.178,0,0,0-2.909.564,4.493,4.493,0,0,0-2.176,1.954,3.989,3.989,0,0,0,0,3.775A5.256,5.256,0,0,0,95.7,8.78h5.66a1.282,1.282,0,0,1,.811.263.8.8,0,0,1,.336.656q0,.807-1.148.807H90.632v3.59h10.131a7.642,7.642,0,0,0,3.007-.563,4.473,4.473,0,0,0,2.257-2.02,3.77,3.77,0,0,0,.455-1.818,3.843,3.843,0,0,0-.455-1.818Z" transform="translate(12.757 0.001)"/><path class="a" d="M41.269,14.954A4.055,4.055,0,0,0,39.9,11.876,4.662,4.662,0,0,0,36.611,10.6H23.017V24.694H36.609A4.662,4.662,0,0,0,39.9,23.418a4.052,4.052,0,0,0,1.371-3.077Zm-4.1,5.92a.786.786,0,0,1-.555.216H26.888v-6.9h9.721a.785.785,0,0,1,.555.216.7.7,0,0,1,.232.536v5.394a.7.7,0,0,1-.232.535Zm21.024.235H46.955V19.365H57.826V15.823H46.955v-1.63H58.188V10.6h-15.1V24.708h15.1ZM77.085,10.6H73.212V20a12.88,12.88,0,0,0-.911-1.066l-8.29-8.342H59.923V24.708h3.871V15.467a11.11,11.11,0,0,0,.988,1.162l7.771,8.081h4.538Zm16.133,0H78.7v3.6h5.284V24.708h3.871V14.193h5.365Zm10.022,0H98.889L90.944,24.689h4.468l1.616-3.037h8.066l1.613,3.037h4.479Zm-4.174,7.46a33.512,33.512,0,0,0,2-3.885q.362.886.932,1.958.343.64,1.069,1.921Zm27.688,3.054H115.7V10.6h-3.871V24.708h14.919v-3.6Z" transform="translate(12.754 5.872)"/><path class="a" d="M30.28,28.23a2.421,2.421,0,0,0-.121-.805,1.265,1.265,0,0,0-.389-.569,1.731,1.731,0,0,0-.71-.334,4.626,4.626,0,0,0-1.079-.107H25.236a.946.946,0,0,1-.674-.18.841.841,0,0,1-.176-.6.822.822,0,0,1,.176-.6.965.965,0,0,1,.674-.174h4.645c.033-.239.064-.466.09-.7s.053-.466.079-.7H25.232a4.2,4.2,0,0,0-1.054.112,1.622,1.622,0,0,0-.684.348,1.3,1.3,0,0,0-.37.622,3.264,3.264,0,0,0-.109.9v.236a2.875,2.875,0,0,0,.109.841,1.324,1.324,0,0,0,.364.6,1.577,1.577,0,0,0,.67.348,4,4,0,0,0,1.033.112h2.787a1.111,1.111,0,0,1,.72.169.793.793,0,0,1,.19.611,1.327,1.327,0,0,1-.045.375.51.51,0,0,1-.155.241.6.6,0,0,1-.289.127,2.452,2.452,0,0,1-.455.036H23.277q-.02.348-.045.692t-.045.69h4.855a4.339,4.339,0,0,0,1.038-.107,1.582,1.582,0,0,0,.695-.348,1.371,1.371,0,0,0,.384-.631,3.247,3.247,0,0,0,.121-.954Zm9.567,2.288V23.46H38.4L35.822,29.1,33.249,23.46H31.771v7.057h1.243V25.9l2.17,4.616h1.243L38.6,25.9v4.616Zm1.717,0h1.349V23.46H41.565Zm9.6,0v-1.4H45.992V23.46H44.645v7.057Zm7.884,0V29.133H53.794V27.552h5.1V26.415H53.8V24.861h5.247v-1.4h-6.6v7.056Zm11.9,0V23.46H69.624v2.872H65.537V23.46H64.208v7.057h1.329V27.605h4.1v2.912Zm8.31,0V29.133H74.008V27.552h5.1V26.415h-5.1V24.861h5.253v-1.4h-6.6v7.056Zm10.007,0L85.5,23.46H84.094l-3.756,7.057h1.539l.859-1.641h4.145l.858,1.641Zm-2.906-2.749H83.254l1.554-2.923Zm10.646,2.749v-1.4H91.839V23.46H90.486v7.057Zm3.546,0V24.856h2.507v-1.4H96.7v1.4h2.507v5.662Zm10.577,0V23.46H109.8v2.872h-4.1V23.46H104.38v7.057h1.327V27.605h4.1v2.912Zm11.323,0a1.882,1.882,0,0,0,.664-.107,1.8,1.8,0,0,0,.485-.267,1.5,1.5,0,0,0,.32-.339,1.949,1.949,0,0,0,.18-.323l-.859-.892a1.088,1.088,0,0,1-.28.375.864.864,0,0,1-.589.169h-3.806a1.281,1.281,0,0,1-.42-.056.505.505,0,0,1-.244-.169.65.65,0,0,1-.113-.277,2.205,2.205,0,0,1-.031-.39V25.754a1.037,1.037,0,0,1,.18-.7.835.835,0,0,1,.629-.194h3.755a.9.9,0,0,1,.591.169,1.054,1.054,0,0,1,.289.375l.859-.9a1.938,1.938,0,0,0-.18-.322,1.5,1.5,0,0,0-.32-.339,1.812,1.812,0,0,0-.485-.267,1.887,1.887,0,0,0-.664-.107h-3.854a4.148,4.148,0,0,0-1.029.107,1.322,1.322,0,0,0-.654.375,1.567,1.567,0,0,0-.35.709,4.853,4.853,0,0,0-.1,1.1v2.487a4.853,4.853,0,0,0,.1,1.1,1.523,1.523,0,0,0,.35.7,1.369,1.369,0,0,0,.654.375,3.974,3.974,0,0,0,1.029.112Zm11.225,0-3.766-7.057h-1.4l-3.772,7.057h1.539l.859-1.641h4.145l.858,1.641Zm-2.906-2.749h-3.113l1.554-2.923Zm11.909,2.749-2.547-2.331a5.648,5.648,0,0,0,1.079-.087,1.554,1.554,0,0,0,.72-.323,1.33,1.33,0,0,0,.406-.647,3.715,3.715,0,0,0,.124-1.057v-.43a4.275,4.275,0,0,0-.1-1.015,1.571,1.571,0,0,0-.334-.678,1.322,1.322,0,0,0-.6-.375,3.108,3.108,0,0,0-.925-.118h-5.609v7.06h1.358V28.21h2.168l2.372,2.308Zm-1.554-4.3a1.022,1.022,0,0,1-.155.645.637.637,0,0,1-.514.185H136.24V24.865h4.215q.44,0,.555.252a1.924,1.924,0,0,1,.115.765Zm9.48,4.3V29.133h-5.253V27.552h5.1V26.415h-5.1V24.861h5.253v-1.4h-6.6v7.056Z" transform="translate(12.754 12.998)"/><path class="a" d="M32.194,30.672V2.26A2.216,2.216,0,0,0,29.921,0H2.274A2.222,2.222,0,0,0,0,2.26V30.672a2.218,2.218,0,0,0,2.274,2.26H29.921a2.222,2.222,0,0,0,2.272-2.26ZM26.9,19.8H19.36v7.705H12.832V19.8H5.3V13.128h7.539V5.418h6.527v7.71H26.9V19.8Z" transform="translate(0 0.001)"/><path class="a" d="M111.146,18.468q-1.355-2.549-5.3-2.549h-5.623a1.438,1.438,0,0,1-.858-.256A.758.758,0,0,1,99,15.029a.693.693,0,0,1,.35-.606,1.554,1.554,0,0,1,.867-.228h10.688V10.6H100.74a7.272,7.272,0,0,0-2.929.564,4.507,4.507,0,0,0-2.193,1.954,3.96,3.96,0,0,0,0,3.775,5.307,5.307,0,0,0,5.129,2.487h5.7a1.3,1.3,0,0,1,.817.263.8.8,0,0,1,.339.656q0,.807-1.156.807H95.636v3.6h10.207a7.741,7.741,0,0,0,3.031-.563,4.5,4.5,0,0,0,2.272-2.02A3.744,3.744,0,0,0,111.6,20.3a3.812,3.812,0,0,0-.458-1.829Zm16.808,2.642h-11.1V19.368H127.6V15.825H116.85v-1.63h11.1V10.6H113.021V24.71h14.933Zm18.84-6.154a4.272,4.272,0,0,0-1.236-3.09,4.182,4.182,0,0,0-3.13-1.273H129.549V24.688h3.828v-4.1h3.649l4.352,4.1h5.429l-4.359-4.117a4.614,4.614,0,0,0,3.091-1.329,4,4,0,0,0,1.262-2.953Zm-4.058,1.887a.777.777,0,0,1-.549.218h-8.812V14.195h8.812a.777.777,0,0,1,.549.218.715.715,0,0,1,.23.538v1.377a.692.692,0,0,1-.23.519Zm19.207-6.249-4.614,8.6a20.679,20.679,0,0,0-.959,1.947,19.361,19.361,0,0,0-.96-1.947l-4.616-8.6h-4.431l7.854,14.094h4.306l7.856-14.094Zm5.143,14.113h3.832V10.6h-3.828Zm19.964-4.592q-.836.974-1.3.974h-9.014a.777.777,0,0,1-.549-.216.7.7,0,0,1-.228-.536V14.944a.7.7,0,0,1,.229-.536.777.777,0,0,1,.549-.216h9.014c.28,0,.491.263.639.788l3.264-2.258a3.854,3.854,0,0,0-1.615-1.6,4.992,4.992,0,0,0-2.294-.527h-9.014a4.575,4.575,0,0,0-3.251,1.276,4.076,4.076,0,0,0-1.355,3.077v5.387a4.078,4.078,0,0,0,1.355,3.077,4.578,4.578,0,0,0,3.251,1.276h9.014a4.762,4.762,0,0,0,2.213-.637,7.514,7.514,0,0,0,1.935-1.5Zm19.039.993h-11.1V19.368h10.745V15.825H194.985v-1.63h11.1V10.6H191.157V24.71h14.932Zm17.366-2.642q-1.357-2.549-5.3-2.549H212.53a1.43,1.43,0,0,1-.856-.256.755.755,0,0,1-.361-.634.7.7,0,0,1,.35-.606,1.554,1.554,0,0,1,.867-.228h10.686V10.6H213.05a7.275,7.275,0,0,0-2.931.564,4.518,4.518,0,0,0-2.194,1.954,3.96,3.96,0,0,0,0,3.775,5.309,5.309,0,0,0,5.129,2.487h5.7a1.3,1.3,0,0,1,.817.263.8.8,0,0,1,.337.656q0,.807-1.155.807H207.947v3.6h10.209a7.747,7.747,0,0,0,3.031-.563,4.5,4.5,0,0,0,2.272-2.02,3.743,3.743,0,0,0,.455-1.829,3.812,3.812,0,0,0-.458-1.818Z" transform="translate(52.718 5.87)"/></g></g></g></svg>