<svg xmlns="http://www.w3.org/2000/svg" width="458.545" height="60.184" viewBox="0 0 458.545 60.184"><defs><style>.a{fill:red;}.a,.b{fill-rule:evenodd;}.b{fill:#505663;}</style></defs><g transform="translate(0 0)"><path class="a" d="M5.378,22.823c0,6.866,6.376,10.923,12.907,10.923,11.489,0,23.407-9,23.407-19.332,0-5.367-4.481-10.815-13.1-10.815C15.569,3.6,5.378,13.975,5.378,22.823M22.92,39.12c-15.027,0-19.364-9.244-19.364-14.747C3.556,10.711,19.62,0,32.921,0,48.08,0,51.448,6.981,51.448,15.188c0,12.776-15.525,23.932-28.528,23.932" transform="translate(1.539)"/><path class="a" d="M59.189,19.7c4.093-.149,4.767-.594,5.854-5.394.828-3.811.466-5-3.575-5h-7.1L52.092,19.7Zm-21.5,18.112L45.927.7H65.458c9.635,0,12.433,3.909,10.258,13.608-2.331,10.441-5.544,14-16.371,14h-9.17l-2.124,9.5Z" transform="translate(16.318 0.303)"/><path class="a" d="M73.614,37.814H63.289L71.5.7H88.945l4.8,28.5h.413L99.838.7h10.324l-8.208,37.114h-17.6L79.705,9.31h-.413Z" transform="translate(27.401 0.303)"/><path class="a" d="M105.507,37.814H95.289L103.412.7h10.219Z" transform="translate(41.256 0.303)"/><path class="a" d="M118.147,29.2h9c3.806,0,5.71-2.425,6.584-6.334l1.749-7.769c1.029-4.8-.36-5.79-3.96-5.79h-9ZM114.135.7h19.546c10.751,0,14.711,3.86,12.4,14.4l-1.749,7.769c-2.212,10.144-6.687,14.945-17.438,14.945H105.956Z" transform="translate(45.874 0.303)"/><path class="a" d="M149.568,18.9l-1.161,5.015h-9.029l1.162-5.015Z" transform="translate(60.344 8.183)"/><path class="a" d="M167.324,22.312c2.477-.093,2.884-.368,3.544-3.353.5-2.369.282-3.107-2.164-3.107h-4.3l-1.38,6.46ZM154.311,33.571,159.3,10.5h11.822c5.832,0,7.526,2.43,6.209,8.459-1.411,6.49-3.355,8.705-9.909,8.705h-5.55l-1.286,5.906Z" transform="translate(66.81 4.546)"/><path class="a" d="M186.161,24.578l1.159-5.116c.741-3.361-.355-3.694-3.7-3.694s-4.542.334-5.379,3.694l-1.159,5.116c-.677,3.392.354,3.725,3.7,3.725s4.606-.333,5.379-3.725m-15.881.666,1.45-6.419c1.578-6.993,6.538-8.325,13.077-8.325s10.856,1.332,9.277,8.325l-1.449,6.419c-1.579,6.994-6.507,8.326-13.046,8.326s-10.888-1.332-9.31-8.326" transform="translate(73.583 4.546)"/><path class="a" d="M200.179,22.1c2.748,0,2.876-.984,3.45-3.6.449-2.062.033-2.645-2.075-2.645H196.6L195.226,22.1Zm-8.787-11.6h12.334c5.528.092,7.988,1.231,6.709,6.983-.83,3.845-1.341,6.091-6.1,7.106l-.065.246c2.62.092,3.994,1.477,3.419,4.091l-1.023,4.645h-6.39l.7-3.229c.448-1.723-.064-2.893-1.981-2.893h-4.952L192.7,33.571h-6.391Z" transform="translate(80.664 4.546)"/><path class="a" d="M213.521,33.571h-6.46L211,15.852h-6.2L206,10.5H225.18l-1.2,5.352h-6.524Z" transform="translate(88.669 4.546)"/><path class="a" d="M242.056,10.5l-3.38,15.257c-1.34,6.1-4.721,7.813-11.737,7.813-9.568,0-10.077-2.319-8.865-7.813l3.38-15.257h6.379l-3.349,15.136c-.574,2.595.957,2.625,3.636,2.625,2.71,0,3.669-.215,4.273-2.9L235.677,10.5Z" transform="translate(94.211 4.546)"/><path class="a" d="M251.563,17.736c.385-2.3-1.7-2.271-3.628-2.271-4.622,0-5.071,1.333-5.937,5l-.834,3.694c-.9,4.028.481,4.451,3.819,4.451,3.275,0,4.269-.7,5.007-3.845h-4.43l.932-4.209h10.945l-.9,3.966c-1.7,7.66-4.077,9.052-12.679,9.052-7.576,0-11.17-1.211-9.5-8.568l1.315-5.873c1.7-7.509,6.324-8.629,13.386-8.629,6.227,0,10.624.03,9.02,7.236Z" transform="translate(101.292 4.546)"/><path class="a" d="M264.648,15.114h-.062l-4.985,10h5.759ZM257.31,29.6l-1.982,3.968h-6.44L260.778,10.5h9.412l2.136,23.071H266.01l-.372-3.968Z" transform="translate(107.757 4.546)"/><path class="a" d="M273.42,28.218h9.859l-1.165,5.353H265.956L270.963,10.5h6.3Z" transform="translate(115.147 4.546)"/><path class="b" d="M6.982,39.576c1.754-.035,2.162-.364,2.554-2.19.375-1.843.221-2.365-1.617-2.348h-3.2l-.936,4.538ZM2.707,32.9H8.361c3.423,0,4.377.834,3.627,4.486-.766,3.686-2.111,4.329-5.449,4.329h-3.2L2.452,45.94H0Z" transform="translate(0 14.244)"/><path class="b" d="M16,39.49c1.916,0,2.458-.364,2.892-2.277.4-1.843.127-2.174-1.735-2.174H13.541l-.976,4.451Zm-3.9,2.138-.958,4.312h-2.6L11.408,32.9h6.923c2.964.07,3.9.956,3.253,3.912-.433,1.93-.849,3.338-3.217,3.669l-.018.069c1.807.157,2.042,1.114,1.644,2.956l-.542,2.434h-2.6l.542-2.434c.235-1.1-.054-1.86-1.3-1.878Z" transform="translate(3.695 14.244)"/><path class="b" d="M21.263,37.589l-.725,3.457c-.552,2.549-.1,2.789,2.381,2.789,2.26,0,3.105-.309,3.64-2.789l.725-3.457c.569-2.412-.259-2.584-2.467-2.584-2.675,0-3.054.548-3.554,2.584m8.505,0-.724,3.457c-.88,4.106-2.657,4.894-6.574,4.894-4,0-5.331-.685-4.416-4.894l.724-3.457c.863-3.986,2.381-4.689,6.487-4.689,3.727,0,5.4.566,4.5,4.689" transform="translate(7.697 14.244)"/><path class="b" d="M38.877,39.026l-.527,2.327c-.854,3.8-2.052,4.587-6.9,4.587-4.357,0-5.829-.72-4.848-5.065l.653-2.943c.963-4.279,2.923-5.031,7.136-5.031,3.323,0,5.975-.154,4.939,3.971h-2.6c.436-1.883-.545-1.865-2.814-1.865-3.051,0-3.45.444-4.049,2.926l-.654,2.943c-.581,2.686-.2,2.96,2.705,2.96,2.487,0,3.268-.051,3.813-2.482l.091-.461H32.394l.436-1.866Z" transform="translate(11.392 14.244)"/><path class="b" d="M42.31,39.49c1.916,0,2.458-.364,2.892-2.277.4-1.843.127-2.174-1.735-2.174H39.852l-.976,4.451Zm-3.9,2.138-.958,4.312h-2.6L37.719,32.9h6.923c2.964.07,3.9.956,3.253,3.912-.433,1.93-.849,3.338-3.217,3.669l-.018.069c1.807.157,2.042,1.114,1.644,2.956l-.542,2.434h-2.6l.542-2.434c.235-1.1-.054-1.86-1.3-1.878Z" transform="translate(15.086 14.244)"/><path class="b" d="M51.843,34.812h-.034L48.2,41.576h4.43Zm-4.6,8.658L45.926,45.94H43.378L50.356,32.9h3.626l1.624,13.04h-2.5l-.325-2.469Z" transform="translate(18.781 14.244)"/><path class="b" d="M61.527,45.94H59.239L57.394,35H57.34L55.176,45.94H52.622l2.82-13.04h4.1l1.525,9.685h.071L66.778,32.9h4.186l-2.82,13.04H65.589l2.59-10.989H68.09Z" transform="translate(22.783 14.244)"/><path class="b" d="M73.176,34.812h-.034l-3.609,6.763h4.43Zm-4.6,8.658L67.259,45.94H64.711L71.689,32.9h3.626l1.624,13.04h-2.5l-.325-2.469Z" transform="translate(28.017 14.244)"/><path class="b" d="M90.93,32.9h2.577L90.662,45.94H86.384l-3.329-10.9h-.09L80.8,45.94H78.222L81.069,32.9h4.259l3.365,10.9h.072Z" transform="translate(33.867 14.244)"/><path class="b" d="M96.643,34.812h-.034L93,41.576h4.43Zm-4.6,8.658L90.726,45.94H88.178L95.156,32.9h3.626l1.624,13.04h-2.5l-.325-2.469Z" transform="translate(38.177 14.244)"/><path class="b" d="M106.839,37.294l.159-.7c.317-1.487-.247-1.589-2.465-1.589-2.554,0-3.1.41-3.645,2.924l-.616,2.837c-.546,2.564-.335,3.06,2.324,3.06,2.042,0,2.976-.068,3.363-1.9l.159-.7h2.535l-.175.838c-.793,3.863-3.047,3.727-6.34,3.863-4.683.171-5.194-1.317-4.42-5.06l.635-2.94c.9-4.1,2.746-5.027,6.638-5.027,3.293,0,5.16.017,4.543,3.693l-.159.7Z" transform="translate(42.179 14.244)"/><path class="b" d="M108.377,45.94h-2.422L108.63,32.9h2.421Z" transform="translate(45.874 14.244)"/><path class="b" d="M113,37.589l-.725,3.457c-.552,2.549-.1,2.789,2.381,2.789,2.26,0,3.105-.309,3.64-2.789l.725-3.457c.569-2.412-.259-2.584-2.467-2.584-2.675,0-3.054.548-3.554,2.584m8.505,0-.724,3.457c-.88,4.106-2.657,4.894-6.574,4.894-4,0-5.331-.685-4.416-4.894l.724-3.457C111.374,33.6,112.893,32.9,117,32.9c3.727,0,5.4.566,4.5,4.689" transform="translate(47.413 14.244)"/><path class="b" d="M130.752,32.9h2.577l-2.846,13.04h-4.278l-3.329-10.9h-.09l-2.165,10.9h-2.578l2.846-13.04h4.259l3.365,10.9h.072Z" transform="translate(51.108 14.244)"/><path class="b" d="M136.465,34.812h-.034l-3.609,6.763h4.43Zm-4.6,8.658-1.316,2.469H128l6.978-13.04H138.6l1.624,13.04h-2.5l-.325-2.469Z" transform="translate(55.418 14.244)"/><path class="b" d="M140.243,43.8h6.173l-.459,2.138h-8.712l2.8-13.04h2.54Z" transform="translate(59.421 14.244)"/><path class="b" d="M155.688,43.8c1.679,0,2.528-1.513,2.823-2.974l.658-3.077c.468-2.174-.139-2.713-2.044-2.713h-3.706L151.566,43.8Zm-4.312-10.9h6.2c3.585,0,4.831,1.3,4.087,4.851L161,40.828c-.572,2.712-1.836,5.112-5.767,5.112h-6.615Z" transform="translate(64.347 14.244)"/><path class="b" d="M162.191,38.29h6.377l-.472,2.051h-6.378l-.762,3.46h6.777l-.473,2.138h-9.393l2.889-13.04h9.338l-.473,2.138H162.9Z" transform="translate(68.349 14.244)"/><path class="b" d="M172.377,45.94h-2.422L172.63,32.9h2.421Z" transform="translate(73.583 14.244)"/><path class="b" d="M182.416,45.94h-2.289L178.283,35h-.053L176.066,45.94h-2.555l2.82-13.04h4.1l1.525,9.685h.072l5.641-9.685h4.186l-2.82,13.04h-2.554l2.59-10.989h-.089Z" transform="translate(75.122 14.244)"/><path class="b" d="M192.582,39.576c1.754-.035,2.162-.364,2.554-2.19.375-1.843.221-2.365-1.617-2.348h-3.2l-.936,4.538ZM188.308,32.9h5.653c3.423,0,4.377.834,3.628,4.486-.766,3.686-2.112,4.329-5.45,4.329h-3.2l-.886,4.225H185.6Z" transform="translate(80.356 14.244)"/><path class="b" d="M197.132,43.8H203.3l-.459,2.138h-8.712l2.8-13.04h2.54Z" transform="translate(84.051 14.244)"/><path class="b" d="M209,34.812h-.034l-3.608,6.763h4.429Zm-4.6,8.658-1.316,2.469h-2.549l6.977-13.04h3.626l1.625,13.04h-2.5l-.325-2.469Z" transform="translate(86.822 14.244)"/><path class="b" d="M222.485,32.9h2.578l-2.846,13.04h-4.278l-3.328-10.9h-.089l-2.166,10.9h-2.577l2.846-13.04h4.26l3.365,10.9h.072Z" transform="translate(90.824 14.244)"/><path class="b" d="M225.4,45.94h-2.647l2.444-10.9h-4.043l.478-2.138h10.731l-.478,2.138h-4.042Z" transform="translate(95.75 14.244)"/><path class="b" d="M231.169,38.29h6.377l-.472,2.051H230.7l-.762,3.46h6.777l-.473,2.138h-9.393l2.889-13.04h9.338l-.473,2.138h-6.722Z" transform="translate(98.213 14.244)"/><path class="b" d="M238.243,41.747l-.144.6c-.322,1.472.322,1.575,2.7,1.575,2.345,0,2.755-.411,3.077-1.9.412-1.831-.661-1.592-2.648-1.694-2.845-.172-5.171-.068-4.33-3.8.77-3.524,3.131-3.628,6.352-3.628,2.738,0,4.957.086,4.205,3.457l-.089.411h-2.577l.089-.411c.3-1.386-.268-1.438-2.076-1.438-2.559,0-3.023.24-3.328,1.608-.358,1.575-.036,1.627,2.559,1.781,4.079.239,5.153.445,4.42,3.712-.787,3.611-2.649,3.919-6.1,3.919-2.97,0-5.636.085-4.831-3.594l.142-.6Z" transform="translate(101.908 14.244)"/><path class="b" d="M254.532,43.8c1.679,0,2.528-1.513,2.823-2.974l.658-3.077c.468-2.174-.139-2.713-2.044-2.713h-3.706L250.411,43.8ZM250.22,32.9h6.2c3.585,0,4.831,1.3,4.087,4.851l-.658,3.077c-.572,2.712-1.836,5.112-5.767,5.112h-6.615Z" transform="translate(107.142 14.244)"/><path class="b" d="M261.035,38.29h6.377l-.472,2.051h-6.378L259.8,43.8h6.777L266.1,45.94h-9.393L259.6,32.9h9.338l-.473,2.138h-6.722Z" transform="translate(111.144 14.244)"/><path class="b" d="M277.24,32.9h2.578l-2.846,13.04h-4.278l-3.328-10.9h-.09l-2.166,10.9h-2.577l2.846-13.04h4.26L275,43.8h.072Z" transform="translate(114.531 14.244)"/><path class="b" d="M280.156,45.94h-2.647l2.444-10.9h-4.043l.478-2.138H287.12l-.478,2.138H282.6Z" transform="translate(119.457 14.244)"/><path class="b" d="M292.45,31.546l-3.626,1.514-.274-.916,3.438-2.044Zm-3.1,4.333h-.034l-3.609,6.853h4.43Zm-4.6,8.772-1.316,2.5h-2.549l6.978-13.211h3.626l1.624,13.211h-2.5l-.325-2.5Z" transform="translate(121.612 13.032)"/><path class="b" d="M297.6,39.49c1.916,0,2.459-.364,2.893-2.277.4-1.843.127-2.174-1.736-2.174h-3.615l-.976,4.451Zm-3.9,2.138-.958,4.312h-2.6l2.874-13.04h6.924c2.964.07,3.9.956,3.253,3.912-.433,1.93-.849,3.338-3.217,3.669l-.019.069c1.808.157,2.043,1.114,1.645,2.956l-.542,2.434h-2.6l.542-2.434c.234-1.1-.054-1.86-1.3-1.878Z" transform="translate(125.614 14.244)"/><path class="b" d="M301.8,45.94h-2.422l2.674-13.04h2.421Z" transform="translate(129.617 14.244)"/><path class="b" d="M306.418,37.589l-.725,3.457c-.552,2.549-.1,2.789,2.381,2.789,2.261,0,3.106-.309,3.641-2.789l.724-3.457c.569-2.412-.258-2.584-2.467-2.584-2.674,0-3.054.548-3.554,2.584m8.505,0-.724,3.457c-.88,4.106-2.658,4.894-6.574,4.894-4,0-5.331-.685-4.416-4.894l.724-3.457c.863-3.986,2.381-4.689,6.488-4.689,3.727,0,5.4.566,4.5,4.689" transform="translate(131.156 14.244)"/><path class="b" d="M314.332,41.747l-.144.6c-.322,1.472.322,1.575,2.7,1.575,2.345,0,2.755-.411,3.078-1.9.412-1.831-.661-1.592-2.648-1.694-2.845-.172-5.171-.068-4.33-3.8.77-3.524,3.131-3.628,6.352-3.628,2.737,0,4.957.086,4.205,3.457l-.089.411h-2.577l.09-.411c.3-1.386-.268-1.438-2.076-1.438-2.559,0-3.023.24-3.328,1.608-.358,1.575-.036,1.627,2.559,1.781,4.079.239,5.153.445,4.42,3.712-.788,3.611-2.649,3.919-6.1,3.919-2.97,0-5.636.085-4.831-3.594l.142-.6Z" transform="translate(134.851 14.244)"/></g></svg>