<svg xmlns="http://www.w3.org/2000/svg" width="43.53" height="43.53" viewBox="0 0 43.53 43.53"><defs><style>.a{fill:#3e3e3e;}</style></defs><g transform="translate(-624 -51)"><g transform="translate(-808 18)"><g transform="translate(1432 33)"><path class="a" d="M32.051,0H11.475A11.355,11.355,0,0,0,0,11.478V32.054A11.354,11.354,0,0,0,11.475,43.53H32.051A11.356,11.356,0,0,0,43.53,32.052V11.478A11.357,11.357,0,0,0,32.051,0Zm8.671,32.052a8.479,8.479,0,0,1-8.671,8.668H11.475a8.476,8.476,0,0,1-8.667-8.668V11.478a8.477,8.477,0,0,1,8.667-8.669H32.051a8.479,8.479,0,0,1,8.671,8.669Z"/></g><g transform="translate(1440.22 42.839)"><path class="a" d="M145.022,101.472c-9.476,0-14.254,6.576-14.254,12.058,0,3.321,1.3,6.273,4.082,7.376a.945.945,0,0,0,.341.07.668.668,0,0,0,.659-.554c.094-.338.31-1.191.409-1.55a.915.915,0,0,0-.286-1.073,5.454,5.454,0,0,1-1.319-3.783c0-4.88,3.776-9.245,9.823-9.245,5.356,0,8.3,3.167,8.3,7.4,0,5.565-2.545,10.263-6.322,10.263a3.016,3.016,0,0,1-3.148-3.719c.6-2.446,1.763-5.084,1.763-6.847a2.618,2.618,0,0,0-2.692-2.9c-2.136,0-3.849,2.134-3.849,5a7.238,7.238,0,0,0,.637,3.055s-2.18,8.95-2.563,10.518a20.934,20.934,0,0,0-.061,7.333.248.248,0,0,0,.257.213.27.27,0,0,0,.216-.1,20.364,20.364,0,0,0,3.6-6.317c.248-.859,1.4-5.3,1.4-5.3a5.775,5.775,0,0,0,4.875,2.4c6.41,0,10.761-5.653,10.761-13.225C157.652,106.806,152.641,101.472,145.022,101.472Z" transform="translate(-130.768 -101.472)"/></g></g></g></svg>