<svg xmlns="http://www.w3.org/2000/svg" width="43.53" height="43.53" viewBox="0 0 43.53 43.53"><defs><style>.a{fill:#3e3e3e;}</style></defs><g transform="translate(-1506.5 -33.5)"><path class="a" d="M32.034,0H11.5A11.374,11.374,0,0,0,0,11.5V32.034a11.374,11.374,0,0,0,11.5,11.5H32.034a11.374,11.374,0,0,0,11.5-11.5V11.5A11.374,11.374,0,0,0,32.034,0Zm8.688,32.034a8.6,8.6,0,0,1-8.688,8.688H11.5a8.6,8.6,0,0,1-8.688-8.688V11.5A8.6,8.6,0,0,1,11.5,2.808H32.034A8.6,8.6,0,0,1,40.722,11.5Z" transform="translate(1506.5 33.5)"/><path class="a" d="M114.605,116.061a1.457,1.457,0,0,0-1.589-.08,8.419,8.419,0,0,1-2.481.55c-.183.025-.363.048-.538.072a6.994,6.994,0,0,0-4.444-1.6,6.866,6.866,0,0,0-6.892,6.388,14.154,14.154,0,0,1-8.532-4.885,1.455,1.455,0,0,0-2.451.34c-.093.211-.9,2.2-.9,7.116,0,4.258,3.372,7.387,5.685,9.033a9.959,9.959,0,0,1-5.137.789,1.448,1.448,0,0,0-.938,2.664,17.128,17.128,0,0,0,9.131,2.625,16.634,16.634,0,0,0,16.949-16.192c.3-.433.87-1.276,1.835-2.754a9.868,9.868,0,0,0,.869-2.589A1.444,1.444,0,0,0,114.605,116.061Zm-4.762,5.511a1.448,1.448,0,0,0-.276.848,13.8,13.8,0,0,1-14.051,13.764,14.367,14.367,0,0,1-2.6-.236,12.474,12.474,0,0,0,3.2-1.784,1.445,1.445,0,0,0-.231-2.438c-.062-.032-6.2-3.25-6.2-7.756a30.692,30.692,0,0,1,.189-3.6,17.137,17.137,0,0,0,10.3,4.1c.029,0,.06,0,.087,0a1.448,1.448,0,0,0,1.467-1.448,1.43,1.43,0,0,0-.115-.563,3.9,3.9,0,0,1,3.943-4.554,4.055,4.055,0,0,1,2.923,1.238,1.46,1.46,0,0,0,1.328.423c.33-.062.71-.112,1.11-.164l.433-.058C110.256,121,109.862,121.545,109.843,121.571Z" transform="translate(1427.915 -71.945)"/></g></svg>